<svg width="16" height="16" viewBox="0 0 16 16" fill="none" xmlns="http://www.w3.org/2000/svg">
<path d="M5.0625 12.0002L8 9.06274L10.9375 12.0002L12 10.9377L9.0625 8.00024L12 5.06274L10.9375 4.00024L8 6.93774L5.0625 4.00024L4 5.06274L6.9375 8.00024L4 10.9377L5.0625 12.0002ZM8 16.0002C6.90278 16.0002 5.86806 15.7919 4.89583 15.3752C3.92361 14.9586 3.07292 14.3857 2.34375 13.6565C1.61458 12.9273 1.04167 12.0766 0.625 11.1044C0.208333 10.1322 0 9.09747 0 8.00024C0 6.88913 0.208333 5.85094 0.625 4.88566C1.04167 3.92038 1.61458 3.07316 2.34375 2.34399C3.07292 1.61483 3.92361 1.04191 4.89583 0.625244C5.86806 0.208577 6.90278 0.000244141 8 0.000244141C9.11111 0.000244141 10.1493 0.208577 11.1146 0.625244C12.0799 1.04191 12.9271 1.61483 13.6562 2.34399C14.3854 3.07316 14.9583 3.92038 15.375 4.88566C15.7917 5.85094 16 6.88913 16 8.00024C16 9.09747 15.7917 10.1322 15.375 11.1044C14.9583 12.0766 14.3854 12.9273 13.6562 13.6565C12.9271 14.3857 12.0799 14.9586 11.1146 15.3752C10.1493 15.7919 9.11111 16.0002 8 16.0002Z" fill="#999999"/>
</svg>
