<svg width="32" height="32" viewBox="0 0 32 32" fill="none" xmlns="http://www.w3.org/2000/svg">
<path d="M16 26V22.925L21.525 17.425C21.675 17.275 21.8417 17.1667 22.025 17.1C22.2083 17.0333 22.3917 17 22.575 17C22.775 17 22.9667 17.0375 23.15 17.1125C23.3333 17.1875 23.5 17.3 23.65 17.45L24.575 18.375C24.7083 18.525 24.8125 18.6917 24.8875 18.875C24.9625 19.0583 25 19.2417 25 19.425C25 19.6083 24.9667 19.7958 24.9 19.9875C24.8333 20.1792 24.725 20.35 24.575 20.5L19.075 26H16ZM17.5 24.5H18.45L21.475 21.45L21.025 20.975L20.55 20.525L17.5 23.55V24.5ZM8 26C7.45 26 6.97917 25.8042 6.5875 25.4125C6.19583 25.0208 6 24.55 6 24V8C6 7.45 6.19583 6.97917 6.5875 6.5875C6.97917 6.19583 7.45 6 8 6H16L22 12V15H20V13H15V8H8V24H14V26H8ZM21.025 20.975L20.55 20.525L21.475 21.45L21.025 20.975Z" fill="#101010"/>
</svg>
