<svg width="32" height="32" viewBox="0 0 32 32" fill="none" xmlns="http://www.w3.org/2000/svg">
<path d="M19 18C18.1667 18 17.4583 17.7083 16.875 17.125C16.2917 16.5417 16 15.8333 16 15C16 14.1667 16.2917 13.4583 16.875 12.875C17.4583 12.2917 18.1667 12 19 12C19.8333 12 20.5417 12.2917 21.125 12.875C21.7083 13.4583 22 14.1667 22 15C22 15.8333 21.7083 16.5417 21.125 17.125C20.5417 17.7083 19.8333 18 19 18ZM13 24V22.1C13 21.75 13.0833 21.4167 13.25 21.1C13.4167 20.7833 13.65 20.5333 13.95 20.35C14.7 19.9 15.4958 19.5625 16.3375 19.3375C17.1792 19.1125 18.0667 19 19 19C19.9333 19 20.8208 19.1125 21.6625 19.3375C22.5042 19.5625 23.3 19.9 24.05 20.35C24.35 20.5333 24.5833 20.7833 24.75 21.1C24.9167 21.4167 25 21.75 25 22.1V24H13ZM15.15 22H22.85C22.2667 21.6667 21.65 21.4167 21 21.25C20.35 21.0833 19.6833 21 19 21C18.3167 21 17.65 21.0833 17 21.25C16.35 21.4167 15.7333 21.6667 15.15 22ZM19 16C19.2833 16 19.5208 15.9042 19.7125 15.7125C19.9042 15.5208 20 15.2833 20 15C20 14.7167 19.9042 14.4792 19.7125 14.2875C19.5208 14.0958 19.2833 14 19 14C18.7167 14 18.4792 14.0958 18.2875 14.2875C18.0958 14.4792 18 14.7167 18 15C18 15.2833 18.0958 15.5208 18.2875 15.7125C18.4792 15.9042 18.7167 16 19 16ZM6 18V16H14V18H6ZM6 10V8H18V10H6ZM14.1 14H6V12H15C14.7667 12.2833 14.5792 12.5917 14.4375 12.925C14.2958 13.2583 14.1833 13.6167 14.1 14Z" fill="#FFFFFF"/>
</svg>
