<svg width="32" height="32" viewBox="0 0 32 32" fill="none" xmlns="http://www.w3.org/2000/svg">
<path d="M10 21H15V19H10V21ZM20 21H22V19H20V21ZM10 17H15V15H10V17ZM20 17H22V11H20V17ZM10 13H15V11H10V13ZM8 25C7.45 25 6.97917 24.8042 6.5875 24.4125C6.19583 24.0208 6 23.55 6 23V9C6 8.45 6.19583 7.97917 6.5875 7.5875C6.97917 7.19583 7.45 7 8 7H24C24.55 7 25.0208 7.19583 25.4125 7.5875C25.8042 7.97917 26 8.45 26 9V23C26 23.55 25.8042 24.0208 25.4125 24.4125C25.0208 24.8042 24.55 25 24 25H8ZM8 23H24V9H8V23Z" fill="black"/>
</svg>
