<svg width="256" height="60" viewBox="0 0 256 60" fill="none" xmlns="http://www.w3.org/2000/svg">
<g id="logo" clip-path="url(#clip0_47_1542)">
<path id="Vector" d="M77.49 9.91498V7.59498H71.94C70.29 11.665 66.54 14.415 60.6 15.965L59.07 12.985C65.25 11.465 68.07 8.71498 68.55 5.30498H60.54V2.26498H72.9C72.9 3.06498 72.84 3.81498 72.75 4.55498H77.49V0.544983H81.48V15.325H77.49V12.945H71.67V9.90498H77.49V9.91498ZM81.66 20.945C81.66 24.155 78 26.215 72.54 26.215C67.08 26.215 63.39 24.155 63.39 20.945C63.39 17.735 67.02 15.675 72.54 15.675C78.06 15.675 81.66 17.685 81.66 20.945ZM67.35 20.945C67.35 22.495 69.27 23.265 72.54 23.265C75.81 23.265 77.73 22.495 77.73 20.945C77.73 19.395 75.81 18.595 72.54 18.595C69.27 18.595 67.35 19.365 67.35 20.945ZM90.18 1.74498V10.655C93.36 10.595 96.78 10.345 100.35 9.68498L100.8 12.725C96.42 13.585 92.25 13.845 88.46 13.845H86.18V1.74498H90.17H90.18ZM106.39 16.215V26.045H88.77V16.215H106.39ZM92.7 19.195V23.065H102.51V19.195H92.7ZM106.39 0.544983V5.93498H109.96V9.02498H106.39V15.075H102.4V0.544983H106.39ZM61.03 36.115H73.98V38.945H64.72V49.585L75.2 49.385V52.225L61.03 52.515V36.115ZM78.24 33.745H81.93V59.455H78.24V33.745ZM90.95 45.115C92.17 43.665 92.26 43.295 92.26 41.995V38.925H86.96V36.095H101.19V38.925H95.89V41.995C95.89 43.295 95.98 43.675 97.2 45.115L102.17 50.755L99.55 52.835L94.58 47.135C94.4 46.935 94.25 46.725 94.09 46.525L93.57 47.135L88.61 52.835L85.99 50.755L90.96 45.115H90.95ZM108.32 33.745V59.395H104.63V33.745H108.32ZM113.16 34.905H125.83V37.735H116.81V39.445H125.4V42.195H116.81V44.245L126.59 44.045V46.905L113.15 47.195V34.905H113.16ZM117.67 48.435H134.7V55.145H121.36V56.795H135.37V59.425H117.73V52.655H131.07V51.125H117.67V48.435ZM131.02 39.295V33.745H134.71V47.455H131.02V42.045H126.6V39.295H131.02ZM138.57 36.665H144.36V33.745H147.89V36.665H153.68V39.495H151.58C152.37 40.445 152.86 41.635 152.86 42.935C152.86 46.525 150.06 49.065 146.1 49.065C142.14 49.065 139.43 46.515 139.4 42.935C139.4 41.635 139.92 40.445 140.68 39.495H138.58V36.665H138.57ZM146.1 46.295C148.05 46.295 149.36 44.965 149.36 42.935C149.36 40.905 148.05 39.525 146.1 39.525C144.15 39.525 142.9 40.885 142.9 42.935C142.9 44.985 144.18 46.295 146.1 46.295ZM143.39 51.415H160.97V59.425H157.28V54.165H143.39V51.415ZM160.97 33.745V50.205H157.28V47.375H153.65V44.595H157.28V42.395H153.71V39.645H157.28V33.745H160.97ZM169.16 41.905C170.23 40.945 170.32 40.605 170.32 39.705V35.045H173.91V39.705C173.91 40.605 173.97 40.915 175.07 41.905L180.07 46.305L177.75 48.675L172.75 44.275C172.51 44.075 172.29 43.845 172.11 43.635C171.93 43.835 171.71 44.065 171.47 44.275L166.47 48.675L164.15 46.305L169.15 41.905H169.16ZM168.89 50.985H172.55V56.655H186.69V59.435H168.9V50.985H168.89ZM182.81 33.775H186.5V52.285H182.81V33.775ZM208.65 44.855H202.25C199.94 48.905 195.49 51.475 191.13 52.515L190.31 49.335C195.7 48.065 200.24 44.595 200.36 38.925H191.1V36.095H203.83V38.925C203.8 40.055 203.65 41.095 203.37 42.075H208.64V33.745H212.3V59.425H208.64V44.845L208.65 44.855ZM220.69 41.615C221.76 40.835 221.79 40.545 221.79 39.705V37.795H216.31V34.965H230.48V37.795H225.3V39.705C225.3 40.575 225.33 40.805 226.39 41.615L231.57 45.525L229.44 48.065L224.26 44.165C223.99 43.965 223.74 43.755 223.56 43.555C223.35 43.755 223.1 43.955 222.83 44.165L217.65 48.065L215.52 45.525L220.7 41.615H220.69ZM220.96 49.825H238.02V59.425H220.96V49.825ZM234.43 56.685V52.545H224.59V56.685H234.43ZM234.34 39.795V33.755H238.03V48.735H234.34V42.635H229.98V39.805H234.34V39.795ZM125.92 10.815C125.04 11.735 124 12.085 122.83 12.085C121.66 12.085 120.65 11.645 119.88 10.865C118.78 9.73498 118.81 8.34498 118.81 6.41498C118.81 4.48498 118.78 3.09498 119.88 1.96498C120.65 1.18498 121.6 0.744983 122.83 0.744983C125.36 0.744983 126.66 2.43498 126.95 4.31498H124.8C124.56 3.26498 123.93 2.68498 122.83 2.68498C122.25 2.68498 121.77 2.92498 121.46 3.28498C121.05 3.75498 120.94 4.27498 120.94 6.41498C120.94 8.55498 121.05 9.09498 121.46 9.56498C121.77 9.92498 122.24 10.145 122.83 10.145C123.48 10.145 124 9.90498 124.35 9.51498C124.71 9.10498 124.84 8.60498 124.84 8.02498V7.60498H122.83V5.78498H126.96V7.41498C126.96 9.02498 126.68 10.005 125.92 10.815ZM132.84 7.41498V11.995H130.72V7.41498L127.43 0.834983H129.75L131.79 5.33498L133.8 0.834983H136.12L132.83 7.41498H132.84ZM140.99 12.085C138.75 12.085 136.97 10.535 136.97 8.16498V0.834983H139.1V8.09498C139.1 9.37498 139.84 10.145 140.99 10.145C142.14 10.145 142.89 9.37498 142.89 8.09498V0.834983H145.01V8.16498C145.01 10.535 143.23 12.085 140.99 12.085ZM153.54 11.995L149.21 5.14498V11.995H147.07V0.834983H148.97L153.3 7.66498V0.834983H155.43V11.995H153.53H153.54ZM164.42 10.815C163.54 11.735 162.5 12.085 161.33 12.085C160.16 12.085 159.15 11.645 158.38 10.865C157.28 9.73498 157.31 8.34498 157.31 6.41498C157.31 4.48498 157.28 3.09498 158.38 1.96498C159.15 1.18498 160.1 0.744983 161.33 0.744983C163.86 0.744983 165.16 2.43498 165.45 4.31498H163.3C163.06 3.26498 162.43 2.68498 161.33 2.68498C160.75 2.68498 160.27 2.92498 159.96 3.28498C159.55 3.75498 159.44 4.27498 159.44 6.41498C159.44 8.55498 159.55 9.09498 159.96 9.56498C160.27 9.92498 160.74 10.145 161.33 10.145C161.98 10.145 162.5 9.90498 162.85 9.51498C163.2 9.10498 163.34 8.60498 163.34 8.02498V7.60498H161.33V5.78498H165.46V7.41498C165.46 9.02498 165.18 10.005 164.42 10.815ZM173.79 11.995L169.46 5.14498V11.995H167.32V0.834983H169.22L173.55 7.66498V0.834983H175.68V11.995H173.78H173.79ZM184.14 11.995L183.5 10.015H179.61L178.95 11.995H176.72L180.7 0.834983H182.37L186.36 11.995H184.13H184.14ZM181.59 4.12498L180.21 8.18498H182.93L181.59 4.12498ZM195.18 11.995V5.49498L193.09 9.72498H191.65L189.55 5.49498V11.995H187.41V0.834983H189.52L192.38 6.86498L195.22 0.834983H197.33V11.995H195.19H195.18ZM209.64 10.925C208.92 11.665 207.89 11.995 206.75 11.995H202.8V0.834983H206.75C207.89 0.834983 208.92 1.16498 209.64 1.89498C210.87 3.14498 210.75 4.68498 210.75 6.36498C210.75 8.04498 210.87 9.67498 209.64 10.925ZM208.15 3.46498C207.78 3.01498 207.29 2.77498 206.55 2.77498H204.94V10.045H206.55C207.29 10.045 207.78 9.80498 208.15 9.35498C208.55 8.85498 208.61 8.05498 208.61 6.36498C208.61 4.67498 208.55 3.96498 208.15 3.46498ZM212.61 11.995V0.834983H214.75V11.995H212.61ZM223.72 10.815C222.84 11.735 221.8 12.085 220.63 12.085C219.46 12.085 218.45 11.645 217.68 10.865C216.58 9.73498 216.61 8.34498 216.61 6.41498C216.61 4.48498 216.58 3.09498 217.68 1.96498C218.45 1.18498 219.4 0.744983 220.63 0.744983C223.16 0.744983 224.46 2.43498 224.75 4.31498H222.6C222.36 3.26498 221.72 2.68498 220.63 2.68498C220.05 2.68498 219.57 2.92498 219.26 3.28498C218.85 3.75498 218.74 4.27498 218.74 6.41498C218.74 8.55498 218.85 9.09498 219.26 9.56498C219.57 9.92498 220.04 10.145 220.63 10.145C221.28 10.145 221.8 9.90498 222.15 9.51498C222.5 9.10498 222.64 8.60498 222.64 8.02498V7.60498H220.63V5.78498H224.76V7.41498C224.76 9.02498 224.48 10.005 223.72 10.815ZM226.62 11.995V0.834983H228.76V11.995H226.62ZM235.17 2.77498V11.985H233.04V2.77498H230.18V0.834983H238.03V2.77498H235.17ZM244.75 11.995L244.11 10.015H240.22L239.56 11.995H237.33L241.31 0.834983H242.98L246.97 11.995H244.74H244.75ZM242.2 4.12498L240.82 8.18498H243.54L242.2 4.12498ZM248.01 11.995V0.834983H250.15V10.045H255.11V11.985H248.01V11.995ZM119.2 25.895V14.735H121.38V25.895H119.2ZM130.26 25.895L125.84 19.045V25.895H123.66V14.735H125.6L130.02 21.565V14.735H132.2V25.895H130.26ZM141.08 25.895L136.66 19.045V25.895H134.48V14.735H136.42L140.84 21.565V14.735H143.02V25.895H141.08ZM152.06 24.765C151.28 25.545 150.32 25.985 149.05 25.985C147.78 25.985 146.81 25.545 146.03 24.765C144.9 23.635 144.93 22.245 144.93 20.315C144.93 18.385 144.9 16.995 146.03 15.865C146.81 15.085 147.78 14.645 149.05 14.645C150.32 14.645 151.28 15.085 152.06 15.865C153.19 16.995 153.17 18.385 153.17 20.315C153.17 22.245 153.19 23.635 152.06 24.765ZM150.45 17.185C150.14 16.825 149.65 16.585 149.05 16.585C148.45 16.585 147.95 16.825 147.64 17.185C147.22 17.655 147.11 18.175 147.11 20.315C147.11 22.455 147.22 22.975 147.64 23.445C147.95 23.805 148.45 24.045 149.05 24.045C149.65 24.045 150.13 23.805 150.45 23.445C150.87 22.975 151 22.455 151 20.315C151 18.175 150.87 17.655 150.45 17.185ZM158.98 25.895H157.35L153.67 14.735H155.92L158.16 22.005L160.4 14.735H162.67L158.97 25.895H158.98ZM169.51 25.895L168.85 23.925H164.89L164.22 25.895H161.95L166.01 14.735H167.72L171.79 25.895H169.52H169.51ZM166.9 18.025L165.49 22.085H168.26L166.9 18.025ZM176.16 16.675V25.885H173.98V16.675H171.06V14.735H179.07V16.675H176.16ZM180.53 25.895V14.735H182.71V25.895H180.53ZM191.74 24.765C190.96 25.545 190 25.985 188.73 25.985C187.46 25.985 186.49 25.545 185.71 24.765C184.58 23.635 184.61 22.245 184.61 20.315C184.61 18.385 184.58 16.995 185.71 15.865C186.49 15.085 187.46 14.645 188.73 14.645C190 14.645 190.95 15.085 191.74 15.865C192.87 16.995 192.85 18.385 192.85 20.315C192.85 22.245 192.87 23.635 191.74 24.765ZM190.13 17.185C189.82 16.825 189.33 16.585 188.73 16.585C188.13 16.585 187.63 16.825 187.32 17.185C186.9 17.655 186.79 18.175 186.79 20.315C186.79 22.455 186.9 22.975 187.32 23.445C187.63 23.805 188.13 24.045 188.73 24.045C189.33 24.045 189.81 23.805 190.13 23.445C190.55 22.975 190.68 22.455 190.68 20.315C190.68 18.175 190.55 17.655 190.13 17.185ZM201.36 25.895L196.94 19.045V25.895H194.76V14.735H196.7L201.12 21.565V14.735H203.3V25.895H201.36ZM214.86 25.895V21.225H211.08V25.895H208.9V14.735H211.08V19.295H214.86V14.735H217.04V25.895H214.86ZM223.25 25.985C220.96 25.985 219.14 24.435 219.14 22.065V14.735H221.32V21.985C221.32 23.265 222.07 24.035 223.25 24.035C224.43 24.035 225.19 23.265 225.19 21.985V14.735H227.35V22.065C227.35 24.435 225.53 25.985 223.24 25.985H223.25ZM234.14 25.895H229.47V14.735H233.95C236.13 14.735 237.4 15.955 237.4 17.865C237.4 19.105 236.58 19.905 236.02 20.165C236.69 20.485 237.55 21.185 237.55 22.675C237.55 24.765 236.12 25.885 234.13 25.885L234.14 25.895ZM233.77 16.675H231.64V19.245H233.77C234.69 19.245 235.21 18.725 235.21 17.955C235.21 17.185 234.69 16.665 233.77 16.665V16.675ZM233.92 21.205H231.65V23.945H233.92C234.91 23.945 235.38 23.315 235.38 22.565C235.38 21.815 234.91 21.205 233.92 21.205Z" fill="url(#paint0_linear_47_1542)"/>
<path id="Vector_2" d="M17.85 18.695L12.77 21.635V24.925C13.43 25.115 13.92 25.715 13.92 26.435C13.92 27.155 13.43 27.765 12.77 27.945V45.295L26.11 52.895C26.4 52.575 26.81 52.375 27.27 52.375C28.14 52.375 28.85 53.085 28.85 53.955C28.85 54.115 28.82 54.265 28.77 54.415L31.48 55.965L36.54 53.005L17.84 42.345V18.685L17.85 18.695Z" fill="url(#paint1_linear_47_1542)"/>
<path id="Vector_3" d="M27.27 55.545C26.4 55.545 25.69 54.835 25.69 53.965C25.69 53.885 25.7 53.805 25.72 53.725L11.88 45.795V27.945C11.24 27.745 10.76 27.155 10.76 26.435C10.76 25.715 11.24 25.115 11.89 24.925V22.135L6.81001 25.075L6.79001 42.435C7.46001 42.615 7.96001 43.225 7.96001 43.955C7.96001 44.685 7.46001 45.295 6.79001 45.475V48.735L25.51 59.475L30.56 56.525L28.25 55.205C27.98 55.425 27.64 55.565 27.26 55.565L27.27 55.545Z" fill="url(#paint2_linear_47_1542)"/>
<path id="Vector_4" d="M33.01 23.775L32.99 35.325L20.14 42.725L25.26 45.645L29.59 43.145C29.52 42.975 29.48 42.775 29.48 42.575C29.48 41.705 30.19 40.995 31.06 40.995C31.56 40.995 32 41.225 32.29 41.585L38.06 38.255L38.1 20.835L35.82 19.515C35.54 19.765 35.18 19.925 34.77 19.925C33.9 19.925 33.19 19.215 33.19 18.345C33.19 18.235 33.2 18.125 33.22 18.015L20.31 10.415L6.33001 18.465C6.36001 18.595 6.38001 18.715 6.38001 18.855C6.38001 19.725 5.67001 20.435 4.80001 20.435C4.37001 20.435 3.98001 20.265 3.69001 19.985L0.890015 21.615V45.285L5.93001 48.215V45.445C5.28001 45.255 4.80001 44.655 4.80001 43.935C4.80001 43.215 5.28001 42.615 5.93001 42.425L5.95001 24.545L20.3 16.295L32.99 23.775H33.01Z" fill="url(#paint3_linear_47_1542)"/>
<path id="Vector_5" d="M3.23001 18.875C3.23001 18.005 3.94001 17.295 4.81001 17.295C5.22001 17.295 5.60001 17.455 5.88001 17.715L20.31 9.39499L33.64 17.245C33.93 16.955 34.32 16.765 34.77 16.765C35.64 16.765 36.35 17.475 36.35 18.345C36.35 18.495 36.32 18.635 36.28 18.775L38.1 19.825V13.955L26.03 6.82499C25.75 7.10499 25.36 7.27499 24.93 7.27499C24.06 7.27499 23.35 6.56499 23.35 5.69499C23.35 5.55499 23.37 5.42499 23.4 5.30499L20.32 3.52499L0.890015 14.725V20.595L3.27001 19.225C3.25001 19.115 3.23001 19.005 3.23001 18.885V18.875Z" fill="url(#paint4_linear_47_1542)"/>
<path id="Vector_6" d="M43.88 17.655V17.625C43.27 17.405 42.83 16.825 42.83 16.145C42.83 15.465 43.27 14.885 43.88 14.665V11.285L25.38 0.544983L21.12 3.00498L23.82 4.57498C24.1 4.30498 24.49 4.13498 24.91 4.13498C25.78 4.13498 26.49 4.84498 26.49 5.71498C26.49 5.84498 26.47 5.97498 26.44 6.09498L38.94 13.495V38.705L32.61 42.405C32.61 42.465 32.63 42.525 32.63 42.585C32.63 43.455 31.92 44.165 31.05 44.165C30.7 44.165 30.39 44.045 30.13 43.855L26.12 46.125L31.34 49.125L35.6 46.635C35.54 46.465 35.5 46.285 35.5 46.095C35.5 45.225 36.21 44.515 37.08 44.515C37.56 44.515 37.98 44.735 38.28 45.075L43.91 41.785L43.87 17.665L43.88 17.655Z" fill="url(#paint5_linear_47_1542)"/>
<path id="Vector_7" d="M44.74 11.795V14.605H44.75V14.635C45.4 14.835 45.87 15.425 45.87 16.135C45.87 16.845 45.39 17.445 44.75 17.645V17.675L44.78 42.355L38.65 45.935C38.65 45.935 38.66 46.035 38.66 46.075C38.66 46.945 37.95 47.655 37.08 47.655C36.74 47.655 36.44 47.545 36.18 47.375L32.29 49.655L37.35 52.575L49.86 45.255V14.725L44.74 11.795Z" fill="url(#paint6_linear_47_1542)"/>
</g>
<defs>
<linearGradient id="paint0_linear_47_1542" x1="59.06" y1="30.005" x2="255.11" y2="30.005" gradientUnits="userSpaceOnUse">
<stop stop-color="#F1D138"/>
<stop offset="0.47" stop-color="#E99A14"/>
<stop offset="0.98" stop-color="#DD5710"/>
</linearGradient>
<linearGradient id="paint1_linear_47_1542" x1="12.77" y1="37.325" x2="36.55" y2="37.325" gradientUnits="userSpaceOnUse">
<stop stop-color="#F1D138"/>
<stop offset="0.47" stop-color="#E99A14"/>
<stop offset="0.98" stop-color="#DD5710"/>
</linearGradient>
<linearGradient id="paint2_linear_47_1542" x1="6.80001" y1="40.795" x2="30.57" y2="40.795" gradientUnits="userSpaceOnUse">
<stop stop-color="#F1D138"/>
<stop offset="0.47" stop-color="#E99A14"/>
<stop offset="0.98" stop-color="#DD5710"/>
</linearGradient>
<linearGradient id="paint3_linear_47_1542" x1="0.890015" y1="29.325" x2="38.1" y2="29.325" gradientUnits="userSpaceOnUse">
<stop stop-color="#F1D138"/>
<stop offset="0.47" stop-color="#E99A14"/>
<stop offset="0.98" stop-color="#DD5710"/>
</linearGradient>
<linearGradient id="paint4_linear_47_1542" x1="0.890015" y1="12.065" x2="38.1" y2="12.065" gradientUnits="userSpaceOnUse">
<stop stop-color="#F1D138"/>
<stop offset="0.47" stop-color="#E99A14"/>
<stop offset="0.98" stop-color="#DD5710"/>
</linearGradient>
<linearGradient id="paint5_linear_47_1542" x1="21.13" y1="24.835" x2="43.91" y2="24.835" gradientUnits="userSpaceOnUse">
<stop stop-color="#F1D138"/>
<stop offset="0.47" stop-color="#E99A14"/>
<stop offset="0.98" stop-color="#DD5710"/>
</linearGradient>
<linearGradient id="paint6_linear_47_1542" x1="32.29" y1="32.185" x2="49.87" y2="32.185" gradientUnits="userSpaceOnUse">
<stop stop-color="#F1D138"/>
<stop offset="0.47" stop-color="#E99A14"/>
<stop offset="0.98" stop-color="#DD5710"/>
</linearGradient>
<clipPath id="clip0_47_1542">
<rect width="254.22" height="58.91" fill="white" transform="translate(0.890015 0.544983)"/>
</clipPath>
</defs>
</svg>
