<svg width="50" height="50" viewBox="0 0 50 50" fill="none" xmlns="http://www.w3.org/2000/svg">
<path d="M40.9354 39.7097H9.06445V13.3548C9.06445 9.29129 12.3557 6 16.4193 6H33.5806C37.6441 6 40.9354 9.29129 40.9354 13.3548V39.7097Z" stroke="#1D1D1D" stroke-width="2" stroke-miterlimit="10" stroke-linecap="round" stroke-linejoin="round"/>
<path d="M11.5166 26.8387V13.9677C11.5166 13.2936 12.0682 12.7419 12.7424 12.7419H37.2585C37.9327 12.7419 38.4843 13.2936 38.4843 13.9677V26.8387H11.5166Z" stroke="#1D1D1D" stroke-width="2" stroke-miterlimit="10" stroke-linecap="round" stroke-linejoin="round"/>
<path d="M17.6456 39.7097V42.7742C17.6456 43.4484 17.094 44 16.4198 44H12.7424C12.0682 44 11.5166 43.4484 11.5166 42.7742V39.7097" stroke="#1D1D1D" stroke-width="2" stroke-miterlimit="10" stroke-linecap="round" stroke-linejoin="round"/>
<path d="M38.4845 39.7097V42.7742C38.4845 43.4484 37.9329 44 37.2587 44H33.5813C32.9071 44 32.3555 43.4484 32.3555 42.7742V39.7097" stroke="#1D1D1D" stroke-width="2" stroke-miterlimit="10" stroke-linecap="round" stroke-linejoin="round"/>
<path d="M9.06452 21.9354H7.22581C6.55161 21.9354 6 21.3838 6 20.7096V17.0322C6 16.358 6.55161 15.8064 7.22581 15.8064H9.06452" stroke="#1D1D1D" stroke-width="2" stroke-miterlimit="10" stroke-linecap="round" stroke-linejoin="round"/>
<path d="M40.9355 15.8064H42.7743C43.4485 15.8064 44.0001 16.358 44.0001 17.0322V20.7096C44.0001 21.3838 43.4485 21.9354 42.7743 21.9354H40.9355" stroke="#1D1D1D" stroke-width="2" stroke-miterlimit="10" stroke-linecap="round" stroke-linejoin="round"/>
<path d="M9.67773 36.0322H40.3229" stroke="#1D1D1D" stroke-width="2" stroke-miterlimit="10" stroke-linecap="round" stroke-linejoin="round"/>
<path d="M18.8714 32.9678H11.5166V29.9033H16.4198C17.7743 29.9033 18.8714 31.0004 18.8714 32.3549V32.9678Z" stroke="#E60024" stroke-width="2" stroke-miterlimit="10" stroke-linecap="round" stroke-linejoin="round"/>
<path d="M31.1299 32.9678H38.4847V29.9033H33.5815C32.227 29.9033 31.1299 31.0004 31.1299 32.3549V32.9678Z" stroke="#E60024" stroke-width="2" stroke-miterlimit="10" stroke-linecap="round" stroke-linejoin="round"/>
<path d="M22.04 9.26685H27.9607" stroke="#1D1D1D" stroke-width="2" stroke-miterlimit="10" stroke-linecap="round" stroke-linejoin="round"/>
<path d="M25 12.9441V26.8386" stroke="#1D1D1D" stroke-width="2" stroke-miterlimit="10" stroke-linecap="round" stroke-linejoin="round"/>
<path d="M29.6582 26.4281L34.7698 19.0732" stroke="#1D1D1D" stroke-width="2" stroke-miterlimit="10" stroke-linecap="round" stroke-linejoin="round"/>
<path d="M16.1738 26.4281L21.2854 19.0732" stroke="#1D1D1D" stroke-width="2" stroke-miterlimit="10" stroke-linecap="round" stroke-linejoin="round"/>
</svg>
