<svg width="100" height="100" viewBox="0 0 100 100" fill="none" xmlns="http://www.w3.org/2000/svg">
<rect width="100" height="100" rx="50" fill="white"/>
<path d="M36.5579 26.6065L23.926 39.6445L28.6262 44.4958L41.258 31.4577L36.5579 26.6065Z" fill="white" stroke="#E60024" stroke-width="2" stroke-miterlimit="10" stroke-linejoin="round"/>
<path d="M58.6679 31.0244L71.2998 44.0625L75.9999 39.2112L63.3681 26.1732L58.6679 31.0244Z" fill="white" stroke="#E60024" stroke-width="2" stroke-miterlimit="10" stroke-linejoin="round"/>
<path d="M41.0754 31.6501L28.8797 44.2379C27.8129 45.3391 27.8129 47.1243 28.8797 48.2189L45.3805 65.2503L51.2322 71.2902C52.2801 72.3717 53.9845 72.5477 55.127 71.5703C56.44 70.4497 56.5095 68.4429 55.3353 67.231C56.4463 68.3778 58.2391 68.3778 59.3501 67.231C60.4611 66.0843 60.4611 64.2339 59.3501 63.0872C60.4611 64.2339 62.2538 64.2339 63.3648 63.0872C64.4758 61.9405 64.4758 60.0901 63.3648 58.9434C64.4758 60.0901 66.2686 60.0901 67.3796 58.9434C68.4906 57.7966 68.4906 55.9462 67.3796 54.7995L65.3722 52.7276L44.9324 31.6501C43.8719 30.5489 42.1422 30.5489 41.0754 31.6501Z" fill="white" stroke="#1D1D1D" stroke-width="2" stroke-miterlimit="10" stroke-linejoin="round"/>
<path d="M50.9731 65.0387C52.0841 66.1855 52.0841 68.0359 50.9731 69.1826L47.0404 73.2417C45.9294 74.3885 44.1366 74.3885 43.0256 73.2417C41.9146 72.095 41.9146 70.2446 43.0256 69.0979L46.9583 65.0387C48.063 63.8985 49.8621 63.8985 50.9731 65.0387Z" fill="white" stroke="#1D1D1D" stroke-width="2" stroke-miterlimit="10" stroke-linejoin="round"/>
<path d="M46.9584 60.8942C48.0694 62.0409 48.0694 63.8913 46.9584 65.0381L43.0257 69.0972C41.9147 70.2439 40.122 70.2439 39.011 69.0972C37.9 67.9505 37.9 66.1001 39.011 64.9534L42.9437 60.8942C44.0483 59.754 45.8474 59.754 46.9584 60.8942Z" fill="white" stroke="#1D1D1D" stroke-width="2" stroke-miterlimit="10" stroke-linejoin="round"/>
<path d="M42.9435 56.7536C44.0545 57.9003 44.0545 59.7507 42.9435 60.8974L39.0108 64.9566C37.8998 66.1033 36.1071 66.1033 34.9961 64.9566C33.8851 63.8098 33.8851 61.9595 34.9961 60.8127L38.9288 56.7536C40.0335 55.6134 41.8325 55.6134 42.9435 56.7536Z" fill="white" stroke="#1D1D1D" stroke-width="2" stroke-miterlimit="10" stroke-linejoin="round"/>
<path d="M38.9291 52.6091C40.0401 53.7558 40.0401 55.6062 38.9291 56.7529L34.9964 60.812C33.8854 61.9588 32.0927 61.9588 30.9817 60.812C29.8707 59.6653 29.8707 57.8149 30.9817 56.6682L34.9144 52.6091C36.0191 51.4689 37.8181 51.4689 38.9291 52.6091Z" fill="white" stroke="#1D1D1D" stroke-width="2" stroke-miterlimit="10" stroke-linejoin="round"/>
<path d="M55.3226 31.5524L52.078 34.9014L50.0833 36.9602L46.321 40.8435L46.2327 50.773C46.2327 52.4215 47.552 53.7506 49.1617 53.6985C50.7145 53.6529 51.9139 52.2521 51.9139 50.6492V47.4045C51.9139 45.0915 53.3027 43.1108 55.2595 42.2964L66.1359 53.5356L71.3753 48.1278C72.4421 47.0266 72.4421 45.2414 71.3753 44.1468L59.1796 31.5524C58.1128 30.4513 56.3831 30.4513 55.3226 31.5524Z" fill="white" stroke="#1D1D1D" stroke-width="2" stroke-miterlimit="10" stroke-linejoin="round"/>
<path d="M55.3353 67.2445L50.8787 62.6445" stroke="#1D1D1D" stroke-width="2" stroke-miterlimit="10" stroke-linejoin="round"/>
<path d="M59.3499 63.0999L54.8933 58.5" stroke="#1D1D1D" stroke-width="2" stroke-miterlimit="10" stroke-linejoin="round"/>
<path d="M63.3648 58.9554L58.9082 54.3555" stroke="#1D1D1D" stroke-width="2" stroke-miterlimit="10" stroke-linejoin="round"/>
</svg>
