<svg width="50" height="50" viewBox="0 0 50 50" fill="none" xmlns="http://www.w3.org/2000/svg">
<path d="M17.3956 30.8225C17.3956 31.8951 16.5252 32.7654 15.4527 32.7654C14.3801 32.7654 13.5098 31.8951 13.5098 30.8225C13.5098 29.75 14.3801 28.8796 15.4527 28.8796C16.5314 28.8796 17.3956 29.75 17.3956 30.8225Z" stroke="#E60024" stroke-width="2" stroke-miterlimit="10" stroke-linecap="round" stroke-linejoin="round"/>
<path d="M35.9913 30.8225C35.9913 31.8951 35.121 32.7654 34.0484 32.7654C32.9758 32.7654 32.1055 31.8951 32.1055 30.8225C32.1055 29.75 32.9758 28.8796 34.0484 28.8796C35.121 28.8796 35.9913 29.75 35.9913 30.8225Z" stroke="#E60024" stroke-width="2" stroke-miterlimit="10" stroke-linecap="round" stroke-linejoin="round"/>
<path d="M35.7829 36.78H13.7184C11.6897 36.78 10.041 35.1313 10.041 33.1026V13.4897C10.041 11.461 11.6897 9.81226 13.7184 9.81226H35.7829C37.8117 9.81226 39.4604 11.461 39.4604 13.4897V33.1026C39.4604 35.1374 37.8178 36.78 35.7829 36.78Z" stroke="#1D1D1D" stroke-width="2" stroke-miterlimit="10" stroke-linecap="round" stroke-linejoin="round"/>
<path d="M12.4922 25.7478V14.7156C12.4922 14.0414 13.0438 13.4897 13.718 13.4897H35.7825C36.4567 13.4897 37.0083 14.0414 37.0083 14.7156V25.7478H12.4922Z" stroke="#1D1D1D" stroke-width="2" stroke-miterlimit="10" stroke-linecap="round" stroke-linejoin="round"/>
<path d="M24.751 13.698V25.7477" stroke="#1D1D1D" stroke-width="2" stroke-miterlimit="10" stroke-linecap="round" stroke-linejoin="round"/>
<path d="M28.1895 25.3434L33.2949 17.9885" stroke="#1D1D1D" stroke-width="2" stroke-miterlimit="10" stroke-linecap="round" stroke-linejoin="round"/>
<path d="M15.9307 25.3434L21.0361 17.9885" stroke="#1D1D1D" stroke-width="2" stroke-miterlimit="10" stroke-linecap="round" stroke-linejoin="round"/>
<path d="M13.3139 36.78L8 44" stroke="#1D1D1D" stroke-width="2" stroke-miterlimit="10" stroke-linecap="round" stroke-linejoin="round"/>
<path d="M36.1934 36.78L41.5072 44" stroke="#1D1D1D" stroke-width="2" stroke-miterlimit="10" stroke-linecap="round" stroke-linejoin="round"/>
<path d="M10.6543 40.7332H38.4433" stroke="#1D1D1D" stroke-width="2" stroke-miterlimit="10" stroke-linecap="round" stroke-linejoin="round"/>
<path d="M18.0088 9.87968V8.45161C18.0088 7.0971 19.1059 6 20.4604 6H29.041C30.3956 6 31.4927 7.0971 31.4927 8.45161V9.87968" stroke="#1D1D1D" stroke-width="2" stroke-miterlimit="10" stroke-linecap="round" stroke-linejoin="round"/>
</svg>
