<svg width="50" height="50" viewBox="0 0 50 50" fill="none" xmlns="http://www.w3.org/2000/svg">
<g id="ic">
<g id="Group 34653">
<path id="Vector" d="M12.28 19.5612V20.5612H13.28H15.0787H16.0787V19.5612V15.4858H18.6518H19.276H19.6518H20.276H22.8491V19.5612V20.5612H23.8491H25.6478H26.6478V19.5612V10.4161L35.9275 7.07765V34.5623H3.00024V15.4858H12.28V19.5612ZM26.5179 10.4628L26.5183 10.4627L26.5179 10.4628Z" fill="white" stroke="#1D1D1D" stroke-width="2"/>
<path id="Vector_2" d="M46.5528 29.6044L44.6843 29.3087C44.4872 28.6557 44.2243 28.0274 43.904 27.4237L45.0169 25.896C45.2797 25.5346 45.2428 25.0336 44.9266 24.7133L42.3147 22.1055C41.9985 21.7852 41.4934 21.7442 41.132 22.0111L39.6043 23.124C39.0006 22.8037 38.3723 22.5409 37.7193 22.3437L37.4236 20.4752C37.3538 20.0317 36.9719 19.7031 36.5201 19.7031H32.8323C32.3806 19.7031 31.9987 20.0317 31.9289 20.4752L31.6373 22.3437C30.9802 22.5409 30.3519 22.8037 29.7482 23.124L28.2205 22.0111C27.8591 21.7442 27.3581 21.7852 27.0378 22.1055L24.43 24.7133C24.1097 25.0336 24.0727 25.5346 24.3356 25.896L25.4485 27.4237C25.1281 28.0274 24.8653 28.6557 24.6682 29.3087L22.7996 29.6044C22.3561 29.6742 22.0276 30.0561 22.0276 30.5079V34.1957C22.0276 34.6474 22.3561 35.0293 22.7996 35.0992L24.6682 35.3948C24.8653 36.0478 25.1281 36.6761 25.4485 37.2798L24.3356 38.8075C24.0727 39.173 24.1097 39.674 24.43 39.9902L27.0378 42.598C27.3581 42.9183 27.8591 42.9594 28.2205 42.6925L29.7482 41.5795C30.3478 41.8999 30.9802 42.1627 31.6332 42.3598L31.9289 44.2284C31.9987 44.6719 32.3806 45.0004 32.8323 45.0004H36.5201C36.9719 45.0004 37.3538 44.6719 37.4236 44.2284L37.7193 42.3598C38.3723 42.1627 39.0047 41.8999 39.6043 41.5795L41.132 42.6925C41.4934 42.9594 41.9985 42.9183 42.3147 42.598L44.9225 39.9902C45.2428 39.674 45.2797 39.173 45.0169 38.8075L43.904 37.2798C44.2243 36.6761 44.4872 36.0478 44.6843 35.3948L46.5528 35.0992C46.9964 35.0293 47.3249 34.6474 47.3249 34.1957V30.5079C47.3249 30.0561 46.9964 29.6742 46.5528 29.6044ZM39.3784 32.3518C39.3784 34.9431 37.2676 37.054 34.6762 37.054C32.0849 37.054 29.9741 34.9431 29.9741 32.3518C29.9741 29.7604 32.0849 27.6496 34.6762 27.6496C37.2676 27.6496 39.3784 29.7604 39.3784 32.3518Z" fill="#E60024"/>
<circle id="Ellipse 485" cx="34.6761" cy="32.3517" r="6.32432" fill="white"/>
</g>
</g>
</svg>
