<svg width="50" height="50" viewBox="0 0 50 50" fill="none" xmlns="http://www.w3.org/2000/svg">
<g id="ic">
<g id="Group 34648">
<g id="&#236;&#134;&#144;">
<g id="Vector">
<path d="M9.00024 38.9173L13.7985 34.0486C14.709 33.1247 15.9437 32.6059 17.2315 32.6059H20.8823C21.9202 32.6059 22.9161 33.0241 23.65 33.7695C24.2758 34.4045 25.1249 34.7613 26.0104 34.7613H29.9386C30.7418 34.7613 31.4329 35.2481 31.7401 35.947L31.7611 35.9961L38.6892 30.1135C39.49 29.4335 40.6706 29.4867 41.4093 30.2362C42.1972 31.0357 42.1972 32.331 41.4093 33.1304L31.2829 43.4056C30.7136 43.9833 29.9418 44.3073 29.137 44.3073H18.7065C18.2235 44.3073 17.7606 44.5021 17.4194 44.8482L16.284 46.0003" fill="white"/>
<path d="M9.00024 38.9173L13.7985 34.0486C14.709 33.1247 15.9437 32.6059 17.2315 32.6059H20.8823C21.9202 32.6059 22.9161 33.0241 23.65 33.7695C24.2758 34.4045 25.1249 34.7613 26.0104 34.7613H29.9386C30.7418 34.7613 31.4329 35.2481 31.7401 35.947L31.7611 35.9961L38.6892 30.1135C39.49 29.4335 40.6706 29.4867 41.4093 30.2362C42.1972 31.0357 42.1972 32.331 41.4093 33.1304L31.2829 43.4056C30.7136 43.9833 29.9418 44.3073 29.137 44.3073H18.7065C18.2235 44.3073 17.7606 44.5021 17.4194 44.8482L16.284 46.0003" stroke="#1D1D1D" stroke-width="2" stroke-linecap="round" stroke-linejoin="round"/>
</g>
<path id="Vector_2" d="M31.7975 36.0938C31.8701 36.3024 31.9096 36.5274 31.9096 36.7615C31.9096 37.867 31.0265 38.763 29.937 38.763H21.592" stroke="#1D1D1D" stroke-width="2" stroke-linecap="round" stroke-linejoin="round"/>
</g>
<g id="Group 34646">
<path id="Vector_3" d="M37.4875 6H14.3696V22.9265H37.4875V6Z" fill="white" stroke="#E60024" stroke-width="2" stroke-linecap="round" stroke-linejoin="round"/>
<path id="Vector_4" d="M10.5159 22.9258H41.3397V23.5769C41.3397 24.9118 40.6247 25.9993 39.7471 25.9993H12.1084C11.2308 25.9993 10.5159 24.9118 10.5159 23.5769V22.9258Z" stroke="#E60024" stroke-width="2" stroke-linecap="round" stroke-linejoin="round"/>
<path id="Vector_5" d="M30.8186 13.3369L29.7741 12.9564C29.7052 12.7377 29.62 12.5245 29.5162 12.3203L29.9948 11.2971C30.0341 11.2134 30.0177 11.1141 29.9532 11.0482L29.0409 10.1131C28.9764 10.0473 28.8781 10.0305 28.7961 10.0696L27.7931 10.555C27.5931 10.449 27.3844 10.3608 27.1714 10.2905L26.801 9.22263C26.7704 9.13448 26.6895 9.07645 26.5988 9.07645L25.3062 9.07422H25.3051C25.2144 9.07422 25.1336 9.13224 25.103 9.2204L24.7304 10.2872C24.5173 10.3564 24.3086 10.4445 24.1076 10.5494L23.1056 10.0618C23.0237 10.0216 22.9264 10.0383 22.8609 10.1042L21.9452 11.0371C21.8819 11.1018 21.8644 11.2022 21.9037 11.2859L22.3779 12.3103C22.2752 12.5145 22.1878 12.7265 22.119 12.9452L21.0733 13.3235C20.987 13.3548 20.9302 13.4373 20.9302 13.53L20.928 14.8512C20.928 14.9438 20.9848 15.0264 21.07 15.0576L22.1157 15.4392C22.1834 15.6579 22.2697 15.8711 22.3725 16.0742L21.895 17.0974C21.8556 17.1811 21.872 17.2804 21.9365 17.3463L22.8489 18.2814C22.9133 18.3472 23.0117 18.3651 23.0936 18.3249L24.0967 17.8406C24.2966 17.9455 24.5042 18.0348 24.7184 18.104L25.0888 19.173C25.1194 19.26 25.2002 19.3192 25.2909 19.3192H26.5835C26.6742 19.3203 26.7551 19.2623 26.7857 19.1752L27.1604 18.1073C27.3746 18.0381 27.5833 17.95 27.7822 17.8451L28.7841 18.3338C28.8661 18.374 28.9644 18.3562 29.0289 18.2914L29.9445 17.3574C30.009 17.2927 30.0254 17.1923 29.9871 17.1086L29.5107 16.0842C29.6156 15.88 29.7019 15.668 29.7708 15.4504L30.8164 15.071C30.9028 15.0409 30.9596 14.9572 30.9596 14.8646L30.9618 13.5433C30.9618 13.4507 30.9049 13.3681 30.8186 13.3369ZM27.3396 15.6267C26.967 16.0061 26.4721 16.2148 25.9454 16.2148H25.9421C25.4144 16.2148 24.9183 16.0039 24.5457 15.6222C24.1731 15.2406 23.9688 14.734 23.9688 14.195C23.971 13.0836 24.8571 12.1797 25.9443 12.1797H25.9476C26.4754 12.1808 26.9714 12.3917 27.344 12.7734C27.7166 13.1539 27.9209 13.6616 27.9198 14.1995C27.9198 14.7396 27.7133 15.2451 27.3396 15.6267Z" fill="#E60024"/>
</g>
</g>
</g>
</svg>
