<svg width="80" height="80" viewBox="0 0 80 80" fill="none" xmlns="http://www.w3.org/2000/svg">
<g id="icon">
<g id="Group 34616">
<path id="Vector" d="M38.9354 69.4605V14.0791C38.9354 11.0573 37.7112 8.22842 35.6931 6.19403C30.4179 5.45155 26.1073 8.763 24.7569 13.4035C19.8156 13.5371 15.6162 17.5614 15.6162 24.214C12.1811 25.8251 9.86621 29.3965 9.86621 33.4504C9.86621 36.6802 11.6023 39.8283 13.9543 41.677C10.7491 43.8896 8.41943 47.3124 8.41943 51.5074C8.41943 54.663 9.53234 57.4176 11.4243 59.4965C10.6972 59.8455 9.44331 60.2612 9.25782 60.9072C8.69395 62.8525 11.0682 65.8966 12.9675 67.5895C15.9353 69.8169 18.1611 70.5594 21.3069 70.307C22.6127 74.2718 26.3224 75.7567 30.4476 76.128C35.2108 76.5586 38.9354 74.2347 38.9354 69.4457V69.4605Z" fill="#007BE2"/>
<path id="Vector_2" d="M52.075 56.4678H52.4905C50.4947 53.6315 49.3224 50.179 49.3224 46.4444C49.3224 36.807 57.1276 28.9961 66.758 28.9961C68.6648 28.9961 70.5048 29.308 72.2261 29.8723C66.8248 25.3803 58.5447 24.2369 50.5615 29.6124C49.7231 30.1767 49.0034 30.9043 48.4395 31.7433C41.9253 41.4623 45.034 51.5972 52.0676 56.4678H52.075Z" fill="#7CCBFA"/>
<path id="Vector_3" d="M66.2238 66.8629H56.1631C54.0263 66.8629 52.2902 65.1255 52.2902 62.9872V61.2869C52.2902 59.2897 51.3553 57.3592 49.7305 55.9931C45.5163 52.444 43.2014 47.2467 43.3943 41.7301C43.706 32.6719 51.0215 25.1357 60.0583 24.5714C65.0441 24.2596 69.7703 25.9673 73.3835 29.3678C76.9522 32.7238 79 37.4608 79 42.3538C79 47.6179 76.6925 52.5851 72.6638 55.9856C71.0316 57.3592 70.0967 59.2897 70.0967 61.2869V62.9798C70.0967 65.1181 68.3606 66.8555 66.2238 66.8555V66.8629ZM61.2083 26.7692C60.8744 26.7692 60.5405 26.7766 60.1993 26.7989C52.2976 27.2889 45.8947 33.8821 45.6276 41.8117C45.4644 46.6379 47.4824 51.1892 51.1699 54.2928C53.2992 56.0822 54.516 58.6363 54.516 61.2869V62.9872C54.516 63.893 55.2579 64.6355 56.1631 64.6355H66.2238C67.129 64.6355 67.8709 63.893 67.8709 62.9872V61.2944C67.8709 58.6437 69.0951 56.0896 71.2245 54.2928C74.7487 51.3229 76.7742 46.972 76.7742 42.3686C76.7742 38.0177 75.0306 33.986 71.8625 31.0013C68.9393 28.2541 65.1925 26.7766 61.2083 26.7766V26.7692Z" fill="#2D2D2D"/>
<path id="Vector_4" d="M38.5643 71.3168C37.9485 71.3168 37.4514 70.8193 37.4514 70.203V11.5473C37.4514 10.9311 37.9485 10.4336 38.5643 10.4336C39.1801 10.4336 39.6772 10.9311 39.6772 11.5473V70.203C39.6772 70.8193 39.1801 71.3168 38.5643 71.3168Z" fill="#2D2D2D"/>
<path id="Vector_5" d="M30.084 77.2575C25.6546 77.2575 21.5962 73.6714 20.2756 71.4959C16.7143 71.637 13.2717 69.4244 11.1868 67.1747C9.09455 64.925 7.98906 62.3708 8.10035 60.1657C3.63388 57.9086 1 53.617 1 48.5459C1 44.7816 2.76581 41.2399 5.89679 38.6413C3.73775 36.4658 2.44678 33.4513 2.44678 30.4814C2.44678 26.3236 4.68743 22.4998 8.21164 20.5545C8.49358 13.7311 12.9749 9.87769 17.6268 9.3728C19.2443 4.93279 23.2878 2 27.925 2C34.2982 2 39.6847 7.04885 39.6847 13.0332C39.6847 13.6495 39.1876 14.1469 38.5718 14.1469C37.956 14.1469 37.4589 13.6495 37.4589 13.0332C37.4589 8.25909 33.0963 4.22743 27.925 4.22743C24.0372 4.22743 20.6614 6.84838 19.5188 10.7538C19.3852 11.2216 18.9623 11.5408 18.4801 11.5557C13.7391 11.6819 10.4226 15.669 10.4226 21.2524C10.4226 21.6831 10.1704 22.0766 9.78455 22.2622C6.68325 23.7175 4.6726 26.9472 4.6726 30.4889C4.6726 33.2063 6.11196 36.0946 8.33777 37.8394C8.61971 38.0547 8.77552 38.3962 8.76068 38.7526C8.75326 39.109 8.57519 39.4357 8.27842 39.6362C6.39389 40.9355 3.22582 43.8312 3.22582 48.5533C3.22582 53.0008 5.66679 56.7132 9.74746 58.4951C10.2371 58.7104 10.5042 59.2376 10.3929 59.7573C10.0294 61.4056 10.9642 63.6702 12.8191 65.6749C15.1562 68.1919 18.2797 69.5877 20.7801 69.2313C21.0991 69.1868 21.4256 69.2833 21.663 69.4912C21.8633 69.6694 21.9969 69.907 22.034 70.1743C22.4272 71.0801 25.9662 75.0449 30.0766 75.0449C33.4376 75.0449 37.4514 74.0797 37.4514 69.4764C37.4514 68.8601 37.9485 68.3626 38.5644 68.3626C39.1802 68.3626 39.6773 68.8601 39.6773 69.4764C39.6773 74.4287 36.1827 77.2724 30.0766 77.2724L30.084 77.2575Z" fill="#2D2D2D"/>
<path id="Vector_6" d="M67.7299 22.3662C67.1141 22.3662 66.617 21.8687 66.617 21.2524C66.617 15.669 63.3006 11.6819 58.5596 11.5557C58.0773 11.5408 57.6544 11.2216 57.5209 10.7538C56.3783 6.84838 53.0025 4.22743 49.1147 4.22743C43.9508 4.22743 39.5808 8.25909 39.5808 13.0332C39.5808 13.6495 39.0837 14.1469 38.4679 14.1469C37.8521 14.1469 37.355 13.6495 37.355 13.0332C37.355 7.05627 42.7415 2 49.1147 2C53.7444 2 57.7954 4.93279 59.4128 9.38023C64.2206 9.89996 68.8429 13.9984 68.8429 21.2524C68.8429 21.8687 68.3458 22.3662 67.7299 22.3662Z" fill="#2D2D2D"/>
<path id="Vector_7" d="M29.6165 22.8627C27.1162 22.8627 24.742 21.9123 22.9316 20.1897C22.4865 19.7665 22.4716 19.0612 22.8945 18.6157C23.3175 18.1702 24.0223 18.1479 24.4675 18.5786C25.8623 19.9076 27.6949 20.6352 29.6165 20.6352C33.7639 20.6352 37.4588 15.5493 37.4588 11.5473C37.4588 10.9311 37.9559 10.4336 38.5717 10.4336C39.1875 10.4336 39.6846 10.9311 39.6846 11.5473C39.6846 16.6704 35.1959 22.8627 29.6165 22.8627Z" fill="#2D2D2D"/>
<path id="Vector_8" d="M20.9433 71.4366C20.372 71.4366 19.8897 71.006 19.8378 70.4269C19.6078 67.9693 20.5056 65.5339 22.2936 63.7446C22.7314 63.3065 23.4362 63.3065 23.8665 63.7446C24.3043 64.1826 24.3043 64.888 23.8665 65.3186C22.5459 66.6402 21.8856 68.4222 22.0562 70.219C22.1156 70.8278 21.663 71.3772 21.0472 71.4292C21.0101 71.4292 20.9804 71.4292 20.9433 71.4292V71.4366Z" fill="#2D2D2D"/>
<path id="Vector_9" d="M38.5644 62.4086C37.9486 62.4086 37.4515 61.9111 37.4515 61.2948C37.4515 58.8521 35.1218 56.7138 32.4731 56.7138C30.9372 56.7138 29.5053 57.4785 28.6372 58.7556C28.2959 59.2679 27.5985 59.4015 27.094 59.0526C26.5821 58.711 26.4485 58.0131 26.7972 57.5082C28.0734 55.6149 30.1953 54.4863 32.4731 54.4863C36.3757 54.4863 39.6773 57.6047 39.6773 61.2948C39.6773 61.9111 39.1802 62.4086 38.5644 62.4086Z" fill="#2D2D2D"/>
<path id="Vector_10" d="M18.532 40.1335C18.3168 40.1335 18.1016 40.0741 17.9087 39.9405C15.2229 38.1363 11.2239 38.0323 8.17449 39.6955C7.63288 39.9925 6.95771 39.792 6.66836 39.25C6.37158 38.708 6.5719 38.0323 7.11352 37.7428C10.9197 35.6712 15.7645 35.8123 19.1552 38.0991C19.6671 38.4407 19.8007 39.1386 19.4594 39.6435C19.2442 39.9628 18.8955 40.1335 18.532 40.1335Z" fill="#2D2D2D"/>
<path id="Vector_11" d="M12.5223 61.2565C11.4094 61.2565 10.2446 61.0338 9.0352 60.5957L8.93132 60.5586C8.35261 60.3507 8.04842 59.7122 8.25616 59.1331C8.4639 58.5539 9.10197 58.2495 9.68068 58.4574L9.79939 58.5019C11.35 59.0662 13.6872 59.6082 16.1133 57.7817C16.603 57.4105 17.3004 57.5145 17.6714 58.0045C18.0423 58.4945 17.9385 59.1924 17.4488 59.5637C15.9501 60.6923 14.2955 61.2565 12.5223 61.2565Z" fill="#2D2D2D"/>
<path id="Vector_12" d="M27.4205 47.5651C27.005 47.5651 26.6043 47.3275 26.4188 46.934C26.1963 46.4737 24.334 42.3158 26.545 38.4104C28.5927 34.8094 33.0369 33.1017 37.3773 34.2599C37.9708 34.4159 38.327 35.0321 38.1637 35.6261C38.0079 36.2201 37.3995 36.5765 36.7986 36.4131C33.4969 35.5296 29.995 36.8363 28.4814 39.5167C26.8269 42.4346 28.2588 45.6273 28.4221 45.9762C28.6892 46.5331 28.4518 47.1939 27.8953 47.4612C27.7395 47.5354 27.5763 47.5726 27.4205 47.5726V47.5651Z" fill="#2D2D2D"/>
<path id="Vector_13" d="M16.0688 28.7151C16.0095 28.7151 15.9501 28.7151 15.8982 28.7003C15.2898 28.6037 14.8743 28.032 14.9708 27.4306C15.0079 27.2079 15.2675 25.2403 13.843 23.8147C13.0269 22.998 11.3946 21.7135 9.67333 22.3075C9.0872 22.508 8.45655 22.2036 8.25622 21.617C8.0559 21.0379 8.3601 20.3994 8.94623 20.1989C11.0459 19.4713 13.3979 20.2137 15.4159 22.2333C17.575 24.3939 17.2559 27.2227 17.1743 27.7722C17.0853 28.3216 16.6179 28.7151 16.0763 28.7151H16.0688Z" fill="#2D2D2D"/>
<path id="Vector_14" d="M51.2738 19.0397C50.658 19.0397 50.1609 18.5423 50.1609 17.926C50.1609 17.3098 50.658 16.8123 51.2738 16.8123C54.4419 16.8123 57.2241 13.835 57.2241 10.4418C57.2241 9.82558 57.7212 9.32812 58.3371 9.32812C58.9529 9.32812 59.45 9.82558 59.45 10.4418C59.45 15.1046 55.7032 19.0397 51.2738 19.0397Z" fill="#2D2D2D"/>
<path id="Vector_15" d="M63.7902 66.12C63.1744 66.12 62.6773 65.6225 62.6773 65.0062V51.2704H59.7096V65.0062C59.7096 65.6225 59.2125 66.12 58.5967 66.12C57.9809 66.12 57.4838 65.6225 57.4838 65.0062V50.1567C57.4838 49.5404 57.9809 49.043 58.5967 49.043H63.7902C64.4061 49.043 64.9032 49.5404 64.9032 50.1567V65.0062C64.9032 65.6225 64.4061 66.12 63.7902 66.12Z" fill="#2D2D2D"/>
<path id="Vector_16" d="M66.7506 51.2703H63.7903C63.1745 51.2703 62.6774 50.7728 62.6774 50.1566V47.1941C62.6774 45.078 64.1242 43.2886 66.1051 42.9248C67.4703 42.6798 68.8726 43.1105 69.8445 44.0905C70.8164 45.0632 71.2542 46.4665 71.0093 47.8326C70.6532 49.8224 68.8577 51.2629 66.7432 51.2629L66.7506 51.2703ZM64.9032 49.0428H66.7506C67.7671 49.0428 68.6574 48.3523 68.8206 47.4391C68.9393 46.7783 68.739 46.1323 68.279 45.6646C67.8116 45.1968 67.1661 45.0038 66.5058 45.1226C65.5932 45.2859 64.9032 46.1769 64.9032 47.1941V49.0428Z" fill="#2D2D2D"/>
<path id="Vector_17" d="M58.5967 51.2716H55.6364C53.5218 51.2716 51.7338 49.8238 51.3702 47.8339C51.1254 46.4678 51.5557 45.0645 52.5351 44.0919C53.507 43.1192 54.9093 42.6812 56.2744 42.9262C58.2628 43.2826 59.7022 45.0794 59.7022 47.1954V50.1579C59.7022 50.7742 59.2051 51.2716 58.5893 51.2716H58.5967ZM55.5102 45.0868C54.9835 45.0868 54.4864 45.2873 54.108 45.6659C53.6406 46.1337 53.4476 46.7796 53.5664 47.4404C53.7296 48.3537 54.6199 49.0442 55.6364 49.0442H57.4838V47.1954C57.4838 46.1782 56.7938 45.2873 55.8812 45.1239C55.7551 45.1016 55.6289 45.0868 55.5028 45.0868H55.5102Z" fill="#2D2D2D"/>
<path id="Vector_18" d="M64.7399 72.8017H57.647C55.5102 72.8017 53.774 71.0643 53.774 68.926V66.4907C53.774 65.8744 54.2711 65.377 54.887 65.377C55.5028 65.377 55.9999 65.8744 55.9999 66.4907V68.926C55.9999 69.8318 56.7418 70.5743 57.647 70.5743H64.7399C65.6451 70.5743 66.387 69.8318 66.387 68.926V66.4907C66.387 65.8744 66.8841 65.377 67.4999 65.377C68.1157 65.377 68.6128 65.8744 68.6128 66.4907V68.926C68.6128 71.0643 66.8767 72.8017 64.7399 72.8017Z" fill="#2D2D2D"/>
<path id="Vector_19" d="M62.5141 78.0007H59.8728C57.736 78.0007 55.9999 76.2633 55.9999 74.1249V72.4321C55.9999 71.8158 56.497 71.3184 57.1128 71.3184C57.7286 71.3184 58.2257 71.8158 58.2257 72.4321V74.1249C58.2257 75.0307 58.9676 75.7732 59.8728 75.7732H62.5141C63.4193 75.7732 64.1612 75.0307 64.1612 74.1249V72.4321C64.1612 71.8158 64.6583 71.3184 65.2741 71.3184C65.8899 71.3184 66.387 71.8158 66.387 72.4321V74.1249C66.387 76.2633 64.6509 78.0007 62.5141 78.0007Z" fill="#2D2D2D"/>
</g>
</g>
</svg>
