<svg width="60" height="60" viewBox="0 0 60 60" fill="none" xmlns="http://www.w3.org/2000/svg">
<rect x="0.5" y="0.5" width="59" height="59" rx="29.5" fill="white"/>
<rect x="0.5" y="0.5" width="59" height="59" rx="29.5" stroke="#D8D8D8"/>
<g clip-path="url(#clip0_792_4643)">
<path d="M46.2595 47.0134C44.0447 45.023 40.8157 43.3577 36.1063 42.5832C35.6905 42.4467 35.0688 40.669 35.0183 40.3881C35.0144 40.3921 35.0105 40.3921 35.0105 40.3961C35.2165 40.2075 35.4108 40.0229 35.5934 39.8384C36.7979 38.6144 38.4999 36.4314 38.8612 34.5132C42.0591 33.6304 42.5448 26.7563 39.1721 25.6166C41.418 16.3628 37.9092 16.2143 36.6542 16.2785C37.9015 14.0755 34.8707 13 32.5004 13C30.1302 13 25.4091 15.48 21.6517 14.4366C19.0133 13.7023 21.3913 16.9206 21.3214 17.2095C18.9861 18.4656 19.9031 23.8228 20.3306 25.7932C17.2842 27.3462 17.5135 33.7949 21.0766 34.5413C21.4496 36.4555 23.1399 38.6265 24.3405 39.8424C24.5115 40.0149 24.6903 40.1915 24.8807 40.364C24.8768 40.36 24.8768 40.36 24.8729 40.356C24.8535 40.4563 24.6125 41.889 23.8937 42.5872C19.1843 43.3577 15.9553 45.027 13.7444 47.0175C9.49736 50.8297 9 55.8298 9 57.9647C9 58.6188 9.04663 59.004 9.04663 59.004H50.9534C50.9534 59 51.8043 51.9975 46.2595 47.0134Z" fill="#F0F0F0"/>
</g>
<defs>
<clipPath id="clip0_792_4643">
<rect width="42" height="46" fill="white" transform="translate(9 13)"/>
</clipPath>
</defs>
</svg>
