<svg width="50" height="50" viewBox="0 0 50 50" fill="none" xmlns="http://www.w3.org/2000/svg">
<path d="M36.0112 27.4651L35.7563 27.2913H35.4477H21.75C21.4739 27.2913 21.25 27.0674 21.25 26.7913V7.5C21.25 7.22386 21.4739 7 21.75 7H47.6349C47.911 7 48.1349 7.22386 48.1349 7.5V26.7913C48.1349 27.0674 47.911 27.2913 47.6349 27.2913H44.4029H43.4029V28.2913V31.5603C43.4029 31.9621 42.953 32.1998 42.6211 31.9734L36.0112 27.4651Z" stroke="black" stroke-width="2"/>
<path d="M14.802 36.9584H14.4984L14.2461 37.1271L7.54612 41.608C7.2139 41.8302 6.76817 41.592 6.76817 41.1924V37.9584V36.9584H5.76817H2.5C2.22386 36.9584 2 36.7345 2 36.4584V17.4084C2 17.1323 2.22386 16.9084 2.5 16.9084H28.6333C28.9095 16.9084 29.1333 17.1323 29.1333 17.4084V36.4584C29.1333 36.7345 28.9095 36.9584 28.6333 36.9584H14.802Z" fill="white" stroke="black" stroke-width="2"/>
<path d="M7.9668 21.8335H23.1668" stroke="#E60024" stroke-width="2" stroke-linecap="round"/>
<path d="M7.9668 26.9397H23.1668" stroke="#E60024" stroke-width="2" stroke-linecap="round"/>
<path d="M7.9668 32.0486H23.1668" stroke="#E60024" stroke-width="2" stroke-linecap="round"/>
</svg>
