<svg width="80" height="80" viewBox="0 0 80 80" fill="none" xmlns="http://www.w3.org/2000/svg">
<g clip-path="url(#clip0_252_817)">
<path d="M50.6502 55.736V77.9995H35.2442V75.5767C35.2442 72.283 32.959 69.3298 29.7687 68.8649C25.8081 68.2821 22.4059 71.4187 22.4059 75.3671V77.9995H7V62.2841H9.56766C13.2522 62.2841 16.2051 59.1214 15.9675 55.317C15.7557 51.8203 12.7387 49.188 9.31089 49.188H7V33.4727H28.8251V55.736H50.6502Z" fill="#D8D8D8"/>
<path d="M50.6493 33.4727H28.8242V55.7361H50.6493V33.4727Z" fill="#CE0000"/>
<path d="M64.1429 33.8927C64.3547 37.3894 67.3717 40.0217 70.7996 40.0217H73.1105V55.737H50.6434V33.4736H28.8184V11.2102H44.2243V8.81364C44.2243 5.87356 46.0409 3.17576 48.8012 2.33106C53.4358 0.910134 57.7045 4.26274 57.7045 8.57791V10.5554H73.1105V26.9256H70.5428C66.8582 26.9256 63.9054 30.0883 64.1429 33.8927Z" fill="#E60024"/>
</g>
<defs>
<clipPath id="clip0_252_817">
<rect width="80" height="80" fill="white"/>
</clipPath>
</defs>
</svg>
