<svg width="100" height="100" viewBox="0 0 100 100" fill="none" xmlns="http://www.w3.org/2000/svg">
<path d="M55.3316 48.5246C64.6275 48.5246 72.1633 40.9888 72.1633 31.693C72.1633 22.3971 64.6275 14.8613 55.3316 14.8613C46.0358 14.8613 38.5 22.3971 38.5 31.693C38.5 40.9888 46.0358 48.5246 55.3316 48.5246Z" stroke="#EC4651" stroke-width="4" stroke-linecap="round" stroke-linejoin="round"/>
<path d="M48.8535 31.2267L54.1365 36.5749L61.8085 26.8125" stroke="#EC4651" stroke-width="4" stroke-linecap="round" stroke-linejoin="round"/>
<path d="M25.5059 68.1207L31.8693 62.4061C34.7551 59.8135 38.5422 58.4534 42.4162 58.619L44.0017 58.6869C46.8821 58.809 49.6647 59.7673 52.0076 61.4478H64.52C67.1316 61.4478 69.2464 63.5653 69.2464 66.1742C69.2464 68.7859 67.1289 70.9007 64.52 70.9007H47.1481" stroke="#D8D8D8" stroke-width="4" stroke-linecap="round" stroke-linejoin="round"/>
<path d="M69.1147 67.265L77.0907 62.3241L81.9991 57.6194C83.5193 56.0665 85.6043 55.1924 87.7761 55.1924C89.4131 55.1924 90.4882 56.9027 89.7769 58.3768L83.5682 70.5608C83.0904 71.4431 82.4009 72.1896 81.562 72.7407L73.0213 79.1721C71.4304 80.2743 69.5844 80.9557 67.6569 81.1484L34.8867 84.4387" stroke="#D8D8D8" stroke-width="4" stroke-linecap="round" stroke-linejoin="round"/>
<path d="M10 68.6309L21.7143 62.6611L35.9913 87.6806L28.1646 96.11" stroke="#D8D8D8" stroke-width="4" stroke-linecap="round" stroke-linejoin="round"/>
<path d="M84.2843 19.417H77.8828" stroke="#1D1D1D" stroke-width="4" stroke-linecap="round" stroke-linejoin="round"/>
<path d="M68.3223 10.2901V3.88867" stroke="#1D1D1D" stroke-width="4" stroke-linecap="round" stroke-linejoin="round"/>
<path d="M79.7868 8.07422L75.3535 12.5075" stroke="#1D1D1D" stroke-width="4" stroke-linecap="round" stroke-linejoin="round"/>
</svg>
