<svg width="40" height="40" viewBox="0 0 40 40" fill="none" xmlns="http://www.w3.org/2000/svg">
<g id="ic">
<g id="Group 34613">
<path id="Vector" d="M26.4552 7.51562C26.041 7.51562 25.7052 7.85141 25.7052 8.26562C25.7052 8.67984 26.041 9.01562 26.4552 9.01562V7.51562ZM11.0516 9.01562C11.4659 9.01562 11.8016 8.67984 11.8016 8.26562C11.8016 7.85141 11.4659 7.51562 11.0516 7.51562V9.01562ZM28.7568 22.3996V23.1496H30.2568V22.3996H28.7568ZM30.2568 27.8396V27.0896H28.7568V27.8396H30.2568ZM26.4552 9.01562H27.5068V7.51562H26.4552V9.01562ZM27.5068 36.0497H10V37.5497H27.5068V36.0497ZM8.75 34.7997V10.2656H7.25V34.7997H8.75ZM10 9.01562H11.0516V7.51562H10V9.01562ZM28.7568 10.2656V22.3996H30.2568V10.2656H28.7568ZM28.7568 27.8396V34.7997H30.2568V27.8396H28.7568ZM8.75 10.2656C8.75 9.57527 9.30964 9.01562 10 9.01562V7.51562C8.48122 7.51562 7.25 8.74684 7.25 10.2656H8.75ZM10 36.0497C9.30964 36.0497 8.75 35.49 8.75 34.7997H7.25C7.25 36.3185 8.48122 37.5497 10 37.5497V36.0497ZM27.5068 37.5497C29.0256 37.5497 30.2568 36.3185 30.2568 34.7997H28.7568C28.7568 35.49 28.1972 36.0497 27.5068 36.0497V37.5497ZM27.5068 9.01562C28.1972 9.01562 28.7568 9.57527 28.7568 10.2656H30.2568C30.2568 8.74684 29.0256 7.51562 27.5068 7.51562V9.01562Z" fill="#1D1D1D"/>
<path id="Vector_2" d="M22.5503 6.58407C22.5522 6.58407 22.5538 6.5825 22.5538 6.58057C22.5498 5.59698 20.871 4.80078 18.8018 4.80078C17.2195 4.80078 15.8655 5.26639 15.3141 5.92535C15.0572 6.23239 14.7253 6.58407 14.325 6.58407V6.58407C13.9246 6.58407 13.6001 6.90862 13.6001 7.30897V8.60078C13.6001 9.15307 14.0478 9.60078 14.6001 9.60078H23.0001C23.5524 9.60078 24.0001 9.15307 24.0001 8.60078V7.58407C24.0001 7.03179 23.5524 6.58407 23.0001 6.58407H22.5503V6.58407Z" stroke="#1D1D1D" stroke-width="1.5" stroke-linejoin="round"/>
<path id="Vector_3" d="M32.4028 20.2009L22.6353 29.9531L24.7246 32.0392L34.4922 22.2869C34.883 21.8967 34.883 21.2641 34.4922 20.8738L33.8181 20.2009C33.4273 19.8107 32.7937 19.8107 32.4028 20.2009Z" stroke="#E60024" stroke-width="1.5" stroke-linejoin="round"/>
<path id="Vector_4" d="M22.6324 29.9531L24.7233 32.0408L22.9311 32.9315L21.7049 33.5403C21.5404 33.622 21.3422 33.5891 21.2129 33.4588V33.4588C21.0842 33.3291 21.0525 33.1318 21.1342 32.9683L21.7443 31.7466L22.6324 29.9531Z" stroke="#E60024" stroke-width="1.5" stroke-linejoin="round"/>
<path id="Vector_5" d="M12 14.4004H25.5147" stroke="#1D1D1D" stroke-width="1.5" stroke-linecap="round" stroke-linejoin="round"/>
<path id="Vector_6" d="M12 17.6016H25.5147" stroke="#1D1D1D" stroke-width="1.5" stroke-linecap="round" stroke-linejoin="round"/>
<path id="Vector_7" d="M12 20.8008H25.5147" stroke="#1D1D1D" stroke-width="1.5" stroke-linecap="round" stroke-linejoin="round"/>
<path id="Vector_8" d="M12 24H25.5147" stroke="#1D1D1D" stroke-width="1.5" stroke-linecap="round" stroke-linejoin="round"/>
<path id="Vector_9" d="M11.8618 33.6016H16.3667" stroke="#1D1D1D" stroke-width="1.5" stroke-linecap="round" stroke-linejoin="round"/>
</g>
</g>
</svg>
