<svg width="56" height="56" viewBox="0 0 56 56" fill="none" xmlns="http://www.w3.org/2000/svg">
<rect width="56" height="56" rx="4" fill="#F2F2F6"/>
<path d="M42.0955 45.0003H33.4175C33.0489 45.0003 32.7498 44.7067 32.7498 44.3451V23.987C32.7498 23.7132 32.922 23.4694 33.1838 23.3738L41.8618 20.1898C42.0661 20.1151 42.2958 20.1426 42.4761 20.2645C42.6564 20.3863 42.7632 20.5881 42.7632 20.803V44.3451C42.7632 44.7067 42.4641 45.0003 42.0955 45.0003ZM34.0852 43.69H41.4278V21.7477L34.0852 24.4417V43.69Z" fill="#999999"/>
<path d="M20.9453 44.9999H13.9046C13.536 44.9999 13.2368 44.7064 13.2368 44.3448V28.0106C13.2368 27.649 13.536 27.3555 13.9046 27.3555H20.9453C21.3139 27.3555 21.613 27.649 21.613 28.0106V44.3448C21.613 44.7064 21.3139 44.9999 20.9453 44.9999ZM14.5723 43.6896H20.2775V28.6658H14.5723V43.6896Z" fill="#999999"/>
<path d="M24.9783 23.0603H24.0662C23.6976 23.0603 23.3984 22.7668 23.3984 22.4051C23.3984 22.0435 23.6976 21.75 24.0662 21.75H24.9783C25.3469 21.75 25.6461 22.0435 25.6461 22.4051C25.6461 22.7668 25.3469 23.0603 24.9783 23.0603Z" fill="#999999"/>
<path d="M30.2977 23.0603H29.3855C29.0169 23.0603 28.7178 22.7668 28.7178 22.4051C28.7178 22.0435 29.0169 21.75 29.3855 21.75H30.2977C30.6663 21.75 30.9654 22.0435 30.9654 22.4051C30.9654 22.7668 30.6663 23.0603 30.2977 23.0603Z" fill="#999999"/>
<path d="M24.9783 26.5212H24.0662C23.6976 26.5212 23.3984 26.2277 23.3984 25.8661C23.3984 25.5044 23.6976 25.2109 24.0662 25.2109H24.9783C25.3469 25.2109 25.6461 25.5044 25.6461 25.8661C25.6461 26.2277 25.3469 26.5212 24.9783 26.5212Z" fill="#999999"/>
<path d="M30.2977 26.5212H29.3855C29.0169 26.5212 28.7178 26.2277 28.7178 25.8661C28.7178 25.5044 29.0169 25.2109 29.3855 25.2109H30.2977C30.6663 25.2109 30.9654 25.5044 30.9654 25.8661C30.9654 26.2277 30.6663 26.5212 30.2977 26.5212Z" fill="#999999"/>
<path d="M42.0953 28.8728H39.2735C38.9049 28.8728 38.6057 28.5793 38.6057 28.2176C38.6057 27.856 38.9049 27.5625 39.2735 27.5625H42.0953C42.4639 27.5625 42.7631 27.856 42.7631 28.2176C42.7631 28.5793 42.4639 28.8728 42.0953 28.8728Z" fill="#999999"/>
<path d="M42.0953 32.7947H39.2735C38.9049 32.7947 38.6057 32.5012 38.6057 32.1395C38.6057 31.7779 38.9049 31.4844 39.2735 31.4844H42.0953C42.4639 31.4844 42.7631 31.7779 42.7631 32.1395C42.7631 32.5012 42.4639 32.7947 42.0953 32.7947Z" fill="#999999"/>
<path d="M42.0953 36.7165H39.2735C38.9049 36.7165 38.6057 36.423 38.6057 36.0614C38.6057 35.6998 38.9049 35.4062 39.2735 35.4062H42.0953C42.4639 35.4062 42.7631 35.6998 42.7631 36.0614C42.7631 36.423 42.4639 36.7165 42.0953 36.7165Z" fill="#999999"/>
<path d="M19.1945 32.0564H15.9492C15.5806 32.0564 15.2815 31.7629 15.2815 31.4012C15.2815 31.0396 15.5806 30.7461 15.9492 30.7461H19.1945C19.5631 30.7461 19.8622 31.0396 19.8622 31.4012C19.8622 31.7629 19.5631 32.0564 19.1945 32.0564Z" fill="#999999"/>
<path d="M19.1945 35.9783H15.9492C15.5806 35.9783 15.2815 35.6848 15.2815 35.3231C15.2815 34.9615 15.5806 34.668 15.9492 34.668H19.1945C19.5631 34.668 19.8622 34.9615 19.8622 35.3231C19.8622 35.6848 19.5631 35.9783 19.1945 35.9783Z" fill="#999999"/>
<path d="M19.1945 39.9001H15.9492C15.5806 39.9001 15.2815 39.6066 15.2815 39.245C15.2815 38.8834 15.5806 38.5898 15.9492 38.5898H19.1945C19.5631 38.5898 19.8622 38.8834 19.8622 39.245C19.8622 39.6066 19.5631 39.9001 19.1945 39.9001Z" fill="#999999"/>
<path d="M33.4175 44.9999H20.9453C20.5767 44.9999 20.2776 44.7064 20.2776 44.3448V18.4559C20.2776 18.0943 20.5767 17.8008 20.9453 17.8008H33.4188C33.7874 17.8008 34.0865 18.0943 34.0865 18.4559V44.3448C34.0865 44.7064 33.7874 44.9999 33.4188 44.9999H33.4175ZM21.6131 43.6896H32.751V19.1111H21.6131V43.6896Z" fill="#999999"/>
<path d="M30.8091 19.1096H23.552C23.1834 19.1096 22.8843 18.8161 22.8843 18.4544V15.9911C22.8843 15.6294 23.1834 15.3359 23.552 15.3359H30.8091C31.1777 15.3359 31.4768 15.6294 31.4768 15.9911V18.4544C31.4768 18.8161 31.1777 19.1096 30.8091 19.1096ZM24.2211 17.7993H30.1427V16.6462H24.2211V17.7993Z" fill="#999999"/>
<path d="M27.1819 16.1862C26.8133 16.1862 26.5142 15.8927 26.5142 15.531V11.6551C26.5142 11.2935 26.8133 11 27.1819 11C27.5505 11 27.8496 11.2935 27.8496 11.6551V15.531C27.8496 15.8927 27.5505 16.1862 27.1819 16.1862Z" fill="#999999"/>
<path d="M27.6373 23.0603H26.7251C26.3565 23.0603 26.0574 22.7668 26.0574 22.4051C26.0574 22.0435 26.3565 21.75 26.7251 21.75H27.6373C28.0059 21.75 28.305 22.0435 28.305 22.4051C28.305 22.7668 28.0059 23.0603 27.6373 23.0603Z" fill="#999999"/>
<path d="M27.6373 26.5212H26.7251C26.3565 26.5212 26.0574 26.2277 26.0574 25.8661C26.0574 25.5044 26.3565 25.2109 26.7251 25.2109H27.6373C28.0059 25.2109 28.305 25.5044 28.305 25.8661C28.305 26.2277 28.0059 26.5212 27.6373 26.5212Z" fill="#999999"/>
<path d="M29.0222 43.1283C28.6536 43.1283 28.3544 42.8348 28.3544 42.4731V38.0994H26.0066V42.4731C26.0066 42.8348 25.7075 43.1283 25.3389 43.1283C24.9703 43.1283 24.6711 42.8348 24.6711 42.4731V37.4442C24.6711 37.0826 24.9703 36.7891 25.3389 36.7891H29.0222C29.3908 36.7891 29.6899 37.0826 29.6899 37.4442V42.4731C29.6899 42.8348 29.3908 43.1283 29.0222 43.1283Z" fill="#999999"/>
</svg>
