<svg width="120" height="120" viewBox="0 0 120 120" fill="none" xmlns="http://www.w3.org/2000/svg">
<path d="M31.7358 50.4756C44.2936 50.4756 54.4737 40.2955 54.4737 27.7378C54.4737 15.1801 44.2936 5 31.7358 5C19.1781 5 8.99805 15.1801 8.99805 27.7378C8.99805 40.2955 19.1781 50.4756 31.7358 50.4756Z" stroke="#EC4651" stroke-width="5" stroke-linecap="round" stroke-linejoin="round"/>
<path d="M22.9863 27.1067L30.1231 34.3315L40.4871 21.1436" stroke="#EC4651" stroke-width="5" stroke-linecap="round" stroke-linejoin="round"/>
<path d="M104.063 103.609L98.7197 102.993C93.457 102.384 88.407 105.256 86.2359 110.093L84.0318 115C77.6543 114.959 76.9868 114.952 70.6092 114.912L68.4711 109.976C66.366 105.113 61.3527 102.175 56.0827 102.714L50.732 103.261C47.5817 97.7191 47.2479 97.136 44.0977 91.5909L47.303 87.2707C50.4606 83.0165 50.4972 77.2074 47.3983 72.9092L44.248 68.5487C47.4717 63.0476 47.8127 62.4682 51.0364 56.9671L56.3797 57.5832C61.6424 58.192 66.6924 55.3168 68.8635 50.4831L71.0676 45.5762C77.4452 45.6165 78.1127 45.6238 84.4903 45.6642L86.6284 50.6005C88.7334 55.4634 93.7468 58.401 99.0168 57.8619L104.368 57.3155C107.518 62.8569 107.852 63.44 111.002 68.9851L107.797 73.3053C104.639 77.5595 104.602 83.3686 107.701 87.6668L110.851 92.0273C107.628 97.5284 107.287 98.1078 104.063 103.609Z" stroke="#D8D8D8" stroke-width="5" stroke-linecap="round" stroke-linejoin="round"/>
<path d="M88.4327 91.1696C94.4408 85.1615 94.4408 75.4205 88.4327 69.4124C82.4246 63.4043 72.6836 63.4043 66.6755 69.4124C60.6674 75.4205 60.6674 85.1615 66.6755 91.1696C72.6836 97.1777 82.4246 97.1777 88.4327 91.1696Z" stroke="#D8D8D8" stroke-width="5" stroke-linecap="round" stroke-linejoin="round"/>
<path d="M88.3293 30.8926H79.6816" stroke="#231F20" stroke-width="5" stroke-linecap="round" stroke-linejoin="round"/>
<path d="M66.7695 18.5627V9.91504" stroke="#231F20" stroke-width="5" stroke-linecap="round" stroke-linejoin="round"/>
<path d="M82.2562 15.5664L76.2637 21.5589" stroke="#231F20" stroke-width="5" stroke-linecap="round" stroke-linejoin="round"/>
</svg>
