<svg width="50" height="50" viewBox="0 0 50 50" fill="none" xmlns="http://www.w3.org/2000/svg">
<path d="M21.2673 32.9807C21.3326 32.9257 21.3558 32.8353 21.325 32.7556L20.9775 31.8572C20.9471 31.7786 20.8706 31.7274 20.7864 31.7294L19.7395 31.7535C19.5738 31.535 19.3805 31.336 19.1714 31.1604L19.2547 30.1317C19.2615 30.0468 19.214 29.967 19.1361 29.9326L18.246 29.5393C18.1692 29.5054 18.0795 29.523 18.0212 29.5834L17.2977 30.3333C17.0295 30.2943 16.7494 30.2865 16.4733 30.3099L15.7955 29.5226C15.7406 29.4589 15.6518 29.4363 15.5731 29.4661L14.6611 29.8111C14.5817 29.8412 14.5299 29.918 14.5319 30.0029L14.5562 31.0356C14.3314 31.1995 14.1341 31.3906 13.9566 31.5974L12.9134 31.5149C12.8293 31.5082 12.7501 31.555 12.7153 31.6319L12.3191 32.5092C12.284 32.5869 12.3021 32.6784 12.3641 32.7369L13.1204 33.4506C13.0809 33.7198 13.073 33.9929 13.0967 34.266L12.3026 34.9348C12.2372 34.9898 12.214 35.0803 12.2449 35.1599L12.5924 36.0584C12.6228 36.137 12.6992 36.1881 12.7835 36.1862L13.8304 36.1621C14 36.3806 14.1894 36.5795 14.3984 36.7551L14.3152 37.7839C14.3083 37.8687 14.3559 37.9486 14.4337 37.983L15.3239 38.3763C15.4006 38.4102 15.4904 38.3926 15.5486 38.3322L16.2721 37.5822C16.5404 37.6212 16.8165 37.629 17.0966 37.6056L17.7744 38.3929C17.8293 38.4566 17.9181 38.4792 17.9967 38.4495L18.9088 38.1044C18.9882 38.0744 19.0399 37.9975 19.0379 37.9127L19.0137 36.8799C19.2346 36.7161 19.4357 36.5249 19.6132 36.3181L20.6565 36.4007C20.7406 36.4073 20.8198 36.3605 20.8545 36.2836L21.2507 35.4064C21.2859 35.3286 21.2678 35.2372 21.2057 35.1786L20.4495 34.465C20.489 34.1997 20.4968 33.9227 20.4732 33.6496L21.2673 32.9807ZM17.3963 35.5418C16.5127 35.8773 15.5226 35.4364 15.1834 34.5625C14.8442 33.6886 15.2899 32.7054 16.1735 32.3738C17.0571 32.0383 18.0472 32.4791 18.3865 33.3531C18.7257 34.227 18.2799 35.2101 17.3963 35.5418Z" fill="#1D1D1D"/>
<path d="M25 15.5505C24.4477 15.5505 24 15.9983 24 16.5505C24 17.1028 24.4477 17.5505 25 17.5505V15.5505ZM25 17.5505H44.2284V15.5505H25V17.5505ZM44.2284 17.5505C44.5068 17.5505 44.7309 17.7746 44.7309 18.053H46.7309C46.7309 16.67 45.6114 15.5505 44.2284 15.5505V17.5505ZM44.7309 18.053V40.3883H46.7309V18.053H44.7309Z" fill="#1D1D1D"/>
<path d="M9.16699 28C9.16699 27.4477 8.71928 27 8.16699 27C7.61471 27 7.16699 27.4477 7.16699 28H9.16699ZM9.16699 40.3884V28H7.16699V40.3884H9.16699Z" fill="#1D1D1D"/>
<path d="M31.2825 40.3882V41.1105H22.6142V40.3882H6V42.6419C6 43.3932 6.60678 44 7.35803 44H46.5459C47.2972 44 47.9039 43.3932 47.9039 42.6419V40.3882H31.2897H31.2825Z" stroke="#1D1D1D" stroke-width="2" stroke-linejoin="round"/>
<path d="M18.887 23.8413C18.7805 23.1585 18.8673 22.5655 18.9699 22.1636C20.5477 20.4431 21.5181 18.1608 21.5181 15.6521C21.5181 10.3228 17.1474 6 11.7591 6C6.37067 6 2 10.3189 2 15.6482C2 16.0384 2.02367 16.4324 2.07495 16.8109C2.39446 19.5068 3.85004 21.8593 5.94859 23.4043C7.56984 24.5903 9.58161 25.3004 11.7591 25.3004C12.6387 25.3004 13.4908 25.1834 14.3073 24.9688C14.7807 25.394 15.4552 25.8817 16.3348 26.225C17.849 26.8247 19.2156 26.706 19.993 26.5556C20.1524 26.5247 20.2009 26.3238 20.0869 26.2082C19.6839 25.7995 19.0604 25.0074 18.887 23.8374V23.8413Z" stroke="#E60024" stroke-width="1.5" stroke-miterlimit="10"/>
<path d="M7.41211 21.43C7.73952 22.0933 8.1182 22.7175 8.54817 23.2871C10.2562 25.5617 13.2896 25.6124 15.0726 23.3925C16.6939 21.3715 17.7116 18.66 17.7589 15.6676C17.7589 15.5116 17.6879 14.743 17.684 14.5908" stroke="#E60024" stroke-width="1.5" stroke-miterlimit="10"/>
<path d="M17.1985 11.5866C16.804 10.2796 16.2123 9.08185 15.4668 8.04406C13.6917 5.57446 10.5202 5.52374 8.66228 7.93482C7.12387 9.93626 6.16532 12.5736 6.11799 15.4802C6.10615 16.2293 6.15349 16.9627 6.25999 17.6728" stroke="#E60024" stroke-width="1.5" stroke-miterlimit="10"/>
<path d="M12.2569 6.15601L11.9531 24.4927" stroke="#E60024" stroke-width="1.5" stroke-miterlimit="10"/>
<path d="M3.68066 10.8652C5.69243 12.8739 8.64697 14.1688 11.9605 14.2234C12.9072 14.239 13.8263 14.1532 14.7099 13.9737" stroke="#E60024" stroke-width="1.5" stroke-miterlimit="10"/>
<path d="M19.2898 21.6632C17.3727 19.8574 14.6864 18.7107 11.6964 18.6639C10.797 18.6483 9.92126 18.7341 9.08105 18.9096" stroke="#E60024" stroke-width="1.5" stroke-miterlimit="10"/>
<path d="M18.335 13.5526C18.3192 14.4808 17.5461 15.218 16.6112 15.2024C15.6763 15.1868 14.9268 14.4223 14.9426 13.498C14.9584 12.5697 15.7316 11.8325 16.6664 11.8481C17.6013 11.8637 18.3508 12.6282 18.335 13.5526Z" stroke="#E60024" stroke-width="1.5" stroke-miterlimit="10"/>
<path d="M8.84381 19.471C8.82803 20.3993 8.05488 21.1364 7.12 21.1208C6.18512 21.1052 5.43564 20.3408 5.45142 19.4164C5.4672 18.4882 6.24035 17.751 7.17523 17.7666C8.11011 17.7822 8.85959 18.5467 8.84381 19.471Z" stroke="#E60024" stroke-width="1.5" stroke-miterlimit="10"/>
<path d="M41.4232 25.975L40.6701 24.021C40.5942 23.824 40.4028 23.696 40.1918 23.7009L38.2202 23.7473C37.8928 23.3181 37.518 22.928 37.1078 22.5886L37.2646 20.6486C37.2817 20.4366 37.1628 20.2369 36.9682 20.151L35.3604 19.4408C35.1684 19.356 34.9439 19.4001 34.7983 19.5512L33.4353 20.9656C32.9067 20.8914 32.3624 20.8758 31.8219 20.9226L30.5395 19.4389C30.4023 19.2803 30.1807 19.2241 29.9845 19.2982L28.3392 19.9195C28.1405 19.9946 28.0109 20.187 28.016 20.3993L28.0627 22.3428C27.6248 22.6666 27.2343 23.0372 26.8872 23.443L24.9176 23.2906C24.7076 23.2743 24.51 23.3914 24.4233 23.5833L23.7084 25.1666C23.6207 25.3609 23.6658 25.5894 23.8207 25.7358L25.2423 27.0791C25.1673 27.6019 25.1515 28.1403 25.1949 28.6787L23.6995 29.9431C23.5368 30.0807 23.4792 30.3062 23.5559 30.505L24.1807 32.1233C24.2567 32.3201 24.448 32.4481 24.6589 32.4431L26.6308 32.3968C26.9582 32.8259 27.3329 33.2161 27.7432 33.5555L27.5897 35.496C27.5729 35.7078 27.6918 35.907 27.8861 35.9928L29.4949 36.7034C29.6867 36.7881 29.9109 36.7442 30.0566 36.5934L31.4196 35.1824C31.9482 35.2565 32.4886 35.2721 33.0329 35.2292L34.3115 36.7123C34.4486 36.8713 34.6705 36.9277 34.8669 36.8535L36.5124 36.2321C36.7108 36.1572 36.8403 35.9652 36.8356 35.7532L36.7922 33.8091C37.2261 33.4853 37.6206 33.1146 37.9638 32.7089L39.9333 32.8613C40.1433 32.8775 40.341 32.7605 40.4276 32.5685L41.1424 30.9856C41.2302 30.7911 41.1849 30.5624 41.0296 30.416L39.6047 29.0727C39.6797 28.55 39.6994 28.0116 39.6521 27.4771L41.4126 25.9885C41.417 25.9847 41.4206 25.9802 41.4232 25.975ZM33.6246 31.1756C31.889 31.8311 29.9482 30.9727 29.2895 29.2561C28.6268 27.5395 29.4946 25.62 31.2302 24.9645C32.9619 24.3091 34.9067 25.1674 35.5654 26.884C36.2281 28.6007 35.3603 30.5202 33.6246 31.1756Z" fill="#E60024"/>
</svg>
