<svg width="81" height="80" viewBox="0 0 81 80" fill="none" xmlns="http://www.w3.org/2000/svg">
<path d="M48.3328 21.4468C50.8462 9.96353 41.0679 4 35.0687 4C29.0696 4 25.3454 8.94225 25.3454 8.94225C20.5999 9.50152 17.5484 15.5805 18.7776 21.696L18.9182 22.3283C18.2394 22.8389 17.897 24.0304 18.429 26.2432C18.961 28.4498 20.0373 28.6383 20.814 29.1976C22.0309 37.234 27.3757 43.2827 33.7906 43.2827C40.2056 43.2827 45.5504 37.228 46.7673 29.1915H46.7062C47.2871 28.541 48.5102 28.3891 49.1095 25.921C49.7822 23.1368 49.189 21.8298 48.3389 21.4407L48.3328 21.4468Z" fill="#D8D8D8"/>
<path d="M64.2264 64.803C63.939 65.0462 63.6638 65.2893 63.3825 65.5264C61.8047 66.8638 60.1353 68.0735 58.4108 69.1617C52.2282 73.0279 45.1467 75.2954 37.8389 75.8608C36.628 75.9519 35.405 76.0006 34.188 76.0006H32.9589C31.7297 76.0006 30.5005 75.9519 29.2897 75.8547C19.9577 75.113 10.9988 71.5994 3.85003 65.5264C3.56261 65.2832 3.27519 65.0462 3 64.803C3.67268 53.9398 11.7999 45.0826 22.3733 43.2346C22.4834 43.2164 22.5873 43.1921 22.7096 43.1738C24.1406 44.4565 25.8162 45.4899 27.6508 46.2012C29.4793 46.9124 31.4728 47.3136 33.5582 47.3136C37.7288 47.3136 41.5325 45.7392 44.4128 43.1738H44.4801C44.5902 43.1738 44.6941 43.2042 44.8042 43.2285C44.8225 43.2285 44.8348 43.2346 44.8592 43.2346C45.5931 43.3623 46.3086 43.5203 47.0118 43.727V54.6997C47.0118 55.3805 47.5744 55.9398 48.2594 55.9398H53.1271V63.5811L60.6367 56.0918L60.7896 55.9398H61.8537C61.9026 56.0188 61.9393 56.1039 61.9821 56.189C62.0065 56.2377 62.031 56.2924 62.0555 56.341C63.2846 58.9367 64.0429 61.7939 64.2264 64.803Z" fill="#D8D8D8"/>
<path d="M61.8536 55.9393H60.7895L60.6366 56.0913L53.127 63.5807V55.9393H48.2592C47.5743 55.9393 47.0117 55.3801 47.0117 54.6992V43.7266C47.1096 43.7509 47.2013 43.7752 47.2991 43.8056C47.7211 43.915 48.1247 44.0488 48.5344 44.1886C48.8891 44.3162 49.2438 44.4439 49.5985 44.5837C49.7819 44.6567 49.9593 44.7357 50.1366 44.8147C55.2429 47.0214 59.4074 50.991 61.8536 55.9393Z" fill="#CE0000"/>
<path d="M78.1998 32.851V54.699C78.1998 55.3799 77.6371 55.9392 76.9522 55.9392H61.8536C59.4074 50.9908 55.2429 47.0212 50.1366 44.8145C49.9593 44.7355 49.7819 44.6565 49.5985 44.5835C49.2438 44.4437 48.8891 44.3161 48.5344 44.1884C48.1247 44.0486 47.7211 43.9148 47.2991 43.8054C47.2013 43.775 47.1096 43.7507 47.0117 43.7264V32.8632C47.0117 32.1762 47.5682 31.623 48.2592 31.623H76.9645C77.6433 31.623 78.1998 32.1641 78.1998 32.851Z" fill="#E00124"/>
</svg>
