<svg width="80" height="80" viewBox="0 0 80 80" fill="none" xmlns="http://www.w3.org/2000/svg">
<path d="M58.0942 38.0907C57.7651 38.7933 57.3703 39.4898 56.9156 40.1743H23.0164C22.5617 39.4898 22.1669 38.7933 21.8378 38.0907C19.1216 32.3205 19.0857 22.185 26.0797 18.156C30.8959 15.376 36.2985 17.1113 38.9609 18.3061C38.9908 17.4355 38.8651 16.3127 38.3207 14.9677C37.3933 12.674 35.754 11.377 34.8626 10.8066C34.2763 10.4283 34.1028 9.64174 34.4737 9.0533C34.8506 8.46487 35.6284 8.28473 36.2207 8.66301C36.9626 9.13736 38.0993 10.008 39.1344 11.353C39.6549 9.8579 40.8156 8.12261 42.2634 6.95775C45.5959 4.26777 49.8318 5.07837 50.6096 5.24049C50.3583 6.56747 49.6224 9.38955 47.1874 11.5812C45.3267 13.2504 42.6404 14.3972 40.8275 14.4573C41.3361 15.8563 41.4916 17.0812 41.4976 18.078C44.3036 16.9071 49.3292 15.5441 53.8523 18.156C60.8463 22.185 60.8104 32.3205 58.0942 38.0907Z" fill="#E00124"/>
<path d="M56.9148 40.1738C56.849 40.2879 56.7772 40.396 56.6994 40.5041C53.8216 44.6952 48.9216 48.1117 43.9139 47.3191C42.5319 47.1029 41.2096 46.5806 39.9652 45.7579C38.7208 46.5806 37.3985 47.1029 36.0225 47.3191C35.5319 47.3972 35.0413 47.4332 34.5567 47.4332C30.0755 47.4392 25.8276 44.2869 23.231 40.5041C23.1532 40.396 23.0814 40.2879 23.0156 40.1738H56.9148Z" fill="#CE0000"/>
<path d="M74.6665 57.5867H67.2716C69.3597 57.8869 71.2084 58.9437 72.5366 60.4808C73.8648 62.018 74.6665 64.0354 74.6665 66.2451C74.6665 71.0786 70.8195 74.9995 66.0691 74.9995H4.6665V57.5867H12.0614C7.27505 56.9022 3.75112 52.2127 4.88189 46.9468C5.74343 42.9479 9.393 40.1738 13.4674 40.1738H23.0161C23.0819 40.2879 23.1537 40.396 23.2315 40.5041C25.828 44.2869 30.0759 47.4392 34.5571 47.4332C35.0417 47.4332 35.5323 47.3972 36.0229 47.3191C37.399 47.1029 38.7212 46.5806 39.9657 45.7579C41.2101 46.5806 42.5323 47.1029 43.9144 47.3191C48.9221 48.1117 53.8221 44.6952 56.6998 40.5041C56.7776 40.396 56.8494 40.2879 56.9152 40.1738H74.6665V57.5867Z" fill="#D8D8D8"/>
</svg>
