<svg width="120" height="120" viewBox="0 0 120 120" fill="none" xmlns="http://www.w3.org/2000/svg">
<path d="M11.0748 20.3486H5.10156V89.0986H89.5202V20.3486H83.9818" stroke="#D8D8D8" stroke-width="5" stroke-linecap="round" stroke-linejoin="round"/>
<path d="M54.498 59.6289L89.519 89.0987" stroke="#D8D8D8" stroke-width="5" stroke-linecap="round" stroke-linejoin="round"/>
<path d="M5.10156 89.0986L40.7237 58.9893" stroke="#D8D8D8" stroke-width="5" stroke-linecap="round" stroke-linejoin="round"/>
<path d="M5.10156 22.9834L39.2399 57.4671C43.9085 62.1869 51.5574 62.1485 56.1748 57.3776L89.5202 22.9834" stroke="#D8D8D8" stroke-width="5" stroke-linecap="round" stroke-linejoin="round"/>
<path d="M12.7754 29.3023V5H81.8452V29.3023" stroke="#D8D8D8" stroke-width="5" stroke-linecap="round" stroke-linejoin="round"/>
<path d="M31.9629 24.1865H62.6606" stroke="#1D1D1D" stroke-width="5" stroke-linecap="round" stroke-linejoin="round"/>
<path d="M39.6367 39.5352H54.9856" stroke="#1D1D1D" stroke-width="5" stroke-linecap="round" stroke-linejoin="round"/>
<path d="M89.3158 115C103.444 115 114.897 103.547 114.897 89.4183C114.897 75.2901 103.444 63.8369 89.3158 63.8369C75.1876 63.8369 63.7344 75.2901 63.7344 89.4183C63.7344 103.547 75.1876 115 89.3158 115Z" fill="white" stroke="#EC4651" stroke-width="5" stroke-linecap="round" stroke-linejoin="round"/>
<path d="M79.9922 80.4648L98.6282 99.1009" stroke="#EC4651" stroke-width="5" stroke-linecap="round" stroke-linejoin="round"/>
<path d="M79.9922 99.1009L98.6282 80.4648" stroke="#EC4651" stroke-width="5" stroke-linecap="round" stroke-linejoin="round"/>
</svg>
