<svg width="50" height="50" viewBox="0 0 50 50" fill="none" xmlns="http://www.w3.org/2000/svg">
<path d="M33.8056 33.5V45H5V15.921L13.9426 7H33.8056V12.5" stroke="#1D1D1D" stroke-width="2" stroke-linecap="round" stroke-linejoin="round"/>
<path d="M13.9426 7V15.921H5" stroke="#1D1D1D" stroke-width="2" stroke-linecap="round" stroke-linejoin="round"/>
<path d="M37.562 12.9409L16.1632 34.3398L15.5771 38.8002L20.0376 38.2223L41.4446 16.8153L37.562 12.9409Z" stroke="#1D1D1D" stroke-width="2" stroke-linejoin="round"/>
<path d="M31.1493 29.7981C30.7588 30.1886 30.7588 30.8218 31.1493 31.2123C31.5399 31.6029 32.173 31.6029 32.5636 31.2123L31.1493 29.7981ZM43.8989 11.5035L43.1918 12.2106L43.8989 11.5035ZM43.3647 10.9693L42.6576 11.6764L43.3647 10.9693ZM39.4822 14.8519L42.6576 11.6764L41.2434 10.2622L38.0679 13.4377L39.4822 14.8519ZM42.6576 11.6764L43.1918 12.2106L44.606 10.7964L44.0718 10.2622L42.6576 11.6764ZM42.9466 14.877C43.6167 16.0041 43.4655 17.482 42.4958 18.4516L43.9101 19.8658C45.5415 18.2343 45.7924 15.7498 44.6656 13.8549L42.9466 14.877ZM42.4958 18.4516L31.1493 29.7981L32.5636 31.2123L43.9101 19.8658L42.4958 18.4516ZM43.1918 12.1882C42.3864 12.9936 42.5139 14.1494 42.9466 14.877L44.6656 13.8549C44.6184 13.7754 44.6014 13.693 44.6035 13.6374C44.6053 13.5892 44.6179 13.5906 44.606 13.6025L43.1918 12.1882ZM43.1918 12.2106C43.1919 12.2107 43.1913 12.2102 43.1905 12.2089C43.1897 12.2076 43.1889 12.2062 43.1884 12.2049C43.1873 12.2022 43.1871 12.2004 43.1871 12.1994C43.1871 12.1984 43.1873 12.1966 43.1884 12.194C43.1889 12.1926 43.1897 12.1912 43.1905 12.19C43.1913 12.1887 43.1919 12.1881 43.1918 12.1882L44.606 13.6025C45.3809 12.8276 45.3809 11.5713 44.606 10.7964L43.1918 12.2106ZM42.6576 11.6764V11.6764L44.0718 10.2622C43.2908 9.48116 42.0244 9.48116 41.2434 10.2622L42.6576 11.6764Z" fill="#1D1D1D"/>
<path d="M34.1113 16.3923L37.6846 19.9574" stroke="#1D1D1D" stroke-width="2" stroke-linejoin="round"/>
<path d="M16.8721 33.6316L20.7546 37.506" stroke="#1D1D1D" stroke-width="2" stroke-linejoin="round"/>
<path d="M22.4798 19.3953H10.2705" stroke="#E60024" stroke-width="2" stroke-linecap="round" stroke-linejoin="round"/>
<path d="M19.224 25.093H10.2705" stroke="#E60024" stroke-width="2" stroke-linecap="round" stroke-linejoin="round"/>
<path d="M15.1542 30.7908H10.2705" stroke="#E60024" stroke-width="2" stroke-linecap="round" stroke-linejoin="round"/>
</svg>
