<svg width="49" height="48" viewBox="0 0 49 48" fill="none" xmlns="http://www.w3.org/2000/svg">
<g id="ic">
<g id="Group 34655">
<g id="Group 34647">
<g id="Group">
<g id="Group_2">
<g id="Group_3">
<path id="Vector" d="M14.8678 37.5996H4.66675C4.11446 37.5996 3.66675 38.0473 3.66675 38.5996V43.1813C3.66675 43.7336 4.11446 44.1813 4.66675 44.1813H14.8678C15.4201 44.1813 15.8678 43.7336 15.8678 43.1813V38.5996C15.8678 38.0473 15.4201 37.5996 14.8678 37.5996Z" stroke="#1D1D1D" stroke-width="2"/>
<path id="Vector_2" d="M29.7643 37.5996H19.5632C19.0109 37.5996 18.5632 38.0473 18.5632 38.5996V43.1813C18.5632 43.7336 19.0109 44.1813 19.5632 44.1813H29.7643C30.3166 44.1813 30.7643 43.7336 30.7643 43.1813V38.5996C30.7643 38.0473 30.3166 37.5996 29.7643 37.5996Z" stroke="#1D1D1D" stroke-width="2"/>
<path id="Vector_3" d="M44.6666 37.5996H34.4607C33.9084 37.5996 33.4607 38.0473 33.4607 38.5996V43.1813C33.4607 43.7336 33.9084 44.1813 34.4607 44.1813H44.6666C45.2189 44.1813 45.6666 43.7336 45.6666 43.1813V38.5996C45.6666 38.0473 45.2189 37.5996 44.6666 37.5996Z" stroke="#1D1D1D" stroke-width="2"/>
</g>
<g id="Group_4">
<path id="Vector_4" d="M10.0959 37.0591V32.0918H39.2339V37.0591" stroke="#1D1D1D" stroke-width="2" stroke-linecap="round" stroke-linejoin="round"/>
<path id="Vector_5" d="M24.666 26.2227V37.06" stroke="#1D1D1D" stroke-width="2" stroke-linecap="round" stroke-linejoin="round"/>
</g>
</g>
</g>
<path id="Vector_6" d="M8.42749 40.6133H10.9352" stroke="#1D1D1D" stroke-width="1.5" stroke-linecap="round"/>
<path id="Vector_7" d="M23.4729 40.6133H25.9806" stroke="#1D1D1D" stroke-width="1.5" stroke-linecap="round"/>
<path id="Vector_8" d="M38.5198 40.6133H41.0275" stroke="#1D1D1D" stroke-width="1.5" stroke-linecap="round"/>
</g>
<g id="Group_5">
<g id="Group_6">
<g id="Group_7">
<path id="Vector_9" d="M27.4927 6.28949C27.3054 6.10404 27.0526 6 26.789 6H17.5859C17.0337 6 16.5859 6.44772 16.5859 7V24.9696C16.5859 25.5219 17.0337 25.9696 17.5859 25.9696H31.7415C32.2938 25.9696 32.7415 25.5219 32.7415 24.9696V11.905C32.7415 11.6381 32.6348 11.3823 32.4452 11.1945L27.4927 6.28949Z" fill="white" stroke="#E60024" stroke-width="2" stroke-linecap="round" stroke-linejoin="round"/>
<path id="Vector_10" d="M27.2004 10.4879C27.2004 11.0402 27.6482 11.4879 28.2004 11.4879H32.7416L27.2004 6V10.4879Z" stroke="#E60024" stroke-width="2" stroke-linecap="round" stroke-linejoin="round"/>
</g>
<path id="Vector_11" d="M19.4155 9.81836H23.711" stroke="#E60024" stroke-width="1.5" stroke-linecap="round"/>
<path id="Vector_12" d="M19.4153 12.6816H25.1425" stroke="#E60024" stroke-width="1.5" stroke-linecap="round"/>
<path id="Vector_13" d="M19.4155 15.5469H29.9155" stroke="#E60024" stroke-width="1.5" stroke-linecap="round"/>
<path id="Vector_14" d="M19.4153 18.4082H29.9152" stroke="#E60024" stroke-width="1.5" stroke-linecap="round"/>
</g>
<path id="Vector_15" d="M19.416 21.2734H29.9159" stroke="#E60024" stroke-width="1.5" stroke-linecap="round"/>
</g>
</g>
</g>
</svg>
