<svg width="50" height="50" viewBox="0 0 50 50" fill="none" xmlns="http://www.w3.org/2000/svg">
<path d="M5 44H33.8056V6H13.9426L5 14.921V44Z" stroke="#1D1D1D" stroke-width="2" stroke-linecap="round" stroke-linejoin="round"/>
<path d="M8 20H19" stroke="#1D1D1D" stroke-width="2" stroke-linecap="round"/>
<path d="M8 32H21" stroke="#1D1D1D" stroke-width="2" stroke-linecap="round"/>
<path d="M8 26H19" stroke="#1D1D1D" stroke-width="2" stroke-linecap="round"/>
<path d="M8 38H23" stroke="#1D1D1D" stroke-width="2" stroke-linecap="round"/>
<path d="M13.9426 6V14.921H5" stroke="#1D1D1D" stroke-width="2" stroke-linecap="round" stroke-linejoin="round"/>
<path d="M44.0003 25.6682C44.0003 31.2817 39.4379 35.8366 33.8049 35.8366C28.1718 35.8366 23.6094 31.2817 23.6094 25.6682C23.6094 20.0546 28.1718 15.4998 33.8049 15.4998C39.4379 15.4998 44.0003 20.0546 44.0003 25.6682Z" fill="white" stroke="#E60024" stroke-width="2"/>
<path d="M35.4429 22.2097C35.3126 22.2097 35.1823 22.1953 35.052 22.1663C34.1181 21.9539 33.5317 21.0201 33.7465 20.0837C33.8503 19.6325 34.1229 19.2464 34.5139 19.0002C34.9072 18.7517 35.373 18.672 35.8266 18.7758C36.2803 18.8796 36.6664 19.1523 36.9126 19.548C37.1587 19.9414 37.2359 20.4071 37.1322 20.8584C37.0284 21.3096 36.7557 21.6957 36.3648 21.9419C36.0848 22.1205 35.7663 22.2122 35.4405 22.2122L35.4429 22.2097Z" fill="#E60024"/>
<path d="M32.8546 32.9971C32.5433 32.9971 32.2392 32.8764 32.01 32.652C31.7107 32.3576 31.5853 31.9305 31.677 31.5202L32.8087 26.5636L32.3526 26.6722C31.7035 26.8266 31.0544 26.4236 30.9023 25.7745C30.7503 25.1253 31.1509 24.4762 31.8 24.3242L34.0057 23.8053C34.2253 23.7257 34.4642 23.7112 34.6958 23.7667C35.2412 23.8946 35.6345 24.3845 35.6321 24.9443C35.6321 25.0915 35.6056 25.2339 35.5573 25.3666L34.4666 30.1423L34.8117 30.0554C35.4584 29.8937 36.1123 30.2847 36.2764 30.9314C36.4381 31.5781 36.0472 32.2321 35.4005 32.3962L33.1466 32.9633C33.05 32.9874 32.9511 32.9995 32.8522 32.9995L32.8546 32.9971Z" fill="#E60024"/>
</svg>
