<svg width="80" height="80" viewBox="0 0 80 80" fill="none" xmlns="http://www.w3.org/2000/svg">
<path d="M51.9082 51.8356C51.4479 60.5712 45.1551 67.4985 37.4626 67.4985H23.2314L14.0949 77.9997V67.1567C8.26243 65.1419 4 58.7344 4 51.1094V34.4285C4 25.166 10.6459 17.6621 18.8491 17.6621H26.7308C26.7056 18.011 26.6993 18.3669 26.6993 18.7158V34.9553C26.6993 44.2747 33.1812 51.8285 41.1827 51.8285H51.9082V51.8356Z" fill="#E60024"/>
<path d="M37.0712 17.6621C45.2745 17.6621 51.9204 25.166 51.9204 34.4285V50.7819C51.9204 51.1379 51.914 51.4939 51.8888 51.8356H40.9112C32.7142 51.8356 26.0684 44.2819 26.0684 34.9624V18.7229C26.0684 18.3669 26.0747 18.011 26.0999 17.6692H37.0712V17.6621Z" fill="#CE0000"/>
<path d="M75.2505 18.7664V34.8991C75.2505 42.4671 70.988 48.8462 65.1619 50.8396V62.4444L55.893 51.8364H51.8891C51.9143 51.4875 51.9206 51.1315 51.9206 50.7827V34.4292C51.9206 25.1668 45.2748 17.6629 37.0715 17.6629H26.1064C26.5667 8.92726 32.8595 2 40.552 2H60.4013C68.6046 2 75.2505 9.50393 75.2505 18.7664Z" fill="#D8D8D8"/>
</svg>
