<svg width="80" height="80" viewBox="0 0 80 80" fill="none" xmlns="http://www.w3.org/2000/svg">
<g clip-path="url(#clip0_1047_8054)">
<path d="M75.0154 53.7133C75.1321 52.6859 75.1321 51.6342 75.0031 50.5824L78.3684 47.5488L76.5077 43.1352L71.9572 43.3905C71.2939 42.5698 70.5324 41.8342 69.7095 41.1898L69.9306 36.691L65.4661 34.8672L65.0116 35.3718L63.0588 37.53L63.0096 37.5847V45.0623C63.0096 45.0623 63.0403 45.0684 63.0588 45.0745C64.0106 45.3541 64.8827 45.8223 65.638 46.4302C67.3391 47.792 68.4199 49.8711 68.4199 52.2056C68.4199 53.2877 68.1804 54.3152 67.7628 55.2392C67.0812 56.7469 65.8959 58.0418 64.3238 58.8322C63.2921 59.3489 62.1315 59.6468 60.891 59.6468C60.0312 59.6468 59.2022 59.507 58.4223 59.2395C58.2933 59.1908 58.1582 59.1422 58.0292 59.0936C56.1009 58.3032 54.5718 56.7469 53.8472 54.8015C53.8226 54.7286 53.7919 54.6617 53.7735 54.5887L45.962 54.5766L45.7287 54.7833L43.4258 56.8563L45.2927 61.2761L49.8432 61.0268C50.1748 61.4341 50.5248 61.8232 50.8995 62.188C51.2802 62.5588 51.6732 62.9053 52.0847 63.2275L51.8697 67.7324L56.3404 69.538L58.0292 67.6716L58.2073 67.477L63.8817 67.2521L65.7854 69.5015L70.0534 67.6533L69.9245 65.3432L69.8016 63.1607C70.6307 62.498 71.386 61.7442 72.0247 60.9295L74.7759 61.0633L76.5814 61.1484L78.3991 56.7226L75.0154 53.7133Z" fill="#E00124"/>
<path d="M63.01 37.5868V45.0645C62.3345 44.8639 61.6221 44.7605 60.8914 44.7605C59.6447 44.7605 58.4656 45.0645 57.4339 45.6055C55.0205 46.8457 53.3747 49.3383 53.3747 52.2078C53.3747 53.0406 53.5098 53.8431 53.7739 54.5909L45.9624 54.5787L46.7915 53.831C46.6687 52.7853 46.6687 51.7396 46.7915 50.7001L43.4016 47.6968L44.3105 45.4961L45.2316 43.2711L49.7822 43.4838C50.427 42.6753 51.1639 41.9275 51.9991 41.2649L51.7535 36.76L56.2057 34.918L59.2701 38.2434C60.3202 38.1279 61.3888 38.1279 62.4266 38.2373L63.0162 37.5868H63.01Z" fill="#CE0000"/>
<path d="M63.0102 10.6837V37.5728L62.4207 38.2233C61.3829 38.1139 60.3143 38.1139 59.2642 38.2294L56.1998 34.8979L51.7475 36.74L51.9932 41.2509C51.158 41.9135 50.4211 42.6613 49.7762 43.4759L45.2257 43.2632L44.3046 45.4943L43.3957 47.7011L46.7855 50.7104C46.6689 51.75 46.6689 52.8017 46.7855 53.8474L45.9565 54.5951L37.8257 54.5769V61.9694C37.8257 64.614 39.9874 66.7539 42.6588 66.7539H48.2655V70.4016H16.3382V66.7539H21.945C24.6163 66.7539 26.778 64.614 26.778 61.9694V54.5951H2.69886C2.09089 54.5951 1.59961 54.1027 1.59961 53.513V10.6776C1.59961 10.0879 2.09089 9.60156 2.69886 9.60156H61.9171C62.5189 9.60156 63.0102 10.0879 63.0102 10.6837Z" fill="#D8D8D8"/>
<path d="M60.8917 44.7422C61.6224 44.7422 62.3348 44.8455 63.0103 45.0462V53.5391C63.0103 54.1166 62.5313 54.5908 61.9356 54.5908L53.7742 54.5726C53.5101 53.8248 53.375 53.0223 53.375 52.1894C53.375 49.32 55.0208 46.8274 57.4342 45.5872C58.4659 45.0462 59.645 44.7422 60.8917 44.7422Z" fill="#D8D8D8"/>
</g>
<defs>
<clipPath id="clip0_1047_8054">
<rect width="80" height="80" fill="white"/>
</clipPath>
</defs>
</svg>
