<svg width="50" height="50" viewBox="0 0 50 50" fill="none" xmlns="http://www.w3.org/2000/svg">
<path d="M25 42C15.6259 42 8 34.3741 8 25C8 15.6259 15.6259 8 25 8C34.3741 8 42 15.6259 42 25C42 34.3741 34.3741 42 25 42Z" stroke="#1D1D1D" stroke-width="2" stroke-linecap="round" stroke-linejoin="round"/>
<path d="M24.9996 38.2223C32.302 38.2223 38.2218 32.3025 38.2218 25.0001C38.2218 17.6976 32.302 11.7778 24.9996 11.7778C17.6971 11.7778 11.7773 17.6976 11.7773 25.0001C11.7773 32.3025 17.6971 38.2223 24.9996 38.2223Z" stroke="#1D1D1D" stroke-width="2" stroke-linecap="round" stroke-linejoin="round"/>
<path d="M25.0013 33.4999C26.1487 33.4999 27.0788 32.4757 27.0788 31.2123C27.0788 29.949 26.1487 28.9248 25.0013 28.9248C23.854 28.9248 22.9238 29.949 22.9238 31.2123C22.9238 32.4757 23.854 33.4999 25.0013 33.4999Z" stroke="#E60024" stroke-width="2" stroke-linecap="round" stroke-linejoin="round"/>
<path d="M26.4528 26.4816H23.545L22.1887 18.285C22.0348 17.3557 22.6836 16.5 23.5413 16.5H26.4574C27.3151 16.5 27.9639 17.3557 27.81 18.285L26.4537 26.4816H26.4528Z" stroke="#E60024" stroke-width="2" stroke-linecap="round" stroke-linejoin="round"/>
</svg>
