<svg width="50" height="50" viewBox="0 0 50 50" fill="none" xmlns="http://www.w3.org/2000/svg">
<path d="M19.1845 18.6111H16.5371C16.261 18.6111 16.0371 18.8349 16.0371 19.1111V26.9238C16.0371 27.2 16.261 27.4238 16.5371 27.4238H19.1845C19.4607 27.4238 19.6845 27.2 19.6845 26.9238V19.1111C19.6845 18.8349 19.4607 18.6111 19.1845 18.6111Z" stroke="#1D1D1D" stroke-width="2" stroke-miterlimit="10"/>
<path d="M27.8662 16.3103H25.2188C24.9426 16.3103 24.7188 16.5342 24.7188 16.8103V26.9238C24.7188 27.2 24.9426 27.4238 25.2187 27.4238H27.8662C28.1423 27.4238 28.3662 27.2 28.3662 26.9238V16.8103C28.3662 16.5342 28.1423 16.3103 27.8662 16.3103Z" stroke="#1D1D1D" stroke-width="2" stroke-miterlimit="10"/>
<path d="M36.5508 13.3088H33.9033C33.6272 13.3088 33.4033 13.5327 33.4033 13.8088V26.9239C33.4033 27.2001 33.6272 27.4239 33.9033 27.4239H36.5508C36.8269 27.4239 37.0508 27.2001 37.0508 26.9239V13.8088C37.0508 13.5327 36.8269 13.3088 36.5508 13.3088Z" stroke="#1D1D1D" stroke-width="2" stroke-miterlimit="10"/>
<path d="M14.5576 13.3083L19.2086 10.1659H23.6955L28.4976 6.71313" stroke="#E60024" stroke-width="2" stroke-miterlimit="10" stroke-linecap="round"/>
<path d="M26.041 6L29.1706 6.24L28.9294 9.35357" stroke="#E60024" stroke-width="2" stroke-miterlimit="10" stroke-linecap="round"/>
<path d="M9 38.9171L13.7983 34.0483C14.7088 33.1245 15.9434 32.6057 17.2313 32.6057H20.882C21.9199 32.6057 22.9159 33.0238 23.6497 33.7693C24.2755 34.4043 25.1247 34.761 26.0102 34.761H29.9383C30.7415 34.761 31.4327 35.2479 31.7399 35.9467L31.7609 35.9958L38.689 30.1132C39.4898 29.4332 40.6704 29.4864 41.4091 30.2359C42.197 31.0354 42.197 32.3307 41.4091 33.1302L31.2827 43.4053C30.7133 43.983 29.9415 44.3071 29.1367 44.3071H18.7063C18.2232 44.3071 17.7603 44.5018 17.4192 44.8479L16.2837 46.0001" fill="white"/>
<path d="M9 38.9171L13.7983 34.0483C14.7088 33.1245 15.9434 32.6057 17.2313 32.6057H20.882C21.9199 32.6057 22.9159 33.0238 23.6497 33.7693C24.2755 34.4043 25.1247 34.761 26.0102 34.761H29.9383C30.7415 34.761 31.4327 35.2479 31.7399 35.9467L31.7609 35.9958L38.689 30.1132C39.4898 29.4332 40.6704 29.4864 41.4091 30.2359C42.197 31.0354 42.197 32.3307 41.4091 33.1302L31.2827 43.4053C30.7133 43.983 29.9415 44.3071 29.1367 44.3071H18.7063C18.2232 44.3071 17.7603 44.5018 17.4192 44.8479L16.2837 46.0001" stroke="#1D1D1D" stroke-width="2" stroke-linecap="round" stroke-linejoin="round"/>
<path d="M31.7973 36.0938C31.8698 36.3024 31.9093 36.5274 31.9093 36.7615C31.9093 37.867 31.0263 38.763 29.9368 38.763H21.5918" stroke="#1D1D1D" stroke-width="2" stroke-linecap="round" stroke-linejoin="round"/>
</svg>
