<svg width="81" height="80" viewBox="0 0 81 80" fill="none" xmlns="http://www.w3.org/2000/svg">
<path d="M52.4991 28.0586V34.3409C43.4156 34.4363 36.0755 41.8886 36.0755 51.0642C36.0755 55.1655 37.541 58.9234 39.9792 61.8293C40.0677 61.9311 40.1561 62.0328 40.2509 62.1346H32.677C32.6139 62.0328 32.5633 61.9311 32.5065 61.8293C30.8073 58.6182 29.8408 54.9493 29.8408 51.0642C29.8408 38.4423 39.9919 28.1603 52.4991 28.0586Z" fill="#D8D8D8"/>
<path d="M52.5005 43.3516V58.7776C48.3567 58.6823 45.0215 55.2613 45.0215 51.0646C45.0215 46.8679 48.3567 43.4469 52.5005 43.3516Z" fill="#D8D8D8"/>
<path d="M52.6916 34.334C52.6285 34.334 52.5653 34.334 52.5021 34.3403V43.3505C52.5653 43.3505 52.6285 43.3505 52.6916 43.3505C56.9302 43.3505 60.3602 46.8033 60.3602 51.0699C60.3602 55.3366 56.9302 58.7893 52.6916 58.7893C52.6285 58.7893 52.5653 58.7893 52.5021 58.783V62.1403H40.2539C43.2923 65.6058 47.7393 67.7932 52.6916 67.7932C61.8699 67.7932 69.311 60.3027 69.311 51.0699C69.311 41.8372 61.8699 34.3403 52.6916 34.3403V34.334Z" fill="#E60024"/>
<path d="M52.69 24.2441H52.5005V28.0593H52.69C65.2919 28.0593 75.544 38.3794 75.544 51.0649C75.544 63.7504 65.2919 74.0641 52.69 74.0641C44.0802 74.0641 36.5633 69.2443 32.6785 62.1353H28.4336C32.6216 71.4126 41.9262 77.8793 52.69 77.8793C67.3828 77.8793 79.3341 65.8487 79.3341 51.0649C79.3341 36.281 67.3828 24.2441 52.69 24.2441Z" fill="#E60024"/>
<path d="M52.501 24.2441V28.0593C39.9938 28.1611 29.8428 38.443 29.8428 51.0649C29.8428 54.95 30.8093 58.619 32.5085 61.8301C32.5653 61.9318 32.6159 62.0336 32.679 62.1353H28.4342C28.3836 62.0336 28.3394 61.9318 28.2952 61.8301C26.855 58.5363 26.0527 54.8928 26.0527 51.0649C26.0527 36.3383 37.903 24.3459 52.501 24.2441Z" fill="#CE0000"/>
<path d="M45.0217 51.065C45.0217 55.2617 48.3569 58.6827 52.5007 58.7781V62.1354H40.2525C40.1578 62.0337 40.0693 61.9319 39.9809 61.8302C37.5426 58.9243 36.0771 55.1663 36.0771 51.065C36.0771 41.8895 43.4172 34.4372 52.5007 34.3418V43.352C48.3569 43.4474 45.0217 46.862 45.0217 51.065Z" fill="#CE0000"/>
<path d="M19.0217 3.68555L2.28223 22.0747H19.0217V3.68555Z" fill="#D8D8D8"/>
<path d="M20.2843 3V23.3477H1.33398V62.1354H28.4329C28.3824 62.0336 28.3382 61.9319 28.294 61.8302C26.8537 58.5364 26.0515 54.8929 26.0515 51.065C26.0515 36.3384 37.9018 24.346 52.4998 24.2442V3H20.2843Z" fill="#D8D8D8"/>
</svg>
