<svg width="80" height="80" viewBox="0 0 80 80" fill="none" xmlns="http://www.w3.org/2000/svg">
<g clip-path="url(#clip0_1047_8086)">
<path d="M41.1765 33.5446L35.2823 39.5L24.5296 28.6356C20.9768 30.7413 14.7374 30.3608 10.7703 26.3524C7.68197 23.2383 5.9495 18.786 7.17981 14.7269L8.47916 13.4204L12.3458 17.3209C13.9591 18.9509 16.2941 19.7437 18.5162 19.2109C19.1063 19.0714 19.6273 18.8494 19.9599 18.507C20.2989 18.1708 20.5186 17.6444 20.6567 17.0482C21.184 14.803 20.3993 12.4437 18.7861 10.8137L14.9257 6.90684L16.1498 5.66375C20.0604 4.53482 24.605 6.15845 27.6807 9.26619C31.629 13.2555 32.0245 19.509 30.4175 22.6739L41.1765 33.5446Z" fill="#E00124"/>
<path d="M74.1438 64.2105L72.8445 65.517L68.9778 61.6165C67.3646 59.9865 65.0295 59.1937 62.8074 59.7265C62.2174 59.866 61.6964 60.088 61.3637 60.4305C61.0248 60.7666 60.8051 61.2931 60.667 61.8892C60.1397 64.1344 60.9243 66.4938 62.5375 68.1237L66.3979 72.0306L65.1676 73.2737C61.2633 74.4026 56.7187 72.779 53.6429 69.6713C49.6758 65.6629 49.2992 59.3586 51.3832 55.7689L41.0134 45.2914L46.9076 39.3359L57.2836 49.8198C60.4159 48.1962 66.6051 48.5957 70.5534 52.585C73.6354 55.6991 75.3742 60.1451 74.1438 64.2105Z" fill="#E00124"/>
<path d="M41.1743 33.5443L35.2799 39.5L41.0101 45.2897L46.9045 39.3341L41.1743 33.5443Z" fill="#CE0000"/>
<path d="M41.0135 45.2944L32.4516 53.9454L35.0503 56.5711L16.8091 75.0019L6 64.0804L24.2412 45.6496L26.7206 48.1548L35.2826 39.5039L41.0135 45.2944Z" fill="#D8D8D8"/>
<path d="M74.4645 14.8433L63.7495 25.6696C61.54 27.8958 59.4434 27.4074 58.9664 27.1474L46.9081 39.3373L41.1771 33.5468L53.2291 21.3695C53.2291 21.3695 51.5155 18.3442 54.0075 15.8263L64.7224 5L74.4645 14.8433Z" fill="#D8D8D8"/>
</g>
<defs>
<clipPath id="clip0_1047_8086">
<rect width="80" height="80" fill="white"/>
</clipPath>
</defs>
</svg>
