<svg width="50" height="50" viewBox="0 0 50 50" fill="none" xmlns="http://www.w3.org/2000/svg">
<path d="M39.6273 29.4769H17.8603C15.4122 29.4769 13.43 27.4809 13.43 25.0156C13.43 22.5503 15.4122 20.5542 17.8603 20.5542H23.4074C25.8556 20.5542 27.8377 18.5582 27.8377 16.0929C27.8377 13.6276 25.8556 11.6316 23.4074 11.6316H5.87109" stroke="#1D1D1D" stroke-width="2" stroke-linecap="round" stroke-linejoin="round"/>
<path d="M11.056 17.0155L4 11.6158L11.337 6" stroke="#1D1D1D" stroke-width="2" stroke-linecap="round" stroke-linejoin="round"/>
<path d="M37.8042 43.9999C41.4579 40.0599 45.7551 35.107 45.9918 29.4317C46.1841 24.7469 42.5452 20.5537 37.8042 20.5537C33.0633 20.5537 29.4244 24.7469 29.6167 29.4317C29.8533 35.107 34.1505 40.0674 37.8042 43.9999Z" fill="white" stroke="#E60024" stroke-width="2" stroke-linecap="round" stroke-linejoin="round"/>
<path d="M37.8046 26.0361C39.4572 26.0361 40.8134 27.3917 40.8134 29.0729C40.8134 30.7542 39.4572 32.1097 37.8046 32.1097C36.152 32.1097 34.7959 30.7542 34.7959 29.0729C34.7959 27.3917 36.152 26.0361 37.8046 26.0361Z" stroke="#E60024" stroke-width="2"/>
</svg>
