<svg width="80" height="80" viewBox="0 0 80 80" fill="none" xmlns="http://www.w3.org/2000/svg">
<g clip-path="url(#clip0_792_4594)">
<rect width="80" height="80" rx="40" fill="white"/>
<path d="M60.9051 64.3654C58.0574 61.7692 53.9059 59.597 47.851 58.5868C47.3164 58.4088 46.5171 56.09 46.4521 55.7236C46.4471 55.7289 46.4421 55.7289 46.4421 55.7341C46.7069 55.4881 46.9567 55.2473 47.1915 55.0065C48.7402 53.4101 50.9284 50.5627 51.393 48.0607C55.5046 46.9092 56.1291 37.9429 51.7927 36.4564C54.6803 24.3863 50.169 24.1926 48.5554 24.2764C50.159 21.4028 46.2623 20 43.2148 20C40.1674 20 34.0974 23.2348 29.2664 21.8739C25.8743 20.916 28.9317 25.1138 28.8418 25.4907C25.8393 27.129 27.0183 34.1167 27.5679 36.6867C23.6511 38.7124 23.9459 47.1238 28.5271 48.0974C29.0067 50.5941 31.1798 53.4258 32.7236 55.0118C32.9434 55.2369 33.1732 55.4672 33.418 55.6922C33.413 55.687 33.413 55.687 33.408 55.6818C33.383 55.8126 33.0733 57.6812 32.149 58.592C26.0941 59.597 21.9425 61.7744 19.0999 64.3706C13.6395 69.3431 13 75.865 13 78.6496C13 79.5028 13.06 80.0052 13.06 80.0052H66.94C66.94 80 68.0341 70.8663 60.9051 64.3654Z" fill="#F0F0F0"/>
</g>
<rect x="0.5" y="0.5" width="79" height="79" rx="39.5" stroke="#D8D8D8"/>
<defs>
<clipPath id="clip0_792_4594">
<rect width="80" height="80" rx="40" fill="white"/>
</clipPath>
</defs>
</svg>
