<svg width="81" height="80" viewBox="0 0 81 80" fill="none" xmlns="http://www.w3.org/2000/svg">
<path d="M11.0325 63.7148V70.0007H6.12651C4.4026 70.0007 3 68.7035 3 67.1092V63.7148H11.0325Z" fill="#E00124"/>
<path d="M79.0001 63.7148V67.3492C79.0001 68.8121 77.6037 70.0007 75.8798 70.0007H71.5854V63.7148H79.0001Z" fill="#E00124"/>
<path d="M71.5851 63.7148V70.0007H11.0322V63.7148H32.4482L34.5614 65.4292H47.2651L49.3783 63.7148H71.5851Z" fill="#CE0000"/>
<path d="M71.5851 21.9062V63.7127H49.3845L47.2651 65.427H34.5675L32.4482 63.7127H11.0322V21.9177C11.0322 20.3805 12.3669 19.1405 14.0104 19.1405H36.9835V26.4949C33.2638 27.4835 29.1549 31.7293 29.1549 36.8265C29.1549 40.798 31.2433 44.7638 34.8147 46.5696H36.3656L36.3718 41.5866C36.3718 39.5123 37.4901 37.5065 39.4674 36.4151C39.9926 36.1236 40.524 35.9294 41.0059 35.9294C41.4879 35.9294 42.0193 36.1236 42.5445 36.4151C44.5217 37.5065 45.6339 39.5123 45.6339 41.5866V46.5696H47.2651C50.5585 44.7752 52.2329 40.8209 52.2329 36.8494C52.2329 31.7407 48.5503 27.4835 45.016 26.5349V19.1348H68.5946C70.2443 19.1348 71.5851 20.3748 71.5851 21.9005V21.9062Z" fill="#D8D8D8"/>
<path d="M45.0159 10H36.9834V19.143H45.0159V10Z" fill="#E00124"/>
<path d="M52.2333 36.8551C52.2333 40.8266 50.5589 44.781 47.2655 46.5753H45.6405L45.6343 41.5866C45.6343 39.5123 44.5221 37.5065 42.5449 36.4151C42.0197 36.1236 41.4821 35.9294 41.0063 35.9294C40.5306 35.9294 39.993 36.1236 39.4678 36.4151C37.4906 37.5065 36.3722 39.5123 36.3722 41.5866V46.5638H34.8151C31.2437 44.7581 29.1553 40.7923 29.1553 36.8208C29.1553 31.7236 33.2642 27.4778 36.9839 26.4892V19.1348H45.0164V26.5349C48.5507 27.4835 52.2333 31.7407 52.2333 36.8494V36.8551Z" fill="#CE0000"/>
</svg>
