<svg width="50" height="50" viewBox="0 0 50 50" fill="none" xmlns="http://www.w3.org/2000/svg">
<path d="M42.5386 8.64506V30.0213C42.5386 30.3788 42.228 30.6666 41.8421 30.6666H9.08127C8.6968 30.6666 8.38477 30.3788 8.38477 30.0213V8.64506C8.38477 8.28756 8.6968 7.99976 9.08127 7.99976H41.8421C42.228 7.99976 42.5386 8.28756 42.5386 8.64506Z" stroke="#1D1D1D" stroke-width="2" stroke-miterlimit="10"/>
<path d="M29.6155 25.1762C29.6155 25.651 29.5482 26.0928 29.417 26.4913C29.3391 26.7282 29.1122 26.8887 28.8547 26.8887H21.1444C20.8881 26.8887 20.66 26.7282 20.5821 26.4913C20.4509 26.0928 20.3848 25.651 20.3848 25.1762C20.3848 23.4797 21.2 21.5952 22.3897 20.4293C21.7706 19.7939 21.4162 18.9502 21.4162 18.0643C21.4162 16.1605 23.0242 14.6108 24.9996 14.6108C26.975 14.6108 28.5829 16.1605 28.5829 18.0643C28.5829 18.9502 28.2285 19.7939 27.6106 20.4293C28.7991 21.5952 29.6155 23.4797 29.6155 25.1762Z" stroke="#E60024" stroke-width="2" stroke-miterlimit="10"/>
<path d="M38.8456 12.4004V26.266C38.8456 26.611 38.5265 26.8888 38.1332 26.8888H11.8657C11.4725 26.8888 11.1533 26.611 11.1533 26.266V12.4004C11.1533 12.0554 11.4725 11.7776 11.8657 11.7776H38.1332C38.5265 11.7776 38.8456 12.0554 38.8456 12.4004Z" stroke="#1D1D1D" stroke-width="2" stroke-miterlimit="10"/>
<path d="M47.1544 36.3332C47.1035 36.3295 47.0513 36.3283 46.9991 36.3283H3.002C2.94975 36.3283 2.89751 36.3283 2.84668 36.3332L8.15146 30.8846C8.2856 30.7458 8.48186 30.6665 8.68801 30.6665H41.313C41.5192 30.6665 41.7155 30.7458 41.8496 30.8846L47.1544 36.3332Z" stroke="#1D1D1D" stroke-width="2" stroke-miterlimit="10"/>
<path d="M49 38.7799V39.8488C49 41.0348 48.0097 42 46.7927 42H3.20725C1.99033 42 1 41.0348 1 39.8488V38.7799C1 37.6443 1.9078 36.7118 3.05339 36.6341C3.10374 36.63 3.1555 36.6287 3.20725 36.6287H46.7927C46.8445 36.6287 46.8963 36.6287 46.9466 36.6341C48.0922 36.7118 49 37.6443 49 38.7799Z" stroke="#1D1D1D" stroke-width="2" stroke-miterlimit="10"/>
</svg>
