<svg width="48" height="48" viewBox="0 0 48 48" fill="none" xmlns="http://www.w3.org/2000/svg">
<g id="ic">
<g id="Group 34627">
<path id="Vector" d="M41.0625 12.8475V33.0094C41.0625 34.2359 40.0879 35.2261 38.8883 35.2261H8.17415C6.97462 35.2261 6 34.2359 6 33.0094V12.8475C6 11.6211 6.97462 10.6309 8.17415 10.6309H14.4615V31.0198C14.4615 32.1244 15.3569 33.0198 16.4615 33.0198H30.601C31.7056 33.0198 32.601 32.1244 32.601 31.0198V10.6309H38.8883C40.0879 10.6309 41.0625 11.6211 41.0625 12.8475Z" stroke="#1D1D1D" stroke-width="2" stroke-linecap="round" stroke-linejoin="round"/>
<path id="Vector_2" d="M34.6185 4.51953C33.5076 4.51953 32.6011 5.44025 32.6011 6.57637V31.02C32.6011 32.1245 31.7057 33.02 30.6011 33.02H16.4615C15.357 33.02 14.4615 32.1245 14.4615 31.02V6.57637C14.4615 5.44025 15.3646 4.51953 16.4789 4.51953H34.6185Z" stroke="#1D1D1D" stroke-width="2" stroke-linecap="round" stroke-linejoin="round"/>
<path id="Vector_3" d="M36.6379 6.57637V7.63321C36.6379 8.1855 36.1902 8.63321 35.6379 8.63321H32.5997V6.57637C32.5997 5.44025 33.5062 4.51953 34.6171 4.51953C35.7281 4.51953 36.6379 5.44025 36.6379 6.57637Z" stroke="#1D1D1D" stroke-width="2" stroke-linecap="round" stroke-linejoin="round"/>
<path id="Vector_4" d="M26.5345 15.7911L26.1482 16.3583L25.6077 16.7373C25.1841 17.0344 24.7041 17.2425 24.189 17.3368L23.5341 17.4566L22.8792 17.3368C22.3611 17.242 21.8829 17.0364 21.464 16.7398L20.9087 16.3468L20.5362 15.7946C20.2431 15.3603 20.0362 14.8656 19.9423 14.3322L19.823 13.6543L19.9423 12.9765C20.0368 12.4401 20.2412 11.9472 20.5338 11.5176L20.92 10.9504L21.4605 10.5713C21.8841 10.2742 22.3641 10.0661 22.8792 9.97187L23.5341 9.85203L24.189 9.97187C24.7071 10.0667 25.1853 10.2723 25.6042 10.5688L26.1595 10.9619L26.5321 11.514C26.8251 11.9483 27.032 12.443 27.1259 12.9765L27.2452 13.6543L27.1259 14.3322C27.0315 14.8686 26.827 15.3615 26.5345 15.7911Z" stroke="#E60024" stroke-width="2"/>
<path id="Vector_5" d="M21.0035 22.3047H29.6763" stroke="#1D1D1D" stroke-width="2" stroke-linecap="round" stroke-linejoin="round"/>
<path id="Vector_6" d="M17.3854 22.3047H18.5679" stroke="#1D1D1D" stroke-width="2" stroke-linecap="round" stroke-linejoin="round"/>
<path id="Vector_7" d="M21.0035 28.4121H29.6763" stroke="#1D1D1D" stroke-width="2" stroke-linecap="round" stroke-linejoin="round"/>
<path id="Vector_8" d="M17.3854 28.4121H18.5679" stroke="#1D1D1D" stroke-width="2" stroke-linecap="round" stroke-linejoin="round"/>
<path id="Vector_9" d="M26.4148 25.3594H29.676" stroke="#1D1D1D" stroke-width="2" stroke-linecap="round" stroke-linejoin="round"/>
<path id="Vector_10" d="M24.1793 25.3594H24.7007" stroke="#1D1D1D" stroke-width="2" stroke-linecap="round" stroke-linejoin="round"/>
<path id="Vector_11" d="M17.3854 25.3594H22.1562" stroke="#1D1D1D" stroke-width="2" stroke-linecap="round" stroke-linejoin="round"/>
<path id="Vector_12" d="M34.0214 43.4782H13.0398C13.0398 42.8945 13.2715 42.3664 13.6464 41.9808C14.0246 41.5986 14.5426 41.3623 15.1151 41.3623H20.254V35.2266H26.8072V41.3623H31.9461C33.0911 41.3623 34.0214 42.3108 34.0214 43.4782Z" stroke="#1D1D1D" stroke-width="2" stroke-linecap="round" stroke-linejoin="round"/>
</g>
</g>
</svg>
