<svg width="24" height="24" viewBox="0 0 24 24" fill="none" xmlns="http://www.w3.org/2000/svg">
<g id="ico">
<path id="Vector" d="M9.2304 16.7018C8.9024 16.7018 8.6376 16.4414 8.6376 16.1223C8.6376 15.8017 8.9032 15.5428 9.2304 15.5428H14.7704C15.0984 15.5428 15.3632 15.8025 15.3632 16.1223C15.3632 16.4414 15.0976 16.7018 14.7704 16.7018H9.2304ZM9.2304 19.7931C8.9024 19.7931 8.6376 19.5335 8.6376 19.2137C8.6376 18.8954 8.9032 18.6365 9.2304 18.6365H14.7704C15.0984 18.6365 15.3632 18.8962 15.3632 19.2137C15.3632 19.5343 15.0976 19.7931 14.7704 19.7931H9.2304ZM19.8856 8.08705C20.3592 8.08705 20.7384 8.46086 20.7384 8.92069C20.7384 9.3813 20.3584 9.75354 19.8856 9.75354C19.4176 9.75354 19.0352 9.3813 19.0352 8.92069C19.0352 8.46086 19.4176 8.08705 19.8856 8.08705ZM7.3392 6.22975H16.6632V3H7.3392V6.22975ZM17.8464 16.328H21.056C21.316 16.328 21.5528 16.224 21.7216 16.0574V16.0559C21.8936 15.8893 22 15.6578 22 15.406V7.73123C22 7.47942 21.8936 7.24794 21.7216 7.08059C21.5504 6.91402 21.3136 6.81001 21.056 6.81001H2.944C2.684 6.81001 2.4472 6.91402 2.2784 7.08059C2.1064 7.24872 2 7.47864 2 7.73123V15.4068C2 15.6594 2.1064 15.8908 2.276 16.0566H2.2784C2.4472 16.2248 2.684 16.3288 2.944 16.3288H6.1536V13.2273C6.1536 13.0044 6.2472 12.8026 6.3952 12.6595C6.5432 12.5149 6.7488 12.4234 6.9752 12.4234H17.0248C17.2512 12.4234 17.4568 12.5149 17.6048 12.6595C17.7528 12.8034 17.8464 13.0052 17.8464 13.2273V16.328ZM17.2536 13.0013H6.7464V22H17.204C17.2168 22 17.2296 21.9945 17.2376 21.9851C17.248 21.9773 17.2536 21.9648 17.2536 21.9523V13.0013Z" fill="#E60024"/>
</g>
</svg>
