<svg width="51" height="50" viewBox="0 0 51 50" fill="none" xmlns="http://www.w3.org/2000/svg">
<g id="ic">
<g id="Group 34651">
<path id="Vector" d="M38.6616 7.29297H12.2657C8.62126 7.29297 5.66675 10.3361 5.66675 14.09V30.4961C5.66675 34.2499 8.62126 37.2931 12.2657 37.2931H14.7081V45.0013L22.1917 37.2931H38.6616C42.306 37.2931 45.2605 34.2499 45.2605 30.4961V14.09C45.2605 10.3361 42.306 7.29297 38.6616 7.29297Z" fill="white" stroke="#1D1D1D" stroke-width="2" stroke-linecap="round" stroke-linejoin="round"/>
<g id="Group">
<g id="Group_2">
<g id="Group_3">
<path id="Vector_2" d="M23.5787 21.2455C25.603 19.1694 25.603 15.8033 23.5787 13.7271C21.5545 11.651 18.2725 11.651 16.2482 13.7271C14.224 15.8033 14.224 19.1694 16.2482 21.2455C18.2725 23.3217 21.5545 23.3217 23.5787 21.2455Z" stroke="#E60024" stroke-width="2" stroke-linecap="round" stroke-linejoin="round"/>
<path id="Vector_3" d="M28.174 31.6523C28.174 26.9752 24.4777 23.1797 19.9132 23.1797C15.3486 23.1797 11.6523 26.9708 11.6523 31.6523" stroke="#E60024" stroke-width="2" stroke-linecap="round" stroke-linejoin="round"/>
</g>
<g id="Group_4">
<path id="Vector_4" d="M32.7453 23.9333C35.1381 23.3513 36.6179 20.8901 36.0505 18.4359C35.4831 15.9817 33.0834 14.4639 30.6905 15.0459C28.2977 15.6278 26.8179 18.0891 27.3853 20.5433C27.9527 22.9975 30.3524 24.5153 32.7453 23.9333Z" stroke="#E60024" stroke-width="2" stroke-linecap="round" stroke-linejoin="round"/>
<path id="Vector_5" d="M38.8169 31.653C38.8169 27.6327 35.6406 24.375 31.7208 24.375C29.8469 24.375 28.1449 25.12 26.877 26.3367" stroke="#E60024" stroke-width="2" stroke-linecap="round" stroke-linejoin="round"/>
</g>
</g>
</g>
</g>
</g>
</svg>
