<svg width="50" height="50" viewBox="0 0 50 50" fill="none" xmlns="http://www.w3.org/2000/svg">
<path d="M42.6331 15.5889C41.931 14.3627 41.2021 13.2263 40.5 12.0001C39.7427 10.6784 39.0722 9.18945 38.1808 7.9553C37.7075 7.3024 37.119 7.4754 36.4721 7.63465C35.352 7.90536 34.2239 8.19996 33.1116 8.51049C31.9205 8.83694 30.7214 9.17136 29.5697 9.62521C29.2541 9.74464 28.9465 9.88 28.6388 10.0313C28.0472 10.31 27.9762 10.2303 27.3846 9.98351C26.5168 9.61724 25.6491 9.25098 24.7734 8.89268C22.4621 7.95314 20.0955 6.79861 17.5554 6.91008C16.3406 6.95785 15.1258 7.09321 13.9188 7.22857C13.2483 7.30819 12.458 7.42684 12.0004 8.00012C11.1643 9.07503 10.5726 10.5003 9.8942 11.6866C9.1369 13.0084 8.1745 14.346 7.56708 15.7554C7.23577 16.5357 7.74999 16.8629 8.23908 17.3725C9.20937 18.3916 10.1954 19.4028 11.2052 20.3902C12.1281 21.2819 13.059 22.1578 14.1081 22.8903C14.7392 23.3203 15.3861 23.7343 16.0408 24.1324C16.5063 24.427 17.0269 24.6818 17.4687 25.0083C17.8158 25.271 17.8631 25.6214 18.1392 25.9876C17.5554 25.7567 16.4037 25.5258 15.9541 26.1071C15.7253 26.4017 15.7963 26.76 15.8357 27.1023C15.9383 27.9782 16.0408 28.8461 16.1592 29.7219C16.451 32.015 16.735 34.3321 17.2478 36.5854C17.6974 38.552 18.9754 40.1525 20.1429 41.7529C20.5373 42.2943 20.9791 43.194 21.5549 43.5762C21.9336 43.831 22.6041 43.7195 23.0301 43.7195L28.5436 43.5001C29.1905 43.5001 29.8531 43.5399 30.5 43.5001C31.1547 43.4523 31.6128 43.3135 31.7864 42.7322C32.4411 40.4869 33.0958 38.2176 33.5376 35.9165C33.7743 34.7063 33.8295 33.4881 33.8689 32.2539C33.9005 31.4895 33.9084 30.7252 33.9241 29.9608C33.9241 29.5547 33.932 29.1486 33.932 28.7426C33.932 28.4002 33.8137 27.803 33.9399 27.5004C34.0898 27.1103 34.7446 26.76 35.0995 26.4813C35.5176 26.1548 35.9278 25.8284 36.338 25.494C36.9455 25.0003 37.545 24.5066 38.1366 23.9891C38.8308 23.384 39.5487 22.7709 40.0378 21.9746C40.7398 20.836 41.2684 19.578 41.8048 18.3598C42.0651 17.7547 43.0196 16.2737 42.6331 15.5889ZM18.0919 23.1531C17.8158 23.4875 17.9341 23.4397 17.5397 23.1929C17.0585 22.8983 16.5773 22.6037 16.1039 22.3011C13.3982 20.5733 11.2052 18.2085 9.01216 15.8835C10.1323 13.9169 11.2604 11.9502 12.3806 9.98351C12.5304 9.72872 12.704 9.19525 12.9406 9.01211C13.3272 8.70159 14.471 8.76528 14.968 8.71751C16.4353 8.55827 18.084 8.23978 19.5276 8.65381C21.8468 9.30672 24.0871 10.3179 26.2959 11.2495C25.8068 11.5202 25.0338 12.1652 24.4973 12.1811C24.024 12.197 23.3614 11.8626 22.9118 11.7193C22.1702 11.4724 20.3243 10.2781 19.8116 11.3451C19.3146 12.3881 21.547 13.2082 22.2018 13.5824C21.3972 14.0522 20.2691 14.522 19.709 15.3182C19.1016 16.1941 19.2041 17.4043 19.9693 18.1528C18.9517 18.7499 17.7132 19.2595 17.4687 20.5653C17.3977 20.9396 17.4213 21.3138 17.5239 21.68C17.5949 21.9348 17.6974 22.1737 17.8552 22.3887C17.9341 22.5081 18.1707 22.6594 18.2102 22.7788C18.2891 22.9779 18.2733 22.9381 18.0919 23.1531ZM19.8826 25.2949C19.425 25.2949 19.1489 24.7614 19.2357 24.3633C19.3382 23.9174 19.8273 23.7343 20.1744 23.5273C20.1744 23.9811 20.2691 24.5465 20.1744 24.9844C20.1034 25.2869 20.3006 25.3029 19.8826 25.2949ZM20.1744 26.8794V28.0419C20.0324 27.7712 19.8747 27.5084 19.6932 27.2695C19.6222 27.166 19.2436 26.7918 19.3698 26.8237C19.6459 26.8953 19.8983 26.9033 20.1744 26.8794ZM20.0403 21.7199C19.8352 21.8632 19.4566 21.7597 19.283 21.6163C18.2102 20.7564 20.0719 19.9363 20.632 19.6099C20.2691 20.1035 20.1823 20.6768 20.1744 21.274C20.1665 21.5288 20.2297 21.5925 20.0403 21.7199ZM32.3149 31.601C32.2833 32.66 32.2754 33.7349 32.1335 34.7859C31.9599 36.036 31.6365 37.2781 31.3209 38.4963C31.1474 39.1492 30.9738 39.7942 30.8003 40.4311C30.682 40.8531 30.6189 41.5936 30.3664 41.9519C30.1534 42.2625 29.617 42.1271 29.191 42.1271H23.7479C23.4166 42.1271 22.6988 42.2704 22.3911 42.1271C22.0677 41.9758 21.6496 41.1398 21.4445 40.8531C21.0106 40.256 20.5846 39.6588 20.1744 39.0537C19.6617 38.2893 19.1095 37.5249 18.8728 36.6172C18.084 33.6632 17.8236 30.4943 17.4687 27.4606C18.3758 27.7791 18.8334 28.8301 19.141 29.6741C19.4014 30.3828 19.5907 31.1312 19.7485 31.8717C19.8589 32.3813 19.9536 32.8989 20.0403 33.4164C20.1192 33.8623 20.0877 34.4754 20.4742 34.7779C21.0501 35.2398 21.6733 34.762 21.7521 34.141C21.7758 33.918 21.7521 33.6792 21.7521 33.4642V22.747C21.7521 22.1339 21.5549 21.1466 21.8547 20.6211C22.2807 19.8965 23.1879 20.3105 23.2825 21.0112C23.3062 21.1545 23.2825 21.3138 23.2825 21.4491C23.2825 22.3011 23.2904 23.1531 23.2904 24.013C23.2904 26.1469 23.2904 28.2887 23.3062 30.4226C23.3062 31.0277 23.2036 31.9752 24.095 31.9752C24.9943 31.9673 24.8839 30.9959 24.8839 30.3828V24.1006C24.8839 22.6674 24.8681 21.2342 24.8839 19.801C24.8918 19.2197 25.1205 18.4155 25.9094 18.7261C26.2802 18.8694 26.3827 19.1799 26.4143 19.5462C26.4774 20.1354 26.4222 20.7724 26.4222 21.3695C26.4222 23.6228 26.43 25.8762 26.43 28.1374C26.43 28.9814 26.4379 29.8254 26.4379 30.6615C26.4379 31.3303 26.714 32.4052 27.6212 31.8638C28.1734 31.5373 28.0156 30.6376 28.0156 30.0961V22.102C28.0156 21.7039 27.9289 21.1864 28.0393 20.8042C28.2838 20.0319 29.3409 20.1035 29.5302 20.8599C29.6407 21.2899 29.5539 21.8473 29.5539 22.2772C29.5539 24.4589 29.5539 26.6326 29.5539 28.8063C29.5618 29.6821 29.5618 30.5659 29.5618 31.4418C29.5618 32.1026 29.8063 33.2253 30.753 32.6679C31.3446 32.3176 31.1395 31.171 31.1395 30.5978V27.2775C31.1395 26.5131 31.0764 25.7089 31.1395 24.9446C31.2342 23.8458 32.2597 23.9971 32.3386 24.9923C32.52 27.166 32.3622 29.4353 32.307 31.601H32.3149ZM40.235 18.0095C39.7301 19.1481 39.2489 20.3902 38.5153 21.4173C38.2392 21.7995 37.8447 22.1259 37.4977 22.4444C36.3538 23.4715 35.139 24.435 33.932 25.3825C33.9241 24.9286 33.932 24.4748 33.7822 24.0369C33.7427 23.9413 33.5218 23.6228 33.5376 23.5273C33.5692 23.3521 34.2002 22.9381 34.3186 22.8346C34.7603 22.4524 35.7148 21.9508 35.7306 21.2979C35.7464 20.629 35.0838 20.3583 34.5473 20.5892C33.3641 21.0988 32.2439 21.9348 31.1316 22.5877C31.1316 22.1498 31.1316 21.7199 31.1237 21.2899C31.1237 21.1784 31.0764 20.8679 31.1158 20.7803C31.2263 20.5255 31.5497 20.5096 31.597 20.1354C31.6523 19.7771 31.455 19.4427 31.1237 19.2993C30.9423 19.2277 30.8082 19.2754 30.6346 19.2595C30.5321 19.2516 30.4611 19.2516 30.4216 19.2595C30.3743 19.2277 30.3191 19.1958 30.2323 19.156C29.6328 18.8853 29.1831 18.5748 28.4811 18.6624C29.0175 18.3518 30.1219 17.9776 30.0351 17.1893C29.8773 15.8517 28.4337 16.8549 27.8658 17.1814C27.708 17.2769 27.3214 17.6193 27.1321 17.6113C26.9743 17.6034 26.6746 17.3167 26.5089 17.2451C26.2328 17.1336 25.941 17.0779 25.6491 17.0779C24.8997 17.0779 24.1818 17.4601 23.74 18.0731C23.6533 18.1926 23.5823 18.32 23.5192 18.4553C23.3456 18.8296 23.4639 18.7261 23.1405 18.734C22.8486 18.7499 22.5568 18.6305 22.2491 18.6624C23.1169 18.1528 23.9846 17.6432 24.8523 17.1336C26.1224 16.3931 27.5029 15.7322 28.7019 14.8803C29.5697 14.2672 28.9938 13.033 27.9762 13.471C27.5108 13.67 27.069 13.9965 26.6273 14.2592C25.4361 14.952 24.237 15.6447 23.0459 16.3453C22.6278 16.5842 22.0046 17.1256 21.5076 17.1416C20.9317 17.1655 20.7266 16.5603 21.0737 16.1542C21.3498 15.8198 21.8941 15.6049 22.2491 15.3978C24.6472 13.9806 27.0611 12.4757 29.6091 11.3291C31.6917 10.3896 34.003 9.89592 36.2039 9.33857C36.3933 9.29079 36.9533 9.05989 37.119 9.13155C37.19 9.1634 37.2926 9.43411 37.332 9.50577C37.6633 10.087 37.9946 10.6683 38.3259 11.2415C38.8387 12.1333 39.3436 13.0251 39.8563 13.9169C40.2034 14.522 40.6688 15.151 40.9371 15.8039C41.1974 16.4489 40.5111 17.3804 40.235 18.0095Z" fill="#1D1D1D"/>
<path d="M7.64669 17.476C7.51258 17.476 7.37059 17.4362 7.25226 17.3725L4.43606 15.7323C4.05741 15.5093 3.93119 15.0236 4.14418 14.6414L9.38217 5.48486C9.48472 5.30173 9.65826 5.16637 9.86337 5.11063C10.0685 5.0549 10.2815 5.08675 10.4629 5.19026L13.2791 6.83048C13.6578 7.05342 13.784 7.53912 13.571 7.92131L8.33299 17.0779C8.23044 17.261 8.05689 17.3964 7.85179 17.4521C7.78868 17.468 7.71769 17.476 7.64669 17.476ZM5.91121 14.7449L7.3627 15.5889L11.8039 7.8178L10.3525 6.9738L5.91121 14.7449Z" fill="#E60024"/>
<path d="M42.3483 17.476C42.2773 17.476 42.2142 17.468 42.1432 17.4521C41.9381 17.3964 41.7725 17.261 41.662 17.0779L36.4241 7.92131C36.2032 7.53912 36.3373 7.05342 36.7159 6.83048L39.5321 5.19026C39.7136 5.08675 39.9266 5.0549 40.1317 5.11063C40.3368 5.16637 40.5024 5.30173 40.6129 5.48486L45.8509 14.6414C46.0717 15.0236 45.9376 15.5093 45.559 15.7323L42.7428 17.3725C42.6244 17.4441 42.4824 17.476 42.3483 17.476ZM38.1911 7.8178L42.6402 15.5969L44.0917 14.7529L39.6426 6.9738L38.1911 7.8178Z" fill="#E60024"/>
<path d="M31.6828 47.0003H21.2068C20.773 47.0003 20.418 46.642 20.418 46.2041V42.9237C20.418 42.4857 20.773 42.1274 21.2068 42.1274H31.6828C32.1167 42.1274 32.4716 42.4857 32.4716 42.9237V46.2041C32.4716 46.642 32.1167 47.0003 31.6828 47.0003ZM22.0036 45.4079H30.9018V43.7199H22.0036V45.4079Z" fill="#E60024"/>
</svg>
