<svg width="50" height="50" viewBox="0 0 50 50" fill="none" xmlns="http://www.w3.org/2000/svg">
<g id="ic">
<g id="Group 34639">
<g id="Group 34638">
<path id="Vector" d="M19.1847 18.6113H16.5372C16.2611 18.6113 16.0372 18.8352 16.0372 19.1113V26.9241C16.0372 27.2002 16.2611 27.4241 16.5372 27.4241H19.1847C19.4608 27.4241 19.6847 27.2002 19.6847 26.9241V19.1113C19.6847 18.8352 19.4608 18.6113 19.1847 18.6113Z" stroke="#1D1D1D" stroke-width="2" stroke-miterlimit="10"/>
<path id="Vector_2" d="M27.8656 16.3105H25.2182C24.9421 16.3105 24.7182 16.5344 24.7182 16.8105V26.9241C24.7182 27.2002 24.9421 27.4241 25.2182 27.4241H27.8656C28.1418 27.4241 28.3656 27.2002 28.3656 26.9241V16.8105C28.3656 16.5344 28.1418 16.3105 27.8656 16.3105Z" stroke="#1D1D1D" stroke-width="2" stroke-miterlimit="10"/>
<path id="Vector_3" d="M36.5501 13.3086H33.9027C33.6266 13.3086 33.4027 13.5325 33.4027 13.8086V26.9237C33.4027 27.1998 33.6266 27.4237 33.9027 27.4237H36.5501C36.8263 27.4237 37.0501 27.1998 37.0501 26.9237V13.8086C37.0501 13.5325 36.8263 13.3086 36.5501 13.3086Z" stroke="#1D1D1D" stroke-width="2" stroke-miterlimit="10"/>
<path id="Vector_4" d="M14.5574 13.308L19.2084 10.1657H23.6953L28.4975 6.71289" stroke="#E60024" stroke-width="2" stroke-miterlimit="10" stroke-linecap="round"/>
<path id="Vector_5" d="M26.0406 6L29.1702 6.24L28.9289 9.35357" stroke="#E60024" stroke-width="2" stroke-miterlimit="10" stroke-linecap="round"/>
</g>
<g id="Group 34624">
<g id="&#236;&#134;&#144;">
<g id="Vector_6">
<path d="M8.99982 38.9173L13.7981 34.0486C14.7086 33.1247 15.9432 32.6059 17.2311 32.6059H20.8819C21.9197 32.6059 22.9157 33.0241 23.6495 33.7695C24.2753 34.4045 25.1245 34.7613 26.01 34.7613H29.9381C30.7414 34.7613 31.4325 35.2481 31.7397 35.947L31.7607 35.9961L38.6888 30.1135C39.4896 29.4335 40.6702 29.4867 41.4089 30.2362C42.1968 31.0357 42.1968 32.331 41.4089 33.1304L31.2825 43.4056C30.7131 43.9833 29.9414 44.3073 29.1365 44.3073H18.7061C18.223 44.3073 17.7601 44.5021 17.419 44.8482L16.2836 46.0003" fill="white"/>
<path d="M8.99982 38.9173L13.7981 34.0486C14.7086 33.1247 15.9432 32.6059 17.2311 32.6059H20.8819C21.9197 32.6059 22.9157 33.0241 23.6495 33.7695C24.2753 34.4045 25.1245 34.7613 26.01 34.7613H29.9381C30.7414 34.7613 31.4325 35.2481 31.7397 35.947L31.7607 35.9961L38.6888 30.1135C39.4896 29.4335 40.6702 29.4867 41.4089 30.2362C42.1968 31.0357 42.1968 32.331 41.4089 33.1304L31.2825 43.4056C30.7131 43.9833 29.9414 44.3073 29.1365 44.3073H18.7061C18.223 44.3073 17.7601 44.5021 17.419 44.8482L16.2836 46.0003" stroke="#1D1D1D" stroke-width="2" stroke-linecap="round" stroke-linejoin="round"/>
</g>
<path id="Vector_7" d="M31.7971 36.0938C31.8697 36.3024 31.9092 36.5274 31.9092 36.7615C31.9092 37.867 31.0261 38.763 29.9366 38.763H21.5916" stroke="#1D1D1D" stroke-width="2" stroke-linecap="round" stroke-linejoin="round"/>
</g>
</g>
</g>
</g>
</svg>
