<svg width="50" height="50" viewBox="0 0 50 50" fill="none" xmlns="http://www.w3.org/2000/svg">
<path d="M21.5681 25.6416C20.9302 26.952 20.5708 28.4137 20.5708 29.9618C20.5708 30.4442 20.6075 30.9194 20.6735 31.3874C21.1575 34.6852 23.2841 37.4645 26.2173 38.8974H9C7.34314 38.8974 6 37.5542 6 35.8974V10C6 8.34315 7.34315 7 9 7H21.7055C22.4916 7 23.2464 7.30859 23.8073 7.85939L29.6604 13.6064C30.2349 14.1705 30.5585 14.9419 30.5585 15.747V20.0038C26.5986 20.0614 23.1814 22.3439 21.5681 25.6416Z" fill="white" stroke="#1D1D1D" stroke-width="2" stroke-linecap="round" stroke-linejoin="round"/>
<path d="M22.9326 7V14.4883H30.559" stroke="#1D1D1D" stroke-width="2" stroke-linecap="round" stroke-linejoin="round"/>
<path d="M11.1182 20.0676H25.4397" stroke="#E60024" stroke-width="2" stroke-linecap="round" stroke-linejoin="round"/>
<path d="M11.1182 25.6411H20.7172" stroke="#E60024" stroke-width="2" stroke-linecap="round" stroke-linejoin="round"/>
<path d="M11.1182 31.386H20.7172" stroke="#E60024" stroke-width="2" stroke-linecap="round" stroke-linejoin="round"/>
<path d="M40.8693 29.9594C40.8693 32.7099 39.7327 35.2012 37.8994 37.0085C36.0661 38.8085 33.5289 39.9246 30.7203 39.9246C29.107 39.9246 27.5744 39.5502 26.2178 38.8949C23.2845 37.4621 21.1579 34.6828 20.674 31.385C20.608 30.917 20.5713 30.4418 20.5713 29.9594C20.5713 28.4113 20.9306 26.9496 21.5686 25.6392C23.1819 22.3414 26.5991 20.0589 30.559 20.0013C30.6103 19.9941 30.669 19.9941 30.7203 19.9941C36.3301 19.9941 40.8693 24.4511 40.8693 29.9594Z" fill="white" stroke="#1D1D1D" stroke-width="2" stroke-linecap="round" stroke-linejoin="round"/>
<path d="M44.0005 42.9999L37.8994 37.0093" stroke="#1D1D1D" stroke-width="2" stroke-linecap="round" stroke-linejoin="round"/>
</svg>
