<svg width="50" height="50" viewBox="0 0 50 50" fill="none" xmlns="http://www.w3.org/2000/svg">
<path d="M19.5715 23.8935C24.3668 23.8935 28.3375 20.0071 28.4404 15.213C28.5433 10.4189 24.7394 6.53247 19.9442 6.53247C15.149 6.53247 11.1783 10.4189 11.0754 15.213C10.9725 20.0071 14.7763 23.8935 19.5715 23.8935Z" stroke="#1D1D1D" stroke-width="2" stroke-linecap="round" stroke-linejoin="round"/>
<path d="M33.4444 39.1154C33.4444 30.9577 27.3044 24.3376 19.7222 24.3376C12.14 24.3376 6 30.95 6 39.1154" stroke="#1D1D1D" stroke-width="2" stroke-linecap="round" stroke-linejoin="round"/>
<path d="M33.4442 44.0252C28.1668 44.0252 23.8887 39.747 23.8887 34.4696C23.8887 29.1922 28.1668 24.9141 33.4442 24.9141C38.7216 24.9141 42.9998 29.1922 42.9998 34.4696C42.9998 39.747 38.7216 44.0252 33.4442 44.0252Z" fill="white" stroke="#1D1D1D" stroke-width="2"/>
<path d="M29.2227 33.6428L32.5323 37.8545L38.2061 31.303" stroke="#E60024" stroke-width="2" stroke-linecap="round" stroke-linejoin="round"/>
</svg>
