<svg width="50" height="50" viewBox="0 0 50 50" fill="none" xmlns="http://www.w3.org/2000/svg">
<path d="M12.2797 19.5612V20.5612H13.2797H15.0785H16.0785V19.5612V15.4858H18.6516H19.2757H19.6516H20.2757H22.8488V19.5612V20.5612H23.8488H25.6476H26.6476V19.5612V10.4161L35.9273 7.07765V34.5623H3V15.4858H12.2797V19.5612ZM26.5177 10.4628L26.518 10.4627L26.5177 10.4628Z" stroke="#1D1D1D" stroke-width="2"/>
<path d="M46.5526 29.6039L44.684 29.3082C44.4869 28.6553 44.2241 28.0269 43.9038 27.4232L45.0167 25.8955C45.2795 25.5342 45.2425 25.0331 44.9263 24.7128L42.3145 22.1051C41.9982 21.7847 41.4931 21.7437 41.1317 22.0106L39.604 23.1235C39.0004 22.8032 38.372 22.5404 37.7191 22.3432L37.4234 20.4747C37.3536 20.0312 36.9716 19.7026 36.5199 19.7026H32.8321C32.3803 19.7026 31.9984 20.0312 31.9286 20.4747L31.637 22.3432C30.98 22.5404 30.3516 22.8032 29.7479 23.1235L28.2203 22.0106C27.8589 21.7437 27.3578 21.7847 27.0375 22.1051L24.4298 24.7128C24.1094 25.0331 24.0725 25.5342 24.3353 25.8955L25.4482 27.4232C25.1279 28.0269 24.8651 28.6553 24.668 29.3082L22.7994 29.6039C22.3559 29.6737 22.0273 30.0556 22.0273 30.5074V34.1952C22.0273 34.6469 22.3559 35.0289 22.7994 35.0987L24.668 35.3944C24.8651 36.0473 25.1279 36.6756 25.4482 37.2793L24.3353 38.807C24.0725 39.1725 24.1094 39.6735 24.4298 39.9898L27.0375 42.5975C27.3578 42.9178 27.8589 42.9589 28.2203 42.692L29.7479 41.5791C30.3475 41.8994 30.98 42.1622 31.6329 42.3593L31.9286 44.2279C31.9984 44.6714 32.3803 44.9999 32.8321 44.9999H36.5199C36.9716 44.9999 37.3536 44.6714 37.4234 44.2279L37.7191 42.3593C38.372 42.1622 39.0045 41.8994 39.604 41.5791L41.1317 42.692C41.4931 42.9589 41.9982 42.9178 42.3145 42.5975L44.9222 39.9898C45.2425 39.6735 45.2795 39.1725 45.0167 38.807L43.9038 37.2793C44.2241 36.6756 44.4869 36.0473 44.684 35.3944L46.5526 35.0987C46.9961 35.0289 47.3246 34.6469 47.3246 34.1952V30.5074C47.3246 30.0556 46.9961 29.6737 46.5526 29.6039ZM39.3782 32.3513C39.3782 34.9426 37.2673 37.0535 34.676 37.0535C32.0847 37.0535 29.9738 34.9426 29.9738 32.3513C29.9738 29.76 32.0847 27.6491 34.676 27.6491C37.2673 27.6491 39.3782 29.76 39.3782 32.3513Z" fill="#E60024"/>
<circle cx="34.6759" cy="32.3514" r="6.32432" fill="white"/>
</svg>
