<svg width="80" height="80" viewBox="0 0 80 80" fill="none" xmlns="http://www.w3.org/2000/svg">
<g clip-path="url(#clip0_1047_8065)">
<path d="M78.4006 44.2237C78.4006 49.1489 74.3805 53.139 69.4113 53.139H10.5899C9.15915 53.139 7.81215 52.8065 6.61171 52.2246C3.64551 50.7699 1.60059 47.7288 1.60059 44.2306C1.60059 39.3054 5.62065 35.3153 10.5899 35.3153C10.6806 35.3153 10.7783 35.3222 10.8691 35.3292C12.2161 28.4435 18.3229 23.2481 25.6512 23.2481C25.8955 23.2481 26.1397 23.2758 26.391 23.2828C29.6294 15.2611 37.516 9.60156 46.7496 9.60156C51.7816 9.60156 56.4228 11.2849 60.1219 14.125C65.3284 18.0943 68.6854 24.3426 68.6854 31.3737C68.6854 32.7453 68.5458 34.0823 68.3086 35.3777C68.6715 35.3361 69.0344 35.3084 69.4113 35.3084C69.8231 35.3084 70.2348 35.3361 70.6327 35.3846C72.4961 35.634 74.1781 36.4514 75.4972 37.6567C77.2839 39.2915 78.4006 41.626 78.4006 44.2237Z" fill="#D8D8D8"/>
<path d="M59.2005 36.0703H20.8005V46.4703H59.2005V36.0703Z" fill="#CE0000"/>
<path d="M59.2008 47.9766H20.8008V58.3766H59.2008V47.9766Z" fill="#E00124"/>
<path d="M64.001 48H16.001V53.12H64.001V48Z" fill="#CE0000"/>
<path d="M59.2008 59.8789H20.8008V70.2789H59.2008V59.8789Z" fill="#E00124"/>
<path d="M44.349 54.6725C45.1469 54.6725 45.7937 54.0306 45.7937 53.2386C45.7937 52.4467 45.1469 51.8047 44.349 51.8047C43.5511 51.8047 42.9043 52.4467 42.9043 53.2386C42.9043 54.0306 43.5511 54.6725 44.349 54.6725Z" fill="white"/>
<path d="M49.1644 54.6725C49.9623 54.6725 50.6091 54.0306 50.6091 53.2386C50.6091 52.4467 49.9623 51.8047 49.1644 51.8047C48.3665 51.8047 47.7197 52.4467 47.7197 53.2386C47.7197 54.0306 48.3665 54.6725 49.1644 54.6725Z" fill="white"/>
<path d="M53.973 54.6725C54.7709 54.6725 55.4177 54.0306 55.4177 53.2386C55.4177 52.4467 54.7709 51.8047 53.973 51.8047C53.1751 51.8047 52.5283 52.4467 52.5283 53.2386C52.5283 54.0306 53.1751 54.6725 53.973 54.6725Z" fill="white"/>
<path d="M44.3488 66.571C45.1467 66.571 45.7935 65.929 45.7935 65.1371C45.7935 64.3451 45.1467 63.7031 44.3488 63.7031C43.5509 63.7031 42.9041 64.3451 42.9041 65.1371C42.9041 65.929 43.5509 66.571 44.3488 66.571Z" fill="white"/>
<path d="M49.1644 66.571C49.9623 66.571 50.6091 65.929 50.6091 65.1371C50.6091 64.3451 49.9623 63.7031 49.1644 63.7031C48.3665 63.7031 47.7197 64.3451 47.7197 65.1371C47.7197 65.929 48.3665 66.571 49.1644 66.571Z" fill="white"/>
<path d="M53.973 66.571C54.7709 66.571 55.4177 65.929 55.4177 65.1371C55.4177 64.3451 54.7709 63.7031 53.973 63.7031C53.1751 63.7031 52.5283 64.3451 52.5283 65.1371C52.5283 65.929 53.1751 66.571 53.973 66.571Z" fill="white"/>
<path d="M49.1644 42.7624C49.9623 42.7624 50.6091 42.1204 50.6091 41.3285C50.6091 40.5365 49.9623 39.8945 49.1644 39.8945C48.3665 39.8945 47.7197 40.5365 47.7197 41.3285C47.7197 42.1204 48.3665 42.7624 49.1644 42.7624Z" fill="white"/>
<path d="M53.973 42.7624C54.7709 42.7624 55.4177 42.1204 55.4177 41.3285C55.4177 40.5365 54.7709 39.8945 53.973 39.8945C53.1751 39.8945 52.5283 40.5365 52.5283 41.3285C52.5283 42.1204 53.1751 42.7624 53.973 42.7624Z" fill="white"/>
<path d="M44.349 42.7624C45.1469 42.7624 45.7937 42.1204 45.7937 41.3285C45.7937 40.5365 45.1469 39.8945 44.349 39.8945C43.5511 39.8945 42.9043 40.5365 42.9043 41.3285C42.9043 42.1204 43.5511 42.7624 44.349 42.7624Z" fill="white"/>
</g>
<defs>
<clipPath id="clip0_1047_8065">
<rect width="80" height="80" fill="white"/>
</clipPath>
</defs>
</svg>
