<svg width="50" height="50" viewBox="0 0 50 50" fill="none" xmlns="http://www.w3.org/2000/svg">
<path d="M42.0625 14.328V34.4899C42.0625 35.7164 41.0879 36.7066 39.8883 36.7066H9.17415C7.97462 36.7066 7 35.7164 7 34.4899V14.328C7 13.1015 7.97462 12.1113 9.17415 12.1113H15.4615V32.5003C15.4615 33.6049 16.3569 34.5003 17.4615 34.5003H31.601C32.7056 34.5003 33.601 33.6049 33.601 32.5003V12.1113H39.8883C41.0879 12.1113 42.0625 13.1015 42.0625 14.328Z" stroke="#1D1D1D" stroke-width="2" stroke-linecap="round" stroke-linejoin="round"/>
<path d="M35.6189 6C34.5079 6 33.6015 6.92071 33.6015 8.05684V32.5004C33.6015 33.605 32.706 34.5004 31.6015 34.5004H17.4619C16.3573 34.5004 15.4619 33.605 15.4619 32.5004V8.05684C15.4619 6.92071 16.365 6 17.4793 6H35.6189Z" stroke="#1D1D1D" stroke-width="2" stroke-linecap="round" stroke-linejoin="round"/>
<path d="M37.6378 8.05684V9.11368C37.6378 9.66596 37.1901 10.1137 36.6378 10.1137H33.5996V8.05684C33.5996 6.92071 34.5061 6 35.617 6C36.7279 6 37.6378 6.92071 37.6378 8.05684Z" stroke="#1D1D1D" stroke-width="2" stroke-linecap="round" stroke-linejoin="round"/>
<path d="M27.5347 17.2711L27.1485 17.8383L26.608 18.2173C26.1844 18.5144 25.7043 18.7225 25.1893 18.8167L24.5344 18.9366L23.8795 18.8167C23.3614 18.7219 22.8832 18.5164 22.4643 18.2198L21.9089 17.8267L21.5364 17.2746C21.2434 16.8403 21.0365 16.3456 20.9426 15.8121L20.8232 15.1343L20.9426 14.4565C21.037 13.92 21.2414 13.4272 21.534 12.9975L21.9202 12.4303L22.4607 12.0513C22.8843 11.7542 23.3644 11.5461 23.8795 11.4519L24.5344 11.332L25.1893 11.4519C25.7073 11.5467 26.1855 11.7522 26.6044 12.0488L27.1598 12.4419L27.5323 12.994C27.8253 13.4283 28.0322 13.923 28.1261 14.4565L28.2455 15.1343L28.1261 15.8121C28.0317 16.3486 27.8273 16.8414 27.5347 17.2711Z" stroke="#E60024" stroke-width="2"/>
<path d="M22.0039 23.7852H30.6767" stroke="#1D1D1D" stroke-width="2" stroke-linecap="round" stroke-linejoin="round"/>
<path d="M18.3857 23.7852H19.5682" stroke="#1D1D1D" stroke-width="2" stroke-linecap="round" stroke-linejoin="round"/>
<path d="M22.0039 29.8931H30.6767" stroke="#1D1D1D" stroke-width="2" stroke-linecap="round" stroke-linejoin="round"/>
<path d="M18.3857 29.8931H19.5682" stroke="#1D1D1D" stroke-width="2" stroke-linecap="round" stroke-linejoin="round"/>
<path d="M27.415 26.8394H30.6763" stroke="#1D1D1D" stroke-width="2" stroke-linecap="round" stroke-linejoin="round"/>
<path d="M25.1797 26.8394H25.7011" stroke="#1D1D1D" stroke-width="2" stroke-linecap="round" stroke-linejoin="round"/>
<path d="M18.3857 26.8394H23.1566" stroke="#1D1D1D" stroke-width="2" stroke-linecap="round" stroke-linejoin="round"/>
<path d="M35.0216 44.9582H14.04C14.04 44.3745 14.2718 43.8464 14.6466 43.4608C15.0249 43.0786 15.5429 42.8423 16.1154 42.8423H21.2543V36.7065H27.8074V42.8423H32.9463C34.0913 42.8423 35.0216 43.7908 35.0216 44.9582Z" stroke="#1D1D1D" stroke-width="2" stroke-linecap="round" stroke-linejoin="round"/>
</svg>
