<svg width="51" height="50" viewBox="0 0 51 50" fill="none" xmlns="http://www.w3.org/2000/svg">
<g id="ico_50">
<g id="Group 34654">
<g id="&#235;&#172;&#184;&#236;&#132;&#156;">
<g id="Group">
<path id="Vector" d="M21.9016 25.6416C21.2637 26.952 20.9043 28.4137 20.9043 29.9618C20.9043 30.4442 20.941 30.9194 21.007 31.3874C21.491 34.6852 23.6176 37.4645 26.5508 38.8974H9.33349C7.67664 38.8974 6.3335 37.5542 6.3335 35.8974V10C6.3335 8.34315 7.67664 7 9.3335 7H22.039C22.8251 7 23.5799 7.30859 24.1408 7.85939L29.9939 13.6064C30.5684 14.1705 30.892 14.9419 30.892 15.747V20.0038C26.9321 20.0614 23.5149 22.3439 21.9016 25.6416Z" fill="white" stroke="#1D1D1D" stroke-width="2" stroke-linecap="round" stroke-linejoin="round"/>
<path id="Vector_2" d="M23.2656 7V14.4883H30.892" stroke="#1D1D1D" stroke-width="2" stroke-linecap="round" stroke-linejoin="round"/>
</g>
<path id="Vector_3" d="M11.4521 20.0664H25.7737" stroke="#E60024" stroke-width="2" stroke-linecap="round" stroke-linejoin="round"/>
<path id="Vector_4" d="M11.4521 25.6406H21.0512" stroke="#E60024" stroke-width="2" stroke-linecap="round" stroke-linejoin="round"/>
<path id="Vector_5" d="M11.4521 31.3867H21.0512" stroke="#E60024" stroke-width="2" stroke-linecap="round" stroke-linejoin="round"/>
</g>
<g id="&#235;&#143;&#139;&#235;&#179;&#180;&#234;&#184;&#176;">
<path id="Vector_6" d="M41.2028 29.9594C41.2028 32.7099 40.0661 35.2012 38.2329 37.0085C36.3996 38.8085 33.8624 39.9246 31.0538 39.9246C29.4405 39.9246 27.9079 39.5502 26.5513 38.8949C23.618 37.4621 21.4914 34.6828 21.0074 31.385C20.9415 30.917 20.9048 30.4418 20.9048 29.9594C20.9048 28.4113 21.2641 26.9496 21.9021 25.6392C23.5154 22.3414 26.9326 20.0589 30.8925 20.0013C30.9438 19.9941 31.0024 19.9941 31.0538 19.9941C36.6636 19.9941 41.2028 24.4511 41.2028 29.9594Z" fill="white" stroke="#1D1D1D" stroke-width="2" stroke-linecap="round" stroke-linejoin="round"/>
<path id="Vector_7" d="M44.3336 42.9985L38.2324 37.0078" stroke="#1D1D1D" stroke-width="2" stroke-linecap="round" stroke-linejoin="round"/>
</g>
</g>
</g>
</svg>
