<svg width="50" height="50" viewBox="0 0 50 50" fill="none" xmlns="http://www.w3.org/2000/svg">
<path d="M10 38.1341L14.5075 33.5605C15.3628 32.6926 16.5226 32.2053 17.7324 32.2053H21.1619C22.1369 32.2053 23.0725 32.5981 23.7619 33.2983C24.3497 33.8948 25.1474 34.23 25.9793 34.23H29.6693C30.4239 34.23 31.0731 34.6874 31.3617 35.3438L31.3814 35.3899L37.8896 29.8639C38.6419 29.2251 39.751 29.275 40.4449 29.9792C41.185 30.7302 41.185 31.947 40.4449 32.698L30.9322 42.3504C30.3974 42.8931 29.6724 43.1975 28.9163 43.1975H19.118C18.6642 43.1975 18.2294 43.3804 17.9089 43.7056L16.8423 44.7879" fill="white"/>
<path d="M10 38.1341L14.5075 33.5605C15.3628 32.6926 16.5226 32.2053 17.7324 32.2053H21.1619C22.1369 32.2053 23.0725 32.5981 23.7619 33.2983C24.3497 33.8948 25.1474 34.23 25.9793 34.23H29.6693C30.4239 34.23 31.0731 34.6874 31.3617 35.3438L31.3814 35.3899L37.8896 29.8639C38.6419 29.2251 39.751 29.275 40.4449 29.9792C41.185 30.7302 41.185 31.947 40.4449 32.698L30.9322 42.3504C30.3974 42.8931 29.6724 43.1975 28.9163 43.1975H19.118C18.6642 43.1975 18.2294 43.3804 17.9089 43.7056L16.8423 44.7879" stroke="#1D1D1D" stroke-width="2" stroke-linecap="round" stroke-linejoin="round"/>
<path d="M31.416 35.4819C31.4842 35.6779 31.5213 35.8893 31.5213 36.1092C31.5213 37.1477 30.6918 37.9894 29.6684 37.9894H21.8291" stroke="#1D1D1D" stroke-width="2" stroke-linecap="round" stroke-linejoin="round"/>
<path d="M36.7607 7.21216H15.0439V23.1128H36.7607V7.21216Z" stroke="#E60024" stroke-width="2" stroke-linecap="round" stroke-linejoin="round"/>
<path d="M11.4238 23.1128H40.3795V23.7245C40.3795 24.9785 39.7079 26 38.8835 26H12.9199C12.0954 26 11.4238 24.9785 11.4238 23.7245V23.1128Z" stroke="#E60024" stroke-width="2" stroke-linecap="round" stroke-linejoin="round"/>
<path d="M30.4963 14.1037L29.515 13.7463C29.4504 13.5408 29.3703 13.3406 29.2728 13.1487L29.7224 12.1875C29.7593 12.1089 29.7439 12.0156 29.6834 11.9537L28.8263 11.0753C28.7657 11.0134 28.6734 10.9977 28.5964 11.0344L27.6541 11.4904C27.4663 11.3908 27.2702 11.308 27.0701 11.242L26.7221 10.2388C26.6934 10.156 26.6174 10.1015 26.5322 10.1015L25.318 10.0994H25.3169C25.2318 10.0994 25.1558 10.1539 25.1271 10.2367L24.777 11.2388C24.5769 11.3038 24.3808 11.3866 24.192 11.4852L23.2507 11.0271C23.1738 10.9893 23.0824 11.0051 23.0208 11.0669L22.1607 11.9432C22.1011 12.004 22.0847 12.0984 22.1217 12.177L22.5671 13.1393C22.4707 13.3311 22.3885 13.5303 22.3239 13.7358L21.3416 14.0911C21.2605 14.1205 21.2071 14.1981 21.2071 14.2851L21.2051 15.5262C21.2051 15.6132 21.2585 15.6908 21.3385 15.7201L22.3208 16.0786C22.3844 16.2841 22.4655 16.4843 22.562 16.6751L22.1135 17.6363C22.0765 17.715 22.0919 17.8082 22.1525 17.8701L23.0095 18.7485C23.0701 18.8104 23.1625 18.8272 23.2395 18.7894L24.1817 18.3345C24.3696 18.433 24.5646 18.5169 24.7658 18.5819L25.1137 19.5861C25.1425 19.6679 25.2184 19.7234 25.3036 19.7234H26.5179C26.6031 19.7245 26.679 19.67 26.7078 19.5882L27.0598 18.585C27.261 18.52 27.457 18.4372 27.6439 18.3387L28.5851 18.7978C28.6621 18.8355 28.7544 18.8188 28.815 18.758L29.6752 17.8806C29.7357 17.8198 29.7511 17.7254 29.7152 17.6468L29.2677 16.6845C29.3662 16.4927 29.4473 16.2935 29.5119 16.0891L30.4942 15.7327C30.5753 15.7044 30.6287 15.6258 30.6287 15.5388L30.6308 14.2976C30.6308 14.2106 30.5774 14.1331 30.4963 14.1037ZM27.2281 16.2547C26.8781 16.6111 26.4132 16.8072 25.9184 16.8072H25.9154C25.4196 16.8072 24.9536 16.609 24.6036 16.2505C24.2536 15.892 24.0616 15.4161 24.0616 14.9098C24.0637 13.8658 24.8961 13.0167 25.9174 13.0167H25.9205C26.4162 13.0177 26.8822 13.2158 27.2323 13.5743C27.5823 13.9318 27.7742 14.4087 27.7732 14.914C27.7732 15.4214 27.5792 15.8962 27.2281 16.2547Z" fill="#E60024"/>
</svg>
