<svg width="50" height="50" viewBox="0 0 50 50" fill="none" xmlns="http://www.w3.org/2000/svg">
<path d="M37.7298 6H13.2399C12.0028 6 11 7.01398 11 8.26479V11.1929C11 12.4437 12.0028 13.4577 13.2399 13.4577H37.7298C38.9668 13.4577 39.9697 12.4437 39.9697 11.1929V8.26479C39.9697 7.01398 38.9668 6 37.7298 6Z" stroke="#1D1D1D" stroke-width="2" stroke-linejoin="round"/>
<path d="M14.1777 9.72632H15.3238" stroke="#E60024" stroke-width="2" stroke-linecap="round" stroke-linejoin="round"/>
<path d="M17.3398 9.72632H18.4859" stroke="#E60024" stroke-width="2" stroke-linecap="round" stroke-linejoin="round"/>
<path d="M20.5029 9.72632H21.649" stroke="#E60024" stroke-width="2" stroke-linecap="round" stroke-linejoin="round"/>
<path d="M13.6191 14.6343V16.2875" stroke="#1D1D1D" stroke-width="2" stroke-linejoin="round"/>
<path d="M37.3506 14.6343V16.2875" stroke="#1D1D1D" stroke-width="2" stroke-linejoin="round"/>
<path d="M37.7298 17.5156H13.2399C12.0028 17.5156 11 18.5296 11 19.7804V22.7086C11 23.9594 12.0028 24.9734 13.2399 24.9734H37.7298C38.9668 24.9734 39.9697 23.9594 39.9697 22.7086V19.7804C39.9697 18.5296 38.9668 17.5156 37.7298 17.5156Z" stroke="#1D1D1D" stroke-width="2" stroke-linejoin="round"/>
<path d="M14.1777 21.2419H15.3238" stroke="#E60024" stroke-width="2" stroke-linecap="round" stroke-linejoin="round"/>
<path d="M17.3398 21.2419H18.4859" stroke="#E60024" stroke-width="2" stroke-linecap="round" stroke-linejoin="round"/>
<path d="M20.5029 21.2419H21.649" stroke="#E60024" stroke-width="2" stroke-linecap="round" stroke-linejoin="round"/>
<path d="M13.6191 26.1499V27.798" stroke="#1D1D1D" stroke-width="2" stroke-linejoin="round"/>
<path d="M37.3506 26.1499V27.798" stroke="#1D1D1D" stroke-width="2" stroke-linejoin="round"/>
<path d="M37.7298 29.0264H13.2399C12.0028 29.0264 11 30.0403 11 31.2912V34.2193C11 35.4701 12.0028 36.4841 13.2399 36.4841H37.7298C38.9668 36.4841 39.9697 35.4701 39.9697 34.2193V31.2912C39.9697 30.0403 38.9668 29.0264 37.7298 29.0264Z" stroke="#1D1D1D" stroke-width="2" stroke-linejoin="round"/>
<path d="M14.1777 32.7527H15.3238" stroke="#E60024" stroke-width="2" stroke-linecap="round" stroke-linejoin="round"/>
<path d="M17.3398 32.7527H18.4859" stroke="#E60024" stroke-width="2" stroke-linecap="round" stroke-linejoin="round"/>
<path d="M20.5029 32.7527H21.649" stroke="#E60024" stroke-width="2" stroke-linecap="round" stroke-linejoin="round"/>
<path d="M25.4848 45.8332C26.5152 45.8332 27.3505 44.9886 27.3505 43.9468C27.3505 42.9049 26.5152 42.0603 25.4848 42.0603C24.4544 42.0603 23.6191 42.9049 23.6191 43.9468C23.6191 44.9886 24.4544 45.8332 25.4848 45.8332Z" stroke="#1D1D1D" stroke-width="2" stroke-linejoin="round"/>
<path d="M24.4844 39.7051C24.4844 40.2573 24.9321 40.7051 25.4844 40.7051C26.0367 40.7051 26.4844 40.2573 26.4844 39.7051H24.4844ZM26.4844 39.7051V37.9609H24.4844V39.7051H26.4844Z" fill="#1D1D1D"/>
<path d="M20.9319 43.947H16.3301" stroke="#1D1D1D" stroke-width="2" stroke-linecap="round" stroke-linejoin="round"/>
<path d="M30.1006 43.947H34.6388" stroke="#1D1D1D" stroke-width="2" stroke-linecap="round" stroke-linejoin="round"/>
</svg>
