<svg width="56" height="56" viewBox="0 0 56 56" fill="none" xmlns="http://www.w3.org/2000/svg">
<rect width="56" height="56" rx="4" fill="#F2F2F6"/>
<path d="M10.173 22.6016H12.2237V30.8047H16.4894V32.5H10.173V22.6016ZM26.0635 27.5508C26.0635 28.599 25.863 29.5081 25.462 30.2783C25.0609 31.0439 24.5095 31.6296 23.8077 32.0352C23.1104 32.4362 22.322 32.6367 21.4424 32.6367C20.5583 32.6367 19.7653 32.4339 19.0635 32.0283C18.3617 31.6227 17.8103 31.0371 17.4092 30.2715C17.0082 29.5013 16.8077 28.5944 16.8077 27.5508C16.8077 26.5026 17.0082 25.5957 17.4092 24.8301C17.8103 24.0599 18.3617 23.4743 19.0635 23.0732C19.7653 22.6676 20.5583 22.4648 21.4424 22.4648C22.322 22.4648 23.1104 22.6676 23.8077 23.0732C24.5095 23.4743 25.0609 24.0599 25.462 24.8301C25.863 25.5957 26.0635 26.5026 26.0635 27.5508ZM23.9717 27.5508C23.9717 26.8535 23.8669 26.2611 23.6573 25.7734C23.4522 25.2858 23.1605 24.9167 22.7823 24.666C22.404 24.4108 21.9574 24.2832 21.4424 24.2832C20.9274 24.2832 20.4786 24.4108 20.0957 24.666C19.7175 24.9167 19.4235 25.2881 19.2139 25.7803C19.0043 26.2679 18.8995 26.8581 18.8995 27.5508C18.8995 28.2435 19.0043 28.8359 19.2139 29.3281C19.4235 29.8158 19.7175 30.1872 20.0957 30.4424C20.4786 30.693 20.9274 30.8184 21.4424 30.8184C21.9574 30.8184 22.404 30.693 22.7823 30.4424C23.1605 30.1872 23.4522 29.8158 23.6573 29.3281C23.8669 28.8405 23.9717 28.248 23.9717 27.5508ZM33.6962 25.7871C33.5595 25.3177 33.3066 24.9508 32.9375 24.6865C32.5729 24.4176 32.124 24.2832 31.5908 24.2832C31.0804 24.2832 30.6315 24.4108 30.2441 24.666C29.8567 24.9212 29.5559 25.2949 29.3418 25.7871C29.1276 26.2747 29.0205 26.8581 29.0205 27.5371C29.0205 28.2253 29.1253 28.8154 29.3349 29.3076C29.5491 29.7998 29.8499 30.1758 30.2373 30.4355C30.6246 30.6908 31.0804 30.8184 31.6045 30.8184C32.0693 30.8184 32.4703 30.7363 32.8076 30.5723C33.1494 30.4036 33.4114 30.1644 33.5937 29.8545C33.7806 29.5446 33.8785 29.1823 33.8877 28.7676H31.7412V27.2227H35.8701V28.4531C35.8701 29.3053 35.6878 30.0482 35.3232 30.6816C34.9632 31.3105 34.4596 31.7936 33.8125 32.1309C33.1653 32.4681 32.4248 32.6367 31.5908 32.6367C30.6702 32.6367 29.8567 32.4316 29.1504 32.0215C28.4485 31.6068 27.9017 31.0189 27.5097 30.2578C27.1224 29.4922 26.9287 28.5944 26.9287 27.5645C26.9287 26.5208 27.1292 25.6139 27.5302 24.8438C27.9313 24.0736 28.4827 23.4857 29.1845 23.0801C29.8864 22.6699 30.6748 22.4648 31.5498 22.4648C32.2835 22.4648 32.9534 22.6061 33.5595 22.8887C34.1702 23.1667 34.6692 23.5586 35.0566 24.0645C35.444 24.5658 35.6832 25.14 35.7744 25.7871H33.6962ZM46.0184 27.5508C46.0184 28.599 45.8179 29.5081 45.4169 30.2783C45.0158 31.0439 44.4644 31.6296 43.7626 32.0352C43.0653 32.4362 42.2769 32.6367 41.3973 32.6367C40.5132 32.6367 39.7203 32.4339 39.0184 32.0283C38.3166 31.6227 37.7652 31.0371 37.3641 30.2715C36.9631 29.5013 36.7626 28.5944 36.7626 27.5508C36.7626 26.5026 36.9631 25.5957 37.3641 24.8301C37.7652 24.0599 38.3166 23.4743 39.0184 23.0732C39.7203 22.6676 40.5132 22.4648 41.3973 22.4648C42.2769 22.4648 43.0653 22.6676 43.7626 23.0732C44.4644 23.4743 45.0158 24.0599 45.4169 24.8301C45.8179 25.5957 46.0184 26.5026 46.0184 27.5508ZM43.9266 27.5508C43.9266 26.8535 43.8218 26.2611 43.6122 25.7734C43.4071 25.2858 43.1154 24.9167 42.7372 24.666C42.3589 24.4108 41.9123 24.2832 41.3973 24.2832C40.8824 24.2832 40.4335 24.4108 40.0507 24.666C39.6724 24.9167 39.3785 25.2881 39.1688 25.7803C38.9592 26.2679 38.8544 26.8581 38.8544 27.5508C38.8544 28.2435 38.9592 28.8359 39.1688 29.3281C39.3785 29.8158 39.6724 30.1872 40.0507 30.4424C40.4335 30.693 40.8824 30.8184 41.3973 30.8184C41.9123 30.8184 42.3589 30.693 42.7372 30.4424C43.1154 30.1872 43.4071 29.8158 43.6122 29.3281C43.8218 28.8405 43.9266 28.248 43.9266 27.5508Z" fill="#C6C6C6"/>
</svg>
