<svg width="50" height="50" viewBox="0 0 50 50" fill="none" xmlns="http://www.w3.org/2000/svg">
<g id="ic">
<g id="Group 34649">
<path id="Vector" d="M42.6331 15.5887C41.931 14.3625 41.2021 13.2261 40.5 11.9999C39.7427 10.6781 39.0722 9.1892 38.1808 7.95506C37.7075 7.30215 37.119 7.47516 36.4721 7.6344C35.352 7.90512 34.2239 8.19972 33.1116 8.51025C31.9205 8.8367 30.7214 9.17111 29.5697 9.62496C29.2541 9.7444 28.9465 9.87975 28.6388 10.031C28.0472 10.3097 27.9762 10.2301 27.3846 9.98326C26.5168 9.617 25.6491 9.25074 24.7734 8.89244C22.4621 7.95289 20.0955 6.79837 17.5554 6.90984C16.3406 6.95761 15.1258 7.09297 13.9188 7.22833C13.2483 7.30795 12.458 7.4266 12.0004 7.99988C11.1643 9.07478 10.5726 10.5 9.8942 11.6864C9.1369 13.0081 8.1745 14.3458 7.56708 15.7551C7.23577 16.5354 7.74999 16.8626 8.23908 17.3722C9.20937 18.3914 10.1954 19.4026 11.2052 20.3899C12.1281 21.2817 13.059 22.1575 14.1081 22.8901C14.7392 23.32 15.3861 23.7341 16.0408 24.1322C16.5063 24.4268 17.0269 24.6816 17.4687 25.008C17.8158 25.2708 17.8631 25.6211 18.1392 25.9874C17.5554 25.7565 16.4037 25.5256 15.9541 26.1068C15.7253 26.4014 15.7963 26.7597 15.8357 27.1021C15.9383 27.9779 16.0408 28.8458 16.1592 29.7217C16.451 32.0148 16.735 34.3318 17.2478 36.5851C17.6974 38.5518 18.9754 40.1522 20.1429 41.7526C20.5373 42.2941 20.9791 43.1938 21.5549 43.576C21.9336 43.8308 22.6041 43.7193 23.0301 43.7193L28.5436 43.4999C29.1905 43.4999 29.8531 43.5397 30.5 43.4999C31.1547 43.4521 31.6128 43.3132 31.7864 42.732C32.4411 40.4866 33.0958 38.2174 33.5376 35.9163C33.7743 34.706 33.8295 33.4878 33.8689 32.2537C33.9005 31.4893 33.9084 30.7249 33.9241 29.9605C33.9241 29.5545 33.932 29.1484 33.932 28.7423C33.932 28.3999 33.8137 27.8028 33.9399 27.5002C34.0898 27.1101 34.7446 26.7597 35.0995 26.481C35.5176 26.1546 35.9278 25.8281 36.338 25.4937C36.9455 25.0001 37.545 24.5064 38.1366 23.9889C38.8308 23.3837 39.5487 22.7706 40.0378 21.9744C40.7398 20.8358 41.2684 19.5778 41.8048 18.3595C42.0651 17.7544 43.0196 16.2734 42.6331 15.5887ZM18.0919 23.1528C17.8158 23.4872 17.9341 23.4395 17.5397 23.1926C17.0585 22.898 16.5773 22.6034 16.1039 22.3009C13.3982 20.5731 11.2052 18.2083 9.01216 15.8833C10.1323 13.9166 11.2604 11.9499 12.3806 9.98326C12.5304 9.72847 12.704 9.195 12.9406 9.01187C13.3272 8.70134 14.471 8.76504 14.968 8.71727C16.4353 8.55802 18.084 8.23953 19.5276 8.65357C21.8468 9.30647 24.0871 10.3177 26.2959 11.2493C25.8068 11.52 25.0338 12.1649 24.4973 12.1808C24.024 12.1968 23.3614 11.8624 22.9118 11.719C22.1702 11.4722 20.3243 10.2779 19.8116 11.3448C19.3146 12.3879 21.547 13.208 22.2018 13.5822C21.3972 14.052 20.2691 14.5217 19.709 15.318C19.1016 16.1938 19.2041 17.4041 19.9693 18.1525C18.9517 18.7497 17.7132 19.2593 17.4687 20.5651C17.3977 20.9393 17.4213 21.3135 17.5239 21.6798C17.5949 21.9346 17.6974 22.1735 17.8552 22.3884C17.9341 22.5079 18.1707 22.6592 18.2102 22.7786C18.2891 22.9776 18.2733 22.9378 18.0919 23.1528ZM19.8826 25.2947C19.425 25.2947 19.1489 24.7612 19.2357 24.3631C19.3382 23.9172 19.8273 23.7341 20.1744 23.527C20.1744 23.9809 20.2691 24.5462 20.1744 24.9841C20.1034 25.2867 20.3006 25.3026 19.8826 25.2947ZM20.1744 26.8791V28.0416C20.0324 27.7709 19.8747 27.5082 19.6932 27.2693C19.6222 27.1658 19.2436 26.7916 19.3698 26.8234C19.6459 26.8951 19.8983 26.903 20.1744 26.8791ZM20.0403 21.7196C19.8352 21.8629 19.4566 21.7594 19.283 21.6161C18.2102 20.7562 20.0719 19.9361 20.632 19.6096C20.2691 20.1033 20.1823 20.6766 20.1744 21.2737C20.1665 21.5285 20.2297 21.5922 20.0403 21.7196ZM32.3149 31.6008C32.2833 32.6597 32.2754 33.7346 32.1335 34.7857C31.9599 36.0357 31.6365 37.2778 31.3209 38.4961C31.1474 39.149 30.9738 39.7939 30.8003 40.4309C30.682 40.8529 30.6189 41.5934 30.3664 41.9517C30.1534 42.2622 29.617 42.1269 29.191 42.1269H23.7479C23.4166 42.1269 22.6988 42.2702 22.3911 42.1269C22.0677 41.9756 21.6496 41.1395 21.4445 40.8529C21.0106 40.2557 20.5846 39.6586 20.1744 39.0534C19.6617 38.289 19.1095 37.5247 18.8728 36.617C18.084 33.663 17.8236 30.494 17.4687 27.4604C18.3758 27.7789 18.8334 28.8299 19.141 29.6739C19.4014 30.3825 19.5907 31.131 19.7485 31.8715C19.8589 32.3811 19.9536 32.8986 20.0403 33.4162C20.1192 33.862 20.0877 34.4751 20.4742 34.7777C21.0501 35.2395 21.6733 34.7618 21.7521 34.1407C21.7758 33.9178 21.7521 33.6789 21.7521 33.4639V22.7467C21.7521 22.1336 21.5549 21.1463 21.8547 20.6208C22.2807 19.8963 23.1879 20.3103 23.2825 21.011C23.3062 21.1543 23.2825 21.3135 23.2825 21.4489C23.2825 22.3009 23.2904 23.1528 23.2904 24.0127C23.2904 26.1466 23.2904 28.2885 23.3062 30.4223C23.3062 31.0275 23.2036 31.975 24.095 31.975C24.9943 31.967 24.8839 30.9956 24.8839 30.3825V24.1003C24.8839 22.6671 24.8681 21.2339 24.8839 19.8007C24.8918 19.2195 25.1205 18.4153 25.9094 18.7258C26.2802 18.8691 26.3827 19.1797 26.4143 19.5459C26.4774 20.1351 26.4222 20.7721 26.4222 21.3693C26.4222 23.6226 26.43 25.8759 26.43 28.1372C26.43 28.9812 26.4379 29.8252 26.4379 30.6612C26.4379 31.33 26.714 32.4049 27.6212 31.8635C28.1734 31.5371 28.0156 30.6373 28.0156 30.0959V22.1018C28.0156 21.7037 27.9289 21.1861 28.0393 20.804C28.2838 20.0316 29.3409 20.1033 29.5302 20.8597C29.6407 21.2897 29.5539 21.847 29.5539 22.277C29.5539 24.4586 29.5539 26.6323 29.5539 28.806C29.5618 29.6819 29.5618 30.5657 29.5618 31.4415C29.5618 32.1024 29.8063 33.2251 30.753 32.6677C31.3446 32.3174 31.1395 31.1708 31.1395 30.5975V27.2773C31.1395 26.5129 31.0764 25.7087 31.1395 24.9443C31.2342 23.8455 32.2597 23.9968 32.3386 24.9921C32.52 27.1658 32.3622 29.435 32.307 31.6008H32.3149ZM40.235 18.0092C39.7301 19.1478 39.2489 20.3899 38.5153 21.417C38.2392 21.7992 37.8447 22.1257 37.4977 22.4442C36.3538 23.4713 35.139 24.4347 33.932 25.3822C33.9241 24.9284 33.932 24.4746 33.7822 24.0366C33.7427 23.9411 33.5218 23.6226 33.5376 23.527C33.5692 23.3519 34.2002 22.9378 34.3186 22.8343C34.7603 22.4521 35.7148 21.9505 35.7306 21.2976C35.7464 20.6288 35.0838 20.3581 34.5473 20.589C33.3641 21.0986 32.2439 21.9346 31.1316 22.5875C31.1316 22.1496 31.1316 21.7196 31.1237 21.2897C31.1237 21.1782 31.0764 20.8677 31.1158 20.7801C31.2263 20.5253 31.5497 20.5094 31.597 20.1351C31.6523 19.7768 31.455 19.4424 31.1237 19.2991C30.9423 19.2274 30.8082 19.2752 30.6346 19.2593C30.5321 19.2513 30.4611 19.2513 30.4216 19.2593C30.3743 19.2274 30.3191 19.1956 30.2323 19.1558C29.6328 18.8851 29.1831 18.5745 28.4811 18.6621C29.0175 18.3516 30.1219 17.9774 30.0351 17.1891C29.8773 15.8514 28.4337 16.8547 27.8658 17.1811C27.708 17.2767 27.3214 17.6191 27.1321 17.6111C26.9743 17.6031 26.6746 17.3165 26.5089 17.2448C26.2328 17.1334 25.941 17.0776 25.6491 17.0776C24.8997 17.0776 24.1818 17.4598 23.74 18.0729C23.6533 18.1923 23.5823 18.3197 23.5192 18.4551C23.3456 18.8293 23.4639 18.7258 23.1405 18.7338C22.8486 18.7497 22.5568 18.6303 22.2491 18.6621C23.1169 18.1525 23.9846 17.6429 24.8523 17.1334C26.1224 16.3929 27.5029 15.732 28.7019 14.88C29.5697 14.267 28.9938 13.0328 27.9762 13.4707C27.5108 13.6698 27.069 13.9962 26.6273 14.259C25.4361 14.9517 24.237 15.6444 23.0459 16.3451C22.6278 16.584 22.0046 17.1254 21.5076 17.1413C20.9317 17.1652 20.7266 16.5601 21.0737 16.154C21.3498 15.8196 21.8941 15.6046 22.2491 15.3976C24.6472 13.9803 27.0611 12.4754 29.6091 11.3289C31.6917 10.3893 34.003 9.89568 36.2039 9.33832C36.3933 9.29055 36.9533 9.05964 37.119 9.1313C37.19 9.16315 37.2926 9.43387 37.332 9.50553C37.6633 10.0868 37.9946 10.668 38.3259 11.2413C38.8387 12.1331 39.3436 13.0248 39.8563 13.9166C40.2034 14.5217 40.6688 15.1508 40.9371 15.8037C41.1974 16.4486 40.5111 17.3802 40.235 18.0092Z" fill="#1D1D1D"/>
<g id="Group">
<path id="Vector_2" d="M7.64718 17.4765C7.51307 17.4765 7.37108 17.4367 7.25275 17.373L4.43654 15.7328C4.0579 15.5098 3.93168 15.0241 4.14467 14.6419L9.38265 5.48535C9.4852 5.30222 9.65875 5.16686 9.86385 5.11112C10.069 5.05539 10.2819 5.08724 10.4634 5.19074L13.2796 6.83097C13.6582 7.05391 13.7845 7.53961 13.5715 7.92179L8.33348 17.0784C8.23093 17.2615 8.05738 17.3969 7.85228 17.4526C7.78917 17.4685 7.71817 17.4765 7.64718 17.4765ZM5.9117 14.7454L7.36319 15.5894L11.8044 7.81828L10.3529 6.97429L5.9117 14.7454Z" fill="#E60024"/>
<path id="Vector_3" d="M42.3491 17.4765C42.2781 17.4765 42.215 17.4685 42.144 17.4526C41.9389 17.3969 41.7732 17.2615 41.6628 17.0784L36.4248 7.92179C36.2039 7.53961 36.338 7.05391 36.7167 6.83097L39.5329 5.19074C39.7143 5.08724 39.9273 5.05539 40.1324 5.11112C40.3375 5.16686 40.5032 5.30222 40.6136 5.48535L45.8516 14.6419C46.0725 15.0241 45.9384 15.5098 45.5597 15.7328L42.7435 17.373C42.6252 17.4446 42.4832 17.4765 42.3491 17.4765ZM38.1918 7.81828L42.641 15.5974L44.0924 14.7534L39.6433 6.97429L38.1918 7.81828Z" fill="#E60024"/>
<path id="Vector_4" d="M31.6836 46.9998H21.2077C20.7738 46.9998 20.4188 46.6415 20.4188 46.2036V42.9232C20.4188 42.4853 20.7738 42.127 21.2077 42.127H31.6836C32.1175 42.127 32.4725 42.4853 32.4725 42.9232V46.2036C32.4725 46.6415 32.1175 46.9998 31.6836 46.9998ZM22.0044 45.4074H30.9027V43.7194H22.0044V45.4074Z" fill="#E60024"/>
</g>
</g>
</g>
</svg>
