<svg width="51" height="50" viewBox="0 0 51 50" fill="none" xmlns="http://www.w3.org/2000/svg">
<g id="ic">
<g id="Group 34652">
<path id="Vector" d="M5.3335 7H45.3335V37.5697C45.3335 38.8312 44.2935 39.8495 43.0202 39.8495H7.6535C6.3735 39.8495 5.34016 38.8246 5.34016 37.5697V7H5.3335Z" fill="white" stroke="#1D1D1D" stroke-width="2" stroke-linejoin="round"/>
<path id="Vector_2" d="M14.0712 13.7919L13.6452 13.5949L13.2214 13.7968L10.9995 14.8554L10.9995 7H16.4148V14.8755L14.0712 13.7919Z" stroke="#E60024" stroke-width="2"/>
<path id="Vector_3" d="M25.3335 7V39.8495" stroke="#1D1D1D" stroke-width="2" stroke-linejoin="round"/>
<path id="Vector_4" d="M37.7529 44.3525L37.3268 44.1555L36.9031 44.3574L34.6812 45.416L34.6812 37.5605H40.0965V45.436L37.7529 44.3525Z" fill="white" stroke="#E60024" stroke-width="2"/>
<path id="Vector_5" d="M5.3335 36.5645H45.3335" stroke="#1D1D1D" stroke-width="2" stroke-linejoin="round"/>
<path id="Vector_6" d="M30.3853 10.418H40.1565C40.7088 10.418 41.1565 10.8657 41.1565 11.418V14.7256C41.1565 15.2779 40.7088 15.7256 40.1565 15.7256H30.3853C29.833 15.7256 29.3853 15.2779 29.3853 14.7256V11.418C29.3853 10.8657 29.833 10.418 30.3853 10.418Z" stroke="#E60024" stroke-width="2"/>
<path id="Vector_7" d="M34.6675 21.4531H42.0008" stroke="#1D1D1D" stroke-width="2" stroke-linecap="round" stroke-linejoin="round"/>
<path id="Vector_8" d="M28.6675 21.4531H32.0008" stroke="#1D1D1D" stroke-width="2" stroke-linecap="round" stroke-linejoin="round"/>
<path id="Vector_9" d="M28.6675 25.3945H42.0008" stroke="#1D1D1D" stroke-width="2" stroke-linecap="round" stroke-linejoin="round"/>
<path id="Vector_10" d="M28.6675 29.3379H42.0008" stroke="#1D1D1D" stroke-width="2" stroke-linecap="round" stroke-linejoin="round"/>
<path id="Vector_11" d="M8.6665 21.4531H21.9998" stroke="#1D1D1D" stroke-width="2" stroke-linecap="round" stroke-linejoin="round"/>
<path id="Vector_12" d="M14.0005 25.3945H22.0005" stroke="#1D1D1D" stroke-width="2" stroke-linecap="round" stroke-linejoin="round"/>
<path id="Vector_13" d="M8.6665 25.3945H11.3332" stroke="#1D1D1D" stroke-width="2" stroke-linecap="round" stroke-linejoin="round"/>
<path id="Vector_14" d="M8.6665 29.3379H21.9998" stroke="#1D1D1D" stroke-width="2" stroke-linecap="round" stroke-linejoin="round"/>
</g>
</g>
</svg>
