<svg width="50" height="50" viewBox="0 0 50 50" fill="none" xmlns="http://www.w3.org/2000/svg">
<g id="ico_50">
<g id="Group 34663">
<path id="Vector" d="M21.5715 23.8942C26.3668 23.8942 30.3375 20.0078 30.4404 15.2137C30.5433 10.4196 26.7394 6.5332 21.9442 6.5332C17.149 6.5332 13.1783 10.4196 13.0754 15.2137C12.9725 20.0078 16.7763 23.8942 21.5715 23.8942Z" stroke="#555555" stroke-width="2" stroke-linecap="round" stroke-linejoin="round"/>
<path id="Vector_2" d="M35.4444 39.1166C35.4444 30.9589 29.3044 24.3389 21.7222 24.3389C14.14 24.3389 8 30.9512 8 39.1166" stroke="#555555" stroke-width="2" stroke-linecap="round" stroke-linejoin="round"/>
<path id="Vector_3" d="M35.4442 44.0261C30.1668 44.0261 25.8887 39.748 25.8887 34.4706C25.8887 29.1932 30.1668 24.915 35.4442 24.915C40.7216 24.915 44.9998 29.1932 44.9998 34.4706C44.9998 39.748 40.7216 44.0261 35.4442 44.0261Z" fill="white" stroke="#555555" stroke-width="2"/>
<path id="Vector 2" d="M31.2227 33.6436L34.5323 37.8553L40.2061 31.3037" stroke="#555555" stroke-width="2" stroke-linecap="round" stroke-linejoin="round"/>
</g>
</g>
</svg>
