<svg width="40" height="40" viewBox="0 0 40 40" fill="none" xmlns="http://www.w3.org/2000/svg">
<g id="ic">
<g id="Group 34615">
<g id="Group">
<path id="Vector" d="M30.1836 4.80078H10.5917C9.60206 4.80078 8.7998 5.61196 8.7998 6.61261V8.95513C8.7998 9.95578 9.60206 10.767 10.5917 10.767H30.1836C31.1733 10.767 31.9755 9.95578 31.9755 8.95513V6.61261C31.9755 5.61196 31.1733 4.80078 30.1836 4.80078Z" stroke="#1D1D1D" stroke-width="1.5" stroke-linejoin="round"/>
<path id="Vector_2" d="M11.3423 7.78125H12.2591" stroke="#E60024" stroke-width="1.5" stroke-linecap="round" stroke-linejoin="round"/>
<path id="Vector_3" d="M13.8718 7.78125H14.7887" stroke="#E60024" stroke-width="1.5" stroke-linecap="round" stroke-linejoin="round"/>
<path id="Vector_4" d="M16.4021 7.78125H17.3189" stroke="#E60024" stroke-width="1.5" stroke-linecap="round" stroke-linejoin="round"/>
<path id="Vector_5" d="M10.8948 11.709V13.0316" stroke="#1D1D1D" stroke-width="1.5" stroke-linejoin="round"/>
<path id="Vector_6" d="M29.8804 11.709V13.0316" stroke="#1D1D1D" stroke-width="1.5" stroke-linejoin="round"/>
</g>
<g id="Group_2">
<path id="Vector_7" d="M30.1836 14.0137H10.5917C9.60206 14.0137 8.7998 14.8249 8.7998 15.8255V18.168C8.7998 19.1687 9.60206 19.9799 10.5917 19.9799H30.1836C31.1733 19.9799 31.9755 19.1687 31.9755 18.168V15.8255C31.9755 14.8249 31.1733 14.0137 30.1836 14.0137Z" stroke="#1D1D1D" stroke-width="1.5" stroke-linejoin="round"/>
<path id="Vector_8" d="M11.3423 16.9941H12.2591" stroke="#E60024" stroke-width="1.5" stroke-linecap="round" stroke-linejoin="round"/>
<path id="Vector_9" d="M13.8718 16.9941H14.7887" stroke="#E60024" stroke-width="1.5" stroke-linecap="round" stroke-linejoin="round"/>
<path id="Vector_10" d="M16.4021 16.9941H17.3189" stroke="#E60024" stroke-width="1.5" stroke-linecap="round" stroke-linejoin="round"/>
<path id="Vector_11" d="M10.8948 20.9219V22.2403" stroke="#1D1D1D" stroke-width="1.5" stroke-linejoin="round"/>
<path id="Vector_12" d="M29.8804 20.9219V22.2403" stroke="#1D1D1D" stroke-width="1.5" stroke-linejoin="round"/>
</g>
<g id="Group_3">
<path id="Vector_13" d="M30.1836 23.2207H10.5917C9.60206 23.2207 8.7998 24.0319 8.7998 25.0325V27.3751C8.7998 28.3757 9.60206 29.1869 10.5917 29.1869H30.1836C31.1733 29.1869 31.9755 28.3757 31.9755 27.3751V25.0325C31.9755 24.0319 31.1733 23.2207 30.1836 23.2207Z" stroke="#1D1D1D" stroke-width="1.5" stroke-linejoin="round"/>
<path id="Vector_14" d="M11.3423 26.2012H12.2591" stroke="#E60024" stroke-width="1.5" stroke-linecap="round" stroke-linejoin="round"/>
<path id="Vector_15" d="M13.8718 26.2012H14.7887" stroke="#E60024" stroke-width="1.5" stroke-linecap="round" stroke-linejoin="round"/>
<path id="Vector_16" d="M16.4021 26.2012H17.3189" stroke="#E60024" stroke-width="1.5" stroke-linecap="round" stroke-linejoin="round"/>
</g>
<path id="Vector_17" d="M20.3876 36.6668C21.2119 36.6668 21.8801 35.9911 21.8801 35.1576C21.8801 34.3241 21.2119 33.6484 20.3876 33.6484C19.5633 33.6484 18.895 34.3241 18.895 35.1576C18.895 35.9911 19.5633 36.6668 20.3876 36.6668Z" stroke="#1D1D1D" stroke-width="1.5" stroke-linejoin="round"/>
<path id="Vector_18" d="M19.6372 31.7644C19.6372 32.1787 19.973 32.5144 20.3872 32.5144C20.8014 32.5144 21.1372 32.1787 21.1372 31.7644H19.6372ZM21.1372 31.7644V30.3691H19.6372V31.7644H21.1372Z" fill="#1D1D1D"/>
<path id="Vector_19" d="M16.7457 35.1582H13.0642" stroke="#1D1D1D" stroke-width="1.5" stroke-linecap="round" stroke-linejoin="round"/>
<path id="Vector_20" d="M24.0806 35.1582H27.7112" stroke="#1D1D1D" stroke-width="1.5" stroke-linecap="round" stroke-linejoin="round"/>
</g>
</g>
</svg>
