<svg width="20" height="21" viewBox="0 0 20 21" fill="none" xmlns="http://www.w3.org/2000/svg">
<path d="M9.69202 10.1926C8.83055 10.1926 8.09917 9.89197 7.49789 9.29069C6.89644 8.68924 6.59571 7.95778 6.59571 7.09631C6.59571 6.23484 6.89644 5.50346 7.49789 4.90217C8.09917 4.30072 8.83055 4 9.69202 4C10.5535 4 11.2849 4.30072 11.8862 4.90217C12.4876 5.50346 12.7883 6.23484 12.7883 7.09631C12.7883 7.95778 12.4876 8.68924 11.8862 9.29069C11.2849 9.89197 10.5535 10.1926 9.69202 10.1926ZM3 17V15.1789C3 14.873 3.09122 14.5781 3.27367 14.2945C3.45612 14.0108 3.71132 13.7653 4.03926 13.5579C4.90989 13.0573 5.82671 12.6735 6.78973 12.4065C7.75275 12.1395 8.72018 12.006 9.69202 12.006C10.6639 12.006 11.6313 12.1395 12.5943 12.4065C13.5573 12.6735 14.4742 13.0573 15.3448 13.5579C15.6727 13.7486 15.9279 13.99 16.1104 14.282C16.2928 14.574 16.384 14.873 16.384 15.1789V17H3Z" fill="#E60024"/>
</svg>
