<svg width="50" height="50" viewBox="0 0 50 50" fill="none" xmlns="http://www.w3.org/2000/svg">
<g id="ic">
<g id="Group 34625">
<path id="Vector" d="M42.5385 8.6453V30.0216C42.5385 30.3791 42.2278 30.6669 41.842 30.6669H9.08115C8.69668 30.6669 8.38464 30.3791 8.38464 30.0216V8.6453C8.38464 8.2878 8.69668 8 9.08115 8H41.842C42.2278 8 42.5385 8.2878 42.5385 8.6453Z" stroke="#1D1D1D" stroke-width="2" stroke-miterlimit="10"/>
<path id="Vector_2" d="M29.6154 25.1767C29.6154 25.6515 29.5481 26.0933 29.4169 26.4918C29.339 26.7287 29.1121 26.8892 28.8546 26.8892H21.1443C20.8879 26.8892 20.6599 26.7287 20.5819 26.4918C20.4508 26.0933 20.3846 25.6515 20.3846 25.1767C20.3846 23.4801 21.1999 21.5957 22.3896 20.4297C21.7705 19.7944 21.4161 18.9507 21.4161 18.0648C21.4161 16.161 23.024 14.6113 24.9994 14.6113C26.9748 14.6113 28.5828 16.161 28.5828 18.0648C28.5828 18.9507 28.2284 19.7944 27.6105 20.4297C28.799 21.5957 29.6154 23.4801 29.6154 25.1767Z" stroke="#E60024" stroke-width="2" stroke-miterlimit="10"/>
<path id="Vector_3" d="M38.8454 12.4002V26.2658C38.8454 26.6108 38.5262 26.8886 38.133 26.8886H11.8655C11.4722 26.8886 11.1531 26.6108 11.1531 26.2658V12.4002C11.1531 12.0551 11.4722 11.7773 11.8655 11.7773H38.133C38.5262 11.7773 38.8454 12.0551 38.8454 12.4002Z" stroke="#1D1D1D" stroke-width="2" stroke-miterlimit="10"/>
<path id="Vector_4" d="M47.1546 36.3327C47.1038 36.329 47.0515 36.3278 46.9993 36.3278H3.00224C2.95 36.3278 2.89775 36.3278 2.84692 36.3327L8.1517 30.8841C8.28584 30.7453 8.48211 30.666 8.68825 30.666H41.3133C41.5194 30.666 41.7157 30.7453 41.8498 30.8841L47.1546 36.3327Z" stroke="#1D1D1D" stroke-width="2" stroke-miterlimit="10"/>
<path id="Vector_5" d="M49 38.7802V39.849C49 41.0351 48.0097 42.0003 46.7927 42.0003H3.20725C1.99033 42.0003 1 41.0351 1 39.849V38.7802C1 37.6446 1.9078 36.7121 3.05339 36.6344C3.10374 36.6303 3.1555 36.6289 3.20725 36.6289H46.7927C46.8445 36.6289 46.8963 36.6289 46.9466 36.6344C48.0922 36.7121 49 37.6446 49 38.7802Z" stroke="#1D1D1D" stroke-width="2" stroke-miterlimit="10"/>
</g>
</g>
</svg>
