<svg width="80" height="80" viewBox="0 0 80 80" fill="none" xmlns="http://www.w3.org/2000/svg">
<g clip-path="url(#clip0_252_775)">
<path d="M77.9982 49.2211V38.4727H50.784V38.7066C50.7271 42.4749 49.822 46.0408 48.2588 49.2211H77.9982Z" fill="#D8D8D8"/>
<path d="M78 61.867V50.4863H47.5897C44.5772 55.8099 39.6406 59.9133 33.7168 61.867H78Z" fill="#D8D8D8"/>
<path d="M77.9994 63.1309H26.1025V73.8793H77.9994V63.1309Z" fill="#D8D8D8"/>
<path d="M50.7848 38.3335V38.4726H26.1022V62.979C12.4254 62.8146 1.4575 51.2948 2.02077 37.2966C2.52708 24.9106 12.2799 14.6175 24.6592 13.7576C38.9245 12.7649 50.7848 24.1519 50.7848 38.3335Z" fill="#E60024"/>
<path d="M51.7819 13.7658L48.9805 16.5645L50.323 17.9057L53.1245 15.107L51.7819 13.7658Z" fill="#E60024"/>
<path d="M37.5478 7.00021L36.334 10.6348L38.1351 11.2351L39.3488 7.6005L37.5478 7.00021Z" fill="#E60024"/>
<path d="M59.4563 27.6792L55.8164 28.8867L56.4148 30.6868L60.0546 29.4793L59.4563 27.6792Z" fill="#E60024"/>
<path d="M50.7852 38.4727V38.7066C50.5827 52.2306 39.7476 63.1308 26.3873 63.1308H26.1025V38.4727H50.7852Z" fill="#CE0000"/>
<path d="M24.8365 51.7496V48.9171L24.6973 48.8602C22.6404 48.6579 19.0456 47.817 17.2988 44.4787L19.881 43.4481C21.0962 45.465 23.9631 46.5398 26.3618 46.5651C30.0832 46.6094 32.4185 45.1172 32.4438 42.683C32.4755 39.9959 29.0262 39.2436 26.4251 38.9148C21.7164 38.3457 18.1279 37.5554 18.1785 33.098C18.2292 28.59 23.3872 27.6859 24.9631 27.5215L25.4694 27.4646V24.5625H28.001V27.4772L28.7731 27.5594C31.5768 28.0083 33.3679 29.0579 34.4754 30.9167L32.1464 31.941C31.0578 30.6638 28.83 29.7281 26.6782 29.7028C23.1214 29.6648 21.0708 30.9104 21.0455 33.1296C21.0139 35.7788 24.1467 36.1771 26.6592 36.4995C31.5261 37.1381 35.5513 38.0486 35.5007 42.7147C35.4564 46.603 31.9945 48.5441 28.5832 48.7464L28.6339 48.778V51.737H24.8365V51.7496Z" fill="#FEF2F3"/>
</g>
<defs>
<clipPath id="clip0_252_775">
<rect width="80" height="80" fill="white"/>
</clipPath>
</defs>
</svg>
