<svg width="50" height="50" viewBox="0 0 50 50" fill="none" xmlns="http://www.w3.org/2000/svg">
<path d="M38.5 7.2915H12.5C8.9102 7.2915 6 10.2775 6 13.9608V30.0588C6 33.7421 8.9102 36.7281 12.5 36.7281H14.9057V44.2915L22.2771 36.7281H38.5C42.0898 36.7281 45 33.7421 45 30.0588V13.9608C45 10.2775 42.0898 7.2915 38.5 7.2915Z" stroke="#1D1D1D" stroke-width="2" stroke-linecap="round" stroke-linejoin="round"/>
<path d="M23.6433 20.9818C25.6372 18.9447 25.6372 15.6418 23.6433 13.6046C21.6494 11.5675 18.4167 11.5675 16.4228 13.6046C14.4289 15.6418 14.4289 18.9447 16.4228 20.9818C18.4167 23.019 21.6494 23.019 23.6433 20.9818Z" stroke="#E60024" stroke-width="2" stroke-linecap="round" stroke-linejoin="round"/>
<path d="M28.1694 31.1919C28.1694 26.6026 24.5285 22.8784 20.0324 22.8784C15.5364 22.8784 11.8955 26.5983 11.8955 31.1919" stroke="#E60024" stroke-width="2" stroke-linecap="round" stroke-linejoin="round"/>
<path d="M32.6724 23.6169C35.0294 23.0459 36.487 20.6309 35.9281 18.2228C35.3692 15.8147 33.0054 14.3255 30.6485 14.8965C28.2915 15.4675 26.8339 17.8826 27.3928 20.2906C27.9517 22.6987 30.3155 24.188 32.6724 23.6169Z" stroke="#E60024" stroke-width="2" stroke-linecap="round" stroke-linejoin="round"/>
<path d="M38.6525 31.1921C38.6525 27.2473 35.5238 24.0508 31.6628 24.0508C29.817 24.0508 28.1405 24.7818 26.8916 25.9756" stroke="#E60024" stroke-width="2" stroke-linecap="round" stroke-linejoin="round"/>
</svg>
