<svg width="80" height="80" viewBox="0 0 80 80" fill="none" xmlns="http://www.w3.org/2000/svg">
<g clip-path="url(#clip0_252_808)">
<path fill-rule="evenodd" clip-rule="evenodd" d="M58.6301 26.3161V31.2967C53.7388 26.4478 47.0297 23.462 39.621 23.462C32.2122 23.462 25.4282 26.4855 20.5306 31.3783V26.36L7 19.8175L39.621 3L72.2482 19.8175L58.6301 26.3161Z" fill="#E60024"/>
<path fill-rule="evenodd" clip-rule="evenodd" d="M58.636 31.2957V31.4212H20.5303V31.3772C25.4278 26.4844 32.1744 23.4609 39.6206 23.4609C47.0668 23.4609 53.7385 26.4468 58.636 31.2957Z" fill="#CE0000"/>
<path fill-rule="evenodd" clip-rule="evenodd" d="M66.7327 50.7301C66.7327 66.1487 54.0141 78.5752 38.5532 77.9793C24.629 77.4398 13.2535 66.1236 12.5539 52.1478C12.1478 44.0182 15.2712 36.6288 20.5311 31.3784V31.4223H58.6368V31.2969C63.6342 36.2399 66.7327 43.1212 66.7327 50.7301Z" fill="#D8D8D8"/>
<path d="M48.6609 51.0191L35.4863 58.0635C34.9366 58.3583 34.2744 57.9569 34.2744 57.3358V43.2471C34.2744 42.6198 34.9366 42.2246 35.4863 42.5194L48.6609 49.5638C49.2418 49.8774 49.2418 50.7117 48.6609 51.0254V51.0191Z" fill="white"/>
</g>
<defs>
<clipPath id="clip0_252_808">
<rect width="80" height="80" fill="white"/>
</clipPath>
</defs>
</svg>
