<svg width="80" height="80" viewBox="0 0 80 80" fill="none" xmlns="http://www.w3.org/2000/svg">
<g clip-path="url(#clip0_252_795)">
<path d="M16.9023 48.0117H34.0097V66.3199C34.0097 71.002 30.1972 74.8012 25.4988 74.8012H25.4132C20.7148 74.8012 16.9023 71.002 16.9023 66.3199V48.0117Z" fill="#E60024"/>
<path d="M28.6942 56.8151L34.5413 62.6418C31.5903 63.7986 28.3582 64.3892 24.9673 64.2736C12.9677 63.8595 3.00269 54.3919 2.07401 42.4584C0.986473 28.5035 12.0268 16.8379 25.8043 16.8379C28.8348 16.8379 31.7247 17.4041 34.3946 18.427L28.6881 24.1137L31.2359 28.8384C30.1484 30.671 29.2991 32.662 28.7553 34.7868L23.617 36.3212V44.6137L28.7553 46.1541C29.2991 48.2729 30.1484 50.2639 31.2359 52.1026L28.6881 56.8151H28.6942Z" fill="#E60024"/>
<path d="M49.4921 40.5638C49.4921 45.7147 47.8485 50.4759 45.0564 54.3604C39.6004 52.0894 35.7695 46.7315 35.7695 40.4725C35.7695 34.2135 39.5515 28.9165 44.9464 26.6211C47.8119 30.536 49.4921 35.352 49.4921 40.5638Z" fill="#E60024"/>
<path d="M78.0003 44.8695V36.5404L72.8376 35C72.2877 32.863 71.4446 30.8598 70.3448 29.0211L72.9109 24.2782L67.0028 18.3906L62.2433 20.9356C60.3981 19.8457 58.3819 19.0055 56.2496 18.4575L54.7038 13.3066H46.3457L44.7877 18.4575C42.6554 19.0055 40.5903 20.0466 38.7329 21.1365C38.7329 21.1365 41.9039 23.1944 44.5983 26.8719C47.2499 25.7516 50.2742 25.2767 53.4513 25.8673C59.6161 27.018 64.4611 31.9862 65.4753 38.1539C67.0333 47.6276 59.7322 55.8167 50.5186 55.8167C48.4474 55.8167 46.7122 55.2992 45.0687 54.3615L38.5068 60.3587C40.3581 61.4486 42.6493 62.4167 44.7877 62.9524L46.3457 68.1033H54.7038L56.2496 62.9524C58.3819 62.4167 60.3981 61.5643 62.2433 60.4744L67.0028 63.0194L72.9109 57.1318L70.3448 52.3949C71.4446 50.5501 72.2938 48.547 72.8376 46.416L78.0003 44.8634V44.8695Z" fill="#D8D8D8"/>
<path d="M45.0561 54.3602C40.2538 60.1748 34.6878 62.5797 34.5412 62.6406L28.6941 56.8139L31.2419 52.1014C30.1544 50.2627 29.3051 48.2717 28.7614 46.1529L23.623 44.6125V36.3199L28.7614 34.7856C29.3051 32.6607 30.1544 30.6698 31.2419 28.8372L28.6941 24.1125L34.4007 18.4258C38.6958 20.0879 42.3311 23.0348 45.0072 26.7001C39.6123 28.9955 35.8976 34.2559 35.8976 40.4662C35.8976 46.6765 39.6062 52.0831 45.0622 54.3541L45.0561 54.3602Z" fill="#CE0000"/>
<path d="M26.6777 6H24.8447V9.65311H26.6777V6Z" fill="#E60024"/>
<path d="M11.5633 10.2888L9.92383 11.1055L11.6176 14.482L13.2571 13.6653L11.5633 10.2888Z" fill="#E60024"/>
<path d="M39.6997 10.2861L37.999 13.666L39.6375 14.4847L41.3382 11.1048L39.6997 10.2861Z" fill="#E60024"/>
</g>
<defs>
<clipPath id="clip0_252_795">
<rect width="80" height="80" fill="white"/>
</clipPath>
</defs>
</svg>
