<svg width="40" height="40" viewBox="0 0 40 40" fill="none" xmlns="http://www.w3.org/2000/svg">
<g id="ic">
<g id="Group 34621">
<path id="Vector" d="M6.58789 35.6251C9.8053 35.6251 9.63623 32.5496 9.63623 32.5496L9.59961 13.5996" stroke="#1D1D1D" stroke-width="1.5" stroke-linecap="round" stroke-linejoin="round"/>
<path id="Vector_2" d="M13.7346 13.7051H27.0551" stroke="#1D1D1D" stroke-width="1.5" stroke-linecap="round" stroke-linejoin="round"/>
<path id="Vector_3" d="M13.7346 17.7617H19.4039" stroke="#1D1D1D" stroke-width="1.5" stroke-linecap="round" stroke-linejoin="round"/>
<path id="Vector_4" d="M13.7346 21.8145H19.0839" stroke="#1D1D1D" stroke-width="1.5" stroke-linecap="round" stroke-linejoin="round"/>
<path id="Vector_5" d="M13.7346 26.373H20.3949" stroke="#1D1D1D" stroke-width="1.5" stroke-linecap="round" stroke-linejoin="round"/>
<path id="Vector_6" d="M30.641 19.2798V9.59961C30.641 7.39047 28.8501 5.59961 26.641 5.59961H13.6178C11.4156 5.59961 9.62783 7.38102 9.61459 9.58317C9.57985 15.3634 9.53822 19.7006 9.54337 26.3732H8C5.79086 26.3732 4 28.1641 4 30.3732V32.1949C4 35.0323 6.37207 36 9.27184 36H25.3691C28.2689 36 30.641 34.0189 30.641 31.1815V26.3732" stroke="#1D1D1D" stroke-width="1.5" stroke-linecap="round" stroke-linejoin="round"/>
</g>
<g id="Group 34642">
<path id="Vector_7" d="M35.8965 17.6066C35.9104 17.6066 35.9212 17.6119 35.9276 17.6181C35.9283 17.6188 35.9289 17.6194 35.9293 17.6199V22.8846C35.9293 26.8651 33.1361 30.2655 29.2496 31.361C29.0862 31.4071 28.9129 31.4071 28.7495 31.361C24.8634 30.2655 22.0718 26.8653 22.0718 22.8846V17.6187C22.0721 17.6184 22.0725 17.618 22.0729 17.6176C22.079 17.6117 22.0893 17.6066 22.1027 17.6066C24.3179 17.6066 26.4262 17.1265 28.3349 16.2661C28.7565 16.076 29.2426 16.076 29.6642 16.2661C31.573 17.1265 33.6813 17.6066 35.8965 17.6066Z" fill="white" stroke="#E60024" stroke-width="1.5"/>
<path id="Vector 2" d="M25.5164 22.9277L28.0248 26.1197L32.3249 21.1543" stroke="#E60024" stroke-width="1.5" stroke-linecap="round" stroke-linejoin="round"/>
</g>
</g>
</svg>
