<svg width="80" height="80" viewBox="0 0 80 80" fill="none" xmlns="http://www.w3.org/2000/svg">
<g clip-path="url(#clip0_249_461)">
<path d="M68.6238 26.2945C68.6238 30.3421 67.5998 34.1425 65.7912 37.4542H25.506V37.7437C23.6016 34.3657 22.5117 30.4568 22.5117 26.2945C22.5117 13.4699 32.836 3.07031 45.5678 3.07031C58.2995 3.07031 68.6238 13.4699 68.6238 26.2945Z" fill="#E00124"/>
<path d="M30.2246 32.9534L35.8239 16.8594H39.3931L44.9925 32.9534H41.9203L40.6088 28.9963H34.5843L33.2548 32.9534H30.2306H30.2246ZM39.8183 26.6316L37.6744 20.1771H37.5367L35.3688 26.6316H39.8123H39.8183Z" fill="white"/>
<path d="M52.8366 22.771H52.9264L56.4956 16.8594H59.7894L54.8248 24.9064L59.8373 32.9534H56.4956L52.9264 27.0901H52.8366L49.2674 32.9534H45.9258L50.9801 24.9064L46.0156 16.8594H49.3093L52.8306 22.771H52.8366Z" fill="white"/>
<path d="M65.7911 37.4551C61.8745 44.6455 54.281 49.5196 45.5676 49.5196C36.8542 49.5196 29.4703 44.7782 25.5059 37.7446V37.4551H65.7911Z" fill="#CE0000"/>
<path d="M31.2485 66.5008C30.7934 66.5008 30.3442 66.4948 29.8771 66.4767L11.8096 50.7868L25.5 37.5019C25.5 37.5019 32.6858 49.0978 45.4894 49.0978C54.0531 49.0978 61.5088 44.3262 65.3835 37.4615C66.8746 34.8978 67.6052 32.2678 67.9346 29.873C68.0364 29.1551 68.1023 28.4674 68.1382 27.8039C68.1442 27.635 68.1682 27.4782 68.1981 27.3213C68.6413 24.836 71.3541 23.3581 73.7256 24.4258C74.4023 24.7214 74.9592 25.198 75.3724 25.7891C75.7737 26.3742 76.0252 27.068 76.0791 27.816C76.7198 36.7497 75.612 67.0136 31.2545 66.5129L31.2485 66.5008Z" fill="#D8D8D8"/>
<path d="M10.7584 45.8584L4 52.666L28.0862 76.9279L34.8446 70.1202L10.7584 45.8584Z" fill="#E00124"/>
</g>
<defs>
<clipPath id="clip0_249_461">
<rect width="80" height="80" fill="white"/>
</clipPath>
</defs>
</svg>
