<svg width="50" height="50" viewBox="0 0 50 50" fill="none" xmlns="http://www.w3.org/2000/svg">
<path d="M32.3907 9.22388C31.8384 9.22388 31.3907 9.67159 31.3907 10.2239C31.3907 10.7762 31.8384 11.2239 32.3907 11.2239V9.22388ZM13.7024 11.2239C14.2547 11.2239 14.7024 10.7762 14.7024 10.2239C14.7024 9.67159 14.2547 9.22388 13.7024 9.22388V11.2239ZM35.0931 27.4497V28.4497H37.0931V27.4497H35.0931ZM37.0931 34.0797V33.0797H35.0931V34.0797H37.0931ZM32.3907 11.2239H34.0931V9.22388H32.3907V11.2239ZM34.0931 43.9998H12V45.9998H34.0931V43.9998ZM11 42.9998V12.2239H9V42.9998H11ZM12 11.2239H13.7024V9.22388H12V11.2239ZM35.0931 12.2239V27.4497H37.0931V12.2239H35.0931ZM35.0931 34.0797V42.9998H37.0931V34.0797H35.0931ZM11 12.2239C11 11.6716 11.4477 11.2239 12 11.2239V9.22388C10.3431 9.22388 9 10.567 9 12.2239H11ZM12 43.9998C11.4477 43.9998 11 43.5521 11 42.9998H9C9 44.6566 10.3431 45.9998 12 45.9998V43.9998ZM34.0931 45.9998C35.75 45.9998 37.0931 44.6566 37.0931 42.9998H35.0931C35.0931 43.5521 34.6454 43.9998 34.0931 43.9998V45.9998ZM34.0931 11.2239C34.6454 11.2239 35.0931 11.6716 35.0931 12.2239H37.0931C37.0931 10.567 35.75 9.22388 34.0931 9.22388V11.2239Z" fill="#1D1D1D"/>
<path d="M27.3272 8.22912C27.3294 8.22912 27.3312 8.22729 27.3312 8.22507C27.327 6.99543 25.3897 6 23.002 6C21.1422 6 19.5556 6.60396 18.943 7.45213C18.6726 7.82661 18.2984 8.22912 17.8364 8.22912V8.22912C17.3745 8.22912 17 8.60359 17 9.06553V11C17 11.5523 17.4477 12 18 12H28C28.5523 12 29 11.5523 29 11V9.22912C29 8.67683 28.5523 8.22912 28 8.22912H27.3272V8.22912Z" stroke="#1D1D1D" stroke-width="2" stroke-linejoin="round"/>
<path d="M39.7598 24.6158L27.7568 36.6543L30.2917 39.1967L42.2947 27.1582C42.6847 26.7671 42.6847 26.133 42.2947 25.7419L41.1719 24.6158C40.782 24.2247 40.1498 24.2247 39.7598 24.6158Z" stroke="#1D1D1D" stroke-width="2" stroke-linejoin="round"/>
<path d="M27.753 36.655L30.2898 39.1994L28.1154 40.2849L26.6296 41.026C26.4291 41.126 26.1871 41.0858 26.0297 40.9264V40.9264C25.8741 40.7689 25.8357 40.5299 25.9343 40.3316L26.6755 38.8408L27.753 36.655Z" stroke="#1D1D1D" stroke-width="2" stroke-linejoin="round"/>
<path d="M14.6846 16.1399H31.0812" stroke="#E60024" stroke-width="2" stroke-linecap="round" stroke-linejoin="round"/>
<path d="M14.6846 19.26H31.0812" stroke="#E60024" stroke-width="2" stroke-linecap="round" stroke-linejoin="round"/>
<path d="M14.6846 22.3801H31.0812" stroke="#E60024" stroke-width="2" stroke-linecap="round" stroke-linejoin="round"/>
<path d="M14.6846 25.5H31.0812" stroke="#E60024" stroke-width="2" stroke-linecap="round" stroke-linejoin="round"/>
<path d="M14.6846 28.6199H31.0812" stroke="#E60024" stroke-width="2" stroke-linecap="round" stroke-linejoin="round"/>
<path d="M14.6846 41.1001H20.1501" stroke="#E60024" stroke-width="2" stroke-linecap="round" stroke-linejoin="round"/>
</svg>
