<svg width="50" height="50" viewBox="0 0 50 50" fill="none" xmlns="http://www.w3.org/2000/svg">
<path d="M13.1137 14.1218L12.6877 13.9248L12.2639 14.1267L10.042 15.1852L10.042 7.32983H15.4573V15.2053L13.1137 14.1218Z" stroke="#E60024" stroke-width="2"/>
<path d="M4 6H44V36.5697C44 37.8312 42.96 38.8495 41.6867 38.8495H6.32C5.04 38.8495 4.00667 37.8246 4.00667 36.5697V6H4Z" stroke="#1D1D1D" stroke-width="2" stroke-linejoin="round"/>
<path d="M24 6V38.8495" stroke="#1D1D1D" stroke-width="2" stroke-linejoin="round"/>
<path d="M36.4194 43.3525L35.9933 43.1555L35.5696 43.3574L33.3477 44.416L33.3477 36.5605H38.763V44.436L36.4194 43.3525Z" fill="white" stroke="#E60024" stroke-width="2"/>
<path d="M4 35.5645H44" stroke="#1D1D1D" stroke-width="2" stroke-linejoin="round"/>
<path d="M29.0518 9.41772H38.823C39.3753 9.41772 39.823 9.86544 39.823 10.4177V13.7254C39.823 14.2777 39.3753 14.7254 38.823 14.7254H29.0518C28.4995 14.7254 28.0518 14.2777 28.0518 13.7254V10.4177C28.0518 9.86544 28.4995 9.41772 29.0518 9.41772Z" stroke="#E60024" stroke-width="2"/>
<path d="M33.334 20.4539H40.6673" stroke="#1D1D1D" stroke-width="2" stroke-linecap="round" stroke-linejoin="round"/>
<path d="M27.334 20.4539H30.6673" stroke="#1D1D1D" stroke-width="2" stroke-linecap="round" stroke-linejoin="round"/>
<path d="M27.334 24.3958H40.6673" stroke="#1D1D1D" stroke-width="2" stroke-linecap="round" stroke-linejoin="round"/>
<path d="M27.334 28.3376H40.6673" stroke="#1D1D1D" stroke-width="2" stroke-linecap="round" stroke-linejoin="round"/>
<path d="M7.33301 20.4539H20.6663" stroke="#1D1D1D" stroke-width="2" stroke-linecap="round" stroke-linejoin="round"/>
<path d="M12.667 24.3958H20.667" stroke="#1D1D1D" stroke-width="2" stroke-linecap="round" stroke-linejoin="round"/>
<path d="M7.33301 24.3958H9.99967" stroke="#1D1D1D" stroke-width="2" stroke-linecap="round" stroke-linejoin="round"/>
<path d="M7.33301 28.3376H20.6663" stroke="#1D1D1D" stroke-width="2" stroke-linecap="round" stroke-linejoin="round"/>
</svg>
