<svg width="50" height="50" viewBox="0 0 50 50" fill="none" xmlns="http://www.w3.org/2000/svg">
<path d="M8.23535 44.5319C12.2571 44.5319 12.0458 40.6875 12.0458 40.6875L12 17" stroke="#1D1D1D" stroke-width="2" stroke-linecap="round" stroke-linejoin="round"/>
<path d="M17.168 17.1326H33.8186" stroke="#1D1D1D" stroke-width="2" stroke-linecap="round" stroke-linejoin="round"/>
<path d="M17.168 22.2019H24.2545" stroke="#1D1D1D" stroke-width="2" stroke-linecap="round" stroke-linejoin="round"/>
<path d="M17.168 27.2681H23.8546" stroke="#1D1D1D" stroke-width="2" stroke-linecap="round" stroke-linejoin="round"/>
<path d="M17.168 32.9668H25.4933" stroke="#1D1D1D" stroke-width="2" stroke-linecap="round" stroke-linejoin="round"/>
<path d="M38.3012 24.1002V11C38.3012 8.79086 36.5104 7 34.3012 7H16.0267C13.8245 7 12.0367 8.78222 12.0241 10.9844C11.9796 18.7188 11.9225 24.2477 11.9292 32.967H9C6.79086 32.967 5 34.7579 5 36.967V40.2441C5 43.7908 7.96509 45.0005 11.5898 45.0005H31.7114C35.3361 45.0005 38.3012 42.5241 38.3012 38.9774V32.967" stroke="#1D1D1D" stroke-width="2" stroke-linecap="round" stroke-linejoin="round"/>
<path d="M36.7945 20.2707C39.25 21.4218 41.9778 22.0683 44.8493 22.0715V28.6065C44.8493 33.5869 41.3288 37.8401 36.441 39.1707C36.3158 39.2048 36.1833 39.2048 36.0582 39.1707C31.1708 37.8402 27.6523 33.5872 27.6523 28.6065V22.0715C30.5229 22.0679 33.2498 21.4215 35.7047 20.2707C36.0492 20.1092 36.45 20.1092 36.7945 20.2707Z" fill="white" stroke="#E60024" stroke-width="2"/>
<path d="M31.8955 28.6603L35.031 32.6504L40.4061 26.4436" stroke="#E60024" stroke-width="2" stroke-linecap="round" stroke-linejoin="round"/>
</svg>
