<svg width="50" height="50" viewBox="0 0 50 50" fill="none" xmlns="http://www.w3.org/2000/svg">
<g id="ico_50">
<g id="Group 34665">
<g id="Group 34664">
<path id="Vector" d="M33.8056 33.5V45H5V15.921L13.9426 7H33.8056V12.5" stroke="#555555" stroke-width="2" stroke-linecap="round" stroke-linejoin="round"/>
<path id="Vector_2" d="M13.9426 7V15.921H5" stroke="#555555" stroke-width="2" stroke-linecap="round" stroke-linejoin="round"/>
<path id="Vector_3" d="M37.563 12.9414L16.1642 34.3402L15.5781 38.8007L20.0386 38.2228L41.4456 16.8158L37.563 12.9414Z" stroke="#555555" stroke-width="2" stroke-linejoin="round"/>
<path id="Vector_4" d="M31.1484 29.7986C30.7578 30.1891 30.7578 30.8223 31.1484 31.2128C31.5389 31.6033 32.1721 31.6033 32.5626 31.2128L31.1484 29.7986ZM43.8979 11.504L43.1908 12.2111L43.8979 11.504ZM43.3637 10.9698L42.6566 11.6769L43.3637 10.9698ZM39.4812 14.8524L42.6566 11.6769L41.2424 10.2627L38.067 13.4381L39.4812 14.8524ZM42.6566 11.6769L43.1908 12.2111L44.605 10.7969L44.0708 10.2627L42.6566 11.6769ZM42.9456 14.8775C43.6158 16.0046 43.4645 17.4825 42.4949 18.4521L43.9091 19.8663C45.5406 18.2348 45.7914 15.7503 44.6647 13.8554L42.9456 14.8775ZM42.4949 18.4521L31.1484 29.7986L32.5626 31.2128L43.9091 19.8663L42.4949 18.4521ZM43.1908 12.1887C42.3854 12.9941 42.5129 14.1499 42.9456 14.8775L44.6647 13.8554C44.6174 13.7759 44.6004 13.6935 44.6025 13.6379C44.6043 13.5897 44.6169 13.5911 44.605 13.6029L43.1908 12.1887ZM43.1908 12.2111C43.191 12.2112 43.1904 12.2107 43.1895 12.2094C43.1887 12.2081 43.188 12.2067 43.1874 12.2053C43.1863 12.2027 43.1862 12.2009 43.1862 12.1999C43.1862 12.1989 43.1863 12.1971 43.1874 12.1945C43.188 12.1931 43.1887 12.1917 43.1895 12.1904C43.1904 12.1891 43.191 12.1886 43.1908 12.1887L44.605 13.6029C45.3799 12.8281 45.3799 11.5717 44.605 10.7969L43.1908 12.2111ZM42.6566 11.6769V11.6769L44.0708 10.2627C43.2898 9.48165 42.0235 9.48165 41.2424 10.2627L42.6566 11.6769Z" fill="#555555"/>
<path id="Vector_5" d="M34.1113 16.3926L37.6846 19.9577" stroke="#555555" stroke-width="2" stroke-linejoin="round"/>
<path id="Vector_6" d="M16.8711 33.6318L20.7537 37.5063" stroke="#555555" stroke-width="2" stroke-linejoin="round"/>
<path id="Vector_7" d="M22.4788 19.3955H10.2695" stroke="#555555" stroke-width="2" stroke-linecap="round" stroke-linejoin="round"/>
<path id="Vector_8" d="M19.223 25.0928H10.2695" stroke="#555555" stroke-width="2" stroke-linecap="round" stroke-linejoin="round"/>
<path id="Vector_9" d="M15.1533 30.791H10.2695" stroke="#555555" stroke-width="2" stroke-linecap="round" stroke-linejoin="round"/>
</g>
</g>
</g>
</svg>
