<svg width="50" height="50" viewBox="0 0 50 50" fill="none" xmlns="http://www.w3.org/2000/svg">
<path d="M32.7321 17.6797C33.5331 17.6797 34.009 16.7848 33.5612 16.1206L30.5925 11.7182C30.196 11.1302 29.3304 11.1304 28.9341 11.7185L25.9674 16.1209C25.5198 16.7851 25.9958 17.6797 26.7967 17.6797H27.6462V25.186C27.6462 25.7383 28.094 26.186 28.6462 26.186H30.8832C31.4355 26.186 31.8832 25.7383 31.8832 25.186V17.6797H32.7321Z" stroke="#E60024" stroke-width="2" stroke-miterlimit="10"/>
<path d="M38.5511 28.56V42.5001C38.5511 43.6047 37.6556 44.5001 36.5511 44.5001H4C2.89543 44.5001 2 43.6047 2 42.5001V17.2566H18.0518C18.0225 17.5814 18.0078 17.9061 18.0078 18.2367C18.0078 21.4294 19.364 24.3176 21.5393 26.3648C22.8339 27.5827 24.4162 28.5049 26.1776 29.0181C27.1962 29.3139 28.2706 29.4734 29.3862 29.4734C32.1867 29.4734 34.7554 28.4672 36.7428 26.8027C37.3475 27.3885 37.9493 27.9742 38.5511 28.56Z" stroke="black" stroke-width="2" stroke-miterlimit="10"/>
<path d="M19.6811 12.3792C19.1028 13.3071 18.6595 14.3249 18.3747 15.4036C18.2162 16.0039 18.1076 16.6244 18.0518 17.2566H2V14.3792C2 13.2746 2.89543 12.3792 4 12.3792H19.6811Z" stroke="black" stroke-width="2" stroke-miterlimit="10"/>
<path d="M17.6392 24.7178H15.001C14.4487 24.7178 14.001 25.1655 14.001 25.7178V39.3998C14.001 39.9521 14.4487 40.3998 15.001 40.3998H17.6392C18.1915 40.3998 18.6392 39.9521 18.6392 39.3998V25.7178C18.6392 25.1655 18.1915 24.7178 17.6392 24.7178Z" stroke="black" stroke-width="2" stroke-miterlimit="10"/>
<path d="M26.1773 29.0181V39.3997C26.1773 39.952 25.7296 40.3997 25.1773 40.3997H22.5391C21.9868 40.3997 21.5391 39.952 21.5391 39.3997V26.3647C22.8337 27.5827 24.4159 28.5048 26.1773 29.0181Z" stroke="black" stroke-width="2" stroke-miterlimit="10"/>
<path d="M10.1002 28.4294H7.46191C6.90963 28.4294 6.46191 28.8772 6.46191 29.4294V39.3998C6.46191 39.9521 6.90963 40.3998 7.46191 40.3998H10.1002C10.6524 40.3998 11.1002 39.9521 11.1002 39.3998V29.4294C11.1002 28.8772 10.6524 28.4294 10.1002 28.4294Z" stroke="black" stroke-width="2" stroke-miterlimit="10"/>
<path d="M47.8338 33.7621C47.8368 34.5132 47.1234 35.0757 46.4482 35.0728C45.776 35.0728 45.1595 34.6697 44.6047 34.2406C43.5802 33.446 42.6349 32.5297 41.6926 31.6134C40.6475 30.5955 39.5995 29.5777 38.5515 28.5599C37.9497 27.9741 37.3479 27.3884 36.7432 26.8026C37.4184 26.2343 38.026 25.5905 38.5515 24.883C38.6484 24.7554 38.7394 24.6249 38.8304 24.4944C41.6691 26.9592 44.408 29.5661 47.0354 32.3035C47.4199 32.7037 47.828 33.1764 47.8338 33.7621Z" stroke="black" stroke-width="2" stroke-miterlimit="10"/>
<path d="M40.7616 18.2367C40.7616 20.5507 40.0483 22.7053 38.83 24.4944C38.739 24.6249 38.648 24.7554 38.5511 24.883C38.0256 25.5906 37.418 26.2343 36.7428 26.8027C34.7554 28.4671 32.1867 29.4734 29.3862 29.4734C28.2706 29.4734 27.1962 29.3139 26.1776 29.0181C24.4162 28.5048 22.8339 27.5827 21.5393 26.3648C19.3641 24.3175 18.0078 21.4294 18.0078 18.2367C18.0078 17.9061 18.0225 17.5813 18.0518 17.2566C18.1076 16.6244 18.2162 16.0038 18.3748 15.4036C18.6595 14.3249 19.1028 13.307 19.6811 12.3791C21.6802 9.15454 25.2852 7 29.3862 7C35.6566 7 40.7616 12.0398 40.7616 18.2367Z" stroke="black" stroke-width="2" stroke-miterlimit="10"/>
<g opacity="0.13">
<path d="M30.9049 29.4648C30.9049 29.4648 30.884 29.4648 30.8271 29.4738C30.8361 29.4738 30.8451 29.4738 30.8541 29.4708C30.872 29.4708 30.887 29.4648 30.9049 29.4648Z" stroke="black" stroke-width="2" stroke-miterlimit="10"/>
</g>
</svg>
