<svg width="20" height="21" viewBox="0 0 20 21" fill="none" xmlns="http://www.w3.org/2000/svg">
<path d="M4.31543 17.5C3.94711 17.5 3.6358 17.3728 3.38148 17.1185C3.12716 16.8642 3 16.5529 3 16.1846V7.8518C3 7.48348 3.12716 7.17216 3.38148 6.91784C3.6358 6.66352 3.94711 6.53636 4.31543 6.53636H7.90909V5.31114C7.90909 4.94159 8.03645 4.63068 8.29118 4.37841C8.54577 4.12614 8.8575 4 9.22636 4H11.6719C12.0406 4 12.3511 4.12716 12.6034 4.38148C12.8557 4.6358 12.9818 4.94711 12.9818 5.31543V6.53636H16.5755C16.9438 6.53636 17.2551 6.66352 17.5094 6.91784C17.7638 7.17216 17.8909 7.48348 17.8909 7.8518V16.1846C17.8909 16.5529 17.7638 16.8642 17.5094 17.1185C17.2551 17.3728 16.9438 17.5 16.5755 17.5H4.31543ZM8.97273 6.53636H11.9182V5.31543C11.9182 5.25243 11.8919 5.19475 11.8394 5.14239C11.7871 5.08989 11.7294 5.06364 11.6664 5.06364H9.22452C9.16152 5.06364 9.10384 5.08989 9.05148 5.14239C8.99898 5.19475 8.97273 5.25243 8.97273 5.31543V6.53636Z" fill="#005DA4"/>
</svg>
