<svg width="120" height="120" viewBox="0 0 120 120" fill="none" xmlns="http://www.w3.org/2000/svg">
<path d="M54.6914 85.1992V103" stroke="#D8D8D8" stroke-width="5" stroke-linecap="round" stroke-linejoin="round"/>
<path d="M65.3477 85.1992V103" stroke="#D8D8D8" stroke-width="5" stroke-linecap="round" stroke-linejoin="round"/>
<path d="M30.3164 103H89.7045" stroke="#D8D8D8" stroke-width="5" stroke-linecap="round" stroke-linejoin="round"/>
<path d="M22.2687 17H97.7341C104.058 17 109.175 22.1341 109.175 28.4406V73.7411C109.175 80.0654 104.041 85.1817 97.7341 85.1817H22.2687C15.9444 85.1817 10.8281 80.0477 10.8281 73.7411V28.4406C10.8281 22.1163 15.9622 17 22.2687 17Z" stroke="#1D1D1D" stroke-width="5" stroke-linecap="round" stroke-linejoin="round"/>
<path d="M53.2088 32.8665L37.2896 60.4413C34.2339 65.7386 38.0582 72.3533 44.1696 72.3533H76.0079C82.1194 72.3533 85.9436 65.7294 82.8879 60.4413L66.9688 32.8665C63.913 27.5692 56.2645 27.5692 53.2088 32.8665Z" stroke="#EC4651" stroke-width="5" stroke-linecap="round" stroke-linejoin="round"/>
<path d="M60.0862 37.5137C58.906 37.5137 57.9453 38.4743 57.9453 39.6545V54.6496C57.9453 55.8298 58.906 56.7905 60.0862 56.7905C61.2664 56.7905 62.227 55.8298 62.227 54.6496V39.6545C62.227 38.4743 61.2664 37.5137 60.0862 37.5137Z" fill="#EC4651"/>
<path d="M60.0862 60.5059C58.906 60.5059 57.9453 61.4665 57.9453 62.6467C57.9453 63.8269 58.906 64.7876 60.0862 64.7876C61.2664 64.7876 62.227 63.8269 62.227 62.6467C62.227 61.4665 61.2664 60.5059 60.0862 60.5059Z" fill="#EC4651"/>
</svg>
