<svg width="14" height="14" viewBox="0 0 14 14" fill="none" xmlns="http://www.w3.org/2000/svg">
<path id="Union" fill-rule="evenodd" clip-rule="evenodd" d="M12.9979 7.99612C13.5502 7.99612 13.9989 7.5484 14.0001 6.99612C14.0013 6.44383 13.5546 5.99612 13.0023 5.99612H8.13759L8.15093 1.13142C8.15244 0.579135 7.70596 0.13117 7.15367 0.13086C6.60139 0.13055 6.15245 0.578013 6.15093 1.1303L6.13757 6.00385H1.27953C0.727243 6.00385 0.278551 6.45156 0.277346 7.00385C0.276142 7.55613 0.72288 8.00384 1.27517 8.00384H6.13971L6.13694 8.96649C6.1337 10.1097 6.12968 11.5762 6.12654 12.8689C6.1252 13.4211 6.57183 13.869 7.12411 13.8691C7.6764 13.8692 8.1252 13.4216 8.12654 12.8694C8.12968 11.5771 8.1337 10.1109 8.13694 8.96779L8.13973 7.99612H12.9979Z" fill="white"/>
</svg>
