<svg width="219" height="28" viewBox="0 0 219 28" fill="none" xmlns="http://www.w3.org/2000/svg">
<g clip-path="url(#clip0_396_4075)">
<path d="M29.7453 14.2312C28.7843 13.5386 26.2453 12.7688 22.8645 12.8831C14.2661 13.1756 8.83369 16.2518 7.39551 17.2435C8.06007 20.7803 10.4218 23.7288 13.6117 25.2484C14.1604 24.734 14.8455 24.1995 15.7111 23.6649C19.402 21.3888 23.3996 14.9406 23.3996 14.9406C23.3996 14.9406 27.5881 16.319 25.0968 21.6578C24.238 23.4968 22.5169 25.0366 20.4789 26.1763C25.7852 25.2585 29.8169 20.6896 29.8169 15.1961C29.8169 14.8767 29.7896 14.554 29.7453 14.2346V14.2312Z" fill="url(#paint0_radial_396_4075)"/>
<path d="M7.21139 15.1121C7.21139 15.1121 7.22502 15.0952 7.22843 15.0852C11.059 12.8494 19.7257 11.1012 24.8479 11.1012C26.4429 11.1012 27.8197 11.313 28.9853 11.619C28.0855 9.47739 26.7394 7.71571 26.4565 7.31564C26.0135 8.415 24.698 9.59842 22.8644 9.17145C20.973 8.72767 20.472 7.78632 17.5854 6.38437C15.7826 5.5069 13.5844 5.49009 11.9724 6.09861C11.9724 6.09861 11.9724 6.09861 11.9724 6.09524C9.08239 8.11579 7.19775 11.4374 7.19775 15.1995C7.19775 15.1726 7.19775 15.1457 7.19775 15.1188C7.19775 15.1188 7.19775 15.1188 7.20457 15.1154L7.21139 15.1121Z" fill="url(#paint1_radial_396_4075)"/>
<path d="M39.9862 14.3623C39.6113 11.229 31.5343 9.25885 21.5761 10.4255C12.8243 11.4475 5.63332 15.2129 4.13379 17.4251C5.58902 16.1038 9.74681 13.663 18.1953 12.836C29.3055 11.7534 37.4029 13.8513 30.7471 19.2002C29.1044 20.5215 27.7548 21.1804 26.7938 21.4998C34.6663 19.9802 40.3066 17.0452 39.9862 14.3623Z" fill="url(#paint2_linear_396_4075)"/>
<path d="M26.6575 5.31527C26.378 3.05267 24.3775 1.66417 23.58 1.21703C18.9383 -1.37169 11.669 0.238698 6.12072 5.45648C2.48095 8.8756 0.374787 13.1016 0.033984 16.9309C-0.0171364 17.5024 0.28277 11.4542 7.63047 6.9223C10.4864 5.16062 12.4528 4.85805 14.9782 4.72357C19.8142 4.89503 19.93 7.22824 22.8405 8.40493C24.7354 9.17145 26.9404 7.61822 26.6575 5.31527Z" fill="url(#paint3_linear_396_4075)"/>
<path d="M25.0592 15.2869C22.8201 13.3638 20.0358 14.7994 18.1954 17.5797C15.4997 21.6511 11.2635 24.9223 5.54145 24.3575C0.146545 23.8229 0 18.8337 0 18.8337C0.122689 21.1602 0.926983 23.2715 2.48104 24.8786C6.99668 29.5517 16.471 28.8289 23.4029 22.8042C25.8805 20.6526 26.8587 16.8266 25.0592 15.2835V15.2869Z" fill="url(#paint4_linear_396_4075)"/>
</g>
<path d="M48.6455 5.75781H58.4072V7.13184C58.4072 9.8252 57.2656 11.835 54.9824 13.1611C53.2598 14.1729 51.0586 14.7197 48.3789 14.8018V12.1562C50.7441 12.0879 52.5557 11.6299 53.8135 10.7822C54.8525 10.0713 55.3721 9.22363 55.3721 8.23926H48.6455V5.75781ZM59.125 6.90625H61.7295V5.75781H64.6211V14.1045H61.7295V12.751H59.125V10.4336H61.7295V9.22363H59.125V6.90625ZM58.1611 16.0938C57.3955 16.0938 56.7256 16.3467 56.1514 16.8525C55.5498 17.3857 55.249 18.042 55.249 18.8213C55.249 19.5869 55.5498 20.2432 56.1514 20.79C56.7256 21.3096 57.3955 21.5693 58.1611 21.5693C58.9268 21.5693 59.5967 21.3096 60.1709 20.79C60.7588 20.2568 61.0527 19.6006 61.0527 18.8213C61.0527 18.0283 60.7588 17.3721 60.1709 16.8525C59.6104 16.3467 58.9404 16.0938 58.1611 16.0938ZM58.1201 13.4482C59.6514 13.4482 60.9912 13.9336 62.1396 14.9043C63.3701 15.9434 63.9854 17.249 63.9854 18.8213C63.9854 20.3799 63.3701 21.6787 62.1396 22.7178C60.9912 23.7021 59.6514 24.1943 58.1201 24.1943C56.5889 24.1943 55.2559 23.7021 54.1211 22.7178C52.918 21.6787 52.3164 20.3799 52.3164 18.8213C52.3164 17.249 52.918 15.9434 54.1211 14.9043C55.2559 13.9336 56.5889 13.4482 58.1201 13.4482ZM67.2789 11.9307V5.75781H70.1705V10.9053H81.4088V13.4688H68.6734C68.1949 13.4688 67.8463 13.3662 67.6275 13.1611C67.3951 12.915 67.2789 12.5049 67.2789 11.9307ZM85.859 11.2539H83.5211V14.4941H80.6295V5.75781H83.5211V8.69043H85.859V11.2539ZM80.65 20.6465V17.9805H71.0934V20.6465H80.65ZM68.2428 21.6514V15.4375H83.5211V21.6514C83.5211 22.2256 83.3912 22.6357 83.1314 22.8818C82.9127 23.0869 82.5709 23.1895 82.1061 23.1895H69.6578C69.1793 23.1895 68.8307 23.0869 68.6119 22.8818C68.3658 22.6357 68.2428 22.2256 68.2428 21.6514ZM89.091 8.32129V16.873H100.493V19.4365H87.5734C87.0949 19.4365 86.7463 19.334 86.5275 19.1289C86.2951 18.8828 86.1789 18.4727 86.1789 17.8984V5.75781H96.3713V8.32129H89.091ZM99.5295 23.4561V5.75781H102.421V23.4561H99.5295ZM115.558 5.75781V8.32129H111.785C111.84 11.083 112.222 13.168 112.933 14.5762C113.59 15.8613 114.554 16.627 115.825 16.873V19.7236C114.513 19.5596 113.391 19.1152 112.462 18.3906C111.518 17.6523 110.794 16.6543 110.288 15.3965C109.768 16.627 108.996 17.625 107.971 18.3906C107.013 19.1016 105.954 19.5459 104.792 19.7236V16.8936C106.05 16.6338 107.007 15.8613 107.663 14.5762C108.374 13.1543 108.763 11.0693 108.832 8.32129H105.038V5.75781H115.558ZM118.429 23.4561V5.75781H121.321V23.4561H118.429ZM132.715 10.6797H126.912V11.4385H135.443V13.6533H125.353C124.888 13.6533 124.546 13.5508 124.328 13.3457C124.095 13.0996 123.979 12.6895 123.979 12.1152V5.75781H134.151V8.01367H126.912V8.73145H132.715V10.6797ZM133.72 8.56738H137.329V5.75781H140.221V13.8174H137.329V10.8848H133.72V8.56738ZM137.329 17.6113V16.8525H124.943V14.4736H140.221V19.8877H127.834V20.6875H140.221V23.1895H126.358C125.879 23.1895 125.531 23.0869 125.312 22.8818C125.066 22.6357 124.943 22.2256 124.943 21.6514V17.6113H137.329ZM148.149 8.83398C147.603 8.83398 147.145 9.00488 146.775 9.34668C146.393 9.70215 146.201 10.1396 146.201 10.6592C146.201 11.1514 146.393 11.5752 146.775 11.9307C147.145 12.2998 147.603 12.4844 148.149 12.4844C148.655 12.4844 149.1 12.2998 149.482 11.9307C149.879 11.5752 150.077 11.1514 150.077 10.6592C150.077 10.1396 149.879 9.70215 149.482 9.34668C149.1 9.00488 148.655 8.83398 148.149 8.83398ZM153.461 8.81348H152.251C152.442 9.08691 152.593 9.36719 152.702 9.6543C152.825 9.98242 152.887 10.3105 152.887 10.6387C152.887 11.8965 152.395 12.9424 151.41 13.7764C150.494 14.5557 149.407 14.9453 148.149 14.9453C146.878 14.9453 145.777 14.5557 144.848 13.7764C143.85 12.9424 143.351 11.8965 143.351 10.6387C143.351 10.3105 143.398 9.98926 143.494 9.6748C143.59 9.3877 143.733 9.10059 143.925 8.81348H142.756V6.41406H146.611V4.81445H149.688V6.41406H153.461V8.81348ZM154.056 7.35742H156.229V5.75781H159.121V14.5762H156.229V13.6328H154.056V11.1309H156.229V9.85938H154.056V7.35742ZM159.121 15.7861V23.2715H156.229V18.3496H143.843V15.7861H159.121ZM165.388 5.75781H168.423C168.423 7.80859 168.704 9.33301 169.264 10.3311C169.921 11.5068 171.055 12.1973 172.669 12.4023V15.1504C171.438 15.082 170.31 14.7607 169.285 14.1865C168.232 13.5986 167.46 12.8398 166.967 11.9102C166.448 12.8262 165.621 13.5918 164.486 14.207C163.42 14.7812 162.333 15.0957 161.225 15.1504V12.4229C162.825 12.2041 163.946 11.5068 164.588 10.3311C165.122 9.34668 165.388 7.82227 165.388 5.75781ZM175.129 17.7549V5.75781H178.021V17.7549H175.129ZM162.743 21.6514V16.832H165.634V20.626H178.165V23.1895H164.158C163.679 23.1895 163.331 23.0869 163.112 22.8818C162.866 22.6357 162.743 22.2256 162.743 21.6514ZM196.921 11.377H183.55V12.3408H196.921V14.6992H182.053C181.574 14.6855 181.233 14.5762 181.028 14.3711C180.795 14.1387 180.679 13.7354 180.679 13.1611V5.75781H196.921V8.21875H183.55V9.16211H196.921V11.377ZM191.179 23.2715V18.8418H186.401V23.2715H183.529V18.8418H180.084V16.2783H197.516V18.8418H194.05V23.2715H191.179ZM215.349 5.75781V13.8584C215.349 14.4326 215.226 14.8428 214.98 15.0889C214.762 15.3076 214.42 15.417 213.955 15.417H201.404C200.926 15.417 200.577 15.3076 200.358 15.0889C200.126 14.8428 200.01 14.4326 200.01 13.8584V5.75781H202.901V8.0957H212.458V5.75781H215.349ZM202.901 10.5977V12.8535H212.458V10.5977H202.901ZM198.984 19.7852H216.416V22.3486H198.984V19.7852Z" fill="#1D1D1D"/>
<defs>
<radialGradient id="paint0_radial_396_4075" cx="0" cy="0" r="1" gradientUnits="userSpaceOnUse" gradientTransform="translate(22.5276 9.5383) scale(14.4605 14.2651)">
<stop stop-color="white"/>
<stop offset="0.17" stop-color="#FBFBFB"/>
<stop offset="0.34" stop-color="#EFEFEF"/>
<stop offset="0.51" stop-color="#DBDBDB"/>
<stop offset="0.68" stop-color="#C0C0C0"/>
<stop offset="0.84" stop-color="#9D9D9D"/>
<stop offset="1" stop-color="#737373"/>
</radialGradient>
<radialGradient id="paint1_radial_396_4075" cx="0" cy="0" r="1" gradientUnits="userSpaceOnUse" gradientTransform="translate(22.5275 9.53703) scale(14.4618 14.2664)">
<stop stop-color="white"/>
<stop offset="0.17" stop-color="#FBFBFB"/>
<stop offset="0.34" stop-color="#EFEFEF"/>
<stop offset="0.51" stop-color="#DBDBDB"/>
<stop offset="0.68" stop-color="#C0C0C0"/>
<stop offset="0.84" stop-color="#9D9D9D"/>
<stop offset="1" stop-color="#737373"/>
</radialGradient>
<linearGradient id="paint2_linear_396_4075" x1="14.4124" y1="14.5069" x2="37.1553" y2="16.7173" gradientUnits="userSpaceOnUse">
<stop stop-color="#72BF44"/>
<stop offset="1" stop-color="#00904C"/>
</linearGradient>
<linearGradient id="paint3_linear_396_4075" x1="7.71908" y1="13.4882" x2="20.9973" y2="2.10124" gradientUnits="userSpaceOnUse">
<stop stop-color="#F7941D"/>
<stop offset="0.3" stop-color="#EA7620"/>
<stop offset="0.93" stop-color="#CC2D2A"/>
<stop offset="1" stop-color="#C9252C"/>
</linearGradient>
<linearGradient id="paint4_linear_396_4075" x1="7.8146" y1="24.2969" x2="19.5591" y2="13.5074" gradientUnits="userSpaceOnUse">
<stop stop-color="#00B9F2"/>
<stop offset="1" stop-color="#005DA4"/>
</linearGradient>
<clipPath id="clip0_396_4075">
<rect width="40" height="27.9245" fill="white"/>
</clipPath>
</defs>
</svg>
