<svg width="49" height="49" viewBox="0 0 49 49" fill="none" xmlns="http://www.w3.org/2000/svg">
<g id="Group 36">
<circle id="Ellipse 6" cx="24.5" cy="24.5" r="24.5" fill="#333333"/>
<path id="Subtract" fill-rule="evenodd" clip-rule="evenodd" d="M31.8136 17.4476C32.6739 17.6944 33.3523 18.4202 33.5818 19.3419C34 21.0137 34 24.5 34 24.5C34 24.5 34 27.9875 33.5818 29.6581C33.3523 30.5798 32.6739 31.3056 31.8136 31.5524C30.2545 32 24 32 24 32C24 32 17.7466 32 16.1864 31.5524C15.3261 31.3056 14.6477 30.5798 14.4182 29.6581C14 27.9863 14 24.5 14 24.5C14 24.5 14 21.0137 14.4182 19.3419C14.6477 18.4202 15.3261 17.6944 16.1864 17.4476C17.7455 17 24 17 24 17C24 17 30.2545 17 31.8136 17.4476ZM27 24.5L22 27V22L27 24.5Z" fill="white"/>
</g>
</svg>
