<svg width="219" height="28" viewBox="0 0 219 28" fill="none" xmlns="http://www.w3.org/2000/svg">
<g clip-path="url(#clip0_396_2167)">
<path d="M29.7453 14.2689C28.7843 13.5764 26.2453 12.8065 22.8645 12.9208C14.2661 13.2133 8.83369 16.2895 7.39551 17.2813C8.06007 20.8181 10.4218 23.7665 13.6117 25.2861C14.1604 24.7717 14.8455 24.2372 15.7111 23.7026C19.402 21.4266 23.3996 14.9783 23.3996 14.9783C23.3996 14.9783 27.5881 16.3567 25.0968 21.6955C24.238 23.5345 22.5169 25.0743 20.4789 26.214C25.7852 25.2962 29.8169 20.7273 29.8169 15.2338C29.8169 14.9144 29.7896 14.5917 29.7453 14.2723V14.2689Z" fill="url(#paint0_radial_396_2167)"/>
<path d="M7.21139 15.1498C7.21139 15.1498 7.22502 15.133 7.22843 15.1229C11.059 12.8872 19.7257 11.1389 24.8479 11.1389C26.4429 11.1389 27.8197 11.3507 28.9853 11.6567C28.0855 9.51511 26.7394 7.75343 26.4565 7.35336C26.0135 8.45272 24.698 9.63614 22.8644 9.20917C20.973 8.76539 20.472 7.82404 17.5854 6.42209C15.7826 5.54462 13.5844 5.52781 11.9724 6.13633C11.9724 6.13633 11.9724 6.13633 11.9724 6.13296C9.08239 8.15351 7.19775 11.4751 7.19775 15.2372C7.19775 15.2103 7.19775 15.1834 7.19775 15.1565C7.19775 15.1565 7.19775 15.1565 7.20457 15.1531L7.21139 15.1498Z" fill="url(#paint1_radial_396_2167)"/>
<path d="M39.9865 14.4C39.6116 11.2667 31.5346 9.29657 21.5763 10.4632C12.8245 11.4852 5.63356 15.2506 4.13403 17.4628C5.58926 16.1415 9.74705 13.7008 18.1955 12.8737C29.3057 11.7912 37.4032 13.889 30.7473 19.2379C29.1046 20.5592 27.7551 21.2181 26.794 21.5375C34.6665 20.0179 40.3068 17.0829 39.9865 14.4Z" fill="url(#paint2_linear_396_2167)"/>
<path d="M26.6575 5.35299C26.378 3.09039 24.3775 1.70189 23.58 1.25475C18.9383 -1.33397 11.669 0.276418 6.12072 5.4942C2.48095 8.91332 0.374787 13.1393 0.033984 16.9686C-0.0171364 17.5401 0.28277 11.492 7.63047 6.96002C10.4864 5.19834 12.4528 4.89577 14.9782 4.76129C19.8142 4.93275 19.93 7.26595 22.8405 8.44265C24.7354 9.20917 26.9404 7.65594 26.6575 5.35299Z" fill="url(#paint3_linear_396_2167)"/>
<path d="M25.0592 15.3246C22.8201 13.4015 20.0358 14.8371 18.1954 17.6174C15.4997 21.6888 11.2635 24.96 5.54145 24.3952C0.146545 23.8606 0 18.8715 0 18.8715C0.122689 21.1979 0.926983 23.3093 2.48104 24.9163C6.99668 29.5894 16.471 28.8666 23.4029 22.842C25.8805 20.6903 26.8587 16.8644 25.0592 15.3212V15.3246Z" fill="url(#paint4_linear_396_2167)"/>
</g>
<path d="M48.6455 5.79553H58.4072V7.16956C58.4072 9.86292 57.2656 11.8727 54.9824 13.1989C53.2598 14.2106 51.0586 14.7574 48.3789 14.8395V12.194C50.7441 12.1256 52.5557 11.6676 53.8135 10.8199C54.8525 10.109 55.3721 9.26135 55.3721 8.27698H48.6455V5.79553ZM59.125 6.94397H61.7295V5.79553H64.6211V14.1422H61.7295V12.7887H59.125V10.4713H61.7295V9.26135H59.125V6.94397ZM58.1611 16.1315C57.3955 16.1315 56.7256 16.3844 56.1514 16.8903C55.5498 17.4235 55.249 18.0797 55.249 18.859C55.249 19.6246 55.5498 20.2809 56.1514 20.8278C56.7256 21.3473 57.3955 21.6071 58.1611 21.6071C58.9268 21.6071 59.5967 21.3473 60.1709 20.8278C60.7588 20.2946 61.0527 19.6383 61.0527 18.859C61.0527 18.066 60.7588 17.4098 60.1709 16.8903C59.6104 16.3844 58.9404 16.1315 58.1611 16.1315ZM58.1201 13.486C59.6514 13.486 60.9912 13.9713 62.1396 14.942C63.3701 15.9811 63.9854 17.2867 63.9854 18.859C63.9854 20.4176 63.3701 21.7164 62.1396 22.7555C60.9912 23.7399 59.6514 24.2321 58.1201 24.2321C56.5889 24.2321 55.2559 23.7399 54.1211 22.7555C52.918 21.7164 52.3164 20.4176 52.3164 18.859C52.3164 17.2867 52.918 15.9811 54.1211 14.942C55.2559 13.9713 56.5889 13.486 58.1201 13.486ZM67.2789 11.9684V5.79553H70.1705V10.943H81.4088V13.5065H68.6734C68.1949 13.5065 67.8463 13.4039 67.6275 13.1989C67.3951 12.9528 67.2789 12.5426 67.2789 11.9684ZM85.859 11.2916H83.5211V14.5319H80.6295V5.79553H83.5211V8.72815H85.859V11.2916ZM80.65 20.6842V18.0182H71.0934V20.6842H80.65ZM68.2428 21.6891V15.4752H83.5211V21.6891C83.5211 22.2633 83.3912 22.6735 83.1314 22.9196C82.9127 23.1246 82.5709 23.2272 82.1061 23.2272H69.6578C69.1793 23.2272 68.8307 23.1246 68.6119 22.9196C68.3658 22.6735 68.2428 22.2633 68.2428 21.6891ZM89.091 8.35901V16.9108H100.493V19.4742H87.5734C87.0949 19.4742 86.7463 19.3717 86.5275 19.1666C86.2951 18.9205 86.1789 18.5104 86.1789 17.9362V5.79553H96.3713V8.35901H89.091ZM99.5295 23.4938V5.79553H102.421V23.4938H99.5295ZM115.558 5.79553V8.35901H111.785C111.84 11.1207 112.222 13.2057 112.933 14.6139C113.59 15.899 114.554 16.6647 115.825 16.9108V19.7614C114.513 19.5973 113.391 19.153 112.462 18.4283C111.518 17.6901 110.794 16.692 110.288 15.4342C109.768 16.6647 108.996 17.6627 107.971 18.4283C107.013 19.1393 105.954 19.5836 104.792 19.7614V16.9313C106.05 16.6715 107.007 15.899 107.663 14.6139C108.374 13.192 108.763 11.1071 108.832 8.35901H105.038V5.79553H115.558ZM118.429 23.4938V5.79553H121.321V23.4938H118.429ZM132.715 10.7174H126.912V11.4762H135.443V13.691H125.353C124.888 13.691 124.546 13.5885 124.328 13.3834C124.095 13.1373 123.979 12.7272 123.979 12.153V5.79553H134.151V8.05139H126.912V8.76917H132.715V10.7174ZM133.72 8.6051H137.329V5.79553H140.221V13.8551H137.329V10.9225H133.72V8.6051ZM137.329 17.649V16.8903H124.943V14.5114H140.221V19.9254H127.834V20.7252H140.221V23.2272H126.358C125.879 23.2272 125.531 23.1246 125.312 22.9196C125.066 22.6735 124.943 22.2633 124.943 21.6891V17.649H137.329ZM148.149 8.8717C147.603 8.8717 147.145 9.0426 146.775 9.3844C146.393 9.73987 146.201 10.1774 146.201 10.6969C146.201 11.1891 146.393 11.6129 146.775 11.9684C147.145 12.3375 147.603 12.5221 148.149 12.5221C148.655 12.5221 149.1 12.3375 149.482 11.9684C149.879 11.6129 150.077 11.1891 150.077 10.6969C150.077 10.1774 149.879 9.73987 149.482 9.3844C149.1 9.0426 148.655 8.8717 148.149 8.8717ZM153.461 8.8512H152.251C152.442 9.12463 152.593 9.40491 152.702 9.69202C152.825 10.0201 152.887 10.3483 152.887 10.6764C152.887 11.9342 152.395 12.9801 151.41 13.8141C150.494 14.5934 149.407 14.983 148.149 14.983C146.878 14.983 145.777 14.5934 144.848 13.8141C143.85 12.9801 143.351 11.9342 143.351 10.6764C143.351 10.3483 143.398 10.027 143.494 9.71252C143.59 9.42542 143.733 9.13831 143.925 8.8512H142.756V6.45178H146.611V4.85217H149.688V6.45178H153.461V8.8512ZM154.056 7.39514H156.229V5.79553H159.121V14.6139H156.229V13.6705H154.056V11.1686H156.229V9.89709H154.056V7.39514ZM159.121 15.8239V23.3092H156.229V18.3873H143.843V15.8239H159.121ZM165.388 5.79553H168.423C168.423 7.84631 168.704 9.37073 169.264 10.3688C169.921 11.5446 171.055 12.235 172.669 12.4401V15.1881C171.438 15.1198 170.31 14.7985 169.285 14.2242C168.232 13.6364 167.46 12.8776 166.967 11.9479C166.448 12.8639 165.621 13.6295 164.486 14.2448C163.42 14.819 162.333 15.1334 161.225 15.1881V12.4606C162.825 12.2418 163.946 11.5446 164.588 10.3688C165.122 9.3844 165.388 7.85999 165.388 5.79553ZM175.129 17.7926V5.79553H178.021V17.7926H175.129ZM162.743 21.6891V16.8698H165.634V20.6637H178.165V23.2272H164.158C163.679 23.2272 163.331 23.1246 163.112 22.9196C162.866 22.6735 162.743 22.2633 162.743 21.6891ZM196.921 11.4147H183.55V12.3785H196.921V14.7369H182.053C181.574 14.7233 181.233 14.6139 181.028 14.4088C180.795 14.1764 180.679 13.7731 180.679 13.1989V5.79553H196.921V8.25647H183.55V9.19983H196.921V11.4147ZM191.179 23.3092V18.8795H186.401V23.3092H183.529V18.8795H180.084V16.316H197.516V18.8795H194.05V23.3092H191.179ZM215.349 5.79553V13.8961C215.349 14.4703 215.226 14.8805 214.98 15.1266C214.762 15.3453 214.42 15.4547 213.955 15.4547H201.404C200.926 15.4547 200.577 15.3453 200.358 15.1266C200.126 14.8805 200.01 14.4703 200.01 13.8961V5.79553H202.901V8.13342H212.458V5.79553H215.349ZM202.901 10.6354V12.8912H212.458V10.6354H202.901ZM198.984 19.8229H216.416V22.3864H198.984V19.8229Z" fill="white"/>
<defs>
<radialGradient id="paint0_radial_396_2167" cx="0" cy="0" r="1" gradientUnits="userSpaceOnUse" gradientTransform="translate(22.5276 9.57602) scale(14.4605 14.2651)">
<stop stop-color="white"/>
<stop offset="0.17" stop-color="#FBFBFB"/>
<stop offset="0.34" stop-color="#EFEFEF"/>
<stop offset="0.51" stop-color="#DBDBDB"/>
<stop offset="0.68" stop-color="#C0C0C0"/>
<stop offset="0.84" stop-color="#9D9D9D"/>
<stop offset="1" stop-color="#737373"/>
</radialGradient>
<radialGradient id="paint1_radial_396_2167" cx="0" cy="0" r="1" gradientUnits="userSpaceOnUse" gradientTransform="translate(22.5275 9.57475) scale(14.4618 14.2664)">
<stop stop-color="white"/>
<stop offset="0.17" stop-color="#FBFBFB"/>
<stop offset="0.34" stop-color="#EFEFEF"/>
<stop offset="0.51" stop-color="#DBDBDB"/>
<stop offset="0.68" stop-color="#C0C0C0"/>
<stop offset="0.84" stop-color="#9D9D9D"/>
<stop offset="1" stop-color="#737373"/>
</radialGradient>
<linearGradient id="paint2_linear_396_2167" x1="14.4126" y1="14.5446" x2="37.1555" y2="16.7551" gradientUnits="userSpaceOnUse">
<stop stop-color="#72BF44"/>
<stop offset="1" stop-color="#00904C"/>
</linearGradient>
<linearGradient id="paint3_linear_396_2167" x1="7.71908" y1="13.5259" x2="20.9973" y2="2.13896" gradientUnits="userSpaceOnUse">
<stop stop-color="#F7941D"/>
<stop offset="0.3" stop-color="#EA7620"/>
<stop offset="0.93" stop-color="#CC2D2A"/>
<stop offset="1" stop-color="#C9252C"/>
</linearGradient>
<linearGradient id="paint4_linear_396_2167" x1="7.8146" y1="24.3347" x2="19.5591" y2="13.5451" gradientUnits="userSpaceOnUse">
<stop stop-color="#00B9F2"/>
<stop offset="1" stop-color="#005DA4"/>
</linearGradient>
<clipPath id="clip0_396_2167">
<rect width="40" height="27.9245" fill="white" transform="translate(0 0.0377197)"/>
</clipPath>
</defs>
</svg>
