<svg width="49" height="49" viewBox="0 0 49 49" fill="none" xmlns="http://www.w3.org/2000/svg">
<g id="Group 38">
<circle id="Ellipse 8" cx="24.5" cy="24.5" r="24.5" fill="#333333"/>
<path id="Vector" d="M19.8585 15.0699C18.7945 15.1201 18.0679 15.2899 17.4327 15.5395C16.7752 15.7957 16.218 16.1395 15.6636 16.6959C15.1092 17.2523 14.7678 17.8099 14.5134 18.4683C14.2672 19.105 14.1004 19.8322 14.0534 20.8968C14.0064 21.9614 13.996 22.3036 14.0012 25.0192C14.0064 27.7348 14.0184 28.0752 14.07 29.142C14.1208 30.2058 14.29 30.9322 14.5396 31.5676C14.7962 32.225 15.1396 32.782 15.6962 33.3366C16.2528 33.8912 16.81 34.2318 17.4701 34.4866C18.1061 34.7324 18.8335 34.9 19.8979 34.9466C20.9623 34.9932 21.3049 35.004 24.0197 34.9988C26.7345 34.9936 27.0763 34.9816 28.143 34.931C29.2096 34.8804 29.9322 34.71 30.5678 34.4616C31.2252 34.2044 31.7826 33.8616 32.3368 33.3048C32.891 32.748 33.2322 32.19 33.4864 31.5312C33.7328 30.8952 33.9002 30.1678 33.9464 29.1042C33.993 28.0368 34.004 27.696 33.9988 24.9808C33.9936 22.2656 33.9814 21.9252 33.9308 20.8588C33.8802 19.7924 33.7108 19.0682 33.4614 18.4323C33.2044 17.7749 32.8614 17.2183 32.305 16.6633C31.7486 16.1083 31.1902 15.7673 30.5316 15.5137C29.8952 15.2675 29.1682 15.0997 28.1038 15.0537C27.0393 15.0077 26.6967 14.9959 23.9809 15.0011C21.2651 15.0063 20.9251 15.0179 19.8585 15.0699ZM19.9753 33.1476C19.0003 33.1052 18.4709 32.9432 18.1181 32.8076C17.6509 32.6276 17.318 32.41 16.9664 32.0618C16.6148 31.7136 16.3988 31.3796 16.2164 30.9134C16.0794 30.5606 15.9144 30.0318 15.8688 29.0568C15.8192 28.003 15.8088 27.6866 15.803 25.0168C15.7972 22.347 15.8074 22.031 15.8536 20.9768C15.8952 20.0026 16.0582 19.4726 16.1936 19.12C16.3736 18.6522 16.5904 18.3199 16.9394 17.9685C17.2884 17.6171 17.6215 17.4007 18.0881 17.2183C18.4405 17.0807 18.9693 16.9171 19.9439 16.8707C20.9985 16.8207 21.3145 16.8107 23.9839 16.8049C26.6533 16.7991 26.9701 16.8091 28.0252 16.8555C28.9994 16.8979 29.5296 17.0593 29.8818 17.1955C30.3492 17.3755 30.6818 17.5917 31.0332 17.9413C31.3846 18.2909 31.6012 18.6228 31.7836 19.0904C31.9214 19.4418 32.085 19.9704 32.131 20.9456C32.1812 22.0002 32.1926 22.3164 32.1974 24.9856C32.2022 27.6548 32.1928 27.9718 32.1466 29.0256C32.104 30.0006 31.9424 30.5302 31.8066 30.8834C31.6266 31.3504 31.4096 31.6834 31.0604 32.0346C30.7112 32.3858 30.3786 32.6022 29.9118 32.7846C29.5598 32.922 29.0304 33.086 28.0566 33.1324C27.0019 33.182 26.6859 33.1924 24.0155 33.1982C21.3451 33.204 21.0301 33.1932 19.9755 33.1476M28.1276 19.6554C28.128 19.8927 28.1987 20.1246 28.3309 20.3217C28.4631 20.5189 28.6508 20.6724 28.8703 20.7628C29.0897 20.8533 29.3311 20.8766 29.5638 20.8299C29.7965 20.7832 30.0101 20.6685 30.1777 20.5003C30.3452 20.3322 30.4591 20.1181 30.505 19.8853C30.5508 19.6524 30.5266 19.4111 30.4354 19.192C30.3441 18.9729 30.1899 18.7858 29.9923 18.6543C29.7947 18.5228 29.5625 18.4529 29.3252 18.4533C29.007 18.454 28.7021 18.581 28.4775 18.8064C28.2529 19.0318 28.127 19.3372 28.1276 19.6554ZM18.8655 25.01C18.8711 27.846 21.1743 30.1398 24.0097 30.1344C26.8451 30.129 29.1406 27.826 29.1352 24.99C29.1298 22.154 26.8259 19.8596 23.9901 19.8652C21.1543 19.8708 18.8601 22.1744 18.8655 25.01ZM20.6667 25.0064C20.6654 24.3471 20.8596 23.7022 21.2248 23.1533C21.59 22.6044 22.1098 22.1761 22.7184 21.9226C23.327 21.6691 23.9971 21.6018 24.644 21.7291C25.2908 21.8565 25.8854 22.1728 26.3525 22.638C26.8196 23.1033 27.1383 23.6966 27.2682 24.343C27.3981 24.9894 27.3334 25.6597 27.0823 26.2693C26.8312 26.8789 26.405 27.4004 25.8576 27.7677C25.3101 28.1351 24.666 28.3319 24.0067 28.3332C23.5689 28.3341 23.1353 28.2488 22.7305 28.0821C22.3257 27.9154 21.9577 27.6706 21.6476 27.3616C21.3374 27.0527 21.0911 26.6857 20.9228 26.2816C20.7545 25.8775 20.6675 25.4441 20.6667 25.0064Z" fill="white"/>
</g>
</svg>
