<svg width="49" height="49" viewBox="0 0 49 49" fill="none" xmlns="http://www.w3.org/2000/svg">
<g id="Group 35">
<circle id="Ellipse 5" cx="24.5" cy="24.5" r="24.5" fill="#333333"/>
<path id="Initiator" d="M33.9996 25.0367C33.9996 19.4936 29.5225 15 23.9998 15C18.4771 15 14 19.4936 14 25.0367C14 29.7436 17.2287 33.6932 21.5842 34.778V28.104H19.5223V25.0367H21.5842V23.7151C21.5842 20.299 23.1246 18.7156 26.4662 18.7156C27.0997 18.7156 28.1929 18.8405 28.6401 18.9649V21.7451C28.4041 21.7202 27.9941 21.7078 27.4849 21.7078C25.8454 21.7078 25.2118 22.3312 25.2118 23.952V25.0367H28.4781L27.9169 28.104H25.2118V35C30.1633 34.3998 34 30.1683 34 25.0367H33.9996Z" fill="white"/>
</g>
</svg>
