<svg width="12" height="21" viewBox="0 0 12 21" fill="none" xmlns="http://www.w3.org/2000/svg">
<g id="arr">
<path id="Vector" d="M7 7.33L9.88451 10.2065C10.2743 10.5952 10.9053 10.5947 11.2945 10.2055C11.6841 9.81586 11.6841 9.18414 11.2945 8.79451L6.70711 4.20711C6.31658 3.81658 5.68342 3.81658 5.29289 4.20711L0.705492 8.79451C0.315859 9.18414 0.315859 9.81586 0.705492 10.2055C1.09474 10.5947 1.7257 10.5952 2.11549 10.2065L5 7.33L5 19.5C5 20.0523 5.44772 20.5 6 20.5C6.55228 20.5 7 20.0523 7 19.5L7 7.33Z" fill="white"/>
<path id="Line 36" d="M1 1.5H11" stroke="white" stroke-width="2" stroke-linecap="round"/>
</g>
</svg>
