<svg width="263" height="38" viewBox="0 0 263 38" fill="none" xmlns="http://www.w3.org/2000/svg">
<g clip-path="url(#clip0_74_448)">
<path d="M39.4125 19.3563C38.1391 18.4386 34.7749 17.4185 30.2954 17.57C18.9025 17.9575 11.7045 22.0335 9.79895 23.3476C10.6795 28.0339 13.8088 31.9406 18.0355 33.954C18.7625 33.2725 19.6701 32.5642 20.8171 31.8559C25.7075 28.8401 31.0044 20.2962 31.0044 20.2962C31.0044 20.2962 36.5541 22.1226 33.2532 29.1965C32.1152 31.6332 29.8348 33.6734 27.1345 35.1835C34.1653 33.9674 39.5073 27.9136 39.5073 20.6348C39.5073 20.2116 39.4712 19.7839 39.4125 19.3607V19.3563Z" fill="url(#paint0_radial_74_448)"/>
<path d="M9.55505 20.5235C9.55505 20.5235 9.57311 20.5012 9.57763 20.4878C14.6532 17.5255 26.1365 15.2091 32.9235 15.2091C35.0368 15.2091 36.8611 15.4898 38.4054 15.8951C37.2133 13.0575 35.4296 10.7233 35.0548 10.1932C34.4678 11.6499 32.7248 13.2179 30.2954 12.6522C27.7892 12.0642 27.1254 10.8169 23.3006 8.95929C20.9119 7.79664 17.9993 7.77437 15.8634 8.58065C15.8634 8.58065 15.8634 8.58065 15.8634 8.5762C12.0341 11.2534 9.53699 15.6546 9.53699 20.6393C9.53699 20.6036 9.53699 20.568 9.53699 20.5324C9.53699 20.5324 9.53699 20.5324 9.54602 20.5279L9.55505 20.5235Z" fill="url(#paint1_radial_74_448)"/>
<path d="M52.9819 19.53C52.4852 15.3783 41.7831 12.7679 28.5884 14.3137C16.9923 15.6679 7.4643 20.657 5.47742 23.5882C7.40559 21.8375 12.9147 18.6035 24.1089 17.5076C38.8299 16.0732 49.559 18.8529 40.74 25.9402C38.5635 27.6909 36.7753 28.564 35.5019 28.9872C45.933 26.9737 53.4064 23.0848 52.9819 19.53Z" fill="url(#paint2_linear_74_448)"/>
<path d="M35.3213 7.5428C34.951 4.54484 32.3003 2.70509 31.2436 2.11263C25.0933 -1.31742 15.4615 0.816334 8.11004 7.72989C3.28734 12.2602 0.496678 17.8597 0.0451142 22.9335C-0.0226203 23.6908 0.374756 15.6769 10.1105 9.6721C13.8946 7.33788 16.5001 6.93697 19.8462 6.75879C26.2539 6.98597 26.4074 10.0775 30.2637 11.6366C32.7744 12.6522 35.6961 10.5942 35.3213 7.5428Z" fill="url(#paint3_linear_74_448)"/>
<path d="M33.2035 20.7552C30.2367 18.2072 26.5474 20.1093 24.109 23.7933C20.5371 29.1878 14.9242 33.5222 7.34242 32.7738C0.194172 32.0655 0 25.4549 0 25.4549C0.162563 28.5374 1.22825 31.3349 3.28738 33.4642C9.2706 39.6562 21.8241 38.6984 31.0089 30.7157C34.2917 27.8648 35.5877 22.7954 33.2035 20.7508V20.7552Z" fill="url(#paint4_linear_74_448)"/>
</g>
<path d="M61.1494 8.16406H72.7705V9.7998C72.7705 13.0062 71.4115 15.3988 68.6934 16.9775C66.6426 18.182 64.0221 18.833 60.832 18.9307V15.7812C63.6478 15.6999 65.8044 15.1546 67.3018 14.1455C68.5387 13.2992 69.1572 12.29 69.1572 11.1182H61.1494V8.16406ZM73.625 9.53125H76.7256V8.16406H80.168V18.1006H76.7256V16.4893H73.625V13.7305H76.7256V12.29H73.625V9.53125ZM72.4775 20.4688C71.5661 20.4688 70.7686 20.7699 70.085 21.3721C69.3688 22.0068 69.0107 22.7881 69.0107 23.7158C69.0107 24.6273 69.3688 25.4085 70.085 26.0596C70.7686 26.6781 71.5661 26.9873 72.4775 26.9873C73.389 26.9873 74.1865 26.6781 74.8701 26.0596C75.57 25.4248 75.9199 24.6436 75.9199 23.7158C75.9199 22.7718 75.57 21.9906 74.8701 21.3721C74.2028 20.7699 73.4053 20.4688 72.4775 20.4688ZM72.4287 17.3193C74.2516 17.3193 75.8467 17.8971 77.2139 19.0527C78.6787 20.2897 79.4111 21.8441 79.4111 23.7158C79.4111 25.5713 78.6787 27.1175 77.2139 28.3545C75.8467 29.5264 74.2516 30.1123 72.4287 30.1123C70.6058 30.1123 69.0189 29.5264 67.668 28.3545C66.2357 27.1175 65.5195 25.5713 65.5195 23.7158C65.5195 21.8441 66.2357 20.2897 67.668 19.0527C69.0189 17.8971 70.6058 17.3193 72.4287 17.3193ZM83.332 15.5127V8.16406H86.7744V14.292H100.153V17.3438H84.9922C84.4225 17.3438 84.0075 17.2217 83.7471 16.9775C83.4704 16.6846 83.332 16.1963 83.332 15.5127ZM105.451 14.707H102.668V18.5645H99.2256V8.16406H102.668V11.6553H105.451V14.707ZM99.25 25.8887V22.7148H87.873V25.8887H99.25ZM84.4795 27.085V19.6875H102.668V27.085C102.668 27.7686 102.513 28.2568 102.204 28.5498C101.944 28.7939 101.537 28.916 100.983 28.916H86.1641C85.5944 28.916 85.1794 28.7939 84.9189 28.5498C84.626 28.2568 84.4795 27.7686 84.4795 27.085ZM109.299 11.2158V21.3965H122.873V24.4482H107.492C106.923 24.4482 106.507 24.3262 106.247 24.082C105.97 23.7891 105.832 23.3008 105.832 22.6172V8.16406H117.966V11.2158H109.299ZM121.726 29.2334V8.16406H125.168V29.2334H121.726ZM140.808 8.16406V11.2158H136.315C136.381 14.5036 136.836 16.9857 137.683 18.6621C138.464 20.1921 139.611 21.1035 141.125 21.3965V24.79C139.562 24.5947 138.228 24.0658 137.121 23.2031C135.998 22.3242 135.135 21.1361 134.533 19.6387C133.915 21.1035 132.995 22.2917 131.774 23.2031C130.635 24.0495 129.374 24.5785 127.99 24.79V21.4209C129.488 21.1117 130.627 20.1921 131.408 18.6621C132.255 16.9694 132.718 14.4873 132.8 11.2158H128.283V8.16406H140.808ZM144.226 29.2334V8.16406H147.668V29.2334H144.226ZM161.232 14.0234H154.323V14.9268H164.479V17.5635H152.468C151.914 17.5635 151.507 17.4414 151.247 17.1973C150.97 16.9043 150.832 16.416 150.832 15.7324V8.16406H162.941V10.8496H154.323V11.7041H161.232V14.0234ZM162.429 11.5088H166.726V8.16406H170.168V17.7588H166.726V14.2676H162.429V11.5088ZM166.726 22.2754V21.3721H151.979V18.54H170.168V24.9854H155.422V25.9375H170.168V28.916H153.664C153.094 28.916 152.679 28.7939 152.419 28.5498C152.126 28.2568 151.979 27.7686 151.979 27.085V22.2754H166.726ZM179.606 11.8262C178.955 11.8262 178.41 12.0296 177.971 12.4365C177.515 12.8597 177.287 13.3805 177.287 13.999C177.287 14.585 177.515 15.0895 177.971 15.5127C178.41 15.9521 178.955 16.1719 179.606 16.1719C180.209 16.1719 180.738 15.9521 181.193 15.5127C181.665 15.0895 181.901 14.585 181.901 13.999C181.901 13.3805 181.665 12.8597 181.193 12.4365C180.738 12.0296 180.209 11.8262 179.606 11.8262ZM185.93 11.8018H184.489C184.717 12.1273 184.896 12.4609 185.026 12.8027C185.173 13.1934 185.246 13.584 185.246 13.9746C185.246 15.472 184.66 16.7171 183.488 17.71C182.398 18.6377 181.104 19.1016 179.606 19.1016C178.093 19.1016 176.783 18.6377 175.676 17.71C174.488 16.7171 173.894 15.472 173.894 13.9746C173.894 13.584 173.951 13.2015 174.064 12.8271C174.178 12.4854 174.349 12.1436 174.577 11.8018H173.186V8.94531H177.775V7.04102H181.438V8.94531H185.93V11.8018ZM186.638 10.0684H189.226V8.16406H192.668V18.6621H189.226V17.5391H186.638V14.5605H189.226V13.0469H186.638V10.0684ZM192.668 20.1025V29.0137H189.226V23.1543H174.479V20.1025H192.668ZM200.129 8.16406H203.742C203.742 10.6055 204.076 12.4202 204.743 13.6084C205.524 15.0081 206.875 15.8301 208.796 16.0742V19.3457C207.331 19.2643 205.988 18.8818 204.768 18.1982C203.514 17.4984 202.595 16.5951 202.009 15.4883C201.39 16.5788 200.406 17.4902 199.055 18.2227C197.785 18.9062 196.491 19.2806 195.173 19.3457V16.0986C197.077 15.8382 198.412 15.0081 199.177 13.6084C199.812 12.4365 200.129 10.6217 200.129 8.16406ZM211.726 22.4463V8.16406H215.168V22.4463H211.726ZM196.979 27.085V21.3477H200.422V25.8643H215.339V28.916H198.664C198.094 28.916 197.679 28.7939 197.419 28.5498C197.126 28.2568 196.979 27.7686 196.979 27.085ZM237.668 14.8535H221.75V16.001H237.668V18.8086H219.968C219.398 18.7923 218.991 18.6621 218.747 18.418C218.47 18.1413 218.332 17.6611 218.332 16.9775V8.16406H237.668V11.0938H221.75V12.2168H237.668V14.8535ZM230.832 29.0137V23.7402H225.144V29.0137H221.726V23.7402H217.624V20.6885H238.376V23.7402H234.25V29.0137H230.832ZM259.606 8.16406V17.8076C259.606 18.4912 259.46 18.9795 259.167 19.2725C258.907 19.5329 258.5 19.6631 257.946 19.6631H243.005C242.435 19.6631 242.02 19.5329 241.76 19.2725C241.483 18.9795 241.345 18.4912 241.345 17.8076V8.16406H244.787V10.9473H256.164V8.16406H259.606ZM244.787 13.9258V16.6113H256.164V13.9258H244.787ZM240.124 24.8633H260.876V27.915H240.124V24.8633Z" fill="white"/>
<defs>
<radialGradient id="paint0_radial_74_448" cx="0" cy="0" r="1" gradientUnits="userSpaceOnUse" gradientTransform="translate(29.8489 13.1382) scale(19.1602 18.9013)">
<stop stop-color="white"/>
<stop offset="0.17" stop-color="#FBFBFB"/>
<stop offset="0.34" stop-color="#EFEFEF"/>
<stop offset="0.51" stop-color="#DBDBDB"/>
<stop offset="0.68" stop-color="#C0C0C0"/>
<stop offset="0.84" stop-color="#9D9D9D"/>
<stop offset="1" stop-color="#737373"/>
</radialGradient>
<radialGradient id="paint1_radial_74_448" cx="0" cy="0" r="1" gradientUnits="userSpaceOnUse" gradientTransform="translate(29.8489 13.1366) scale(19.1619 18.903)">
<stop stop-color="white"/>
<stop offset="0.17" stop-color="#FBFBFB"/>
<stop offset="0.34" stop-color="#EFEFEF"/>
<stop offset="0.51" stop-color="#DBDBDB"/>
<stop offset="0.68" stop-color="#C0C0C0"/>
<stop offset="0.84" stop-color="#9D9D9D"/>
<stop offset="1" stop-color="#737373"/>
</radialGradient>
<linearGradient id="paint2_linear_74_448" x1="19.0966" y1="19.7216" x2="49.2309" y2="22.6504" gradientUnits="userSpaceOnUse">
<stop stop-color="#72BF44"/>
<stop offset="1" stop-color="#00904C"/>
</linearGradient>
<linearGradient id="paint3_linear_74_448" x1="10.2279" y1="18.372" x2="27.8215" y2="3.28421" gradientUnits="userSpaceOnUse">
<stop stop-color="#F7941D"/>
<stop offset="0.3" stop-color="#EA7620"/>
<stop offset="0.93" stop-color="#CC2D2A"/>
<stop offset="1" stop-color="#C9252C"/>
</linearGradient>
<linearGradient id="paint4_linear_74_448" x1="10.3543" y1="32.6936" x2="25.9158" y2="18.3974" gradientUnits="userSpaceOnUse">
<stop stop-color="#00B9F2"/>
<stop offset="1" stop-color="#005DA4"/>
</linearGradient>
<clipPath id="clip0_74_448">
<rect width="53" height="37" fill="white" transform="translate(0 0.5)"/>
</clipPath>
</defs>
</svg>
