<svg width="20" height="20" viewBox="0 0 20 20" fill="none" xmlns="http://www.w3.org/2000/svg">
<rect x="0.5" y="0.5" width="19" height="19" rx="3.5" stroke="#DBDBDB"/>
<path d="M6.0625 8L5 6.94845L10 2L15 6.94845L13.9375 8L10 4.10309L6.0625 8Z" fill="black"/>
<path d="M7.69141 9.92969V15.8281H8.99023V17H4.79102V15.8281H6.2168V11.4043L4.79102 12.3711V10.9941L6.32422 9.92969H7.69141ZM12.3426 17.0977C10.7312 17.0977 9.77422 15.8379 9.77422 13.7285V13.2012C9.77422 11.0918 10.7312 9.83203 12.3426 9.83203C13.9539 9.83203 14.9109 11.0918 14.9109 13.2012V13.7285C14.9109 15.8379 13.9539 17.0977 12.3426 17.0977ZM12.3426 15.8867C13.1238 15.8867 13.534 15.1445 13.534 13.7285V13.2012C13.534 11.7852 13.1238 11.043 12.3426 11.043C11.5613 11.043 11.1512 11.7852 11.1512 13.2012V13.7285C11.1512 15.1445 11.5613 15.8867 12.3426 15.8867Z" fill="#101010"/>
</svg>
