<svg width="20" height="20" viewBox="0 0 20 20" fill="none" xmlns="http://www.w3.org/2000/svg">
<rect x="0.5" y="0.5" width="19" height="19" rx="3.5" stroke="#DBDBDB"/>
<path d="M10 18L5 13.0515L6.0625 12L10 15.8969L13.9375 12L15 13.0515L10 18Z" fill="black"/>
<path d="M7.69141 2.92969V8.82812H8.99023V10H4.79102V8.82812H6.2168V4.4043L4.79102 5.37109V3.99414L6.32422 2.92969H7.69141ZM12.3426 10.0977C10.7312 10.0977 9.77422 8.83789 9.77422 6.72852V6.20117C9.77422 4.0918 10.7312 2.83203 12.3426 2.83203C13.9539 2.83203 14.9109 4.0918 14.9109 6.20117V6.72852C14.9109 8.83789 13.9539 10.0977 12.3426 10.0977ZM12.3426 8.88672C13.1238 8.88672 13.534 8.14453 13.534 6.72852V6.20117C13.534 4.78516 13.1238 4.04297 12.3426 4.04297C11.5613 4.04297 11.1512 4.78516 11.1512 6.20117V6.72852C11.1512 8.14453 11.5613 8.88672 12.3426 8.88672Z" fill="#101010"/>
</svg>
