<svg width="24" height="24" viewBox="0 0 24 24" fill="none" xmlns="http://www.w3.org/2000/svg">
<g id="ic" clip-path="url(#clip0_219_11202)">
<path id="Add Circle" d="M11.0601 18H13.0599V13.08H18V11.0799H13.0599V6H11.0601V11.0799H6V13.08H11.0601V18ZM12.0054 24C10.3488 24 8.7921 23.685 7.3353 23.055C5.8785 22.425 4.6067 21.5667 3.5199 20.4801C2.4333 19.3933 1.575 18.121 0.945 16.6632C0.315 15.2054 0 13.6477 0 11.9901C0 10.3325 0.315 8.7747 0.945 7.3167C1.575 5.8589 2.4333 4.59 3.5199 3.51C4.6067 2.43 5.879 1.575 7.3368 0.945C8.7946 0.315 10.3523 0 12.0099 0C13.6675 0 15.2253 0.315 16.6833 0.945C18.1411 1.575 19.41 2.43 20.49 3.51C21.57 4.59 22.425 5.86 23.055 7.32C23.685 8.78 24 10.3382 24 11.9946C24 13.6512 23.685 15.2079 23.055 16.6647C22.425 18.1215 21.57 19.392 20.49 20.4762C19.41 21.5604 18.14 22.4188 16.68 23.0514C15.22 23.6838 13.6618 24 12.0054 24Z" fill="#133692"/>
</g>
<defs>
<clipPath id="clip0_219_11202">
<rect width="24" height="24" fill="white"/>
</clipPath>
</defs>
</svg>
