<svg width="32" height="32" viewBox="0 0 32 32" fill="none" xmlns="http://www.w3.org/2000/svg">
<g id="ico">
<path id="Dynamic Feed" d="M9 26C8.45 26 7.97917 25.8042 7.5875 25.4125C7.19583 25.0208 7 24.55 7 24V17H9V24H18V26H9ZM13 22C12.45 22 11.9792 21.8042 11.5875 21.4125C11.1958 21.0208 11 20.55 11 20V13H13V20H22V22H13ZM17 18C16.45 18 15.9792 17.8042 15.5875 17.4125C15.1958 17.0208 15 16.55 15 16V10C15 9.45 15.1958 8.97917 15.5875 8.5875C15.9792 8.19583 16.45 8 17 8H25C25.55 8 26.0208 8.19583 26.4125 8.5875C26.8042 8.97917 27 9.45 27 10V16C27 16.55 26.8042 17.0208 26.4125 17.4125C26.0208 17.8042 25.55 18 25 18H17ZM17 16H25V12H17V16Z" fill="#FFFFFF"/>
</g>
</svg>
