<svg width="32" height="32" viewBox="0 0 32 32" fill="none" xmlns="http://www.w3.org/2000/svg">
<g id="ico">
<path id="Patient List" d="M20 18C19.1667 18 18.4583 17.7083 17.875 17.125C17.2917 16.5417 17 15.8333 17 15C17 14.1667 17.2917 13.4583 17.875 12.875C18.4583 12.2917 19.1667 12 20 12C20.8333 12 21.5417 12.2917 22.125 12.875C22.7083 13.4583 23 14.1667 23 15C23 15.8333 22.7083 16.5417 22.125 17.125C21.5417 17.7083 20.8333 18 20 18ZM14 24V22.1C14 21.75 14.0833 21.4167 14.25 21.1C14.4167 20.7833 14.65 20.5333 14.95 20.35C15.7 19.9 16.4958 19.5625 17.3375 19.3375C18.1792 19.1125 19.0667 19 20 19C20.9333 19 21.8208 19.1125 22.6625 19.3375C23.5042 19.5625 24.3 19.9 25.05 20.35C25.35 20.5333 25.5833 20.7833 25.75 21.1C25.9167 21.4167 26 21.75 26 22.1V24H14ZM16.15 22H23.85C23.2667 21.6667 22.65 21.4167 22 21.25C21.35 21.0833 20.6833 21 20 21C19.3167 21 18.65 21.0833 18 21.25C17.35 21.4167 16.7333 21.6667 16.15 22ZM20 16C20.2833 16 20.5208 15.9042 20.7125 15.7125C20.9042 15.5208 21 15.2833 21 15C21 14.7167 20.9042 14.4792 20.7125 14.2875C20.5208 14.0958 20.2833 14 20 14C19.7167 14 19.4792 14.0958 19.2875 14.2875C19.0958 14.4792 19 14.7167 19 15C19 15.2833 19.0958 15.5208 19.2875 15.7125C19.4792 15.9042 19.7167 16 20 16ZM7 18V16H15V18H7ZM7 10V8H19V10H7ZM15.1 14H7V12H16C15.7667 12.2833 15.5792 12.5917 15.4375 12.925C15.2958 13.2583 15.1833 13.6167 15.1 14Z" fill="#101010"/>
</g>
</svg>
