<svg width="32" height="32" viewBox="0 0 32 32" fill="none" xmlns="http://www.w3.org/2000/svg">
<g id="ico">
<path id="Assignment" d="M9 26C8.45 26 7.97917 25.8042 7.5875 25.4125C7.19583 25.0208 7 24.55 7 24V10C7 9.45 7.19583 8.97917 7.5875 8.5875C7.97917 8.19583 8.45 8 9 8H13.2C13.4167 7.4 13.7792 6.91667 14.2875 6.55C14.7958 6.18333 15.3667 6 16 6C16.6333 6 17.2042 6.18333 17.7125 6.55C18.2208 6.91667 18.5833 7.4 18.8 8H23C23.55 8 24.0208 8.19583 24.4125 8.5875C24.8042 8.97917 25 9.45 25 10V24C25 24.55 24.8042 25.0208 24.4125 25.4125C24.0208 25.8042 23.55 26 23 26H9ZM9 24H23V10H9V24ZM11 22H18V20H11V22ZM11 18H21V16H11V18ZM11 14H21V12H11V14ZM16 9.25C16.2167 9.25 16.3958 9.17917 16.5375 9.0375C16.6792 8.89583 16.75 8.71667 16.75 8.5C16.75 8.28333 16.6792 8.10417 16.5375 7.9625C16.3958 7.82083 16.2167 7.75 16 7.75C15.7833 7.75 15.6042 7.82083 15.4625 7.9625C15.3208 8.10417 15.25 8.28333 15.25 8.5C15.25 8.71667 15.3208 8.89583 15.4625 9.0375C15.6042 9.17917 15.7833 9.25 16 9.25Z" fill="#FFFFFF"/>
</g>
</svg>
