<svg width="32" height="32" viewBox="0 0 32 32" fill="none" xmlns="http://www.w3.org/2000/svg">
<g id="ico">
<path id="Data Table" d="M9 25C8.45 25 7.97917 24.8042 7.5875 24.4125C7.19583 24.0208 7 23.55 7 23V9C7 8.45 7.19583 7.97917 7.5875 7.5875C7.97917 7.19583 8.45 7 9 7H23C23.55 7 24.0208 7.19583 24.4125 7.5875C24.8042 7.97917 25 8.45 25 9V23C25 23.55 24.8042 24.0208 24.4125 24.4125C24.0208 24.8042 23.55 25 23 25H9ZM9 12.325H23V9H9V12.325ZM9 17.675H23V14.325H9V17.675ZM9 23H23V19.675H9V23ZM10 11.65V9.65H12V11.65H10ZM10 17V15H12V17H10ZM10 22.35V20.35H12V22.35H10Z" fill="#101010"/>
</g>
</svg>
