<svg width="32" height="32" viewBox="0 0 32 32" fill="none" xmlns="http://www.w3.org/2000/svg">
<g id="ico">
<path id="List Alt Add" d="M21 27V24H18V22H21V19H23V22H26V24H23V27H21ZM9 25C8.45 25 7.97917 24.8042 7.5875 24.4125C7.19583 24.0208 7 23.55 7 23V9C7 8.45 7.19583 7.97917 7.5875 7.5875C7.97917 7.19583 8.45 7 9 7H23C23.55 7 24.0208 7.19583 24.4125 7.5875C24.8042 7.97917 25 8.45 25 9V17.825C24.7 17.6417 24.3833 17.4917 24.05 17.375C23.7167 17.2583 23.3667 17.1667 23 17.1V9H9V23H16C16 23.35 16.025 23.6917 16.075 24.025C16.125 24.3583 16.2083 24.6833 16.325 25H9ZM12 21C12.2833 21 12.5208 20.9042 12.7125 20.7125C12.9042 20.5208 13 20.2833 13 20C13 19.7167 12.9042 19.4792 12.7125 19.2875C12.5208 19.0958 12.2833 19 12 19C11.7167 19 11.4792 19.0958 11.2875 19.2875C11.0958 19.4792 11 19.7167 11 20C11 20.2833 11.0958 20.5208 11.2875 20.7125C11.4792 20.9042 11.7167 21 12 21ZM12 17C12.2833 17 12.5208 16.9042 12.7125 16.7125C12.9042 16.5208 13 16.2833 13 16C13 15.7167 12.9042 15.4792 12.7125 15.2875C12.5208 15.0958 12.2833 15 12 15C11.7167 15 11.4792 15.0958 11.2875 15.2875C11.0958 15.4792 11 15.7167 11 16C11 16.2833 11.0958 16.5208 11.2875 16.7125C11.4792 16.9042 11.7167 17 12 17ZM12 13C12.2833 13 12.5208 12.9042 12.7125 12.7125C12.9042 12.5208 13 12.2833 13 12C13 11.7167 12.9042 11.4792 12.7125 11.2875C12.5208 11.0958 12.2833 11 12 11C11.7167 11 11.4792 11.0958 11.2875 11.2875C11.0958 11.4792 11 11.7167 11 12C11 12.2833 11.0958 12.5208 11.2875 12.7125C11.4792 12.9042 11.7167 13 12 13ZM15 17H21V15H15V17ZM15 13H21V11H15V13ZM15 21H16.35C16.4833 20.6167 16.65 20.2583 16.85 19.925C17.05 19.5917 17.2833 19.2833 17.55 19H15V21Z" fill="#FFFFFF"/>
</g>
</svg>
