<svg width="32" height="32" viewBox="0 0 32 32" fill="none" xmlns="http://www.w3.org/2000/svg">
<g id="ico">
<path id="Format List Bulleted" d="M13 23V21H25V23H13ZM13 17V15H25V17H13ZM13 11V9H25V11H13ZM9 24C8.45 24 7.97917 23.8042 7.5875 23.4125C7.19583 23.0208 7 22.55 7 22C7 21.45 7.19583 20.9792 7.5875 20.5875C7.97917 20.1958 8.45 20 9 20C9.55 20 10.0208 20.1958 10.4125 20.5875C10.8042 20.9792 11 21.45 11 22C11 22.55 10.8042 23.0208 10.4125 23.4125C10.0208 23.8042 9.55 24 9 24ZM9 18C8.45 18 7.97917 17.8042 7.5875 17.4125C7.19583 17.0208 7 16.55 7 16C7 15.45 7.19583 14.9792 7.5875 14.5875C7.97917 14.1958 8.45 14 9 14C9.55 14 10.0208 14.1958 10.4125 14.5875C10.8042 14.9792 11 15.45 11 16C11 16.55 10.8042 17.0208 10.4125 17.4125C10.0208 17.8042 9.55 18 9 18ZM9 12C8.45 12 7.97917 11.8042 7.5875 11.4125C7.19583 11.0208 7 10.55 7 10C7 9.45 7.19583 8.97917 7.5875 8.5875C7.97917 8.19583 8.45 8 9 8C9.55 8 10.0208 8.19583 10.4125 8.5875C10.8042 8.97917 11 9.45 11 10C11 10.55 10.8042 11.0208 10.4125 11.4125C10.0208 11.8042 9.55 12 9 12Z" fill="#FFFFFF"/>
</g>
</svg>
