<svg width="32" height="32" viewBox="0 0 32 32" fill="none" xmlns="http://www.w3.org/2000/svg">
<g id="ico">
<path id="Notification Important" d="M15 17H17V12H15V17ZM16 20C16.2833 20 16.5208 19.9042 16.7125 19.7125C16.9042 19.5208 17 19.2833 17 19C17 18.7167 16.9042 18.4792 16.7125 18.2875C16.5208 18.0958 16.2833 18 16 18C15.7167 18 15.4792 18.0958 15.2875 18.2875C15.0958 18.4792 15 18.7167 15 19C15 19.2833 15.0958 19.5208 15.2875 19.7125C15.4792 19.9042 15.7167 20 16 20ZM8 23V21H10V14C10 12.6167 10.4167 11.3875 11.25 10.3125C12.0833 9.2375 13.1667 8.53333 14.5 8.2V7.5C14.5 7.08333 14.6458 6.72917 14.9375 6.4375C15.2292 6.14583 15.5833 6 16 6C16.4167 6 16.7708 6.14583 17.0625 6.4375C17.3542 6.72917 17.5 7.08333 17.5 7.5V8.2C18.8333 8.53333 19.9167 9.2375 20.75 10.3125C21.5833 11.3875 22 12.6167 22 14V21H24V23H8ZM16 26C15.45 26 14.9792 25.8042 14.5875 25.4125C14.1958 25.0208 14 24.55 14 24H18C18 24.55 17.8042 25.0208 17.4125 25.4125C17.0208 25.8042 16.55 26 16 26ZM12 21H20V14C20 12.9 19.6083 11.9583 18.825 11.175C18.0417 10.3917 17.1 10 16 10C14.9 10 13.9583 10.3917 13.175 11.175C12.3917 11.9583 12 12.9 12 14V21Z" fill="#FFFFFF"/>
</g>
</svg>
