<svg width="32" height="32" viewBox="0 0 32 32" fill="none" xmlns="http://www.w3.org/2000/svg">
<g id="ico">
<path id="Assignment Ind" d="M9 26C8.45 26 7.97917 25.8042 7.5875 25.4125C7.19583 25.0208 7 24.55 7 24V10C7 9.45 7.19583 8.97917 7.5875 8.5875C7.97917 8.19583 8.45 8 9 8H13.2C13.4333 7.4 13.8 6.91667 14.3 6.55C14.8 6.18333 15.3667 6 16 6C16.6333 6 17.2 6.18333 17.7 6.55C18.2 6.91667 18.5667 7.4 18.8 8H23C23.55 8 24.0208 8.19583 24.4125 8.5875C24.8042 8.97917 25 9.45 25 10V24C25 24.55 24.8042 25.0208 24.4125 25.4125C24.0208 25.8042 23.55 26 23 26H9ZM16 9.25C16.2167 9.25 16.3958 9.17917 16.5375 9.0375C16.6792 8.89583 16.75 8.71667 16.75 8.5C16.75 8.28333 16.6792 8.10417 16.5375 7.9625C16.3958 7.82083 16.2167 7.75 16 7.75C15.7833 7.75 15.6042 7.82083 15.4625 7.9625C15.3208 8.10417 15.25 8.28333 15.25 8.5C15.25 8.71667 15.3208 8.89583 15.4625 9.0375C15.6042 9.17917 15.7833 9.25 16 9.25ZM9 22.85C9.9 21.9667 10.9458 21.2708 12.1375 20.7625C13.3292 20.2542 14.6167 20 16 20C17.3833 20 18.6708 20.2542 19.8625 20.7625C21.0542 21.2708 22.1 21.9667 23 22.85V10H9V22.85ZM16 18C16.9667 18 17.7917 17.6583 18.475 16.975C19.1583 16.2917 19.5 15.4667 19.5 14.5C19.5 13.5333 19.1583 12.7083 18.475 12.025C17.7917 11.3417 16.9667 11 16 11C15.0333 11 14.2083 11.3417 13.525 12.025C12.8417 12.7083 12.5 13.5333 12.5 14.5C12.5 15.4667 12.8417 16.2917 13.525 16.975C14.2083 17.6583 15.0333 18 16 18ZM11 24H21V23.75C20.3 23.1667 19.525 22.7292 18.675 22.4375C17.825 22.1458 16.9333 22 16 22C15.0667 22 14.175 22.1458 13.325 22.4375C12.475 22.7292 11.7 23.1667 11 23.75V24ZM16 16C15.5833 16 15.2292 15.8542 14.9375 15.5625C14.6458 15.2708 14.5 14.9167 14.5 14.5C14.5 14.0833 14.6458 13.7292 14.9375 13.4375C15.2292 13.1458 15.5833 13 16 13C16.4167 13 16.7708 13.1458 17.0625 13.4375C17.3542 13.7292 17.5 14.0833 17.5 14.5C17.5 14.9167 17.3542 15.2708 17.0625 15.5625C16.7708 15.8542 16.4167 16 16 16Z" fill="#101010"/>
</g>
</svg>
