<svg width="32" height="32" viewBox="0 0 32 32" fill="none" xmlns="http://www.w3.org/2000/svg">
<g id="ico">
<path id="Sentiment Satisfied" d="M19.5 15C19.9167 15 20.2708 14.8542 20.5625 14.5625C20.8542 14.2708 21 13.9167 21 13.5C21 13.0833 20.8542 12.7292 20.5625 12.4375C20.2708 12.1458 19.9167 12 19.5 12C19.0833 12 18.7292 12.1458 18.4375 12.4375C18.1458 12.7292 18 13.0833 18 13.5C18 13.9167 18.1458 14.2708 18.4375 14.5625C18.7292 14.8542 19.0833 15 19.5 15ZM12.5 15C12.9167 15 13.2708 14.8542 13.5625 14.5625C13.8542 14.2708 14 13.9167 14 13.5C14 13.0833 13.8542 12.7292 13.5625 12.4375C13.2708 12.1458 12.9167 12 12.5 12C12.0833 12 11.7292 12.1458 11.4375 12.4375C11.1458 12.7292 11 13.0833 11 13.5C11 13.9167 11.1458 14.2708 11.4375 14.5625C11.7292 14.8542 12.0833 15 12.5 15ZM16 21.5C17.1333 21.5 18.1625 21.1792 19.0875 20.5375C20.0125 19.8958 20.6833 19.05 21.1 18H19.45C19.0833 18.6167 18.5958 19.1042 17.9875 19.4625C17.3792 19.8208 16.7167 20 16 20C15.2833 20 14.6208 19.8208 14.0125 19.4625C13.4042 19.1042 12.9167 18.6167 12.55 18H10.9C11.3167 19.05 11.9875 19.8958 12.9125 20.5375C13.8375 21.1792 14.8667 21.5 16 21.5ZM16 26C14.6167 26 13.3167 25.7375 12.1 25.2125C10.8833 24.6875 9.825 23.975 8.925 23.075C8.025 22.175 7.3125 21.1167 6.7875 19.9C6.2625 18.6833 6 17.3833 6 16C6 14.6167 6.2625 13.3167 6.7875 12.1C7.3125 10.8833 8.025 9.825 8.925 8.925C9.825 8.025 10.8833 7.3125 12.1 6.7875C13.3167 6.2625 14.6167 6 16 6C17.3833 6 18.6833 6.2625 19.9 6.7875C21.1167 7.3125 22.175 8.025 23.075 8.925C23.975 9.825 24.6875 10.8833 25.2125 12.1C25.7375 13.3167 26 14.6167 26 16C26 17.3833 25.7375 18.6833 25.2125 19.9C24.6875 21.1167 23.975 22.175 23.075 23.075C22.175 23.975 21.1167 24.6875 19.9 25.2125C18.6833 25.7375 17.3833 26 16 26ZM16 24C18.2333 24 20.125 23.225 21.675 21.675C23.225 20.125 24 18.2333 24 16C24 13.7667 23.225 11.875 21.675 10.325C20.125 8.775 18.2333 8 16 8C13.7667 8 11.875 8.775 10.325 10.325C8.775 11.875 8 13.7667 8 16C8 18.2333 8.775 20.125 10.325 21.675C11.875 23.225 13.7667 24 16 24Z" fill="#FFFFFF"/>
</g>
</svg>
