<svg width="32" height="32" viewBox="0 0 32 32" fill="none" xmlns="http://www.w3.org/2000/svg">
<g id="ico">
<path id="License" d="M16 17C15.1667 17 14.4583 16.7083 13.875 16.125C13.2917 15.5417 13 14.8333 13 14C13 13.1667 13.2917 12.4583 13.875 11.875C14.4583 11.2917 15.1667 11 16 11C16.8333 11 17.5417 11.2917 18.125 11.875C18.7083 12.4583 19 13.1667 19 14C19 14.8333 18.7083 15.5417 18.125 16.125C17.5417 16.7083 16.8333 17 16 17ZM10 27V19.275C9.36667 18.575 8.875 17.775 8.525 16.875C8.175 15.975 8 15.0167 8 14C8 11.7667 8.775 9.875 10.325 8.325C11.875 6.775 13.7667 6 16 6C18.2333 6 20.125 6.775 21.675 8.325C23.225 9.875 24 11.7667 24 14C24 15.0167 23.825 15.975 23.475 16.875C23.125 17.775 22.6333 18.575 22 19.275V27L16 25L10 27ZM16 20C17.6667 20 19.0833 19.4167 20.25 18.25C21.4167 17.0833 22 15.6667 22 14C22 12.3333 21.4167 10.9167 20.25 9.75C19.0833 8.58333 17.6667 8 16 8C14.3333 8 12.9167 8.58333 11.75 9.75C10.5833 10.9167 10 12.3333 10 14C10 15.6667 10.5833 17.0833 11.75 18.25C12.9167 19.4167 14.3333 20 16 20ZM12 24.025L16 23L20 24.025V20.925C19.4167 21.2583 18.7875 21.5208 18.1125 21.7125C17.4375 21.9042 16.7333 22 16 22C15.2667 22 14.5625 21.9042 13.8875 21.7125C13.2125 21.5208 12.5833 21.2583 12 20.925V24.025Z" fill="#FFFFFF"/>
</g>
</svg>
