<svg width="32" height="32" viewBox="0 0 32 32" fill="none" xmlns="http://www.w3.org/2000/svg">
<g id="ico">
<path id="Dataset" d="M11 21H15V17H11V21ZM17 21H21V17H17V21ZM11 15H15V11H11V15ZM17 15H21V11H17V15ZM9 25C8.45 25 7.97917 24.8042 7.5875 24.4125C7.19583 24.0208 7 23.55 7 23V9C7 8.45 7.19583 7.97917 7.5875 7.5875C7.97917 7.19583 8.45 7 9 7H23C23.55 7 24.0208 7.19583 24.4125 7.5875C24.8042 7.97917 25 8.45 25 9V23C25 23.55 24.8042 24.0208 24.4125 24.4125C24.0208 24.8042 23.55 25 23 25H9ZM9 23H23V9H9V23Z" fill="#101010"/>
</g>
</svg>
