<svg width="32" height="32" viewBox="0 0 32 32" fill="none" xmlns="http://www.w3.org/2000/svg">
<g id="ico">
<path id="Ad Group" d="M12 20H24V10H12V20ZM12 22C11.45 22 10.9792 21.8042 10.5875 21.4125C10.1958 21.0208 10 20.55 10 20V8C10 7.45 10.1958 6.97917 10.5875 6.5875C10.9792 6.19583 11.45 6 12 6H24C24.55 6 25.0208 6.19583 25.4125 6.5875C25.8042 6.97917 26 7.45 26 8V20C26 20.55 25.8042 21.0208 25.4125 21.4125C25.0208 21.8042 24.55 22 24 22H12ZM8 26C7.45 26 6.97917 25.8042 6.5875 25.4125C6.19583 25.0208 6 24.55 6 24V10H8V24H22V26H8Z" fill="#101010"/>
</g>
</svg>
