<svg width="52" height="52" viewBox="0 0 52 52" fill="none" xmlns="http://www.w3.org/2000/svg">
<path d="M19.0975 39.6667C18.8475 39.6667 18.6136 39.6042 18.3958 39.4792C18.1783 39.3542 18.0094 39.1806 17.8892 38.9583L14.4725 32.8613H17.25L18.9725 36.1946H22.75V34.8054H19.8058L18.0833 31.4721H13.7225L11.1808 27.0279C11.1253 26.9074 11.0812 26.7915 11.0487 26.6804C11.0162 26.5693 11 26.4536 11 26.3333C11 26.2592 11.0603 26.0276 11.1808 25.6388L13.7225 21.1946H18.0833L19.8058 17.8612H22.75V16.4721H18.9725L17.25 19.8054H14.4725L17.8892 13.7083C18.0094 13.4861 18.1783 13.3125 18.3958 13.1875C18.6136 13.0625 18.8475 13 19.0975 13H23.7225C24.1206 13 24.4515 13.1319 24.7154 13.3958C24.9793 13.6597 25.1112 13.9907 25.1112 14.3888V21.4721H21.9167L20.5279 22.8612H25.1112V28.1388H21.1667L19.5279 24.8054H15.5279L14.1392 26.1946H18.6392L20.3058 29.5279H25.1112V38.2779C25.1112 38.676 24.9793 39.0069 24.7154 39.2708C24.4515 39.5347 24.1206 39.6667 23.7225 39.6667H19.0975ZM29.9725 39.6667C29.1297 39.6667 28.4097 39.3681 27.8125 38.7708C27.2153 38.1736 26.9167 37.4538 26.9167 36.6112C26.9167 36.0093 27.0694 35.4699 27.375 34.9929C27.6806 34.5162 28.0833 34.1529 28.5833 33.9029V18.7638C28.0833 18.5138 27.6806 18.1504 27.375 17.6737C27.0694 17.1968 26.9167 16.6574 26.9167 16.0554C26.9167 15.2129 27.2153 14.4931 27.8125 13.8958C28.4097 13.2986 29.1297 13 29.9725 13C30.815 13 31.5349 13.2986 32.1321 13.8958C32.7293 14.4931 33.0279 15.2129 33.0279 16.0554C33.0279 16.6574 32.8751 17.1968 32.5696 17.6737C32.264 18.1504 31.8612 18.5138 31.3612 18.7638V23.3333L35.25 21C35.1944 20.1111 35.47 19.3426 36.0767 18.6946C36.6831 18.0462 37.4261 17.7221 38.3058 17.7221C39.1483 17.7221 39.8682 18.0207 40.4654 18.6179C41.0626 19.2151 41.3612 19.9351 41.3612 20.7779C41.3612 21.6204 41.0626 22.3403 40.4654 22.9375C39.8682 23.5347 39.1483 23.8333 38.3058 23.8333C38.0003 23.8333 37.7108 23.794 37.4375 23.7154C37.1644 23.6365 36.9122 23.5276 36.6808 23.3888L32.4167 25.9583L37.0417 29.6529C37.2361 29.5696 37.4399 29.5047 37.6529 29.4583C37.866 29.4119 38.0836 29.3888 38.3058 29.3888C39.1483 29.3888 39.8682 29.6874 40.4654 30.2846C41.0626 30.8818 41.3612 31.6018 41.3612 32.4446C41.3612 33.2871 41.0626 34.0069 40.4654 34.6042C39.8682 35.2014 39.1483 35.5 38.3058 35.5C37.315 35.5 36.521 35.1204 35.9237 34.3613C35.3265 33.6018 35.1251 32.7592 35.3196 31.8333L31.3612 28.6529V33.9446C31.8426 34.1946 32.2339 34.5533 32.535 35.0208C32.8358 35.4883 32.9862 36.0185 32.9862 36.6112C32.9862 37.4538 32.6946 38.1736 32.1112 38.7708C31.5279 39.3681 30.815 39.6667 29.9725 39.6667Z" fill="white"/>
</svg>
