<svg width="80" height="80" viewBox="0 0 80 80" fill="none" xmlns="http://www.w3.org/2000/svg">
<g id="Layer_1">
<g id="Group 34666">
<path id="Vector" d="M54.5313 42.0837L54.8113 43.7395C53.2436 46.3614 51.1813 48.6612 48.7271 50.5011V72H26.0608V66.738C24.6518 67.2807 23.1214 67.5843 21.5257 67.5843H16.44C12.9407 67.5843 10.1039 64.7877 10.1039 61.3379V48.6336H4.85027C2.6387 48.6336 1.27629 46.2694 2.40541 44.4019L10.1039 31.6884C10.1039 19.2508 19.8274 9.05793 32.1823 8.08279C32.8262 8.0276 33.4794 8 34.1326 8C41.2619 8 47.6727 11.0634 52.0678 15.9207C51.7132 16.077 51.3773 16.2518 51.0414 16.445L45.993 12.8757L42.279 16.537L45.8997 21.5047C45.2651 22.5718 44.7706 23.7309 44.444 24.9544L38.3225 25.948V31.1272L44.4346 32.1207C44.7612 33.3443 45.2465 34.5126 45.881 35.5797L42.279 40.529L45.993 44.1995L51.0134 40.6486C52.1051 41.2741 53.2809 41.7617 54.5313 42.0837Z" fill="#D8D8D8"/>
<path id="Vector_2" d="M58.1608 31.6882C58.1608 32.6265 58.1048 33.5465 58.0021 34.4572C54.7641 34.3836 52.1699 31.7618 52.1699 28.5512C52.1699 25.8834 53.9709 23.6203 56.4438 22.8936C57.5542 25.6166 58.1608 28.5788 58.1608 31.6882Z" fill="#D8D8D8"/>
<g id="Group">
<path id="Vector_3" d="M78.0008 31.1275V25.9482L71.8887 24.9547C71.5527 23.7312 71.0675 22.572 70.4329 21.5049L74.0536 16.5373L70.3303 12.8759L65.2913 16.4453C64.2088 15.8289 63.0424 15.3505 61.8013 15.0286L60.7935 8.97538H55.5398L54.532 15.0286C53.6735 15.2493 52.8523 15.5529 52.0685 15.9209C53.9161 17.9632 55.4092 20.3182 56.445 22.894C56.9862 22.7284 57.5648 22.6456 58.162 22.6456C61.4747 22.6456 64.1621 25.2951 64.1621 28.5516C64.1621 30.1799 63.4903 31.661 62.4078 32.7373C61.316 33.8045 59.8137 34.4668 58.162 34.4668C58.106 34.4668 58.0593 34.4668 58.0033 34.4576C57.6021 37.8154 56.4916 40.9616 54.812 43.7398L55.5398 48.0911H60.7935L61.7919 42.0839C63.0424 41.7619 64.2275 41.2744 65.3193 40.6488L70.3303 44.1998L74.0536 40.5292L70.4423 35.58C71.0768 34.5128 71.5714 33.3445 71.898 32.121L78.0008 31.1275Z" fill="#E00124"/>
<path id="Vector_4" d="M58.0025 34.4574C57.6012 37.8152 56.4908 40.9614 54.8111 43.7396L54.5311 42.0837C53.2807 41.7617 52.1049 41.2742 51.0132 40.6486L45.9928 44.1996L42.2788 40.529L45.8808 35.5798C45.2463 34.5126 44.761 33.3443 44.4344 32.1208L38.3223 31.1273V25.948L44.4438 24.9545C44.7704 23.731 45.2649 22.5719 45.8995 21.5047L42.2788 16.5371L45.9928 12.8757L51.0411 16.4451C51.3771 16.2519 51.713 16.0771 52.0676 15.9207C53.9153 17.963 55.4083 20.318 56.4441 22.8938C53.9712 23.6206 52.1703 25.8836 52.1703 28.5514C52.1703 31.762 54.7644 34.3838 58.0025 34.4574Z" fill="#CE0000"/>
</g>
</g>
</g>
</svg>
