<svg width="52" height="52" viewBox="0 0 52 52" fill="none" xmlns="http://www.w3.org/2000/svg">
<path d="M24.1113 36.1959L18.3054 30.418L20.2779 28.4459L24.1113 32.2234L31.5554 24.7792L33.5279 26.7792L24.1113 36.1959ZM13.7779 42.3346C13.0279 42.3346 12.3774 42.0592 11.8263 41.5084C11.2754 40.9573 11 40.3067 11 39.5567V14.5567C11 13.8067 11.2754 13.1563 11.8263 12.6054C12.3774 12.0546 13.0279 11.7792 13.7779 11.7792H16.1388V9.00128H19.0554V11.7792H32.9446V9.00128H35.8612V11.7792H38.2221C38.9721 11.7792 39.6226 12.0546 40.1737 12.6054C40.7246 13.1563 41 13.8067 41 14.5567V39.5567C41 40.3067 40.7246 40.9573 40.1737 41.5084C39.6226 42.0592 38.9721 42.3346 38.2221 42.3346H13.7779ZM13.7779 39.5567H38.2221V22.0567H13.7779V39.5567ZM13.7779 19.2792H38.2221V14.5567H13.7779V19.2792Z" fill="white"/>
</svg>
