<svg width="52" height="52" viewBox="0 0 52 52" fill="none" xmlns="http://www.w3.org/2000/svg">
<path d="M7.99976 36.6654L18.0893 23.3321L7.99976 9.99872H29.861C30.3007 9.99872 30.7174 10.0971 31.111 10.2937C31.5043 10.4907 31.8284 10.7627 32.0831 11.11L41.3331 23.3321L40.7635 24.0958C40.2543 23.7811 39.7243 23.515 39.1735 23.2975C38.6224 23.0797 38.0506 22.9061 37.4581 22.7766L29.861 12.7766H13.5552L21.5552 23.3321L13.5552 33.8875H23.861C23.8793 34.3783 23.921 34.8544 23.986 35.3158C24.0507 35.7772 24.148 36.2271 24.2777 36.6654H7.99976ZM33.8193 37.3875L39.611 31.6375L37.861 29.8875L33.8193 33.8458L32.1943 32.2208L30.4443 34.0125L33.8193 37.3875ZM35.0135 42.0266C32.7174 42.0266 30.7475 41.2002 29.1039 39.5475C27.4603 37.8947 26.6385 35.934 26.6385 33.6654C26.6385 31.3598 27.4603 29.3807 29.1039 27.7279C30.7475 26.0751 32.7174 25.2487 35.0135 25.2487C37.3099 25.2487 39.2845 26.0751 40.9373 27.7279C42.59 29.3807 43.4164 31.3598 43.4164 33.6654C43.4164 35.934 42.59 37.8947 40.9373 39.5475C39.2845 41.2002 37.3099 42.0266 35.0135 42.0266Z" fill="white"/>
</svg>
