<svg width="52" height="52" viewBox="0 0 52 52" fill="none" xmlns="http://www.w3.org/2000/svg">
<path d="M15.8613 23.8346L25.0279 9.00122L34.1946 23.8346H15.8613ZM34.3333 42.3346C32.2686 42.3346 30.5301 41.6286 29.1179 40.2166C27.706 38.8044 27 37.0659 27 35.0012C27 32.9365 27.706 31.198 29.1179 29.7858C30.5301 28.3739 32.2686 27.6679 34.3333 27.6679C36.3981 27.6679 38.1365 28.3739 39.5487 29.7858C40.9607 31.198 41.6667 32.9365 41.6667 35.0012C41.6667 37.0659 40.9607 38.8044 39.5487 40.2166C38.1365 41.6286 36.3981 42.3346 34.3333 42.3346ZM10 41.3625V28.4733H22.8888V41.3625H10ZM34.3358 39.5566C35.6119 39.5566 36.6899 39.1161 37.5696 38.235C38.449 37.3539 38.8888 36.2751 38.8888 34.9987C38.8888 33.7226 38.4482 32.6447 37.5671 31.765C36.686 30.8855 35.6072 30.4458 34.3308 30.4458C33.0547 30.4458 31.9768 30.8864 31.0971 31.7675C30.2176 32.6486 29.7779 33.7273 29.7779 35.0037C29.7779 36.2798 30.2185 37.3577 31.0996 38.2375C31.9807 39.1169 33.0594 39.5566 34.3358 39.5566ZM12.7779 38.5846H20.1113V31.2512H12.7779V38.5846ZM20.8333 21.0566H29.2221L25.0279 14.2791L20.8333 21.0566Z" fill="white"/>
</svg>
