<svg width="52" height="52" viewBox="0 0 52 52" fill="none" xmlns="http://www.w3.org/2000/svg">
<path d="M10.1112 36.6654V33.8875H15.0558L14.4446 33.3041C12.8521 31.7672 11.7132 30.1561 11.0279 28.4708C10.3426 26.7858 10 25.1191 10 23.4708C10 20.4247 10.8867 17.7048 12.66 15.3112C14.4331 12.9176 16.7594 11.2857 19.6392 10.4154V13.3041C17.565 14.1005 15.9029 15.4269 14.6529 17.2833C13.4029 19.14 12.7779 21.2025 12.7779 23.4708C12.7779 24.8505 13.0186 26.1677 13.5 27.4225C13.9817 28.6769 14.7781 29.8227 15.8892 30.86L16.8613 31.7487V27.1375H19.6392V36.6654H10.1112ZM39.4863 22.3875H36.6946C36.6113 21.1191 36.3265 19.934 35.8404 18.8321C35.3543 17.7301 34.6297 16.7208 33.6667 15.8041L32.6946 14.9154V19.5266H29.9167V9.99872H39.4446V12.7766H34.4725L35.1113 13.36C36.5649 14.7672 37.6343 16.244 38.3196 17.7904C39.0049 19.3368 39.3938 20.8691 39.4863 22.3875ZM33.5558 41.6654L33.25 39.4987C32.7686 39.3412 32.2849 39.1305 31.7988 38.8666C31.3126 38.6027 30.8983 38.3041 30.5558 37.9708L28.5833 38.7766L27.0558 36.3321L28.75 34.9433C28.6389 34.3877 28.5833 33.883 28.5833 33.4291C28.5833 32.9755 28.6389 32.4709 28.75 31.9154L27.0558 30.5266L28.5833 28.0541L30.5558 28.86C30.8983 28.5636 31.3126 28.2789 31.7988 28.0058C32.2849 27.7325 32.7686 27.5172 33.25 27.36L33.5558 25.1654H36.3333L36.6667 27.36C37.1483 27.5172 37.6322 27.7347 38.1183 28.0125C38.6044 28.2902 39.0188 28.5819 39.3613 28.8875L41.3333 28.0541L42.8613 30.5541L41.1667 31.9433C41.2778 32.4802 41.3333 32.9802 41.3333 33.4433C41.3333 33.9061 41.2778 34.4061 41.1667 34.9433L42.8613 36.3321L41.3333 38.7766L39.3613 37.9708C39.0188 38.3041 38.6044 38.6027 38.1183 38.8666C37.6322 39.1305 37.1483 39.3412 36.6667 39.4987L36.3333 41.6654H33.5558ZM34.9446 37.36C36.0649 37.36 37.0024 36.9826 37.7571 36.2279C38.5118 35.4732 38.8892 34.5357 38.8892 33.4154C38.8892 32.2951 38.5118 31.3576 37.7571 30.6029C37.0024 29.8482 36.0649 29.4708 34.9446 29.4708C33.8243 29.4708 32.8868 29.8482 32.1321 30.6029C31.3774 31.3576 31 32.2951 31 33.4154C31 34.5357 31.3774 35.4732 32.1321 36.2279C32.8868 36.9826 33.8243 37.36 34.9446 37.36Z" fill="white"/>
</svg>
