<svg width="52" height="52" viewBox="0 0 52 52" fill="none" xmlns="http://www.w3.org/2000/svg">
<path d="M8.99976 42.3321V14.6933L17.1943 8.99872L25.3885 14.6933V19.1375H42.3331V42.3321H8.99976ZM11.7777 39.5541H15.8052V35.5266H11.7777V39.5541ZM11.7777 32.7487H15.8052V28.7208H11.7777V32.7487ZM11.7777 25.9433H15.8052V21.9154H11.7777V25.9433ZM11.7777 19.1375H15.8052V15.11H11.7777V19.1375ZM18.5831 19.1375H22.611V15.11H18.5831V19.1375ZM18.5831 39.5541H39.5552V21.9154H18.5831V39.5541ZM28.7218 28.7208V25.9433H35.5277V28.7208H28.7218ZM28.7218 35.5266V32.7487H35.5277V35.5266H28.7218ZM22.611 28.7208V25.9433H25.3885V28.7208H22.611ZM22.611 35.5266V32.7487H25.3885V35.5266H22.611Z" fill="white"/>
</svg>
