<svg width="81" height="80" viewBox="0 0 81 80" fill="none" xmlns="http://www.w3.org/2000/svg">
<g id="Icons">
<g id="Group 34667">
<g id="Group">
<g id="Group_2">
<g id="Group_3">
<g id="Group_4">
<g id="Group_5">
<path id="Vector" d="M40.4974 52.1952C34.0369 52.1952 28.8032 46.961 28.8032 40.5C28.8032 34.039 34.0369 28.8048 40.4974 28.8048V8H35.1032L33.8478 15.5789C31.6293 16.1694 29.5255 17.0523 27.5822 18.176L21.328 13.7043L13.7038 21.3291L18.1752 27.5837C17.0516 29.5272 16.1688 31.6254 15.5783 33.8498L8 35.1053V45.8947L15.5783 47.1502C16.1688 49.3689 17.0516 51.4728 18.1752 53.4163L13.7038 59.6709L21.328 67.2957L27.5822 62.824C29.5255 63.9477 31.6235 64.8306 33.8478 65.4211L35.1032 73H40.4974V52.1895V52.1952Z" fill="#D8D8D8"/>
</g>
<path id="Vector_2" d="M48.822 43.9126C50.7057 39.3124 48.5039 34.0561 43.9041 32.1722C39.3043 30.2884 34.0483 32.4904 32.1646 37.0905C30.2809 41.6907 32.4828 46.947 37.0826 48.8309C41.6824 50.7147 46.9383 48.5127 48.822 43.9126Z" fill="#E60024"/>
</g>
<path id="Vector_3" d="M56.7649 40.5058C56.8165 40.39 33.5254 40.5058 33.5254 40.5058" stroke="#CE0000" stroke-width="2" stroke-linecap="round" stroke-linejoin="round"/>
</g>
<g id="Group_6">
<g id="Group_7">
<path id="Vector_4" d="M68.8984 25.8046L61.2398 33.4638H50.543" stroke="#CE0000" stroke-width="2" stroke-linecap="round" stroke-linejoin="round"/>
<path id="Vector_5" d="M52.9182 16.7697V25.4264L45.0762 33.2691V39.5982" stroke="#CE0000" stroke-width="2" stroke-linecap="round" stroke-linejoin="round"/>
</g>
<g id="Group_8">
<path id="Vector_6" d="M68.9005 55.1926L61.2419 47.5392H45.7871" stroke="#CE0000" stroke-width="2" stroke-linecap="round" stroke-linejoin="round"/>
<path id="Vector_7" d="M52.9182 64.233V55.5705L45.0762 47.7279V43.8123" stroke="#CE0000" stroke-width="2" stroke-linecap="round" stroke-linejoin="round"/>
</g>
</g>
</g>
<path id="Vector_8" d="M61.0496 40.4998C61.0496 39.3131 60.0866 38.3557 58.9057 38.3557C57.7248 38.3557 56.7617 39.3188 56.7617 40.4998C56.7617 41.6808 57.7248 42.6439 58.9057 42.6439C60.0866 42.6439 61.0496 41.6808 61.0496 40.4998Z" stroke="#E60024" stroke-width="2" stroke-linecap="round" stroke-linejoin="round"/>
<path id="Vector_9" d="M52.9135 68.6605C54.0975 68.6605 55.0574 67.7006 55.0574 66.5164C55.0574 65.3323 54.0975 64.3723 52.9135 64.3723C51.7294 64.3723 50.7695 65.3323 50.7695 66.5164C50.7695 67.7006 51.7294 68.6605 52.9135 68.6605Z" stroke="#E60024" stroke-width="2" stroke-linecap="round" stroke-linejoin="round"/>
<path id="Vector_10" d="M70.851 58.5763C72.035 58.5763 72.9949 57.6164 72.9949 56.4322C72.9949 55.248 72.035 54.2881 70.851 54.2881C69.6669 54.2881 68.707 55.248 68.707 56.4322C68.707 57.6164 69.6669 58.5763 70.851 58.5763Z" stroke="#E60024" stroke-width="2" stroke-linecap="round" stroke-linejoin="round"/>
<path id="Vector_11" d="M72.9988 24.5682C72.9988 23.3815 72.0358 22.4241 70.8549 22.4241C69.674 22.4241 68.7109 23.3872 68.7109 24.5682C68.7109 25.7492 69.674 26.7123 70.8549 26.7123C72.0358 26.7123 72.9988 25.7492 72.9988 24.5682Z" stroke="#E60024" stroke-width="2" stroke-linecap="round" stroke-linejoin="round"/>
<path id="Vector_12" d="M55.0574 14.4896C55.0574 13.3029 54.0944 12.3455 52.9135 12.3455C51.7326 12.3455 50.7695 13.3086 50.7695 14.4896C50.7695 15.6706 51.7326 16.6337 52.9135 16.6337C54.0944 16.6337 55.0574 15.6706 55.0574 14.4896Z" stroke="#E60024" stroke-width="2" stroke-linecap="round" stroke-linejoin="round"/>
</g>
</g>
</g>
</svg>
