<svg width="80" height="80" viewBox="0 0 80 80" fill="none" xmlns="http://www.w3.org/2000/svg">
<g id="ico">
<g id="Group 34665">
<g id="icon 1">
<path id="Vector" d="M68.8496 13.6114H30.8594C29.6718 13.6114 28.709 14.7077 28.709 16.0602V69.7934C28.709 71.1458 29.6718 72.2422 30.8594 72.2422H68.8496C70.0373 72.2422 71 71.1458 71 69.7934V16.0602C71 14.7077 70.0373 13.6114 68.8496 13.6114Z" fill="#E60024"/>
<path id="Vector_2" d="M58.8547 4H17.2106C15.6997 4 14.4727 5.22377 14.4727 6.73798V66.8202C14.4727 68.3312 15.6964 69.5582 17.2106 69.5582H65.5838C67.0948 69.5582 68.3218 68.3344 68.3218 66.8202V13.3594L58.8547 4Z" fill="#D8D8D8"/>
<path id="Vector_3" d="M68.3193 13.3594H61.5935C60.0825 13.3594 58.8555 12.1356 58.8555 10.6214V4L68.3193 13.3594Z" fill="#C1C3CF"/>
<g id="Group">
<path id="Vector_4" d="M57.6133 19.5796H23.4489C22.6649 19.5796 22.0293 20.2152 22.0293 20.9992V26.4849C22.0293 27.2689 22.6649 27.9045 23.4489 27.9045H57.6133C58.3973 27.9045 59.0329 27.2689 59.0329 26.4849V20.9992C59.0329 20.2152 58.3973 19.5796 57.6133 19.5796Z" fill="white"/>
<path id="Vector_5" d="M57.6198 31.6084H23.4423C22.6619 31.6084 22.0293 32.2403 22.0293 33.0198C22.0293 33.7993 22.6619 34.4312 23.4423 34.4312H57.6198C58.4002 34.4312 59.0329 33.7993 59.0329 33.0198C59.0329 32.2403 58.4002 31.6084 57.6198 31.6084Z" fill="white"/>
<path id="Vector_6" d="M57.6459 38.1352H23.4162C22.6503 38.1352 22.0293 38.7562 22.0293 39.5221V39.5711C22.0293 40.3371 22.6503 40.958 23.4162 40.958H57.6459C58.4119 40.958 59.0329 40.3371 59.0329 39.5711V39.5221C59.0329 38.7562 58.4119 38.1352 57.6459 38.1352Z" fill="white"/>
<path id="Vector_7" d="M57.6459 44.662H23.4162C22.6503 44.662 22.0293 45.2829 22.0293 46.0489V46.0979C22.0293 46.8639 22.6503 47.4848 23.4162 47.4848H57.6459C58.4119 47.4848 59.0329 46.8639 59.0329 46.0979V46.0489C59.0329 45.2829 58.4119 44.662 57.6459 44.662Z" fill="white"/>
<path id="Vector_8" d="M46.6101 51.1528H34.4475C33.6815 51.1528 33.0605 51.7738 33.0605 52.5398V52.5887C33.0605 53.3547 33.6815 53.9757 34.4475 53.9757H46.6101C47.3761 53.9757 47.9971 53.3547 47.9971 52.5887V52.5398C47.9971 51.7738 47.3761 51.1528 46.6101 51.1528Z" fill="white"/>
</g>
</g>
<path id="Vector_9" d="M25.1139 60.7637V76.8261C25.1139 78.0792 23.5997 78.7058 22.7153 77.8214L20.3004 75.4065C19.8762 74.9823 19.1909 74.9823 18.7666 75.4065L16.3517 77.8214C15.4673 78.7058 13.9531 78.0792 13.9531 76.8261V60.7637H25.1172H25.1139Z" fill="#E60024"/>
<g id="Group_2">
<path id="Vector_10" d="M19.5336 69.5031C24.4881 69.5031 28.5046 65.4867 28.5046 60.5321C28.5046 55.5775 24.4881 51.561 19.5336 51.561C14.579 51.561 10.5625 55.5775 10.5625 60.5321C10.5625 65.4867 14.579 69.5031 19.5336 69.5031Z" fill="#CE0000"/>
<path id="Vector_11" d="M19.5352 67.0558C23.1381 67.0558 26.0587 64.1351 26.0587 60.5323C26.0587 56.9295 23.1381 54.0088 19.5352 54.0088C15.9324 54.0088 13.0117 56.9295 13.0117 60.5323C13.0117 64.1351 15.9324 67.0558 19.5352 67.0558Z" fill="#CE0000"/>
</g>
</g>
<path id="Subtract" fill-rule="evenodd" clip-rule="evenodd" d="M14.5 53.105C12.1237 54.7187 10.5625 57.443 10.5625 60.5319C10.5625 63.6208 12.1237 66.3451 14.5 67.9588V53.105Z" fill="#E60024"/>
</g>
</svg>
