<svg width="52" height="52" viewBox="0 0 52 52" fill="none" xmlns="http://www.w3.org/2000/svg">
<path d="M16 42.3347C14.6111 42.3347 13.4306 41.8486 12.4583 40.8763C11.4861 39.9041 11 38.7236 11 37.3347V14.0013C11 12.6125 11.4861 11.4319 12.4583 10.4597C13.4306 9.48745 14.6111 9.00134 16 9.00134H33.7779V35.1126H16C15.3703 35.1126 14.8425 35.3255 14.4167 35.7513C13.9908 36.1772 13.7779 36.705 13.7779 37.3347C13.7779 37.9644 13.9908 38.4922 14.4167 38.918C14.8425 39.3438 15.3703 39.5568 16 39.5568H38.2221V12.3347H41V42.3347H16ZM16 32.3347H31V11.7793H16C15.3611 11.7793 14.831 11.9922 14.4096 12.418C13.9885 12.8438 13.7779 13.3716 13.7779 14.0013V32.9043C14.1112 32.7282 14.4597 32.5893 14.8233 32.4876C15.1867 32.3857 15.5789 32.3347 16 32.3347ZM16.9721 28.168H19L20.0554 25.1959H24.7638L25.8054 28.168H27.8333L23.4396 16.5013H21.3471L16.9721 28.168ZM20.6388 23.5013L22.3608 18.668H22.4446L24.1667 23.5013H20.6388Z" fill="white"/>
</svg>
