<svg width="52" height="52" viewBox="0 0 52 52" fill="none" xmlns="http://www.w3.org/2000/svg">
<path d="M29.6667 22.5541V20.2766C30.5833 19.8877 31.5208 19.596 32.4792 19.4016C33.4375 19.2071 34.4444 19.1099 35.5 19.1099C36.2222 19.1099 36.9306 19.1655 37.625 19.2766C38.3194 19.3877 39 19.5266 39.6667 19.6932V21.8041C39 21.5541 38.3264 21.3666 37.6458 21.2416C36.9653 21.1166 36.25 21.0541 35.5 21.0541C34.4444 21.0541 33.4306 21.186 32.4583 21.4499C31.4861 21.7138 30.5556 22.0819 29.6667 22.5541ZM29.6667 31.7207V29.4153C30.5833 29.0356 31.5208 28.7509 32.4792 28.5612C33.4375 28.3714 34.4444 28.2766 35.5 28.2766C36.2222 28.2766 36.9306 28.3321 37.625 28.4432C38.3194 28.5544 39 28.6932 39.6667 28.8599V30.9707C39 30.7207 38.3264 30.5332 37.6458 30.4082C36.9653 30.2832 36.25 30.2207 35.5 30.2207C34.4444 30.2207 33.4306 30.3457 32.4583 30.5957C31.4861 30.8457 30.5556 31.2207 29.6667 31.7207ZM29.6667 27.1374V24.8599C30.5833 24.471 31.5208 24.1794 32.4792 23.9849C33.4375 23.7905 34.4444 23.6932 35.5 23.6932C36.2222 23.6932 36.9306 23.7488 37.625 23.8599C38.3194 23.971 39 24.1099 39.6667 24.2766V26.3874C39 26.1374 38.3264 25.9499 37.6458 25.8249C36.9653 25.6999 36.25 25.6374 35.5 25.6374C34.4444 25.6374 33.4306 25.7694 32.4583 26.0332C31.4861 26.2971 30.5556 26.6652 29.6667 27.1374ZM16.8333 33.5541C18.2606 33.5541 19.6497 33.7185 21.0008 34.0474C22.3522 34.376 23.6853 34.8691 25 35.5266V18.1932C23.7869 17.4155 22.4803 16.8182 21.08 16.4016C19.6797 15.9849 18.2642 15.7766 16.8333 15.7766C15.7964 15.7766 14.7756 15.8969 13.7708 16.1374C12.7661 16.3782 11.7685 16.6931 10.7779 17.082V34.6374C11.676 34.2671 12.6504 33.9941 13.7013 33.8182C14.7524 33.6421 15.7964 33.5541 16.8333 33.5541ZM27.7779 35.5266C29.1112 34.8691 30.4283 34.376 31.7292 34.0474C33.03 33.7185 34.3981 33.5541 35.8333 33.5541C36.8703 33.5541 37.9235 33.6374 38.9929 33.8041C40.0624 33.9707 41.0276 34.2023 41.8888 34.4987V17.082C40.9538 16.6375 39.9717 16.3088 38.9425 16.0957C37.9133 15.883 36.8769 15.7766 35.8333 15.7766C34.3981 15.7766 32.9999 15.9849 31.6388 16.4016C30.2776 16.8182 28.9907 17.4155 27.7779 18.1932V35.5266ZM26.3888 39.6653C24.9999 38.6098 23.4907 37.7949 21.8613 37.2207C20.2315 36.6469 18.5556 36.3599 16.8333 36.3599C15.7678 36.3599 14.7213 36.4941 13.6937 36.7624C12.6665 37.031 11.6575 37.3782 10.6667 37.8041C10.0444 38.1096 9.44444 38.0773 8.86667 37.707C8.28889 37.3367 8 36.8044 8 36.1099V16.5541C8 16.1746 8.09028 15.8228 8.27083 15.4987C8.45139 15.1745 8.72222 14.9245 9.08333 14.7487C10.2869 14.1562 11.5406 13.7163 12.8442 13.4291C14.1478 13.1421 15.4775 12.9987 16.8333 12.9987C18.5369 12.9987 20.1967 13.2255 21.8125 13.6791C23.4283 14.133 24.9538 14.8228 26.3888 15.7487C27.8054 14.8228 29.3124 14.133 30.9096 13.6791C32.5068 13.2255 34.1481 12.9987 35.8333 12.9987C37.1828 12.9987 38.5063 13.1421 39.8037 13.4291C41.1012 13.7163 42.3518 14.1562 43.5554 14.7487C43.9165 14.9245 44.1921 15.1745 44.3821 15.4987C44.5718 15.8228 44.6667 16.1746 44.6667 16.5541V36.1099C44.6667 36.8394 44.3681 37.3944 43.7708 37.7749C43.1736 38.1555 42.574 38.1652 41.9721 37.8041C40.9999 37.3596 40.0001 37.0078 38.9729 36.7487C37.9454 36.4895 36.8989 36.3599 35.8333 36.3599C34.1111 36.3599 32.4538 36.6516 30.8612 37.2349C29.2685 37.8182 27.7776 38.6284 26.3888 39.6653Z" fill="white"/>
</svg>
