<svg width="52" height="52" viewBox="0 0 52 52" fill="none" xmlns="http://www.w3.org/2000/svg">
<path d="M26.0279 42.6666C24.6851 42.6666 23.5439 42.2037 22.6042 41.2778C21.6644 40.3517 21.1946 39.2128 21.1946 37.8612C21.1946 37.6667 21.2061 37.4815 21.2292 37.3053C21.2522 37.1295 21.2869 36.9537 21.3333 36.7778L17.4029 34.5695C16.9768 34.9767 16.486 35.2984 15.9304 35.5345C15.3749 35.7706 14.7776 35.8887 14.1388 35.8887C12.7963 35.8887 11.6551 35.4217 10.7154 34.4878C9.77542 33.5537 9.30542 32.4194 9.30542 31.0849C9.30542 29.7505 9.76848 28.6156 10.6946 27.6803C11.6204 26.7453 12.7593 26.2778 14.1113 26.2778C14.7913 26.2778 15.4289 26.412 16.0242 26.6803C16.6192 26.9489 17.1435 27.3148 17.5971 27.7778L22.9721 25.0833C22.8518 24.3888 22.8819 23.7083 23.0625 23.0416C23.2431 22.3749 23.5556 21.7684 24 21.222L22.3333 18.722C22.1131 18.7962 21.8849 18.8517 21.6488 18.8887C21.4126 18.9259 21.1686 18.9445 20.9167 18.9445C19.5742 18.9445 18.4329 18.4774 17.4929 17.5433C16.5532 16.6091 16.0833 15.4748 16.0833 14.1403C16.0833 12.8059 16.5522 11.6712 17.49 10.7362C18.4281 9.80089 19.5669 9.33325 20.9067 9.33325C22.2467 9.33325 23.3796 9.80047 24.3054 10.7349C25.2315 11.6694 25.6946 12.8039 25.6946 14.1387C25.6946 14.7128 25.5996 15.2569 25.4096 15.7708C25.2199 16.2846 24.9538 16.7499 24.6113 17.1666L26.2917 19.6945C26.5139 19.6203 26.7454 19.5648 26.9863 19.5278C27.2268 19.4906 27.4768 19.472 27.7363 19.472C28.2218 19.472 28.6788 19.5414 29.1071 19.6803C29.5357 19.8192 29.9445 20.0091 30.3333 20.2499L33.4446 17.6945C33.3149 17.4048 33.2176 17.1077 33.1529 16.8033C33.0879 16.4991 33.0554 16.1758 33.0554 15.8333C33.0554 14.4813 33.5185 13.3424 34.4446 12.4166C35.3704 11.4908 36.5046 11.0278 37.8471 11.0278C39.1899 11.0278 40.3288 11.4948 41.2638 12.4287C42.199 13.3628 42.6667 14.4971 42.6667 15.8316C42.6667 17.166 42.1995 18.2962 41.265 19.222C40.3306 20.1481 39.196 20.6112 37.8613 20.6112C37.3621 20.6112 36.8924 20.5439 36.4521 20.4095C36.0118 20.2753 35.5972 20.0787 35.2083 19.8195L32.125 22.3887C32.2547 22.6845 32.3519 22.9877 32.4167 23.2983C32.4814 23.6085 32.5138 23.9351 32.5138 24.2778C32.5138 25.6126 32.0465 26.7471 31.1121 27.6816C30.1779 28.616 29.0433 29.0833 27.7083 29.0833C27.0047 29.0833 26.3589 28.9444 25.7708 28.6666C25.1828 28.3888 24.6619 28.0184 24.2083 27.5553L18.8471 30.2637C18.9026 30.5787 18.9235 30.8935 18.9096 31.2083C18.8957 31.523 18.8518 31.8378 18.7779 32.1528L22.6946 34.3749C23.139 33.9674 23.646 33.6456 24.2154 33.4095C24.7849 33.1734 25.389 33.0553 26.0279 33.0553C27.3549 33.0553 28.4829 33.5224 29.4121 34.4566C30.341 35.3908 30.8054 36.5251 30.8054 37.8595C30.8054 39.194 30.341 40.3287 29.4121 41.2637C28.4829 42.199 27.3549 42.6666 26.0279 42.6666ZM14.1408 33.1112C14.7069 33.1112 15.1815 32.9144 15.5646 32.5208C15.9474 32.1271 16.1388 31.648 16.1388 31.0833C16.1388 30.5185 15.9474 30.0394 15.5646 29.6458C15.1815 29.2521 14.7069 29.0553 14.1408 29.0553C13.5747 29.0553 13.0903 29.2521 12.6875 29.6458C12.2847 30.0394 12.0833 30.5185 12.0833 31.0833C12.0833 31.648 12.2847 32.1271 12.6875 32.5208C13.0903 32.9144 13.5747 33.1112 14.1408 33.1112ZM20.9188 16.1945C21.4849 16.1945 21.9593 15.9977 22.3421 15.6041C22.7251 15.2105 22.9167 14.7313 22.9167 14.1666C22.9167 13.6019 22.7251 13.1227 22.3421 12.7291C21.9593 12.3355 21.4849 12.1387 20.9188 12.1387C20.3526 12.1387 19.8682 12.3355 19.4654 12.7291C19.0626 13.1227 18.8613 13.6019 18.8613 14.1666C18.8613 14.7313 19.0626 15.2105 19.4654 15.6041C19.8682 15.9977 20.3526 16.1945 20.9188 16.1945ZM26 39.8887C26.5647 39.8887 27.0439 39.692 27.4375 39.2987C27.8311 38.9051 28.0279 38.4259 28.0279 37.8612C28.0279 37.2962 27.8311 36.817 27.4375 36.4237C27.0439 36.0301 26.5647 35.8333 26 35.8333C25.4353 35.8333 24.9561 36.0301 24.5625 36.4237C24.1689 36.817 23.9721 37.2962 23.9721 37.8612C23.9721 38.4259 24.1689 38.9051 24.5625 39.2987C24.9561 39.692 25.4353 39.8887 26 39.8887ZM27.6946 26.3053C28.2593 26.3053 28.7385 26.1087 29.1321 25.7153C29.5254 25.3217 29.7221 24.8426 29.7221 24.2778C29.7221 23.7128 29.5254 23.2337 29.1321 22.8403C28.7385 22.4467 28.2593 22.2499 27.6946 22.2499C27.1296 22.2499 26.6504 22.4467 26.2571 22.8403C25.8635 23.2337 25.6667 23.7128 25.6667 24.2778C25.6667 24.8426 25.8635 25.3217 26.2571 25.7153C26.6504 26.1087 27.1296 26.3053 27.6946 26.3053ZM37.8629 17.8333C38.429 17.8333 38.9036 17.6417 39.2867 17.2587C39.6697 16.8759 39.8613 16.4014 39.8613 15.8353C39.8613 15.2692 39.6697 14.7894 39.2867 14.3958C38.9036 14.0021 38.429 13.8053 37.8629 13.8053C37.2968 13.8053 36.8124 14.0021 36.4096 14.3958C36.0068 14.7894 35.8054 15.2692 35.8054 15.8353C35.8054 16.4014 36.0068 16.8759 36.4096 17.2587C36.8124 17.6417 37.2968 17.8333 37.8629 17.8333Z" fill="white"/>
</svg>
