<svg width="52" height="52" viewBox="0 0 52 52" fill="none" xmlns="http://www.w3.org/2000/svg">
<path d="M39.5552 40.3333H11.7777C11.0277 40.3333 10.3771 40.0579 9.82601 39.5071C9.27517 38.956 8.99976 38.3054 8.99976 37.5554V16.4446C8.99976 15.6946 9.27517 15.044 9.82601 14.4929C10.3771 13.9421 11.0277 13.6667 11.7777 13.6667H30.111V16.4446H11.7777V37.5554H39.5552V24.0279H42.3331V37.5554C42.3331 38.3054 42.0577 38.956 41.5068 39.5071C40.9557 40.0579 40.3052 40.3333 39.5552 40.3333ZM15.7777 33.5279H27.0552V29.0279H15.7777V33.5279ZM15.7777 25H27.0552V20.5H15.7777V25ZM31.0552 33.5279H35.5552V24.0279H31.0552V33.5279ZM36.2218 21.4446V18.1112H32.8885V15.3333H36.2218V12H38.9998V15.3333H42.3331V18.1112H38.9998V21.4446H36.2218Z" fill="white"/>
</svg>
