<svg width="52" height="52" viewBox="0 0 52 52" fill="none" xmlns="http://www.w3.org/2000/svg">
<path d="M11.9721 41.6946L10 39.7225L15.8054 33.9167H10.8333V31.1392H20.5554V40.8612H17.7779V35.8892L11.9721 41.6946ZM39.6946 41.6946L33.8888 35.8892V40.8612H31.1112V31.1392H40.8333V33.9167H35.8612L41.6667 39.7225L39.6946 41.6946ZM10.8333 20.5833V17.8058H15.8054L10 12L11.9721 10.0279L17.7779 15.8333V10.8612H20.5554V20.5833H10.8333ZM31.1112 20.5833V10.8612H33.8888V15.8333L39.7221 10L41.6946 11.9725L35.8612 17.8058H40.8333V20.5833H31.1112ZM25.8613 28.8333C25.0363 28.8333 24.33 28.5424 23.7425 27.9604C23.155 27.3782 22.8613 26.6785 22.8613 25.8612C22.8613 25.044 23.155 24.3443 23.7425 23.7621C24.33 23.1801 25.0363 22.8892 25.8613 22.8892C26.671 22.8892 27.364 23.1801 27.9404 23.7621C28.5171 24.3443 28.8054 25.044 28.8054 25.8612C28.8054 26.6785 28.5171 27.3782 27.9404 27.9604C27.364 28.5424 26.671 28.8333 25.8613 28.8333Z" fill="white"/>
</svg>
