<svg width="52" height="52" viewBox="0 0 52 52" fill="none" xmlns="http://www.w3.org/2000/svg">
<path d="M15.7782 42.3347C15.0282 42.3347 14.3776 42.0593 13.8265 41.5084C13.2757 40.9573 13.0002 40.3068 13.0002 39.5568V11.7793C13.0002 11.0293 13.2757 10.3787 13.8265 9.82759C14.3776 9.27676 15.0282 9.00134 15.7782 9.00134H36.889C37.639 9.00134 38.2895 9.27676 38.8407 9.82759C39.3915 10.3787 39.6669 11.0293 39.6669 11.7793V39.5568C39.6669 40.3068 39.3915 40.9573 38.8407 41.5084C38.2895 42.0593 37.639 42.3347 36.889 42.3347H15.7782ZM15.7782 39.5568H36.889V11.7793H34.1115V23.0568L30.0282 20.668L25.9448 23.0568V11.7793H15.7782V39.5568Z" fill="white"/>
</svg>
