<svg width="81" height="80" viewBox="0 0 81 80" fill="none" xmlns="http://www.w3.org/2000/svg">
<g id="ic">
<g id="Group 42">
<path id="Vector" d="M10.8665 63.7149V70.0007H5.96049C4.23659 70.0007 2.83398 68.7035 2.83398 67.1092V63.7149H10.8665Z" fill="#E00124"/>
<path id="Vector_2" d="M78.8346 63.7148V67.3492C78.8346 68.8121 77.4381 70.0007 75.7142 70.0007H71.4199V63.7148H78.8346Z" fill="#E00124"/>
<path id="Vector_3" d="M71.4201 63.7148V70.0007H10.8672V63.7148H32.2831L34.3963 65.4292H47.1001L49.2132 63.7148H71.4201Z" fill="#CE0000"/>
<path id="Vector_4" d="M71.4201 21.9062V63.7127H49.2194L47.1001 65.427H34.4025L32.2831 63.7127H10.8672V21.9177C10.8672 20.3805 12.2018 19.1405 13.8454 19.1405H36.8184V26.4949C33.0988 27.4835 28.9898 31.7293 28.9898 36.8265C28.9898 40.798 31.0783 44.7638 34.6497 46.5696H36.2005L36.2067 41.5866C36.2067 39.5123 37.3251 37.5065 39.3023 36.4151C39.8275 36.1236 40.3589 35.9294 40.8409 35.9294C41.3228 35.9294 41.8542 36.1236 42.3794 36.4151C44.3567 37.5065 45.4688 39.5123 45.4688 41.5866V46.5696H47.1001C50.3934 44.7752 52.0679 40.8209 52.0679 36.8494C52.0679 31.7407 48.3853 27.4835 44.851 26.5349V19.1348H68.4295C70.0793 19.1348 71.4201 20.3748 71.4201 21.9005V21.9062Z" fill="#D8D8D8"/>
<path id="Vector_5" d="M44.8509 10H36.8184V19.143H44.8509V10Z" fill="#E00124"/>
<path id="Vector_6" d="M52.0664 36.8551C52.0664 40.8266 50.3919 44.7809 47.0985 46.5753H45.4735L45.4673 41.5866C45.4673 39.5123 44.3551 37.5065 42.3779 36.4151C41.8527 36.1236 41.3151 35.9294 40.8393 35.9294C40.3636 35.9294 39.826 36.1236 39.3008 36.4151C37.3236 37.5065 36.2052 39.5123 36.2052 41.5866V46.5638H34.6481C31.0767 44.7581 28.9883 40.7923 28.9883 36.8208C28.9883 31.7236 33.0972 27.4778 36.8169 26.4892V19.1348H44.8494V26.5349C48.3837 27.4835 52.0664 31.7407 52.0664 36.8494V36.8551Z" fill="#CE0000"/>
</g>
</g>
</svg>
