<svg width="52" height="52" viewBox="0 0 52 52" fill="none" xmlns="http://www.w3.org/2000/svg">
<path d="M26.3333 42.3346C22.4536 41.3623 19.2615 39.1193 16.7571 35.6054C14.2524 32.0915 13 28.2234 13 24.0012V14.0012L26.3333 9.00122L39.6667 14.0012V24.0012C39.6667 26.2326 39.3333 28.4201 38.6667 30.5637C38 32.7073 36.9167 34.668 35.4167 36.4458L29.75 30.9458C29.2314 31.2514 28.6813 31.4944 28.0996 31.675C27.5179 31.8555 26.9292 31.9458 26.3333 31.9458C24.5742 31.9458 23.0742 31.33 21.8333 30.0983C20.5925 28.8669 19.9721 27.3669 19.9721 25.5983C19.9721 23.83 20.5925 22.3254 21.8333 21.0846C23.0742 19.8437 24.5742 19.2233 26.3333 19.2233C28.0925 19.2233 29.5925 19.8437 30.8333 21.0846C32.0742 22.3254 32.6946 23.8347 32.6946 25.6125C32.6946 26.205 32.6135 26.7905 32.4513 27.3691C32.2893 27.948 32.0371 28.4828 31.6946 28.9733L34.9721 32.14C35.6018 30.9641 36.0787 29.6725 36.4029 28.265C36.7268 26.8577 36.8888 25.4365 36.8888 24.0012V15.8629L26.3333 11.9875L15.7779 15.8629V24.0012C15.7779 27.5476 16.764 30.7559 18.7363 33.6262C20.7085 36.4965 23.2426 38.4364 26.3388 39.4458C27.1129 39.2236 27.9931 38.823 28.9792 38.2441C29.9653 37.6655 30.7871 37.0846 31.4446 36.5012L33.3888 38.4733C32.4351 39.3161 31.331 40.0939 30.0763 40.8066C28.8218 41.5197 27.5742 42.029 26.3333 42.3346ZM26.3392 29.1679C27.3261 29.1679 28.169 28.823 28.8679 28.1333C29.5671 27.4433 29.9167 26.5983 29.9167 25.5983C29.9167 24.5983 29.5653 23.7489 28.8625 23.05C28.1597 22.3508 27.3147 22.0012 26.3275 22.0012C25.3406 22.0012 24.4976 22.3508 23.7988 23.05C23.0996 23.7489 22.75 24.5983 22.75 25.5983C22.75 26.5983 23.1014 27.4433 23.8042 28.1333C24.5069 28.823 25.3519 29.1679 26.3392 29.1679Z" fill="white"/>
</svg>
