<svg width="238" height="58" viewBox="0 0 238 58" fill="none" xmlns="http://www.w3.org/2000/svg">
<g id="_?&#235;&#141;&#137;&#236;&#148;&#160;??2" clip-path="url(#clip0_1141_7725)">
<g id="Group">
<path id="Vector" d="M69.4525 22.9958C67.7995 18.6847 63.5581 15.2306 55.814 14.9782C45.12 14.6312 38.2741 20.6405 36.6742 25.4405C36.4776 26.0451 36.9719 26.308 37.6044 25.94C40.4958 24.2786 44.3758 25.8821 46.0076 28.5319C46.6082 29.5045 46.9962 30.7663 47.145 32.1806C47.8519 30.6138 49.4411 29.5203 51.2855 29.5203C53.7889 29.5203 55.8193 31.5286 55.8193 34.0101C55.8193 36.4916 53.7889 38.4947 51.2855 38.4947C49.3295 38.4947 47.6712 37.2697 47.0281 35.5558C46.7464 37.2487 46.1298 38.9994 45.104 40.6398C41.9149 46.2652 33.4746 54.5457 11.3796 55.2765C26.6287 60.3446 43.467 58.2942 55.9522 49.6089C68.1344 41.4389 69.713 31.9755 69.713 31.9755C70.5102 28.6791 70.4943 25.5299 69.4525 23.0011V22.9958Z" fill="white"/>
<path id="Vector_2" d="M35.4783 38.7419C40.8731 34.1101 40.7031 29.3521 39.0979 27.2544C38.8056 26.9653 38.4282 27.1756 38.3325 27.4384C37.514 29.7412 29.2915 32.3121 23.312 28.4321C23.6043 28.9631 23.7851 29.5624 23.7851 30.2091C23.7851 32.2858 22.0842 33.9682 19.9848 33.9682C17.8853 33.9682 16.1845 32.2858 16.1845 30.2091C16.1845 28.1324 17.8853 26.45 19.9848 26.45C20.4153 26.45 20.8192 26.5342 21.2019 26.6656C20.4312 25.8454 19.7296 24.8833 19.1343 23.732C14.8344 15.4094 20.1548 4.79468 20.1548 4.79468C11.7676 9.61049 3.41756 18.3168 0.813158 27.2544C-1.61053 35.5822 1.66358 41.2813 6.79266 44.1413C14.1435 48.2368 27.7608 45.3821 35.4783 38.7472V38.7419Z" fill="white"/>
<path id="Vector_3" d="M35.1594 28.1535C35.558 28.1535 35.8025 27.8801 35.372 27.3596C33.719 25.346 33.2778 19.4787 38.2847 14.3632C37.9764 14.4526 37.6575 14.5209 37.3226 14.5209C35.473 14.5209 33.9794 13.0436 33.9794 11.2193C33.9794 9.39494 35.4783 7.91234 37.3226 7.91234C39.167 7.91234 40.6659 9.39494 40.6659 11.2193C40.6659 11.6819 40.5702 12.1235 40.3948 12.5231C41.3302 11.8134 42.3879 11.1299 43.5945 10.4885C43.5945 10.4885 53.7357 4.72108 64.1693 7.7441C58.8223 2.56553 46.3318 -2.76551 35.5421 1.65074C27.2877 5.03127 24.3272 13.0699 25.7357 19.2789C26.9635 24.6941 31.3804 27.9589 35.1594 28.164V28.1535Z" fill="white"/>
</g>
<g id="Group_2">
<g id="Group_3">
<path id="Vector_4" d="M106.743 21.4871V15.9826C106.743 14.174 101.838 14.2739 101.838 14.2739V32.4857H106.743V23.9739H110.634V21.4924H106.743V21.4871Z" fill="white"/>
<path id="Vector_5" d="M96.6978 33.043C92.0736 33.043 87.3698 35.3615 87.3698 39.4413C87.3698 43.521 92.0736 45.8343 96.6978 45.8343C101.322 45.8343 106.026 43.5158 106.026 39.4413C106.026 35.3668 101.317 33.043 96.6978 33.043ZM96.6978 43.4685C94.5239 43.4685 92.3022 42.0069 92.3022 39.436C92.3022 36.8651 94.5239 35.393 96.6978 35.393C98.8716 35.393 101.088 36.8651 101.088 39.436C101.088 42.0069 98.8716 43.4685 96.6978 43.4685Z" fill="white"/>
<path id="Vector_6" d="M89.6446 26.692C92.9453 28.4953 96.6287 31.8969 96.6287 31.8969L98.9939 28.1483C97.8724 26.7393 93.0303 25.0149 91.1913 24.3998C91.6963 23.4745 92.1161 22.4493 92.4138 21.3189H98.8026V18.8269H92.6583V16.3454C92.6583 14.5368 87.7524 14.6367 87.7524 14.6367H87.4282V18.8269H80.3698C80.3698 18.8269 80.3272 21.1875 81.183 21.3189H87.3751C87.0243 24.0791 84.6165 28.3061 80.0455 31.3659L81.3265 32.3122C81.3265 32.3122 86.2217 30.8507 89.6393 26.692H89.6446Z" fill="white"/>
</g>
<g id="Group_4">
<path id="Vector_7" d="M125.293 26.7026C129.375 26.7026 133.542 24.6049 133.542 20.9405C133.542 17.2761 129.37 15.1836 125.293 15.1836C121.216 15.1836 117.028 17.2761 117.028 20.9405C117.028 24.6049 121.2 26.7026 125.293 26.7026ZM125.293 17.7072C126.909 17.7072 128.557 18.8848 128.557 20.9405C128.557 22.9961 126.909 24.1685 125.293 24.1685C123.677 24.1685 122.024 22.9961 122.024 20.9405C122.024 18.8848 123.677 17.7072 125.293 17.7072Z" fill="white"/>
<path id="Vector_8" d="M122.885 34.9198H127.781V30.2144H136.014V27.7329H114.365C114.365 27.7329 114.323 30.2144 115.263 30.2144H122.891V34.9198H122.885Z" fill="white"/>
<path id="Vector_9" d="M126.133 36.3604H121.238V41.6809C121.238 43.4053 122.646 44.8038 124.395 44.8038H142.376V42.3223H126.138V36.3656L126.133 36.3604Z" fill="white"/>
<path id="Vector_10" d="M131.629 34.6781H137.481V37.7431H142.376L142.386 16.3401C142.386 14.5368 137.481 14.6315 137.481 14.6315V32.186H130.741C130.741 32.186 130.693 34.6728 131.629 34.6728V34.6781Z" fill="white"/>
</g>
<g id="Group_5">
<g id="Group_6">
<path id="Vector_11" d="M218.696 16.9131C218.696 16.9131 219.817 27.2807 209.989 36.5443L211.281 37.4959C214.97 35.5822 218.164 32.596 220.46 29.1734C223.947 31.7811 227.067 36.9912 227.067 36.9912L229.995 33.6002C228.507 30.6192 223.399 27.5121 221.943 26.6709C223.282 24.0685 224.112 21.3083 224.276 18.627C224.377 16.8185 219.371 16.9183 219.371 16.9183" fill="white"/>
<path id="Vector_12" d="M233.094 14.6313V44.7827H238V16.3453C238 14.5367 233.094 14.6366 233.094 14.6366" fill="white"/>
</g>
<path id="Vector_13" d="M175.287 32.291H147.739C146.197 32.291 145.852 30.7295 146.006 29.4309H175.287V32.291Z" fill="white"/>
<path id="Vector_14" d="M149.264 34.5781H168.877C170.599 34.5781 171.997 35.9608 171.997 37.6642V44.6777H167.011V37.4382H149.264V34.5781Z" fill="white"/>
<path id="Vector_15" d="M170.732 14.7628V17.5808L155.042 17.6334V19.6154L170.344 19.5629V22.344L155.042 22.3966V24.5679L171.115 24.5154C171.269 25.6983 171.232 27.3333 169.573 27.3333H150.078V14.7576H170.732V14.7628Z" fill="white"/>
<g id="Group_7">
<path id="Vector_16" d="M201.804 14.7207V44.8721H206.349V16.4084C206.349 14.6208 201.804 14.7207 201.804 14.7207Z" fill="white"/>
<path id="Vector_17" d="M195.16 14.7207V21.3293H192.295V23.9843H195.16V29.247H192.295V31.902H195.16V44.8721H199.705V16.4084C199.705 14.6208 195.16 14.7207 195.16 14.7207Z" fill="white"/>
<path id="Vector_18" d="M184.323 34.8199V28.6109H191.004V17.1392H179.215L179.231 17.1812C179.204 17.5072 179.082 19.7311 180.225 19.9571L185.88 19.9729V25.7876H179.215V37.6379H191.115C192.71 37.6379 192.901 36.0186 192.71 34.8147H184.317L184.323 34.8199Z" fill="white"/>
</g>
</g>
</g>
</g>
<defs>
<clipPath id="clip0_1141_7725">
<rect width="238" height="58" fill="white"/>
</clipPath>
</defs>
</svg>
