<svg width="212" height="58" viewBox="0 0 212 58" fill="none" xmlns="http://www.w3.org/2000/svg">
<g clip-path="url(#clip0_1141_7656)">
<path d="M78.5 17.26V15H82.06V17.26H87.01V20.04H73V17.26H78.5ZM86.42 26.38C86.42 27.16 86.25 27.89 85.93 28.58C85.6 29.26 85.16 29.86 84.6 30.37C84.04 30.89 83.4 31.29 82.67 31.59C81.94 31.89 81.15 32.04 80.31 32.04C79.47 32.04 78.68 31.89 77.95 31.59C77.22 31.29 76.57 30.88 76.02 30.37C75.46 29.86 75.02 29.26 74.69 28.58C74.36 27.9 74.2 27.17 74.2 26.38C74.2 25.59 74.36 24.86 74.69 24.17C75.02 23.48 75.46 22.88 76.02 22.36C76.58 21.84 77.22 21.44 77.95 21.14C78.68 20.84 79.47 20.69 80.31 20.69C81.15 20.69 81.94 20.84 82.67 21.14C83.4 21.44 84.04 21.85 84.6 22.36C85.16 22.87 85.6 23.48 85.93 24.17C86.26 24.86 86.42 25.6 86.42 26.38ZM83.29 26.34C83.29 25.54 83 24.84 82.41 24.25C81.82 23.66 81.12 23.37 80.29 23.37C79.46 23.37 78.76 23.66 78.19 24.25C77.61 24.84 77.32 25.53 77.32 26.34C77.32 27.15 77.61 27.83 78.19 28.41C78.77 28.99 79.47 29.28 80.29 29.28C81.11 29.28 81.82 28.99 82.41 28.41C83 27.83 83.29 27.14 83.29 26.34ZM95.1 37.26C95.1 38.08 94.92 38.86 94.57 39.59C94.22 40.32 93.76 40.97 93.18 41.52C92.58 42.08 91.89 42.52 91.11 42.85C90.33 43.18 89.49 43.35 88.61 43.35C87.73 43.35 86.88 43.18 86.09 42.85C85.3 42.52 84.6 42.08 84 41.52C83.42 40.96 82.96 40.32 82.61 39.59C82.26 38.86 82.08 38.08 82.08 37.26C82.08 36.44 82.25 35.65 82.61 34.91C82.96 34.17 83.42 33.52 84 32.96C84.6 32.4 85.29 31.96 86.09 31.63C86.88 31.3 87.72 31.13 88.61 31.13C89.5 31.13 90.33 31.29 91.11 31.63C91.89 31.96 92.58 32.4 93.18 32.96C93.76 33.52 94.22 34.17 94.57 34.91C94.92 35.65 95.1 36.44 95.1 37.26ZM91.83 37.23C91.83 36.36 91.51 35.61 90.87 34.97C90.23 34.33 89.47 34.01 88.58 34.01C87.69 34.01 86.94 34.33 86.31 34.97C85.68 35.61 85.37 36.36 85.37 37.23C85.37 38.1 85.68 38.84 86.31 39.47C86.94 40.1 87.7 40.41 88.58 40.41C89.46 40.41 90.23 40.1 90.87 39.47C91.51 38.84 91.83 38.09 91.83 37.23ZM91.76 30.3H88.67V15.59H91.76V21.43H94.51V15.56H97.72V30.68H94.51V24.47H91.76V30.31V30.3Z" fill="white"/>
<path d="M101.62 19.2001V16.3301H117.08V19.2101H110.5L117.36 27.5901L115.01 29.5101L109.51 22.6501L104.04 29.9801L101.6 28.0001L108.43 19.2201H101.63L101.62 19.2001ZM123.02 36.7601C123.02 37.6701 122.83 38.5201 122.46 39.3101C122.09 40.1001 121.59 40.8001 120.98 41.4001C120.34 42.0001 119.59 42.4701 118.74 42.8201C117.89 43.1701 116.98 43.3501 116.04 43.3501C115.1 43.3501 114.19 43.1701 113.32 42.8201C112.45 42.4701 111.7 41.9901 111.06 41.4001C110.44 40.8001 109.95 40.1101 109.58 39.3101C109.21 38.5201 109.02 37.6701 109.02 36.7601C109.02 35.8501 109.21 35.0001 109.58 34.1901C109.95 33.3901 110.45 32.6901 111.06 32.0901C111.7 31.4901 112.45 31.0201 113.32 30.6701C114.19 30.3201 115.09 30.1401 116.04 30.1401C116.99 30.1401 117.89 30.3101 118.74 30.6701C119.59 31.0301 120.34 31.4901 120.98 32.0901C121.6 32.6901 122.09 33.3901 122.46 34.1901C122.83 34.9901 123.02 35.8501 123.02 36.7601ZM119.74 36.7301C119.74 35.7201 119.37 34.8501 118.63 34.1201C117.89 33.3901 117.01 33.0201 116 33.0201C114.99 33.0201 114.12 33.3901 113.39 34.1201C112.66 34.8501 112.29 35.7201 112.29 36.7301C112.29 37.7401 112.66 38.6101 113.39 39.3301C114.12 40.0501 114.99 40.4101 116 40.4101C117.01 40.4101 117.89 40.0501 118.63 39.3301C119.37 38.6101 119.74 37.7401 119.74 36.7301ZM121.96 29.8401V24.0001H116.95V21.1201H121.96V15.5601H125.3V29.8401H121.96Z" fill="white"/>
<path d="M144.53 23.1001C144.53 24.1101 144.33 25.0601 143.93 25.9401C143.53 26.8301 142.98 27.6101 142.28 28.2901C141.58 28.9501 140.77 29.4801 139.85 29.8701C138.93 30.2601 137.95 30.4601 136.9 30.4601C135.85 30.4601 134.86 30.2601 133.95 29.8701C133.03 29.4801 132.22 28.9501 131.52 28.2901C130.82 27.6101 130.27 26.8301 129.87 25.9401C129.47 25.0501 129.27 24.1001 129.27 23.1001C129.27 22.1001 129.47 21.1401 129.87 20.2601C130.27 19.3701 130.82 18.5901 131.52 17.9101C132.22 17.2501 133.03 16.7201 133.95 16.3301C134.87 15.9401 135.85 15.7401 136.9 15.7401C137.95 15.7401 138.93 15.9401 139.85 16.3301C140.77 16.7201 141.58 17.2501 142.28 17.9101C142.98 18.5901 143.53 19.3701 143.93 20.2601C144.33 21.1501 144.53 22.0901 144.53 23.1001ZM134.3 32.9601V38.9901H152.41V41.9601H130.96V32.9601H134.3ZM141.31 23.1301C141.31 22.5301 141.19 21.9601 140.95 21.4301C140.71 20.8901 140.4 20.4201 140.01 20.0101C139.6 19.6201 139.13 19.3101 138.6 19.0701C138.07 18.8301 137.51 18.7101 136.92 18.7101C136.33 18.7101 135.76 18.8301 135.22 19.0701C134.68 19.3101 134.21 19.6201 133.8 20.0101C133.41 20.4201 133.09 20.9001 132.86 21.4301C132.62 21.9701 132.5 22.5301 132.5 23.1301C132.5 23.7301 132.62 24.2901 132.86 24.8101C133.1 25.3401 133.41 25.8101 133.8 26.2201C134.21 26.6101 134.69 26.9301 135.22 27.1601C135.76 27.4001 136.32 27.5201 136.92 27.5201C137.52 27.5201 138.08 27.4001 138.6 27.1601C139.12 26.9201 139.59 26.6101 140.01 26.2201C140.4 25.8101 140.72 25.3401 140.95 24.8101C141.19 24.2801 141.31 23.7201 141.31 23.1301ZM151.73 32.8101H148.39V15.5601H151.73V21.4301H155.59V24.7401H151.73V32.8101Z" fill="white"/>
<path d="M158.01 19.2001V16.3301H173.47V19.2101H166.92L173.75 29.2901L171.21 30.9901L165.89 22.8901L160.57 31.2101L157.97 29.4801L164.77 19.2201H158L158.01 19.2001ZM159.86 41.9601V32.9601H163.2V38.9901H181.93V41.9601H159.86ZM178.35 32.8101V24.8601H173.34V21.8901H178.35V15.5601H181.69V32.8101H178.35Z" fill="white"/>
<path d="M186.29 32.59H211.02V35.56H200.32V42.48H196.95V35.56H186.29V32.59ZM191.58 19.42H205.74V16.02H209.05V28.97H188.28V16.02H191.59V19.42H191.58ZM205.73 22.33H191.57V26.04H205.73V22.33Z" fill="white"/>
</g>
<path d="M45.0024 27.6784C39.942 24.2515 33.4535 25.6491 30.0506 30.8012C27.2059 35.1053 22.9155 35.6374 21.2523 35.6374C15.8393 35.6374 12.1307 31.848 11.0317 27.924C11.0199 27.883 11.014 27.8538 11.0023 27.8129C10.9905 27.7661 10.9788 27.7251 10.967 27.6784C10.538 26.0409 10.4263 25.2573 10.4263 23.5205C10.4263 14.1404 20.1003 3.69591 34.0295 3.69591C47.9586 3.69591 56.4572 14.5029 58.5613 20.5088C58.526 20.4035 58.4907 20.2982 58.4555 20.1871C54.4119 8.44445 43.2157 0 30.0388 0C13.4531 0 0 13.3801 0 29.8889C0 44.6433 10.6967 57.2749 25.5309 57.2749C37.3619 57.2749 45.3197 50.6725 48.9636 41.5789C50.9678 36.6023 49.5455 30.7544 45.0024 27.6842V27.6784Z" fill="white"/>
<path d="M58.7552 21.0936C57.0037 15.2339 48.7755 3.70178 34.0353 3.70178C20.1003 3.70178 10.4321 14.1462 10.4321 23.5263C10.4321 25.2632 10.5379 26.0468 10.9728 27.6842C10.7906 26.9708 10.6966 26.2515 10.6966 25.5497C10.6966 15.7837 20.5293 9.01172 30.6324 9.01172C44.3147 9.01172 55.3992 20.0468 55.3992 33.655C55.3992 44.3275 49.2281 53.5614 40.2593 57.9942C51.8141 53.8363 60.0717 42.8246 60.0717 29.8889C60.0717 26.8304 59.6603 24.1287 58.7493 21.0936H58.7552Z" fill="white"/>
<defs>
<clipPath id="clip0_1141_7656">
<rect width="138.02" height="28.35" fill="white" transform="translate(73 15)"/>
</clipPath>
</defs>
</svg>
