<svg width="168" height="58" viewBox="0 0 168 58" fill="none" xmlns="http://www.w3.org/2000/svg">
<g clip-path="url(#clip0_1141_7682)">
<path d="M80.8803 51.3811C79.2102 51.8717 77.9667 51.9001 77.063 51.9001C74.4313 51.9001 71.3948 50.3644 71.3948 46.0418C71.3948 41.7192 74.012 40.084 77.6269 40.084C78.2776 40.084 79.6513 40.1693 80.6128 40.5959L80.4032 43.0842C79.5862 42.5297 78.6174 42.3519 77.9956 42.3519C75.8628 42.3519 74.106 43.3828 74.106 46.0489C74.106 48.2884 75.4796 49.6464 77.4028 49.6464C77.757 49.6464 78.0968 49.5824 78.3354 49.4473V47.1865H76.7955V45.0251H80.8803V51.374V51.3811Z" fill="white"/>
<path d="M85.5074 47.4067L81.8563 40.29H84.8856L86.8232 44.8686L88.7319 40.29H91.7612L88.1391 47.4067V51.708H85.5074V47.4067Z" fill="white"/>
<path d="M92.6288 40.29H99.5839V42.4514H95.2604V44.8046H99.3453V46.9659H95.2604V49.5538H99.743V51.7151H92.6288V40.2972V40.29Z" fill="white"/>
<path d="M103.539 45.9991C103.539 44.0227 104.175 42.3519 105.773 42.3519C107.371 42.3519 108.007 44.0227 108.007 45.9991C108.007 47.9756 107.371 49.6463 105.773 49.6463C104.175 49.6463 103.539 47.8761 103.539 45.9991ZM100.828 45.9991C100.828 49.6321 102.555 51.9072 105.78 51.9072C109.004 51.9072 110.725 49.6321 110.725 45.9991C110.725 42.3661 109.026 40.0911 105.78 40.0911C102.534 40.0911 100.828 42.3306 100.828 45.9991Z" fill="white"/>
<path d="M112.092 40.29H115.446L118.779 48.0466H118.808L118.765 40.29H121.172V51.708H117.904L114.456 43.9017H114.427L114.514 51.708H112.099V40.29H112.092Z" fill="white"/>
<path d="M132.031 51.3811C130.361 51.8717 129.118 51.9001 128.214 51.9001C125.582 51.9001 122.546 50.3644 122.546 46.0418C122.546 41.7192 125.163 40.084 128.778 40.084C129.429 40.084 130.802 40.1693 131.757 40.5959L131.547 43.0842C130.73 42.5297 129.769 42.3519 129.14 42.3519C127.007 42.3519 125.25 43.3828 125.25 46.0489C125.25 48.2884 126.624 49.6464 128.547 49.6464C128.901 49.6464 129.241 49.5824 129.479 49.4473V47.1865H127.939V45.0251H132.024V51.374L132.031 51.3811Z" fill="white"/>
<path d="M133.81 40.29H137.157L140.498 48.0466H140.527L140.483 40.29H142.884V51.708H139.616L136.167 43.9017H136.138L136.225 51.708H133.81V40.29Z" fill="white"/>
<path d="M150.352 47.1152H147.879L149.152 42.6504H149.181L150.352 47.1152ZM143.823 51.708H146.491L147.272 49.2694H150.974L151.711 51.708H154.596L150.793 40.29H147.568L143.823 51.708Z" fill="white"/>
<path d="M155.42 40.29H159.563L161.652 47.876H161.681L163.872 40.29H167.855V51.708H165.282L165.325 42.9419H165.296L162.78 51.708H160.358L157.958 42.9419H157.929L157.987 51.708H155.413V40.29H155.42Z" fill="white"/>
<path d="M136.275 17.575H127.498V9.49854H123.97V20.3122H136.275V17.575Z" fill="white"/>
<path d="M87.6547 21.9901H91.1973V9.15015H87.6547V11.6243H83.859V14.3615H87.6547V16.1602H83.859V18.9045H87.6547V21.9901Z" fill="white"/>
<path d="M160.322 29.3414V22.7224H166.287V19.9852H153.555V12.6979H166.287V9.96777H150.019V22.7224H156.787V29.3414H148.306V32.0857H168V29.3414H160.322Z" fill="white"/>
<path d="M141.893 9.15015H138.365V21.6061H141.893V15.8047H144.987V13.0675H141.893V9.15015Z" fill="white"/>
<path d="M127.932 23.1348V33.1522H141.893V23.1348H127.932ZM131.475 30.4221V25.8791H138.365V30.4221H131.475Z" fill="white"/>
<path d="M83.7217 21.6631C79.7959 21.6631 76.6147 24.4998 76.6147 27.9906C76.6147 31.4814 79.7959 34.3181 83.7217 34.3181C87.6475 34.3181 90.8286 31.4885 90.8286 27.9906C90.8286 24.4927 87.6475 21.6631 83.7217 21.6631ZM83.7217 31.3819C81.8202 31.3819 80.2803 29.8675 80.2803 27.9906C80.2803 26.1137 81.8202 24.5993 83.7217 24.5993C85.6231 24.5993 87.1559 26.1208 87.1559 27.9906C87.1559 29.8604 85.6159 31.3819 83.7217 31.3819Z" fill="white"/>
<path d="M108.448 21.6631C104.529 21.6631 101.348 24.4998 101.348 27.9906C101.348 31.4814 104.529 34.3181 108.448 34.3181C112.366 34.3181 115.547 31.4885 115.547 27.9906C115.547 24.4927 112.366 21.6631 108.448 21.6631ZM108.448 31.3819C106.546 31.3819 105.014 29.8675 105.014 27.9906C105.014 26.1137 106.554 24.5993 108.448 24.5993C110.342 24.5993 111.882 26.1208 111.882 27.9906C111.882 29.8604 110.342 31.3819 108.448 31.3819Z" fill="white"/>
<path d="M82.1672 15.2217C82.1672 15.2217 83.1071 12.7903 83.0493 9.79712H71.3947V12.5983H78.7981C78.7981 12.5983 79.0584 18.1793 70.9248 19.3524L72.3346 21.7626C74.9157 21.5493 80.1067 20.2624 82.1672 15.2217Z" fill="white"/>
<path d="M108.947 21.0445L110.385 18.7054C104.862 16.8996 104.891 11.4465 104.891 10.8707V9.61938H100.553V10.8991C100.553 11.4039 100.762 17.2835 95.1304 19.3737L96.6486 21.6204C96.6486 21.6204 100.582 20.5184 102.845 16.6863C104.811 20.0776 108.954 21.0516 108.954 21.0516L108.947 21.0445Z" fill="white"/>
<path d="M116.032 9.15015H112.496V21.9829H116.032V15.8047H119.119V13.0675H116.032V9.15015Z" fill="white"/>
<path d="M30.0618 0.00012703C19.7014 -0.191832 10.4906 4.89152 5.07544 12.7405C5.17666 12.8543 5.26342 12.9609 5.34294 13.0604C5.40078 13.1244 5.45139 13.1955 5.502 13.2453C5.53092 13.2453 5.55984 13.2524 5.58153 13.2595C5.96471 13.3306 6.5431 13.4301 7.04196 13.8709C7.35284 14.1482 7.55528 14.461 7.71433 14.7028C7.7794 14.8094 7.88062 14.9516 7.924 14.9942C8.01076 15.0724 8.1409 15.172 8.27826 15.2786C8.50239 15.4421 8.75543 15.6341 9.00125 15.8829C9.21091 16.0891 9.39889 16.2953 9.57964 16.5015C9.70254 16.6508 9.82545 16.7859 9.94836 16.9138C10.0423 17.0134 10.1725 17.1271 10.3099 17.248C10.5123 17.4257 10.7436 17.6319 10.9605 17.8807C11.2425 18.1936 11.4088 18.5206 11.5317 18.7837C11.5823 18.8832 11.6618 19.0254 11.6908 19.0751C11.8932 19.3027 12.0812 19.5444 12.2619 19.7719L12.5511 20.1274C12.6017 20.1914 12.7246 20.2909 12.8403 20.3833C13.0572 20.5682 13.3319 20.7957 13.5705 21.1085C13.7513 21.3431 13.9031 21.5706 14.0477 21.791C14.1561 21.9545 14.2573 22.1038 14.3513 22.2389C14.5827 22.5517 14.7201 22.8646 14.843 23.1276C14.908 23.2698 14.9659 23.412 15.0237 23.4831C15.0743 23.5542 15.1828 23.6608 15.2984 23.7817C15.4864 23.9736 15.725 24.2083 15.9274 24.514C16.1443 24.8339 16.2745 25.161 16.3757 25.4169C16.4118 25.5164 16.4552 25.6231 16.4914 25.7013C16.5275 25.7297 16.5781 25.7582 16.6215 25.7866C16.889 25.9643 17.3011 26.2345 17.5903 26.6966C17.7494 26.9526 17.8578 27.2156 17.9446 27.436L18.5085 27.8128C19.4267 28.4242 19.8171 28.1043 19.3689 27.109L14.1778 15.4777C13.7368 14.4752 13.9175 14.3757 14.5827 15.2431L22.3186 25.3103C22.991 26.1776 23.4537 26.007 23.3597 24.9192L22.2752 12.2926C22.1813 11.2048 22.3909 11.1622 22.7452 12.2002L26.4903 24.123C26.8445 25.161 27.3072 25.1325 27.5241 24.059L29.6208 11.7665C29.8377 10.6929 30.0546 10.7143 30.1052 11.802L30.6402 24.3718C30.6908 25.4596 31.1752 25.5804 31.7319 24.6348L38.1231 13.7572C38.6798 12.8116 38.875 12.8969 38.5569 13.942L34.9419 25.9501C34.6238 26.9952 35.0576 27.2654 35.8891 26.5473L45.4758 18.3642C46.3073 17.6461 46.4736 17.7954 45.8301 18.677L40.3137 26.2843C40.5957 26.2772 40.8777 26.2629 41.0945 26.1492C41.5428 25.9146 41.8031 25.3103 42.2658 25.0827C42.7285 24.8623 43.3358 24.9406 43.8057 24.7415C44.2757 24.5353 44.601 23.995 45.071 23.803C45.5409 23.6182 46.0398 23.4831 46.5097 23.3125C47.0303 23.1276 47.5147 22.829 48.0207 22.6655C48.5341 22.4949 49.0835 22.4238 49.5896 22.2673C50.0957 22.1109 50.7102 22.3313 51.2019 22.1891C51.7441 22.0398 52.1562 21.4711 52.6768 21.3431C53.2045 21.208 53.7685 21.2862 54.2673 21.1725C54.8096 21.0445 55.359 21.0658 55.8651 20.9592C56.4146 20.8454 56.8918 20.5611 57.3906 20.4686C57.4846 20.4473 57.5858 20.4402 57.6871 20.4402C54.0143 8.81601 43.1189 0.256072 30.0618 0.00012703Z" fill="white"/>
<path d="M25.5937 56.1659C25.5937 56.1659 25.6081 56.109 25.6154 56.0806C25.5937 56.045 25.572 55.9952 25.5431 55.9597C25.4057 55.718 25.2105 55.3767 25.1165 54.9501C25.0804 54.7866 25.0298 54.6018 24.9647 54.4027C24.8924 54.1823 24.8201 53.9406 24.755 53.6775C24.6755 53.3363 24.6683 53.0163 24.6538 52.7604C24.6538 52.604 24.6393 52.4404 24.6249 52.3622C24.5598 52.0921 24.5164 51.8361 24.4875 51.6015C24.4586 51.4096 24.4369 51.2247 24.3935 51.0754C24.3646 50.9474 24.2923 50.791 24.2272 50.6204C24.1405 50.4 24.032 50.1441 23.9525 49.8526L23.873 49.5753L23.6199 48.6226C23.5766 48.4733 23.5115 48.2956 23.4392 48.1178C23.3597 47.9116 23.2729 47.677 23.2006 47.4282C23.0705 46.9874 23.0849 46.575 23.0994 46.2764C23.0994 46.184 23.0994 46.0845 23.0994 46.0276C23.0415 45.857 22.9765 45.6721 22.8969 45.4802C22.8174 45.274 22.7379 45.0678 22.6584 44.8403C22.6367 44.7976 22.5644 44.6981 22.5065 44.6199C22.333 44.3924 22.1017 44.0725 21.9571 43.6601C21.9209 43.5464 21.8414 43.3899 21.7546 43.2264C21.6462 43.0131 21.516 42.7643 21.4148 42.4799C21.3353 42.2595 21.2485 42.0391 21.1546 41.8045L20.9521 41.2855C20.7641 40.7878 20.8003 40.3115 20.822 40.0058C20.822 39.9631 20.8292 39.9134 20.8292 39.8707C20.7786 39.7641 20.7135 39.6432 20.634 39.5081C20.5183 39.2948 20.3737 39.046 20.2581 38.7687C20.2291 38.6905 20.1351 38.5625 20.0484 38.4274C19.9038 38.2142 19.723 37.9511 19.5784 37.6241C19.4628 37.3539 19.3832 37.098 19.3109 36.8705C19.2531 36.6927 19.2025 36.5221 19.1519 36.4012C19.0579 36.1879 18.9784 35.9818 18.8916 35.7827C18.8049 35.5836 18.7326 35.3917 18.6458 35.221L18.4 34.6949C18.2915 34.4532 18.1903 34.2257 18.0819 34.0124C18.0457 33.9342 17.9373 33.7991 17.8433 33.6711C17.6842 33.4721 17.489 33.2232 17.33 32.9104C17.1564 32.5692 17.0697 32.2421 16.9974 31.9791C16.9757 31.8937 16.9468 31.7871 16.9251 31.7231C16.8817 31.6876 16.8311 31.6449 16.7877 31.6094C16.5419 31.4174 16.2021 31.1472 15.9635 30.7207C15.7249 30.3083 15.6599 29.8888 15.602 29.5902C15.5876 29.512 15.5731 29.4054 15.5587 29.3556C15.3996 29.0855 15.2984 28.8153 15.2116 28.5949C15.1682 28.4811 15.1249 28.3674 15.0815 28.2821C15.0381 28.2536 14.9875 28.2181 14.9441 28.1896C14.6694 28.0119 14.2934 27.7631 14.0115 27.3294C13.809 27.0237 13.6861 26.7109 13.5921 26.462C13.5415 26.334 13.4837 26.1776 13.4403 26.1279C13.3825 26.0426 13.2668 25.9288 13.1511 25.8079C12.9704 25.6231 12.7607 25.4169 12.5727 25.1467C12.3631 24.841 12.2257 24.5424 12.11 24.3007C12.0522 24.1727 11.9799 24.0163 11.9437 23.9594C11.7919 23.7533 11.6545 23.5471 11.5389 23.3693C11.4232 23.1916 11.3075 23.021 11.1991 22.8859C11.1484 22.8148 11.0183 22.7082 10.8882 22.6015C10.693 22.4309 10.4471 22.2247 10.223 21.9545L9.91937 21.5777C9.73862 21.3573 9.57234 21.1512 9.40605 20.9521C9.13855 20.6393 8.97949 20.3264 8.85658 20.0705C8.80597 19.9781 8.74813 19.8501 8.71198 19.8146C8.59631 19.6866 8.45171 19.5586 8.29265 19.4235C8.12637 19.2742 7.93839 19.1036 7.75041 18.9116C7.59136 18.741 7.44676 18.5846 7.30939 18.4211C7.15034 18.2433 7.00574 18.0727 6.86837 17.9376C6.76716 17.8381 6.61533 17.7243 6.45627 17.6035C6.2683 17.4613 6.05863 17.3049 5.84896 17.1129C5.55254 16.8285 5.35733 16.5299 5.19828 16.2953C5.16936 16.2455 5.13321 16.1958 5.10429 16.146C5.07537 16.146 5.04645 16.1389 5.01753 16.1318C4.66327 16.0678 4.12826 15.9754 3.68001 15.5915C3.59325 15.5204 3.51372 15.4493 3.44142 15.3782C1.352 19.26 0.101234 23.7035 1.63461e-05 28.4385C-0.296407 43.3402 10.8954 55.8246 25.5648 57.7442C25.5358 57.6447 25.5069 57.5451 25.4925 57.4385C25.3985 56.9195 25.5069 56.4716 25.5865 56.1659H25.5937Z" fill="white"/>
<path d="M22.9982 37.6739C23.0488 37.7947 23.1284 37.9369 23.2151 38.1004C23.3453 38.3351 23.4971 38.5981 23.6272 38.9109C23.8224 39.4157 23.7863 39.8921 23.7646 40.212C23.7646 40.2618 23.7574 40.3257 23.7574 40.3684L23.9092 40.7523C24.0032 40.994 24.1044 41.2429 24.1984 41.5059C24.2418 41.6126 24.3141 41.7619 24.3936 41.9183C24.5093 42.1529 24.6466 42.416 24.7551 42.7288C24.7479 42.7074 24.7406 42.7003 24.7406 42.7003C24.7623 42.7359 24.8418 42.8425 24.8924 42.9207C25.0732 43.1625 25.3118 43.4895 25.4564 43.9232C25.507 44.0796 25.5793 44.2502 25.6444 44.4351C25.7383 44.6768 25.8396 44.9256 25.9263 45.2029C26.0637 45.6508 26.0492 46.0703 26.042 46.3831C26.0348 46.4684 26.0348 46.5822 26.0348 46.6391C26.0781 46.7741 26.136 46.9234 26.1938 47.087C26.2806 47.3145 26.3818 47.5704 26.4613 47.8477L26.7288 48.8359L26.8011 49.1203C26.83 49.234 26.8879 49.3834 26.9602 49.5469C27.0542 49.7886 27.1699 50.0588 27.2494 50.3787C27.3217 50.6631 27.3578 50.9403 27.4012 51.1821C27.4301 51.3669 27.4518 51.5518 27.488 51.694C27.5675 52.0423 27.582 52.3694 27.5964 52.6395C27.5964 52.796 27.6109 52.9524 27.6326 53.0448C27.6687 53.2012 27.7193 53.3718 27.7772 53.5496C27.8495 53.7771 27.929 54.033 27.9868 54.3103C28.0013 54.353 28.0591 54.4454 28.0953 54.5165C28.2399 54.7653 28.4423 55.1137 28.5363 55.5616C28.6447 56.0806 28.5291 56.5427 28.4495 56.8484C28.4351 56.8911 28.4278 56.9408 28.4134 56.9906C28.4423 57.083 28.4712 57.1968 28.5146 57.3177C28.5869 57.5167 28.652 57.7371 28.7098 57.9859C28.7821 57.9859 28.8472 57.9931 28.9195 57.9931C37.6387 58.1637 45.5481 54.5876 51.0573 48.779C40.8198 41.0438 28.2543 38.3351 22.9187 37.489C22.9476 37.553 22.9765 37.6099 23.0055 37.6739H22.9982Z" fill="white"/>
<path d="M58.8149 29.576C58.8583 27.372 58.6414 25.2249 58.2076 23.156C58.0268 23.1844 57.8389 23.2129 57.6581 23.2484C57.152 23.3409 56.7038 23.6608 56.2266 23.7532C55.735 23.8527 55.265 24.002 54.7879 24.1087C54.2673 24.2296 53.7395 24.2438 53.2407 24.3717C52.7346 24.4997 52.1924 24.4571 51.708 24.5921C51.2163 24.7343 50.8042 25.1111 50.3415 25.2533C49.8282 25.4169 49.286 25.4524 48.8016 25.623C48.3027 25.7937 47.746 25.7723 47.2761 25.9501C46.8061 26.1349 46.4157 26.5117 45.9747 26.6966C45.4831 26.9028 44.9408 26.9596 44.4926 27.1729C43.9937 27.4075 43.625 27.8483 43.1767 28.0901C42.7068 28.3318 42.2441 28.5309 41.8175 28.7726C41.3548 29.0356 40.8487 29.2063 40.4366 29.4622C39.9811 29.7466 39.663 30.1874 39.2726 30.4647C38.8171 30.7846 38.4773 31.1898 38.0942 31.4884C37.6531 31.8368 37.1181 32.0003 36.7783 32.3132C36.4313 32.6189 36.0553 32.8393 35.7661 33.0668L35.1082 34.1119C34.9709 34.6024 34.9709 34.965 34.7612 34.6593L33.3369 36.9059C39.3088 38.7047 46.4663 41.6694 52.8286 46.5394C56.4797 41.8187 58.7065 35.9533 58.8294 29.5689L58.8149 29.576Z" fill="white"/>
</g>
<defs>
<clipPath id="clip0_1141_7682">
<rect width="168" height="58" fill="white"/>
</clipPath>
</defs>
</svg>
