<svg width="300" height="58" viewBox="0 0 300 58" fill="none" xmlns="http://www.w3.org/2000/svg">
<path d="M45.0024 27.6784C39.942 24.2515 33.4535 25.6491 30.0506 30.8012C27.2059 35.1053 22.9155 35.6374 21.2523 35.6374C15.8393 35.6374 12.1307 31.848 11.0317 27.924C11.0199 27.883 11.014 27.8538 11.0023 27.8129C10.9905 27.7661 10.9788 27.7251 10.967 27.6784C10.538 26.0409 10.4263 25.2573 10.4263 23.5205C10.4263 14.1404 20.1003 3.69591 34.0295 3.69591C47.9586 3.69591 56.4572 14.5029 58.5613 20.5088C58.526 20.4035 58.4907 20.2982 58.4555 20.1871C54.4119 8.44445 43.2157 0 30.0388 0C13.4531 0 0 13.3801 0 29.8889C0 44.6433 10.6967 57.2749 25.5309 57.2749C37.3619 57.2749 45.3197 50.6725 48.9636 41.5789C50.9678 36.6023 49.5455 30.7544 45.0024 27.6842V27.6784Z" fill="white"/>
<path d="M58.7552 21.0936C57.0037 15.2339 48.7755 3.70178 34.0353 3.70178C20.1003 3.70178 10.4321 14.1462 10.4321 23.5263C10.4321 25.2632 10.5379 26.0468 10.9728 27.6842C10.7906 26.9708 10.6966 26.2515 10.6966 25.5497C10.6966 15.7837 20.5293 9.01172 30.6324 9.01172C44.3147 9.01172 55.3992 20.0468 55.3992 33.655C55.3992 44.3275 49.2281 53.5614 40.2593 57.9942C51.8141 53.8363 60.0717 42.8246 60.0717 29.8889C60.0717 26.8304 59.6603 24.1287 58.7493 21.0936H58.7552Z" fill="white"/>
<path d="M94.6712 37.0701V39.7543H78.7791V37.0701H83.7747V29.1227H86.7957V37.0701H94.6712ZM90.1457 34.2456V21.959H79.69V19.2982H93.1373V34.2456H90.1457ZM99.5846 42.1695H96.5402V17.9707H99.5846V28.1695H102.711V31.0175H99.5846V42.1637V42.1695Z" fill="white"/>
<path d="M117.793 19.4912V22.0935H103.522V19.4912H109.124V17.4854H112.333V19.4912H117.793ZM104.533 33.9239H123.799V41.9532H120.778V36.5848H104.533V33.9298V33.9239ZM116.388 27.7134C116.388 28.421 116.235 29.0877 115.935 29.7193C115.636 30.3508 115.236 30.9064 114.742 31.3742C114.213 31.8245 113.608 32.193 112.932 32.4737C112.256 32.7544 111.521 32.8947 110.734 32.8947C109.946 32.8947 109.212 32.7544 108.524 32.4737C107.836 32.193 107.237 31.8245 106.726 31.3742C106.214 30.9064 105.809 30.3508 105.503 29.7193C105.203 29.0877 105.051 28.4152 105.051 27.7134C105.051 27.0117 105.203 26.345 105.503 25.7193C105.803 25.0935 106.214 24.5497 106.726 24.076C107.237 23.6257 107.836 23.2573 108.524 22.9766C109.212 22.6959 109.946 22.5555 110.734 22.5555C111.521 22.5555 112.25 22.6959 112.932 22.9766C113.608 23.2573 114.213 23.6257 114.742 24.076C115.236 24.5438 115.636 25.0935 115.935 25.7193C116.235 26.345 116.388 27.0058 116.388 27.7134ZM113.479 27.6842C113.479 26.959 113.208 26.3392 112.668 25.8245C112.127 25.3099 111.48 25.0526 110.734 25.0526C109.987 25.0526 109.341 25.3099 108.812 25.8245C108.283 26.3392 108.019 26.959 108.019 27.6842C108.019 28.4093 108.283 29.0292 108.812 29.5555C109.341 30.0818 109.982 30.345 110.734 30.345C111.486 30.345 112.127 30.0818 112.668 29.5555C113.208 29.0292 113.479 28.4093 113.479 27.6842ZM123.799 32.5672H120.778V17.9766H123.799V23.6432H127.314V26.5965H123.799V32.5614V32.5672Z" fill="white"/>
<path d="M141.043 38.9941H137.999V22.1754H128.613V19.4619H141.043V38.9882V38.9941ZM147.161 17.9707H150.206V42.1637H147.161V17.9707Z" fill="white"/>
<path d="M163.253 31.6959V29.8246H153.538V27.3567H176.042V29.8246H166.298V31.6959H174.232V37.8246H158.34V39.2866H174.561V41.7544H155.348V35.462H171.211V34.076H155.348V31.6901H163.253V31.6959ZM164.793 20.8187L156.23 26.8129L154.42 24.7252L164.793 17.5088L175.166 24.7252L173.356 26.8129L164.793 20.8187Z" fill="white"/>
<path d="M178.246 21.2573V18.6783H192.299V21.2573H186.316L192.546 28.7719L190.43 30.5087L185.381 24.2982L180.415 30.9181L178.217 29.1812L184.447 21.2631H178.246V21.2573ZM197.706 37.0117C197.706 37.8245 197.535 38.5906 197.2 39.3041C196.86 40.0175 196.407 40.6491 195.843 41.1871C195.273 41.731 194.603 42.1579 193.827 42.4736C193.051 42.7894 192.222 42.9473 191.341 42.9473C190.459 42.9473 189.66 42.7894 188.872 42.4736C188.085 42.1579 187.409 41.7251 186.839 41.1871C186.269 40.6432 185.816 40.0175 185.481 39.3041C185.14 38.5906 184.976 37.8245 184.976 37.0117C184.976 36.1988 185.146 35.4327 185.481 34.7193C185.822 34.0058 186.275 33.3742 186.839 32.8362C187.403 32.2924 188.085 31.8655 188.872 31.5497C189.66 31.2339 190.483 31.076 191.341 31.076C192.199 31.076 193.045 31.2339 193.827 31.5497C194.603 31.8655 195.279 32.2982 195.843 32.8362C196.407 33.3801 196.86 34.0058 197.2 34.7193C197.541 35.4327 197.706 36.1988 197.706 37.0117ZM194.714 36.9883C194.714 36.0818 194.379 35.304 193.715 34.6549C193.045 34.0058 192.246 33.6783 191.311 33.6783C190.377 33.6783 189.607 34.0058 188.949 34.6549C188.29 35.304 187.961 36.0818 187.961 36.9883C187.961 37.8947 188.29 38.69 188.949 39.3333C189.607 39.9766 190.395 40.2982 191.311 40.2982C192.228 40.2982 193.045 39.9766 193.715 39.3333C194.385 38.69 194.714 37.9064 194.714 36.9883ZM196.748 30.8011V25.5672H192.193V22.9649H196.748V17.9766H199.792V30.807H196.748V30.8011Z" fill="white"/>
<path d="M220.798 22.7193V19.0059H223.819V32.8363H215.884V37.7193H225.629V40.3743H203.125V37.7193H212.84V32.8363H204.935V19.0059H207.927V22.7193H220.798ZM220.798 30.2047V25.3216H207.927V30.2047H220.798Z" fill="white"/>
<path d="M229.725 28.035V18.2163H248.58V20.6549H232.746V21.9298H248.474V24.2923H232.746V25.6491H248.662V28.035H240.675V29.5789H250.419V32.0467H227.915V29.5789H237.63V28.035H229.725ZM245.147 37.9064C245.147 38.6315 244.994 39.3157 244.695 39.9532C244.395 40.5964 243.978 41.1578 243.449 41.6491C242.879 42.1344 242.238 42.5263 241.515 42.8128C240.792 43.0993 240.01 43.2455 239.17 43.2455C238.33 43.2455 237.571 43.0993 236.837 42.8128C236.102 42.5204 235.467 42.1344 234.915 41.6491C234.368 41.1637 233.939 40.5964 233.64 39.9532C233.34 39.3099 233.187 38.6315 233.187 37.9064C233.187 37.1812 233.34 36.4795 233.64 35.8479C233.939 35.2163 234.368 34.6432 234.915 34.1403C235.461 33.6549 236.102 33.2689 236.837 32.9882C237.566 32.7075 238.347 32.5672 239.17 32.5672C239.993 32.5672 240.792 32.7075 241.515 32.9882C242.238 33.2689 242.884 33.6549 243.449 34.1403C243.978 34.6491 244.395 35.2163 244.695 35.8479C244.994 36.4795 245.147 37.1695 245.147 37.9064ZM242.126 37.883C242.126 37.0877 241.832 36.4093 241.251 35.8479C240.663 35.2865 239.969 35.0058 239.164 35.0058C238.359 35.0058 237.66 35.2865 237.066 35.8479C236.472 36.4093 236.173 37.0877 236.173 37.883C236.173 38.6783 236.472 39.3625 237.066 39.9298C237.66 40.497 238.359 40.7836 239.164 40.7836C239.969 40.7836 240.663 40.497 241.251 39.9298C241.838 39.3625 242.126 38.6783 242.126 37.883Z" fill="white"/>
<path d="M260.058 17.8362L267.769 30.1754L265.301 31.6958L260.058 23.0175L254.845 31.8888L252.318 30.3683L260.058 17.8362ZM254.322 41.6783V33.5964H257.343V39.0233H274.387V41.6783H254.328H254.322ZM271.119 33.4619V17.9765H274.163V33.4619H271.119Z" fill="white"/>
<path d="M277.49 33.269H299.994V35.924H290.25V42.1638H287.205V35.924H277.49V33.269ZM282.298 21.4445H295.169V18.3801H298.19V30.0176H279.306V18.3801H282.298V21.4445ZM295.169 24.0468H282.298V27.3801H295.169V24.0468Z" fill="white"/>
</svg>
