<svg width="244" height="58" viewBox="0 0 244 58" fill="none" xmlns="http://www.w3.org/2000/svg">
<g id="_&#229;&#175;&#131;&#226;&#145;&#184;&#226;&#148;&#129;_&#239;&#167;&#143;&#226;&#145;&#164;&#235;&#177;&#182;" clip-path="url(#clip0_1141_7671)">
<g id="Group">
<path id="Vector" d="M45.2444 27.682C40.149 24.2544 33.6326 25.6477 30.2026 30.8021C27.3542 35.1061 23.0386 35.6425 21.3731 35.6425C15.9208 35.6425 12.2 31.8486 11.0963 27.924C11.0831 27.8782 11.0765 27.8455 11.0633 27.8128C11.0501 27.767 11.0434 27.7278 11.0302 27.682C10.594 26.0401 10.4883 25.2618 10.4883 23.5218C10.4883 14.1484 20.2166 3.70227 34.2142 3.70227C48.2118 3.70227 56.7637 14.5082 58.8852 20.5129C58.8455 20.4017 58.8058 20.2971 58.7728 20.1924C54.7017 8.44457 43.4468 0 30.1894 0C13.5218 0 0 13.3766 0 29.8863C0 44.6431 10.7527 57.2739 25.6689 57.2739C37.5583 57.2739 45.555 50.674 49.2164 41.5753C51.2321 36.5975 49.8112 30.7497 45.2444 27.682Z" fill="white"/>
<path id="Vector_2" d="M59.0636 21.0886C57.2924 15.2278 49.0313 3.6958 34.2076 3.6958C20.21 3.6958 10.4817 14.1419 10.4817 23.5154C10.4817 25.2553 10.594 26.0337 11.0236 27.6755C10.8452 26.956 10.746 26.243 10.746 25.5431C10.746 15.7707 20.6263 9.00718 30.7842 9.00718C44.5373 9.00718 55.6865 20.042 55.6865 33.6475C55.6865 44.3161 49.4807 53.5521 40.4728 57.987C52.0912 53.8334 60.3854 42.8182 60.3854 29.8799C60.3854 26.8186 59.969 24.1171 59.057 21.0821L59.0636 21.0886Z" fill="white"/>
</g>
<g id="Group_2">
<path id="Vector_3" d="M93.2778 41.7521H89.2199V19.2114H76.6697V15.6007H93.2778V41.7455V41.7521ZM101.473 13.5991H105.531V45.9907H101.473V13.5991Z" fill="white"/>
<path id="Vector_4" d="M131.722 15.9408V19.2898H127.849C128.926 20.5326 129.468 21.8801 129.468 23.3453C129.468 24.2611 129.263 25.1245 128.847 25.9291C128.437 26.7336 127.875 27.4466 127.175 28.068C126.197 28.9118 125.08 29.4809 123.831 29.7752V31.3778H132.739V34.7268H110.983V31.3778H119.779V29.8145C118.398 29.4416 117.261 28.8595 116.356 28.068C115.656 27.4466 115.094 26.7336 114.684 25.9291C114.268 25.1245 114.063 24.2611 114.063 23.3453C114.063 21.9063 114.605 20.5523 115.682 19.2898H111.657V15.9408H119.548V12.7422H123.943V15.9408H131.722ZM139.381 36.8789V46.0626H135.324V40.1887H112.999V36.8789H139.381ZM125.483 23.2341C125.483 22.266 125.119 21.4288 124.392 20.7223C123.665 20.0159 122.787 19.6627 121.762 19.6627C120.738 19.6627 119.859 20.0159 119.132 20.7223C118.405 21.4288 118.041 22.266 118.041 23.2341C118.041 24.2022 118.405 25.0395 119.132 25.7459C119.859 26.4523 120.738 26.8056 121.762 26.8056C122.787 26.8056 123.665 26.4523 124.392 25.7459C125.119 25.0395 125.483 24.2022 125.483 23.2341ZM135.324 13.5991H139.381V35.0212H135.324V13.5991Z" fill="white"/>
<path id="Vector_5" d="M145.058 19.1394V15.6072H161.065V19.1394H154.45L161.779 40.8232L158.322 41.8632L153.214 26.315L148.065 42.1249L144.457 41.0456L151.859 19.1394H145.058ZM170.84 13.5991H174.746V45.9907H170.84V30.7826H167.079V45.8075H163.286V13.6384H167.079V27.0607H170.84V13.5991Z" fill="white"/>
<path id="Vector_6" d="M179.557 17.9882V14.528H198.346V17.9882H190.342L198.683 28.0681L195.828 30.3705L189.14 22.1156L182.491 30.9265L179.524 28.5456L187.824 17.9817H179.557V17.9882ZM205.556 39.1094C205.556 40.2018 205.331 41.2222 204.882 42.1772C204.433 43.1322 203.831 43.9695 203.078 44.689C202.304 45.4085 201.392 45.9776 200.355 46.4028C199.317 46.8214 198.22 47.0373 197.07 47.0373C195.92 47.0373 194.817 46.8279 193.766 46.4028C192.715 45.9841 191.796 45.4085 191.023 44.689C190.27 43.9695 189.668 43.1322 189.219 42.1772C188.769 41.2222 188.545 40.2018 188.545 39.1094C188.545 38.0171 188.769 36.9901 189.219 36.022C189.668 35.054 190.27 34.2102 191.023 33.4906C191.803 32.7711 192.715 32.202 193.766 31.7769C194.817 31.3582 195.92 31.1424 197.07 31.1424C198.22 31.1424 199.317 31.3517 200.355 31.7769C201.392 32.202 202.304 32.7711 203.078 33.4906C203.831 34.2102 204.433 35.054 204.882 36.022C205.331 36.9901 205.556 38.0171 205.556 39.1094ZM201.571 39.0767C201.571 37.8601 201.122 36.8135 200.216 35.937C199.317 35.0605 198.247 34.6157 197.024 34.6157C195.801 34.6157 194.737 35.054 193.852 35.937C192.96 36.8201 192.517 37.8666 192.517 39.0767C192.517 40.2868 192.96 41.3334 193.852 42.2034C194.737 43.0734 195.801 43.5051 197.024 43.5051C198.247 43.5051 199.317 43.0734 200.216 42.2034C201.115 41.3334 201.571 40.2934 201.571 39.0767ZM204.281 30.7826V23.7509H198.194V20.2972H204.281V13.5991H208.338V30.7826H204.281Z" fill="white"/>
<path id="Vector_7" d="M213.936 34.0924H244V37.6638H231V45.9907H226.903V37.6638H213.936V34.0924ZM220.36 18.2498H237.57V14.1616H241.588V29.7491H216.335V14.1616H220.36V18.2498ZM237.576 21.7428H220.367V26.2038H237.576V21.7428Z" fill="white"/>
</g>
</g>
<defs>
<clipPath id="clip0_1141_7671">
<rect width="244" height="58" fill="white"/>
</clipPath>
</defs>
</svg>
