<svg width="242" height="58" viewBox="0 0 242 58" fill="none" xmlns="http://www.w3.org/2000/svg">
<g id="&#236;&#158;&#144;&#236;&#130;&#176; 1 2" clip-path="url(#clip0_1141_7640)">
<g id="Layer 1">
<g id="Group">
<g id="Group_2">
<path id="Vector" d="M44.0653 27.68C39.111 24.2572 32.7602 25.6532 29.4267 30.799C26.6449 35.0979 22.4436 35.6352 20.8113 35.6352C15.5122 35.6352 11.8799 31.8445 10.8051 27.9194C10.7936 27.8785 10.7879 27.8493 10.7764 27.8085C10.7649 27.7617 10.7534 27.7208 10.7419 27.6741C10.3223 26.0387 10.2131 25.256 10.2131 23.5154C10.2131 14.1349 19.6791 3.69144 33.3234 3.69144C46.9677 3.69144 55.2785 14.4971 57.3418 20.5015C57.3073 20.3964 57.2728 20.2912 57.2383 20.1803C53.2726 8.44592 42.3124 0 29.4094 0C13.173 0 0 13.3815 0 29.8878C0 44.6419 10.4718 57.2757 24.9954 57.2757C36.5822 57.2757 44.3642 50.6755 47.9391 41.5754C49.8989 36.599 48.5081 30.7523 44.0596 27.68H44.0653Z" fill="white"/>
<path id="Vector_2" d="M57.5257 21.0914C55.8073 15.233 47.7551 3.69727 33.3234 3.69727C19.6791 3.69727 10.2131 14.1408 10.2131 23.5212C10.2131 25.2618 10.3166 26.0445 10.7419 27.6799C10.5637 26.9615 10.4718 26.2489 10.4718 25.548C10.4718 15.7821 20.0987 9.01247 29.9899 9.01247C43.3814 9.01247 54.2382 20.0459 54.2382 33.6552C54.2382 44.3265 48.1977 53.5551 39.4157 57.9941C50.7323 53.8354 58.8131 42.8254 58.8131 29.8878C58.8131 26.8272 58.4108 24.1287 57.52 21.0914H57.5257Z" fill="white"/>
</g>
<g id="Group_3">
<path id="Vector_3" d="M79.6646 17.8615L86.9121 29.6192L84.5959 31.1203L79.6704 22.9255L74.8253 31.3364L72.4517 29.8119L79.6704 17.8673L79.6646 17.8615ZM76.8427 33.4216V38.7777H92.6538V41.4002H73.9172V33.4216H76.8427ZM92.0445 33.2872H89.1479V17.9958H92.0445V23.4862H95.4183V26.4067H92.0445V33.2872Z" fill="white"/>
<path id="Vector_4" d="M109.884 23.9711C109.884 24.7596 109.729 25.4955 109.407 26.1789C109.091 26.8682 108.672 27.4698 108.143 27.9838C107.597 28.5036 106.965 28.9125 106.246 29.2162C105.528 29.5199 104.764 29.6718 103.953 29.6718C103.143 29.6718 102.384 29.5199 101.66 29.2162C100.942 28.9125 100.309 28.5036 99.7633 27.9838C99.2346 27.4698 98.815 26.8623 98.4989 26.1789C98.1828 25.4897 98.0219 24.7538 98.0219 23.9711C98.0219 23.1884 98.1828 22.4466 98.4989 21.7457C98.815 21.0506 99.2346 20.4549 99.7633 19.9525C100.309 19.4152 100.942 19.0005 101.66 18.6909C102.378 18.3872 103.143 18.2353 103.953 18.2353C104.764 18.2353 105.528 18.3872 106.246 18.6909C106.965 18.9946 107.597 19.4152 108.143 19.9525C108.672 20.4549 109.091 21.0506 109.407 21.7457C109.724 22.4408 109.884 23.1826 109.884 23.9711ZM99.7403 31.0093H102.614V33.3632H115.339V31.0093H118.212V41.4003H99.7403V31.0093ZM107.091 23.9711C107.091 23.0949 106.781 22.3473 106.166 21.7223C105.551 21.0974 104.815 20.7878 103.953 20.7878C103.091 20.7878 102.361 21.1032 101.752 21.7223C101.148 22.3473 100.844 23.0949 100.844 23.9711C100.844 24.8472 101.148 25.589 101.752 26.2081C102.355 26.8214 103.091 27.131 103.953 27.131C104.815 27.131 105.551 26.8214 106.166 26.2081C106.781 25.589 107.091 24.8472 107.091 23.9711ZM115.339 35.6996H102.614V38.9938H115.339V35.6996ZM115.287 17.9958H118.212V29.3505H115.287V24.853H111.31V22.2539H115.287V17.9958Z" fill="white"/>
<path id="Vector_5" d="M143.823 31.6518H122.218V29.2162H131.575V27.6625H123.96V18.2645H142.064V20.7002H126.811V21.88H142.064V24.0996H126.811V25.3028H142.122V27.6625H134.455V29.2162H143.834V31.6518H143.823ZM138.794 37.5161C138.794 38.2637 138.639 38.9705 138.334 39.6305C138.024 40.2905 137.616 40.8629 137.11 41.3419C136.581 41.8442 135.978 42.2414 135.294 42.5334C134.61 42.8255 133.868 42.9773 133.081 42.9773C132.294 42.9773 131.546 42.8313 130.857 42.5334C130.161 42.2414 129.552 41.8442 129.023 41.3419C128.512 40.8571 128.104 40.2905 127.799 39.6305C127.489 38.9705 127.339 38.2637 127.339 37.5161C127.339 36.7685 127.495 36.0675 127.799 35.4134C128.104 34.7592 128.512 34.1926 129.023 33.7137C129.552 33.2114 130.161 32.8142 130.857 32.5221C131.552 32.2301 132.294 32.0782 133.081 32.0782C133.868 32.0782 134.61 32.2242 135.294 32.5221C135.978 32.8142 136.587 33.2114 137.11 33.7137C137.621 34.1985 138.029 34.7592 138.334 35.4134C138.639 36.0675 138.794 36.7685 138.794 37.5161ZM135.972 37.4927C135.972 36.6867 135.69 35.9975 135.127 35.4192C134.564 34.841 133.88 34.5489 133.069 34.5489C132.259 34.5489 131.569 34.841 131 35.4192C130.426 35.9975 130.144 36.6925 130.144 37.4927C130.144 38.2929 130.431 38.9822 131 39.5546C131.569 40.127 132.259 40.4132 133.069 40.4132C133.88 40.4132 134.564 40.127 135.127 39.5546C135.69 38.9822 135.972 38.2988 135.972 37.4927Z" fill="white"/>
<path id="Vector_6" d="M157.944 29.8061L153.042 22.5517L148.168 29.9988L145.823 28.4218L153.042 17.7096L160.289 28.1823L157.944 29.8178V29.8061ZM164.427 36.7976C164.427 37.6037 164.266 38.3571 163.939 39.058C163.611 39.7648 163.186 40.3839 162.657 40.9213C162.094 41.4586 161.444 41.8792 160.697 42.1946C159.95 42.5042 159.163 42.6619 158.335 42.6619C157.507 42.6619 156.72 42.5042 155.961 42.1946C155.208 41.8792 154.548 41.4586 153.984 40.9213C153.438 40.3839 153.007 39.7648 152.68 39.058C152.352 38.3513 152.191 37.5978 152.191 36.7976C152.191 35.9974 152.352 35.2381 152.68 34.5372C153.001 33.8304 153.438 33.2113 153.984 32.6739C154.548 32.1366 155.203 31.716 155.961 31.4006C156.714 31.0911 157.507 30.9334 158.335 30.9334C159.163 30.9334 159.944 31.0911 160.697 31.4006C161.444 31.7102 162.1 32.1366 162.657 32.6739C163.186 33.2113 163.611 33.8304 163.939 34.5372C164.261 35.2439 164.427 35.9974 164.427 36.7976ZM161.577 36.7684C161.577 35.8748 161.255 35.1096 160.6 34.4671C159.95 33.8246 159.186 33.5034 158.306 33.5034C157.427 33.5034 156.668 33.8246 156.03 34.4671C155.387 35.1096 155.071 35.8806 155.071 36.7684C155.071 37.6562 155.392 38.4506 156.03 39.0872C156.674 39.7181 157.433 40.0393 158.306 40.0393C159.18 40.0393 159.95 39.7239 160.6 39.0872C161.249 38.4564 161.577 37.6796 161.577 36.7684ZM165.611 22.2538H168.985V25.1742H165.611V30.2383H162.715V18.0016H165.611V22.2596V22.2538Z" fill="white"/>
<path id="Vector_7" d="M170.801 22.0962V19.4736H184.819V22.0962H178.917L185.451 37.7088L182.894 38.8361L177.859 26.6228L172.905 39.023L170.272 37.9016L176.807 22.102H170.801V22.0962ZM190.222 41.8851H187.325V17.9958H190.222V27.2595H193.595V30.2325H190.222V41.8792V41.8851Z" fill="white"/>
<path id="Vector_8" d="M204.82 31.7628V34.9753H201.923V31.7628H195.521V29.2979H211.2V31.7628H204.826H204.82ZM199.918 33.848V38.8302H216.706V41.4002H196.998V33.848H199.923H199.918ZM208.797 23.0598C208.797 23.79 208.642 24.485 208.337 25.1334C208.027 25.7875 207.619 26.3599 207.108 26.8623C206.596 27.3471 206.004 27.7267 205.314 28.0129C204.63 28.2991 203.9 28.4393 203.125 28.4393C202.349 28.4393 201.624 28.2991 200.935 28.0129C200.251 27.7267 199.642 27.3412 199.119 26.8623C198.624 26.3599 198.228 25.7875 197.923 25.1334C197.613 24.4792 197.458 23.79 197.458 23.0598C197.458 22.3297 197.613 21.6405 197.923 20.998C198.228 20.3555 198.63 19.7831 199.119 19.2866C199.647 18.7843 200.251 18.3988 200.935 18.1243C201.619 17.8498 202.349 17.7096 203.125 17.7096C203.9 17.7096 204.625 17.8498 205.314 18.1243C205.998 18.3988 206.596 18.7902 207.108 19.2866C207.619 19.789 208.027 20.3555 208.337 20.998C208.642 21.6405 208.797 22.3297 208.797 23.0598ZM206.033 23.0832C206.033 22.2772 205.751 21.5996 205.188 21.0331C204.625 20.4723 203.941 20.192 203.13 20.192C202.32 20.192 201.636 20.4723 201.073 21.0331C200.509 21.5938 200.228 22.2772 200.228 23.0832C200.228 23.8893 200.509 24.5668 201.073 25.1334C201.636 25.6941 202.32 25.9744 203.13 25.9744C203.941 25.9744 204.625 25.6941 205.188 25.1334C205.751 24.5726 206.033 23.8893 206.033 23.0832ZM213.171 27.2069H209.826V24.7712H213.171V17.9958H216.068V35.2439H213.171V27.2127V27.2069Z" fill="white"/>
<path id="Vector_9" d="M220.39 33.0829H241.994V35.7054H232.637V41.8617H229.712V35.7054H220.384V33.0829H220.39ZM225.005 21.4069H237.362V18.3813H240.259V29.8704H222.131V18.3813H225.005V21.4069ZM237.362 23.9769H225.005V27.2712H237.362V23.9769Z" fill="white"/>
</g>
</g>
</g>
</g>
<defs>
<clipPath id="clip0_1141_7640">
<rect width="242" height="58" fill="white"/>
</clipPath>
</defs>
</svg>
