<svg width="40" height="40" viewBox="0 0 40 40" fill="none" xmlns="http://www.w3.org/2000/svg">
<g id="ic">
<g id="Group 34641">
<path id="Vector" d="M25.7347 13.6388C26.5358 13.6388 27.0117 12.7439 26.5638 12.0797L24.6355 9.22018C24.239 8.63219 23.3734 8.63233 22.9771 9.22044L21.0502 12.08C20.6026 12.7442 21.0785 13.6388 21.8795 13.6388H22.1435V19.32C22.1435 19.8723 22.5912 20.32 23.1435 20.32H24.4714C25.0237 20.32 25.4714 19.8723 25.4714 19.32V13.6388H25.7347Z" stroke="#E60024" stroke-width="1.5" stroke-miterlimit="10"/>
<path id="Vector_2" d="M30.7092 22.1849V32.7052C30.7092 33.8097 29.8137 34.7052 28.7092 34.7052H4C2.89543 34.7052 2 33.8097 2 32.7052V13.3066H14.608C14.5849 13.5617 14.5734 13.8168 14.5734 14.0765C14.5734 16.5842 15.6386 18.8527 17.3472 20.4607C18.3641 21.4173 19.6069 22.1416 20.9903 22.5448C21.7904 22.7771 22.6343 22.9024 23.5105 22.9024C25.7102 22.9024 27.7278 22.112 29.2888 20.8047C29.7638 21.2647 30.2365 21.7248 30.7092 22.1849Z" stroke="black" stroke-width="1.5" stroke-miterlimit="10"/>
<path id="Vector_3" d="M15.8877 9.47461C15.4334 10.2035 15.0853 11.0029 14.8616 11.8502C14.7371 12.3217 14.6518 12.8091 14.608 13.3056H2V11.4746C2 10.37 2.89543 9.47461 4 9.47461H15.8877Z" stroke="black" stroke-width="1.5" stroke-miterlimit="10"/>
<path id="Vector_4" d="M14.0689 19.168H12.4258C11.8735 19.168 11.4258 19.6157 11.4258 20.168V30.4855C11.4258 31.0378 11.8735 31.4855 12.4258 31.4855H14.0689C14.6212 31.4855 15.0689 31.0378 15.0689 30.4855V20.168C15.0689 19.6157 14.6212 19.168 14.0689 19.168Z" stroke="black" stroke-width="1.5" stroke-miterlimit="10"/>
<path id="Vector_5" d="M20.9905 22.543V30.4828C20.9905 31.0351 20.5428 31.4828 19.9905 31.4828H18.3474C17.7951 31.4828 17.3474 31.0351 17.3474 30.4828V20.459C18.3643 21.4156 19.6071 22.1399 20.9905 22.543Z" stroke="black" stroke-width="1.5" stroke-miterlimit="10"/>
<path id="Vector_6" d="M8.14703 22.082H6.50391C5.95162 22.082 5.50391 22.5297 5.50391 23.082V30.4842C5.50391 31.0364 5.95162 31.4842 6.50391 31.4842H8.14702C8.69931 31.4842 9.14702 31.0364 9.14702 30.4842V23.082C9.14702 22.5297 8.69931 22.082 8.14703 22.082Z" stroke="black" stroke-width="1.5" stroke-miterlimit="10"/>
<path id="Vector_7" d="M38.0003 26.2696C38.0026 26.8595 37.4423 27.3014 36.9119 27.2991C36.3839 27.2991 35.8997 26.9825 35.4639 26.6454C34.6592 26.0213 33.9167 25.3016 33.1766 24.5819C32.3557 23.7824 31.5326 22.983 30.7094 22.1835C30.2367 21.7234 29.7641 21.2633 29.2891 20.8032C29.8194 20.3568 30.2967 19.8512 30.7094 19.2954C30.7855 19.1952 30.857 19.0927 30.9285 18.9902C33.1581 20.9262 35.3094 22.9738 37.3731 25.1239C37.6752 25.4383 37.9957 25.8095 38.0003 26.2696Z" stroke="black" stroke-width="1.5" stroke-miterlimit="10"/>
<path id="Vector_8" d="M32.4462 14.0759C32.4462 15.8935 31.8859 17.5857 30.9291 18.9911C30.8576 19.0935 30.7861 19.196 30.71 19.2963C30.2973 19.852 29.82 20.3576 29.2896 20.8041C27.7286 22.1114 25.7111 22.9018 23.5114 22.9018C22.6352 22.9018 21.7913 22.7765 20.9912 22.5442C19.6077 22.141 18.3649 21.4168 17.3481 20.4601C15.6395 18.8521 14.5742 16.5836 14.5742 14.0759C14.5742 13.8162 14.5857 13.5611 14.6088 13.306C14.6526 12.8095 14.7379 12.3221 14.8624 11.8506C15.0861 11.0033 15.4343 10.2039 15.8885 9.47504C17.4587 6.94229 20.2902 5.25 23.5114 5.25C28.4365 5.25 32.4462 9.20855 32.4462 14.0759Z" stroke="black" stroke-width="1.5" stroke-miterlimit="10"/>
<g id="Group" opacity="0.13">
<path id="Vector_9" d="M24.7039 22.8945C24.7039 22.8945 24.6875 22.8945 24.6428 22.9016C24.6499 22.9016 24.6569 22.9016 24.664 22.8992C24.6781 22.8992 24.6898 22.8945 24.7039 22.8945Z" stroke="black" stroke-width="1.5" stroke-miterlimit="10"/>
</g>
</g>
</g>
</svg>
