<svg width="50" height="50" viewBox="0 0 50 50" fill="none" xmlns="http://www.w3.org/2000/svg">
<path d="M29.0703 26.377V33.5737C29.0703 33.9896 28.592 34.2237 28.2635 33.9685L25.3006 31.6668L22.3339 33.9692C22.0054 34.2242 21.5273 33.9901 21.5273 33.5742V26.377C22.5425 27.2616 23.8559 27.796 25.3006 27.796C26.7453 27.796 28.0551 27.2616 29.0703 26.377Z" fill="white" stroke="#1D1D1D" stroke-width="2" stroke-miterlimit="10"/>
<path d="M31.0966 21.9001C31.0966 23.6911 30.3121 25.2979 29.0698 26.3775C28.0546 27.2622 26.7412 27.7966 25.3001 27.7966C23.8589 27.7966 22.542 27.2622 21.5268 26.3775C20.2845 25.2979 19.5 23.6911 19.5 21.9001C19.5 18.6395 22.0948 16 25.3001 16C28.5054 16 31.0966 18.6395 31.0966 21.9001Z" fill="white" stroke="#1D1D1D" stroke-width="2" stroke-miterlimit="10"/>
<path d="M24.1369 24.6074C23.9387 24.6074 23.7366 24.5374 23.5841 24.3973L22.398 23.308C22.0762 23.0125 22.0762 22.5049 22.398 22.2094C22.6829 21.9477 23.1207 21.9473 23.4061 22.2086L24.1369 22.8777L27.1938 20.0704C27.4789 19.8086 27.917 19.8086 28.2021 20.0704C28.5236 20.3657 28.5236 20.8729 28.2021 21.1683L24.686 24.3973C24.5335 24.5374 24.3352 24.6074 24.1331 24.6074H24.1369Z" fill="#E60024"/>
<path d="M8.5 23.75C8.5 14.9128 16.0738 7.75 25.4099 7.75C32.8033 7.75 39.082 12.2306 41.3853 18.4787" stroke="#1D1D1D" stroke-width="2" stroke-linecap="round" stroke-linejoin="round"/>
<path d="M42.5005 11.5471L41.4185 18.4929L34.0742 17.4696" stroke="#1D1D1D" stroke-width="2" stroke-linecap="round" stroke-linejoin="round"/>
<path d="M42.4998 26.375C42.4998 35.2122 34.926 42.375 25.5818 42.375C18.1884 42.375 11.9097 37.8944 9.60645 31.6463" stroke="#E60024" stroke-width="2" stroke-linecap="round" stroke-linejoin="round"/>
<path d="M8.5 38.569L9.58196 31.6233L16.918 32.6465" stroke="#E60024" stroke-width="2" stroke-linecap="round" stroke-linejoin="round"/>
</svg>
