<svg width="50" height="50" viewBox="0 0 50 50" fill="none" xmlns="http://www.w3.org/2000/svg">
<path d="M23.5069 30.1643C24.385 30.1643 25.4935 29.5793 25.4935 28.7012V26.9415C25.4935 25.8688 24.6239 24.9992 23.5512 24.9992H21.7914C20.9133 24.9992 20.3283 23.8907 20.3283 23.0126C20.3283 21.1693 18.8368 19.6777 16.9935 19.6777C15.1502 19.6777 13.6586 21.1693 13.6586 23.0126C13.6586 23.8907 13.0736 24.9992 12.1955 24.9992H10.4401C9.36862 24.9992 8.5 25.8678 8.5 26.9393V38.9992C8.5 40.656 9.84315 41.9992 11.5 41.9992H23.5577C24.6304 41.9992 25.5 41.1296 25.5 40.0569V38.2971C25.5 37.419 24.3915 36.8341 23.5134 36.8341C21.6701 36.8341 20.1785 35.3425 20.1785 33.4992C20.1785 31.6559 21.6701 30.1643 23.5134 30.1643H23.5069Z" fill="white" stroke="#1D1D1D" stroke-width="2" stroke-linecap="round" stroke-linejoin="round"/>
<path d="M42.5 11C42.5 9.34315 41.1568 8 39.5 8H27.4423C26.3696 8 25.5 8.86959 25.5 9.94229V11.7021C25.5 12.5802 26.6085 13.1651 27.4866 13.1651C29.3299 13.1651 30.8215 14.6567 30.8215 16.5C30.8215 18.3433 29.3299 19.8349 27.4866 19.8349C26.6085 19.8349 25.5 20.4198 25.5 21.2979V23.0577C25.5 24.1304 26.3696 25 27.4423 25H29.2021C30.0802 25 30.6651 26.1085 30.6651 26.9866C30.6651 28.8299 32.1567 30.3215 34 30.3215C35.8433 30.3215 37.3349 28.8299 37.3349 26.9866C37.3349 26.1085 37.9198 25 38.7979 25H40.5577C41.6304 25 42.5 24.1304 42.5 23.0577V11Z" fill="white" stroke="#1D1D1D" stroke-width="2" stroke-linecap="round" stroke-linejoin="round"/>
<path d="M27.4866 13.1651C26.6085 13.1651 25.5 12.5802 25.5 11.7021V9.94229C25.5 8.86959 24.6304 8 23.5577 8H11.5C9.84315 8 8.5 9.34315 8.5 11V23.0577C8.5 24.1304 9.36959 25 10.4423 25H12.2021C13.0802 25 13.6651 23.8915 13.6651 23.0134C13.6651 21.1701 15.1567 19.6785 17 19.6785C18.8433 19.6785 20.3349 21.1701 20.3349 23.0134C20.3349 23.8915 20.9198 25 21.7979 25H23.5577C24.6304 25 25.5 24.1304 25.5 23.0577V21.2979C25.5 20.4198 26.6085 19.8349 27.4866 19.8349C29.3299 19.8349 30.8215 18.3433 30.8215 16.5C30.8215 14.6567 29.3299 13.1651 27.4866 13.1651Z" fill="white" stroke="#1D1D1D" stroke-width="2" stroke-linecap="round" stroke-linejoin="round"/>
<path d="M38.7979 25C37.9198 25 37.3348 26.1085 37.3348 26.9866C37.3348 28.8299 35.8432 30.3215 33.9999 30.3215C32.1566 30.3215 30.6651 28.8299 30.6651 26.9866C30.6651 26.1085 30.0801 25 29.202 25H27.4422C26.3695 25 25.4999 25.8696 25.4999 26.9423V28.7021C25.4999 29.5802 24.3914 30.1651 23.5133 30.1651C21.67 30.1651 20.1785 31.6567 20.1785 33.5C20.1785 35.3433 21.67 36.8349 23.5133 36.8349C24.3914 36.8349 25.4999 37.4198 25.4999 38.2979V40.0577C25.4999 41.1304 26.3695 42 27.4422 42H39.4999C41.1568 42 42.4999 40.6568 42.4999 39V26.9423C42.4999 25.8696 41.6303 25 40.5576 25H38.7979Z" fill="white" stroke="#E60024" stroke-width="2" stroke-linecap="round" stroke-linejoin="round"/>
</svg>
