<svg width="50" height="50" viewBox="0 0 50 50" fill="none" xmlns="http://www.w3.org/2000/svg">
<path d="M5.50098 37.258L11.1716 31.3073C12.2476 30.1782 13.7067 29.5441 15.2287 29.5441H19.5432C20.7697 29.5441 21.9467 30.0551 22.814 30.9662C23.5536 31.7423 24.5571 32.1784 25.6036 32.1784H30.2459C31.1951 32.1784 32.0119 32.7735 32.375 33.6276L32.3997 33.6876L40.5874 26.4977C41.5337 25.6666 42.929 25.7316 43.802 26.6477C44.7331 27.6248 44.7331 29.208 43.802 30.1852L31.8346 42.7437C31.1617 43.4497 30.2497 43.8458 29.2985 43.8458H16.9718C16.401 43.8458 15.8539 44.0838 15.4508 44.5069L14.1089 45.915" fill="white"/>
<path d="M5.50098 37.258L11.1716 31.3073C12.2476 30.1782 13.7067 29.5441 15.2287 29.5441H19.5432C20.7697 29.5441 21.9467 30.0551 22.814 30.9662C23.5536 31.7423 24.5571 32.1784 25.6036 32.1784H30.2459C31.1951 32.1784 32.0119 32.7735 32.375 33.6276L32.3998 33.6876L40.5874 26.4977C41.5337 25.6666 42.929 25.7316 43.802 26.6477C44.7331 27.6248 44.7331 29.208 43.802 30.1852L31.8346 42.7437C31.1617 43.4497 30.2497 43.8458 29.2985 43.8458H16.9718C16.401 43.8458 15.8539 44.0838 15.4508 44.5069L14.1089 45.915" stroke="#1D1D1D" stroke-width="2" stroke-linecap="round" stroke-linejoin="round"/>
<path d="M32.4436 33.8074C32.5294 34.0624 32.5761 34.3374 32.5761 34.6235C32.5761 35.9746 31.5325 37.0698 30.2449 37.0698H20.3828" stroke="#1D1D1D" stroke-width="2" stroke-linecap="round" stroke-linejoin="round"/>
<path d="M29.1816 6.57821C28.8072 6.20777 28.3017 6 27.775 6H18C16.8954 6 16 6.89543 16 8V24C16 25.1046 16.8954 26 18 26H31C32.1046 26 33 25.1046 33 24V11.1905C33 10.6563 32.7863 10.1444 32.4066 9.76871L29.1816 6.57821Z" fill="white" stroke="#E60024" stroke-width="1.5" stroke-linecap="round" stroke-linejoin="round"/>
<path d="M28.5 10H32.5L28.5 6V10Z" fill="white" stroke="#E60024" stroke-width="1.5" stroke-linecap="round" stroke-linejoin="round"/>
<path d="M19.5 17H29.5" stroke="#1D1D1D" stroke-width="1.5" stroke-linecap="round" stroke-linejoin="round"/>
<path d="M19.5 21H29.5" stroke="#1D1D1D" stroke-width="1.5" stroke-linecap="round" stroke-linejoin="round"/>
<path d="M19.5 13H29.5" stroke="#1D1D1D" stroke-width="1.5" stroke-linecap="round" stroke-linejoin="round"/>
</svg>
