<svg width="80" height="80" viewBox="0 0 80 80" fill="none" xmlns="http://www.w3.org/2000/svg">
<path d="M22.75 36.5434L28.3787 33.0869H52.1046L57.7333 36.5434V43.257H22.7584L22.75 36.5434Z" fill="white" stroke="#1D1D1D" stroke-width="2" stroke-linecap="round" stroke-linejoin="round"/>
<path d="M53.0482 51.8729V20H35.3937L27.4434 27.9101V51.8729" fill="white"/>
<path d="M53.0482 51.8729V20H35.3937L27.4434 27.9101V51.8729" stroke="#1D1D1D" stroke-width="2" stroke-linecap="round" stroke-linejoin="round"/>
<path d="M27.4434 27.9101H35.3937V20L27.4434 27.9101Z" fill="white" stroke="#1D1D1D" stroke-width="2" stroke-linecap="round" stroke-linejoin="round"/>
<path d="M41.1478 47.8357L57.75 36.5439H57.7416V59.9999H22.75V36.5439L39.3522 47.8357H41.1478Z" fill="white" stroke="#1D1D1D" stroke-width="2" stroke-linecap="round" stroke-linejoin="round"/>
<path d="M57.7495 59.9979L40.2536 47.1689L22.7578 59.9979H57.7495Z" fill="white" stroke="#1D1D1D" stroke-width="2" stroke-linecap="round" stroke-linejoin="round"/>
<path d="M33.2305 31.834H47.2522" stroke="#E60024" stroke-width="2" stroke-linecap="round" stroke-linejoin="round"/>
<path d="M33.2305 36.8279H47.2522" stroke="#E60024" stroke-width="2" stroke-linecap="round" stroke-linejoin="round"/>
<path d="M33.2305 41.2644H47.2522" stroke="#E60024" stroke-width="2" stroke-linecap="round" stroke-linejoin="round"/>
</svg>
