<svg width="80" height="80" viewBox="0 0 80 80" fill="none" xmlns="http://www.w3.org/2000/svg">
<rect width="80" height="80" rx="20" fill="#F8F8F8"/>
<path d="M47.6196 24.7891H60.0002" stroke="#1D1D1D" stroke-width="2" stroke-linecap="round"/>
<path d="M47.6196 31H60.0002" stroke="#1D1D1D" stroke-width="2" stroke-linecap="round"/>
<path d="M47.6196 37.2148H60.0002" stroke="#1D1D1D" stroke-width="2" stroke-linecap="round"/>
<path d="M20 24.7891H32.3806" stroke="#1D1D1D" stroke-width="2" stroke-linecap="round"/>
<path d="M20 31H32.3806" stroke="#1D1D1D" stroke-width="2" stroke-linecap="round"/>
<path d="M20 37.2148H32.3806" stroke="#1D1D1D" stroke-width="2" stroke-linecap="round"/>
<path d="M33.7881 23.3806V11" stroke="#1D1D1D" stroke-width="2" stroke-linecap="round"/>
<path d="M40 23.3806V11" stroke="#1D1D1D" stroke-width="2" stroke-linecap="round"/>
<path d="M46.2124 23.3806V11" stroke="#1D1D1D" stroke-width="2" stroke-linecap="round"/>
<path d="M33.7881 51.0017V38.6211" stroke="#1D1D1D" stroke-width="2" stroke-linecap="round"/>
<path d="M40 51.0017V38.6211" stroke="#1D1D1D" stroke-width="2" stroke-linecap="round"/>
<path d="M46.2124 51.0017V38.6211" stroke="#1D1D1D" stroke-width="2" stroke-linecap="round"/>
<path d="M53.5389 40.8107C53.5389 42.8693 51.8693 44.5389 49.8107 44.5389H30.1852C28.1266 44.5389 26.457 42.8693 26.457 40.8107V21.1852C26.457 19.1266 28.1266 17.457 30.1852 17.457H49.8107C51.8693 17.457 53.5389 19.1266 53.5389 21.1852V40.8107Z" fill="white" stroke="#1D1D1D" stroke-width="2"/>
<path d="M49.6001 40.5986H30.396V21.3945H49.6001V40.5986Z" fill="white" stroke="#1D1D1D" stroke-width="2"/>
<path d="M35.4883 36H33.2734L36.7051 26.1016H39.3438L42.7617 36H40.5605L39.8223 33.7168H36.2402L35.4883 36ZM36.7598 32.1172H39.3027L38.0586 28.3301H37.9902L36.7598 32.1172ZM45.9336 26.1016V36H43.8828V26.1016H45.9336Z" fill="#E60024"/>
<path d="M26.4619 59.8086H28.3789V65.7754C28.3789 67.7939 26.8555 69.127 24.5703 69.127C22.2852 69.127 20.7744 67.7939 20.7744 65.7754V59.8086H22.6787V65.623C22.6787 66.6768 23.4277 67.4512 24.5703 67.4512C25.7256 67.4512 26.4619 66.6768 26.4619 65.623V59.8086ZM37.5957 59.8086V69H35.9453L31.9082 63.1602H31.832V69H29.9277V59.8086H31.6035L35.6152 65.6484H35.7041V59.8086H37.5957ZM41.0488 59.8086V69H39.1445V59.8086H41.0488ZM47.5869 62.4365C47.5107 61.7129 46.9268 61.2812 46 61.2812C45.0352 61.2812 44.502 61.7256 44.4893 62.335C44.4766 62.9951 45.1748 63.2998 45.9619 63.4775L46.7871 63.6807C48.3613 64.0361 49.542 64.8359 49.542 66.3721C49.542 68.0605 48.2217 69.127 45.9873 69.127C43.7656 69.127 42.3438 68.0986 42.293 66.1309H44.1465C44.21 67.0576 44.9463 67.5273 45.9619 67.5273C46.9648 67.5273 47.6123 67.0576 47.6123 66.3721C47.6123 65.75 47.041 65.458 46.0381 65.2041L45.0352 64.9629C43.4863 64.582 42.5342 63.8076 42.5342 62.4619C42.5342 60.7861 44.0068 59.6816 46.0127 59.6816C48.0439 59.6816 49.3896 60.8115 49.415 62.4365H47.5869ZM50.4307 61.3828V59.8086H57.959V61.3828H55.1406V69H53.249V61.3828H50.4307Z" fill="#1D1D1D"/>
</svg>
