<svg width="50" height="50" viewBox="0 0 50 50" fill="none" xmlns="http://www.w3.org/2000/svg">
<path d="M41.821 34.3007C41.821 36.6952 39.8562 38.6363 37.4326 38.6363H7.389C4.96536 38.6363 3.00061 36.6952 3.00061 34.3007V33.8004C3.00061 31.406 4.96536 29.4648 7.389 29.4648H37.4326C39.8562 29.4648 41.821 31.406 41.821 33.8004V34.3007Z" stroke="#1D1D1D" stroke-width="2" stroke-miterlimit="10" stroke-linecap="round" stroke-linejoin="round"/>
<path d="M36.0196 29.4668L30.3437 23.2969L9.41445 27.1322L8.07947 29.4668H36.0196Z" stroke="#1D1D1D" stroke-width="2" stroke-miterlimit="10" stroke-linecap="round" stroke-linejoin="round"/>
<path d="M28.4733 23.6374L26.5096 20.145C25.8334 18.9423 24.1534 18.1246 22.7763 18.3279L16.4759 19.257C15.0987 19.4602 13.7642 20.7333 13.5105 22.0856L12.7447 26.1716C12.722 26.293 12.712 26.4113 12.7078 26.5264L28.4733 23.6374Z" stroke="#1D1D1D" stroke-width="2" stroke-miterlimit="10" stroke-linecap="round" stroke-linejoin="round"/>
<path d="M9.8448 34.0524C9.8448 35.1618 8.93389 36.0617 7.81095 36.0617C6.68801 36.0617 5.7771 35.1618 5.7771 34.0524C5.7771 32.9424 6.68801 32.043 7.81095 32.043C8.93389 32.0435 9.8448 32.9429 9.8448 34.0524Z" stroke="#E60024" stroke-width="2" stroke-miterlimit="10" stroke-linecap="round" stroke-linejoin="round"/>
<path d="M13.7153 35.4731C12.9209 34.6884 12.9209 33.4163 13.7153 32.6316C14.5096 31.8468 15.7971 31.8468 16.5914 32.6316C17.3858 33.4163 17.3858 34.6884 16.5914 35.4731C15.7971 36.2579 14.5096 36.2579 13.7153 35.4731Z" stroke="#E60024" stroke-width="2" stroke-miterlimit="10" stroke-linecap="round" stroke-linejoin="round"/>
<path d="M24.529 34.0524C24.529 35.1618 23.6181 36.0617 22.4952 36.0617C21.3722 36.0617 20.4613 35.1618 20.4613 34.0524C20.4613 32.9424 21.3722 32.043 22.4952 32.043C23.6181 32.0435 24.529 32.9429 24.529 34.0524Z" stroke="#E60024" stroke-width="2" stroke-miterlimit="10" stroke-linecap="round" stroke-linejoin="round"/>
<path d="M28.4833 35.4731C27.689 34.6884 27.689 33.4158 28.4833 32.6316C29.2777 31.8468 30.5652 31.8468 31.3595 32.6316C32.1539 33.4163 32.1539 34.6884 31.3595 35.4731C30.5657 36.2579 29.2777 36.2579 28.4833 35.4731Z" stroke="#E60024" stroke-width="2" stroke-miterlimit="10" stroke-linecap="round" stroke-linejoin="round"/>
<path d="M39.2132 34.0524C39.2132 35.1618 38.3023 36.0617 37.1794 36.0617C36.0564 36.0617 35.1455 35.1618 35.1455 34.0524C35.1455 32.9424 36.0564 32.043 37.1794 32.043C38.3023 32.0435 39.2132 32.9429 39.2132 34.0524Z" stroke="#E60024" stroke-width="2" stroke-miterlimit="10" stroke-linecap="round" stroke-linejoin="round"/>
<path d="M44.5353 11.3658L41.0964 12.75L42.5611 16.3019L46 14.9178L44.5353 11.3658Z" stroke="#1D1D1D" stroke-width="2" stroke-miterlimit="10" stroke-linecap="round" stroke-linejoin="round"/>
<path d="M26.5096 20.1457L27.3789 21.6919L42.3068 15.6835L41.351 13.3672L26.0444 19.5282C26.2275 19.719 26.3857 19.9258 26.5096 20.1457Z" stroke="#1D1D1D" stroke-width="2" stroke-miterlimit="10" stroke-linecap="round" stroke-linejoin="round"/>
</svg>
