<svg width="107" height="181" viewBox="0 0 107 181" fill="none" xmlns="http://www.w3.org/2000/svg">
<path d="M1 180.5H0.5V181H1V180.5ZM1 3V2.5H0.5V3H1ZM98.5 3L93.5 0.113249V5.88675L98.5 3ZM95.4531 2.5H93.4219V3.5H95.4531V2.5ZM91.3906 2.5H89.3594V3.5H91.3906V2.5ZM87.3281 2.5H85.2969V3.5H87.3281V2.5ZM83.2656 2.5H81.2344V3.5H83.2656V2.5ZM79.2031 2.5H77.1719V3.5H79.2031V2.5ZM75.1406 2.5H73.1094V3.5H75.1406V2.5ZM71.0781 2.5H69.0469V3.5H71.0781V2.5ZM67.0156 2.5H64.9844V3.5H67.0156V2.5ZM62.9531 2.5H60.9219V3.5H62.9531V2.5ZM58.8906 2.5H56.8594V3.5H58.8906V2.5ZM54.8281 2.5H52.7969V3.5H54.8281V2.5ZM50.7656 2.5H48.7344V3.5H50.7656V2.5ZM46.7031 2.5H44.6719V3.5H46.7031V2.5ZM42.6406 2.5H40.6094V3.5H42.6406V2.5ZM38.5781 2.5H36.5469V3.5H38.5781V2.5ZM34.5156 2.5H32.4844V3.5H34.5156V2.5ZM30.4531 2.5H28.4219V3.5H30.4531V2.5ZM26.3906 2.5H24.3594V3.5H26.3906V2.5ZM22.3281 2.5H20.2969V3.5H22.3281V2.5ZM18.2656 2.5H16.2344V3.5H18.2656V2.5ZM14.2031 2.5H12.1719V3.5H14.2031V2.5ZM10.1406 2.5H8.10938V3.5H10.1406V2.5ZM6.07812 2.5H4.04688V3.5H6.07812V2.5ZM2.01563 2.5H1V3.5H2.01563V2.5ZM0.5 3V4.00852H1.5V3H0.5ZM0.5 6.02557V8.04261H1.5V6.02557H0.5ZM0.5 10.0597V12.0767H1.5V10.0597H0.5ZM0.5 14.0938V16.1108H1.5V14.0938H0.5ZM0.5 18.1278V20.1449H1.5V18.1278H0.5ZM0.5 22.1619V24.179H1.5V22.1619H0.5ZM0.5 26.196V28.2131H1.5V26.196H0.5ZM0.5 30.2301V32.2472H1.5V30.2301H0.5ZM0.5 34.2642V36.2813H1.5V34.2642H0.5ZM0.5 38.2983V40.3153H1.5V38.2983H0.5ZM0.5 42.3324V44.3494H1.5V42.3324H0.5ZM0.5 46.3665V48.3835H1.5V46.3665H0.5ZM0.5 50.4006V52.4176H1.5V50.4006H0.5ZM0.5 54.4347V56.4517H1.5V54.4347H0.5ZM0.5 58.4687V60.4858H1.5V58.4687H0.5ZM0.5 62.5028V64.5199H1.5V62.5028H0.5ZM0.5 66.5369V68.554H1.5V66.5369H0.5ZM0.5 70.571V72.5881H1.5V70.571H0.5ZM0.5 74.6051V76.6221H1.5V74.6051H0.5ZM0.5 78.6392V80.6562H1.5V78.6392H0.5ZM0.5 82.6733V84.6903H1.5V82.6733H0.5ZM0.5 86.7074V88.7244H1.5V86.7074H0.5ZM0.5 90.7414V92.7585H1.5V90.7414H0.5ZM0.5 94.7755V96.7926H1.5V94.7755H0.5ZM0.5 98.8096V100.827H1.5V98.8096H0.5ZM0.5 102.844V104.861H1.5V102.844H0.5ZM0.5 106.878V108.895H1.5V106.878H0.5ZM0.5 110.912V112.929H1.5V110.912H0.5ZM0.5 114.946V116.963H1.5V114.946H0.5ZM0.5 118.98V120.997H1.5V118.98H0.5ZM0.5 123.014V125.031H1.5V123.014H0.5ZM0.5 127.048V129.065H1.5V127.048H0.5ZM0.5 131.082V133.099H1.5V131.082H0.5ZM0.5 135.116V137.133H1.5V135.116H0.5ZM0.5 139.151V141.168H1.5V139.151H0.5ZM0.5 143.185V145.202H1.5V143.185H0.5ZM0.5 147.219V149.236H1.5V147.219H0.5ZM0.5 151.253V153.27H1.5V151.253H0.5ZM0.5 155.287V157.304H1.5V155.287H0.5ZM0.5 159.321V161.338H1.5V159.321H0.5ZM0.5 163.355V165.372H1.5V163.355H0.5ZM0.5 167.389V169.406H1.5V167.389H0.5ZM0.5 171.423V173.44H1.5V171.423H0.5ZM0.5 175.457V177.474H1.5V175.457H0.5ZM0.5 179.491V180.5H1.5V179.491H0.5ZM1 181H2.01442V180H1V181ZM4.04327 181H6.07212V180H4.04327V181ZM8.10096 181H10.1298V180H8.10096V181ZM12.1587 181H14.1875V180H12.1587V181ZM16.2163 181H18.2452V180H16.2163V181ZM20.274 181H22.3029V180H20.274V181ZM24.3317 181H26.3606V180H24.3317V181ZM28.3894 181H30.4183V180H28.3894V181ZM32.4471 181H34.476V180H32.4471V181ZM36.5048 181H38.5337V180H36.5048V181ZM40.5625 181H42.5914V180H40.5625V181ZM44.6202 181H46.649V180H44.6202V181ZM48.6779 181H50.7067V180H48.6779V181ZM52.7356 181H54.7644V180H52.7356V181ZM56.7933 181H58.8221V180H56.7933V181ZM60.851 181H62.8798V180H60.851V181ZM64.9087 181H66.9375V180H64.9087V181ZM68.9664 181H70.9952V180H68.9664V181ZM73.0241 181H75.0529V180H73.0241V181ZM77.0817 181H79.1106V180H77.0817V181ZM81.1394 181H83.1683V180H81.1394V181ZM85.1971 181H87.226V180H85.1971V181ZM89.2548 181H91.2837V180H89.2548V181ZM93.3125 181H95.3414V180H93.3125V181ZM97.3702 181H99.3991V180H97.3702V181ZM101.428 181H103.457V180H101.428V181ZM105.486 181H106.5V180H105.486V181Z" fill="#555555"/>
</svg>
