<svg width="80" height="80" viewBox="0 0 80 80" fill="none" xmlns="http://www.w3.org/2000/svg">
<path d="M27.0274 22.3979V52.8312C27.0274 52.8312 26.4584 58.0859 23.0908 58.0859" stroke="#1D1D1D" stroke-width="2" stroke-linecap="round" stroke-linejoin="round"/>
<path d="M33.6445 29.1152H48.2" stroke="#1D1D1D" stroke-width="2" stroke-linecap="round" stroke-linejoin="round"/>
<path d="M33.6445 34.9766H44.8919" stroke="#1D1D1D" stroke-width="2" stroke-linecap="round" stroke-linejoin="round"/>
<path d="M33.6445 40.8359H40.9223" stroke="#1D1D1D" stroke-width="2" stroke-linecap="round" stroke-linejoin="round"/>
<path d="M33.6445 46.6973H40.9223" stroke="#1D1D1D" stroke-width="2" stroke-linecap="round" stroke-linejoin="round"/>
<path d="M54.1538 36.9298V24C54.1538 21.7909 52.3629 20 50.1538 20H31.0099C28.8077 20 27.0198 21.78 27.01 23.9822L26.9086 46.697H23.75C21.5409 46.697 19.75 48.4879 19.75 50.697V52.8764C19.75 56.5228 22.7273 59.0688 26.3595 59.0688H47.5377" stroke="#1D1D1D" stroke-width="2" stroke-linecap="round" stroke-linejoin="round"/>
<path d="M51.9771 52.552C47.6898 52.552 44.2031 49.1204 44.2031 44.901C44.2031 40.6815 47.6898 37.25 51.9771 37.25C56.2643 37.25 59.751 40.6815 59.751 44.901C59.751 49.1204 56.2643 52.552 51.9771 52.552Z" stroke="#E60024" stroke-width="2" stroke-linecap="round" stroke-linejoin="round"/>
<path d="M51.9775 49.2775C49.5295 49.2775 47.5381 47.3175 47.5381 44.9083C47.5381 42.499 49.5295 40.5391 51.9775 40.5391C54.4255 40.5391 56.4169 42.499 56.4169 44.9083C56.4169 47.3175 54.4255 49.2775 51.9775 49.2775Z" stroke="#E60024" stroke-width="2" stroke-linecap="round" stroke-linejoin="round"/>
<path d="M56.1386 51.9075V60.0012L52.1689 57.8069L48.1992 60.0012V51.9075" stroke="#E60024" stroke-width="2" stroke-linecap="round" stroke-linejoin="round"/>
</svg>
