<svg width="1036" height="34" viewBox="0 0 1036 34" fill="none" xmlns="http://www.w3.org/2000/svg">
<path d="M515.333 31C515.333 32.4728 516.527 33.6667 518 33.6667C519.473 33.6667 520.667 32.4728 520.667 31C520.667 29.5272 519.473 28.3333 518 28.3333C516.527 28.3333 515.333 29.5272 515.333 31ZM517.5 1L517.5 1.9375L518.5 1.9375L518.5 1L517.5 1ZM517.5 3.8125L517.5 5.6875L518.5 5.6875L518.5 3.8125L517.5 3.8125ZM517.5 7.5625L517.5 9.4375L518.5 9.4375L518.5 7.5625L517.5 7.5625ZM517.5 11.3125L517.5 13.1875L518.5 13.1875L518.5 11.3125L517.5 11.3125ZM517.5 15.0625L517.5 16.9375L518.5 16.9375L518.5 15.0625L517.5 15.0625ZM517.5 18.8125L517.5 20.6875L518.5 20.6875L518.5 18.8125L517.5 18.8125ZM517.5 22.5625L517.5 24.4375L518.5 24.4375L518.5 22.5625L517.5 22.5625ZM517.5 26.3125L517.5 28.1875L518.5 28.1875L518.5 26.3125L517.5 26.3125ZM517.5 30.0625L517.5 31L518.5 31L518.5 30.0625L517.5 30.0625Z" fill="#E60024"/>
<path d="M1030.33 31C1030.33 32.4728 1031.53 33.6667 1033 33.6667C1034.47 33.6667 1035.67 32.4728 1035.67 31C1035.67 29.5272 1034.47 28.3333 1033 28.3333C1031.53 28.3333 1030.33 29.5272 1030.33 31ZM1032.5 1L1032.5 1.9375L1033.5 1.9375L1033.5 1L1032.5 1ZM1032.5 3.8125L1032.5 5.6875L1033.5 5.6875L1033.5 3.8125L1032.5 3.8125ZM1032.5 7.5625L1032.5 9.4375L1033.5 9.4375L1033.5 7.5625L1032.5 7.5625ZM1032.5 11.3125L1032.5 13.1875L1033.5 13.1875L1033.5 11.3125L1032.5 11.3125ZM1032.5 15.0625L1032.5 16.9375L1033.5 16.9375L1033.5 15.0625L1032.5 15.0625ZM1032.5 18.8125L1032.5 20.6875L1033.5 20.6875L1033.5 18.8125L1032.5 18.8125ZM1032.5 22.5625L1032.5 24.4375L1033.5 24.4375L1033.5 22.5625L1032.5 22.5625ZM1032.5 26.3125L1032.5 28.1875L1033.5 28.1875L1033.5 26.3125L1032.5 26.3125ZM1032.5 30.0625L1032.5 31L1033.5 31L1033.5 30.0625L1032.5 30.0625Z" fill="#E60024"/>
<path d="M0.333335 31C0.333335 32.4728 1.52724 33.6667 3 33.6667C4.47276 33.6667 5.66667 32.4728 5.66667 31C5.66667 29.5272 4.47276 28.3333 3 28.3333C1.52724 28.3333 0.333335 29.5272 0.333335 31ZM3.5 31L3.5 30.0625L2.5 30.0625L2.5 31L3.5 31ZM3.5 28.1875L3.5 26.3125L2.5 26.3125L2.5 28.1875L3.5 28.1875ZM3.5 24.4375L3.5 22.5625L2.5 22.5625L2.5 24.4375L3.5 24.4375ZM3.5 20.6875L3.5 18.8125L2.5 18.8125L2.5 20.6875L3.5 20.6875ZM3.5 16.9375L3.5 15.0625L2.5 15.0625L2.5 16.9375L3.5 16.9375ZM3.5 13.1875L3.5 11.3125L2.5 11.3125L2.5 13.1875L3.5 13.1875ZM3.5 9.4375L3.5 7.5625L2.5 7.5625L2.5 9.4375L3.5 9.4375ZM3.5 5.6875L3.5 3.8125L2.5 3.8125L2.5 5.6875L3.5 5.6875ZM3.5 1.9375L3.5 1L2.5 1L2.5 1.9375L3.5 1.9375Z" fill="#E60024"/>
<path d="M1031 1L5.00003 1" stroke="#E60024" stroke-dasharray="2 2"/>
</svg>
