<svg width="258" height="258" viewBox="0 0 258 258" fill="none" xmlns="http://www.w3.org/2000/svg">
<path d="M129 257C199.692 257 257 199.692 257 129C257 58.3076 199.692 1 129 1C58.3076 1 1 58.3076 1 129C1 199.692 58.3076 257 129 257Z" fill="white" stroke="#D8D8D8" stroke-opacity="0.4" stroke-miterlimit="10"/>
<path d="M129 238C189.199 238 238 189.199 238 129C238 68.801 189.199 20 129 20C68.801 20 20 68.801 20 129C20 189.199 68.801 238 129 238Z" fill="#007BE2" fill-opacity="0.05" stroke="#D8D8D8" stroke-opacity="0.6" stroke-miterlimit="10"/>
<g filter="url(#filter0_d_1051_6619)">
<rect x="52" y="50" width="158" height="158" rx="79" fill="white" shape-rendering="crispEdges"/>
</g>
<defs>
<filter id="filter0_d_1051_6619" x="40" y="42" width="190" height="190" filterUnits="userSpaceOnUse" color-interpolation-filters="sRGB">
<feFlood flood-opacity="0" result="BackgroundImageFix"/>
<feColorMatrix in="SourceAlpha" type="matrix" values="0 0 0 0 0 0 0 0 0 0 0 0 0 0 0 0 0 0 127 0" result="hardAlpha"/>
<feOffset dx="4" dy="8"/>
<feGaussianBlur stdDeviation="8"/>
<feComposite in2="hardAlpha" operator="out"/>
<feColorMatrix type="matrix" values="0 0 0 0 0.823529 0 0 0 0 0.858824 0 0 0 0 0.898039 0 0 0 0.9 0"/>
<feBlend mode="normal" in2="BackgroundImageFix" result="effect1_dropShadow_1051_6619"/>
<feBlend mode="normal" in="SourceGraphic" in2="effect1_dropShadow_1051_6619" result="shape"/>
</filter>
</defs>
</svg>
