<svg width="51" height="50" viewBox="0 0 51 50" fill="none" xmlns="http://www.w3.org/2000/svg">
<path d="M15.669 7.3373C16.3811 7.88419 16.5079 8.89384 15.9647 9.60299C15.4155 10.3121 14.4017 10.4383 13.6896 9.89747C12.9835 9.35058 12.8508 8.33493 13.3939 7.63178C13.9431 6.92263 14.9629 6.79041 15.669 7.3373Z" stroke="#E60024" stroke-width="2" stroke-miterlimit="10" stroke-linecap="round" stroke-linejoin="round"/>
<path d="M11.5171 12.7074L13.7077 9.96094" stroke="#E60024" stroke-width="2" stroke-miterlimit="10" stroke-linecap="round" stroke-linejoin="round"/>
<path d="M9.44109 15.3058C8.74105 14.7529 8.62639 13.7313 9.18159 13.0341C9.73679 12.337 10.7627 12.2228 11.4628 12.7757C12.1628 13.3286 12.2775 14.3503 11.7222 15.0474C11.167 15.7445 10.1472 15.8587 9.44109 15.3058Z" stroke="#E60024" stroke-width="2" stroke-miterlimit="10" stroke-linecap="round" stroke-linejoin="round"/>
<path d="M33.3088 24.158C32.8381 23.4008 33.0674 22.4031 33.8338 21.9344C34.5942 21.4656 35.596 21.694 36.0667 22.4572C36.5374 23.2144 36.3081 24.2121 35.5417 24.6808C34.7813 25.1496 33.7795 24.9152 33.3088 24.158Z" stroke="#E60024" stroke-width="2" stroke-miterlimit="10" stroke-linecap="round" stroke-linejoin="round"/>
<path d="M39.0901 20.5781L36.1029 22.4291" stroke="#E60024" stroke-width="2" stroke-miterlimit="10" stroke-linecap="round" stroke-linejoin="round"/>
<path d="M36.1391 12.329C35.3727 12.7918 35.1313 13.7894 35.596 14.5466C36.0607 15.3099 37.0625 15.5503 37.8229 15.0875C38.5893 14.6248 38.8307 13.6271 38.366 12.8699C37.9013 12.1067 36.8995 11.8663 36.1391 12.329Z" stroke="#E60024" stroke-width="2" stroke-miterlimit="10" stroke-linecap="round" stroke-linejoin="round"/>
<path d="M39.6816 18.1179L37.847 15.125" stroke="#E60024" stroke-width="2" stroke-miterlimit="10" stroke-linecap="round" stroke-linejoin="round"/>
<path d="M41.9205 18.8308C42.3912 19.588 42.1619 20.5856 41.3954 21.0544C40.635 21.5232 39.6333 21.2948 39.1626 20.5315C38.6918 19.7743 38.9212 18.7767 39.6876 18.3079C40.448 17.8392 41.4498 18.0736 41.9205 18.8308Z" stroke="#E60024" stroke-width="2" stroke-miterlimit="10" stroke-linecap="round" stroke-linejoin="round"/>
<path d="M29.5491 17.1562V37.1027C29.5491 40.36 26.8998 42.9983 23.6289 42.9983H23.3935C20.1227 42.9983 17.4734 40.36 17.4734 37.1027V17.1562" stroke="#1D1D1D" stroke-width="2" stroke-miterlimit="10" stroke-linecap="round" stroke-linejoin="round"/>
<path d="M20 36.7722C20 38.55 21.5154 40 23.3863 40H23.6137C25.4788 40 27 38.5556 27 36.7722V30" stroke="#1D1D1D" stroke-width="2" stroke-miterlimit="10" stroke-linecap="round" stroke-linejoin="round"/>
<path d="M30.756 14.1523H16.2725V17.1572H30.756V14.1523Z" stroke="#1D1D1D" stroke-width="2" stroke-miterlimit="10" stroke-linecap="round" stroke-linejoin="round"/>
<path d="M17.4794 20.7656H21.7037" stroke="#1D1D1D" stroke-width="2" stroke-miterlimit="10" stroke-linecap="round" stroke-linejoin="round"/>
<path d="M17.4794 24.3672H21.7037" stroke="#1D1D1D" stroke-width="2" stroke-miterlimit="10" stroke-linecap="round" stroke-linejoin="round"/>
<path d="M17.4794 27.9727H21.7037" stroke="#1D1D1D" stroke-width="2" stroke-miterlimit="10" stroke-linecap="round" stroke-linejoin="round"/>
<path d="M27 26L27 22" stroke="#1D1D1D" stroke-width="2" stroke-miterlimit="10" stroke-linecap="round" stroke-linejoin="round"/>
</svg>
