<svg width="28" height="32" viewBox="0 0 28 32" fill="none" xmlns="http://www.w3.org/2000/svg">
<g clip-path="url(#clip0_928_5561)">
<path d="M26.0111 3.29406C25.9165 3.31588 25.822 3.32315 25.7274 3.32315C25.6256 3.32315 25.5311 3.32315 25.4365 3.29406C25.3493 3.27952 25.2547 3.25043 25.1674 3.21406C25.0802 3.1777 25.0002 3.13406 24.9202 3.08315C24.8402 3.02497 24.7674 2.96679 24.6947 2.89406C24.4184 2.62497 24.2729 2.26134 24.2729 1.86861C24.2729 1.67952 24.3093 1.49043 24.382 1.31588C24.4547 1.13406 24.5565 0.981335 24.6947 0.843153C24.9711 0.56679 25.3347 0.414062 25.7274 0.414062C25.822 0.414062 25.9165 0.421335 26.0111 0.443153C26.0984 0.464972 26.1929 0.48679 26.2802 0.523153C26.3674 0.559517 26.4547 0.610426 26.5347 0.661335C26.6147 0.712244 26.6874 0.770426 26.7529 0.843153C26.8184 0.908608 26.8838 0.981335 26.9347 1.06134C26.9856 1.14134 27.0293 1.22861 27.0656 1.31588C27.102 1.40315 27.1311 1.49043 27.1529 1.58497C27.1893 1.77406 27.1893 1.96315 27.1529 2.15224C27.1311 2.24679 27.102 2.34134 27.0656 2.42861C27.0293 2.51588 26.9856 2.59588 26.9347 2.67588C26.8838 2.75588 26.8184 2.82861 26.7529 2.89406C26.6874 2.96679 26.6147 3.02497 26.5347 3.07588C26.4547 3.13406 26.3674 3.1777 26.2802 3.21406C26.1929 3.25043 26.0984 3.27952 26.0111 3.29406ZM23.8147 3.79588C23.2474 3.22861 22.3238 3.23588 21.7565 3.80315C21.4802 4.08679 21.3347 4.4577 21.3347 4.82861C21.3347 5.19952 21.4802 5.5777 21.7711 5.86134C22.3384 6.42861 23.262 6.42134 23.8293 5.85406C24.3893 5.27952 24.3893 4.36315 23.8147 3.79588ZM18.4038 7.78861C18.4038 8.15952 18.5493 8.5377 18.8402 8.82134C19.4074 9.38861 20.3311 9.38134 20.8984 8.82134C21.4584 8.24679 21.4584 7.33043 20.8838 6.76315C20.3165 6.19588 19.3929 6.20315 18.8256 6.76315C18.5493 7.04679 18.4038 7.4177 18.4038 7.78861ZM17.9674 11.7741C18.5274 11.1995 18.5274 10.2832 17.9529 9.71588C17.3856 9.14861 16.462 9.15588 15.8947 9.72315C15.6184 10.0068 15.4729 10.3777 15.4729 10.7486C15.4729 11.1195 15.6184 11.4977 15.9093 11.7813C16.4765 12.3486 17.4002 12.3413 17.9674 11.7813L17.9674 11.7741ZM14.5565 15.0541C14.6438 15.0177 14.7238 14.9741 14.8038 14.9159C14.8838 14.865 14.9565 14.8068 15.0293 14.7413C15.0947 14.6686 15.1529 14.5959 15.2038 14.5159C15.262 14.4359 15.3056 14.3559 15.342 14.2686C15.3784 14.1813 15.4074 14.0868 15.422 13.9922C15.4656 13.8032 15.4584 13.6141 15.422 13.425C15.4074 13.3304 15.3784 13.2432 15.342 13.1559C15.3056 13.0686 15.262 12.9813 15.2038 12.9013C15.1529 12.8213 15.0947 12.7486 15.0293 12.6832C14.9565 12.6177 14.8838 12.5522 14.8038 12.5013C14.7238 12.4504 14.6438 12.3995 14.5565 12.3632C14.462 12.3268 14.3747 12.305 14.2802 12.2832C14.1856 12.2613 14.0911 12.2541 13.9965 12.2541C13.902 12.2541 13.8074 12.2541 13.7129 12.2832C13.6184 12.305 13.5238 12.3268 13.4438 12.3632C13.3565 12.3995 13.2693 12.4432 13.1893 12.5013C13.1093 12.5522 13.0365 12.6104 12.9711 12.6832C12.8329 12.8213 12.7238 12.9741 12.6511 13.1559C12.5784 13.3304 12.542 13.5195 12.542 13.7086C12.542 14.1013 12.6947 14.465 12.9711 14.7413C13.0365 14.8068 13.1093 14.865 13.1893 14.9232C13.2693 14.9741 13.3565 15.0177 13.4438 15.0541C13.5238 15.0904 13.6184 15.1195 13.7129 15.1341C13.8074 15.1559 13.902 15.1632 13.9965 15.1632C14.0911 15.1632 14.1856 15.1559 14.2802 15.1341C14.3747 15.1195 14.462 15.0904 14.5565 15.0541ZM12.0984 9.72315C11.5311 9.15588 10.6147 9.14861 10.0402 9.71588C9.75654 9.99952 9.61109 10.3777 9.61109 10.7486C9.61109 11.1195 9.74927 11.4904 10.0329 11.7741C10.6002 12.3413 11.5165 12.3486 12.0911 11.7741C12.6584 11.2068 12.6656 10.2904 12.0911 9.71588L12.0984 9.72315ZM6.23654 3.80315C5.66927 3.23588 4.7529 3.22861 4.17836 3.79588C3.89472 4.07952 3.74927 4.45043 3.74927 4.82861C3.74927 5.20679 3.88745 5.57043 4.17109 5.85406C4.73109 6.42133 5.65472 6.42861 6.22927 5.86133C6.79654 5.29406 6.80381 4.3777 6.23654 3.80315ZM9.16018 8.82134C9.72745 8.25406 9.73472 7.3377 9.16018 6.76315C8.5929 6.19588 7.67654 6.18861 7.102 6.76315C6.81836 7.04679 6.6729 7.42497 6.6729 7.79588C6.6729 8.16679 6.81109 8.5377 7.09472 8.82133C7.66199 9.38861 8.57836 9.39588 9.1529 8.82134L9.16018 8.82134ZM2.82563 3.21406C2.9129 3.1777 3.00018 3.13406 3.08018 3.07588C3.1529 3.02497 3.2329 2.96679 3.29836 2.90133C3.36381 2.82861 3.42199 2.75588 3.48017 2.67588C3.53108 2.59588 3.57472 2.51588 3.61109 2.42861C3.64745 2.34133 3.67654 2.24679 3.69836 2.15224C3.7929 1.67952 3.6329 1.1777 3.29836 0.843152C3.2329 0.770425 3.1529 0.712243 3.08018 0.661334C3.00018 0.610425 2.9129 0.559516 2.82563 0.523152C2.73836 0.486789 2.64381 0.464971 2.55654 0.443152C2.46199 0.428607 2.36745 0.414061 2.2729 0.414061C2.17109 0.414061 2.07654 0.421334 1.98199 0.443152C1.88745 0.46497 1.80018 0.486789 1.7129 0.523152C1.62563 0.559516 1.54563 0.603152 1.46563 0.661334C1.38563 0.712243 1.3129 0.770425 1.24018 0.843152C1.102 0.981334 1.00018 1.13406 0.92745 1.31588C0.854723 1.49043 0.818357 1.67952 0.818357 1.86861C0.818357 2.25406 0.963814 2.62497 1.24018 2.90133C1.3129 2.96679 1.38563 3.02497 1.46563 3.08315C1.54563 3.13406 1.62563 3.1777 1.7129 3.21406C1.80018 3.25042 1.88745 3.27952 1.98199 3.29406C2.07654 3.31588 2.17109 3.32315 2.2729 3.32315C2.36745 3.32315 2.46199 3.32315 2.55654 3.29406C2.64381 3.27952 2.73836 3.25042 2.82563 3.21406ZM24.382 18.1013C24.3093 18.2759 24.2729 18.465 24.2729 18.6541C24.2729 19.0468 24.4184 19.4104 24.6947 19.6868C24.9711 19.9559 25.3347 20.1086 25.7274 20.1086C25.822 20.1086 25.9165 20.1086 26.0111 20.0795C26.0984 20.065 26.1929 20.0359 26.2802 19.9995C26.3674 19.9632 26.4547 19.9195 26.5347 19.8686C26.6147 19.8104 26.6874 19.7522 26.7529 19.6868C27.0874 19.345 27.2474 18.8432 27.1529 18.3704C27.1311 18.2759 27.102 18.1886 27.0656 18.1013C27.0293 18.0141 26.9856 17.9268 26.9347 17.8468C26.8838 17.7668 26.8184 17.6941 26.7529 17.6286C26.6874 17.5632 26.6147 17.4977 26.5347 17.4468C26.4547 17.3959 26.3674 17.3522 26.2802 17.3159C26.1929 17.2795 26.0984 17.2504 26.0111 17.2286C25.9165 17.2141 25.822 17.1995 25.7274 17.1995C25.3347 17.1995 24.9711 17.3522 24.6947 17.6286C24.5565 17.7668 24.4547 17.9268 24.382 18.1013ZM17.9529 26.5013C17.3856 25.9413 16.462 25.9413 15.8947 26.5159C15.6184 26.7995 15.4729 27.1632 15.4729 27.5341C15.4729 27.905 15.6184 28.2832 15.9093 28.5668C16.4765 29.1341 17.4002 29.1341 17.9674 28.5668C18.5274 27.9995 18.5274 27.0759 17.9529 26.5086L17.9529 26.5013ZM21.3347 21.6141C21.3347 21.9922 21.4802 22.3632 21.7711 22.6468C22.3384 23.2141 23.262 23.2141 23.8293 22.6395C24.3893 22.0722 24.3893 21.1486 23.8147 20.5813C23.2474 20.0213 22.3238 20.0213 21.7565 20.5959C21.4802 20.8795 21.3347 21.2432 21.3347 21.6141ZM20.8838 23.5413C20.3165 22.9741 19.3929 22.9813 18.8256 23.5559C18.5493 23.8395 18.4038 24.2032 18.4038 24.5741C18.4038 24.945 18.5493 25.3232 18.8402 25.6068C19.4074 26.1741 20.3311 26.1741 20.8984 25.5995C21.4584 25.0322 21.4584 24.1086 20.8838 23.5413ZM14.2802 31.9195C14.3747 31.905 14.462 31.8759 14.5565 31.8395C14.6438 31.8032 14.7238 31.7595 14.8038 31.7086C14.8838 31.6504 14.9565 31.5922 15.0293 31.5268C15.0947 31.4541 15.1529 31.3813 15.2038 31.3013C15.262 31.2213 15.3056 31.1413 15.342 31.0541C15.3784 30.9668 15.4074 30.8722 15.422 30.7777C15.4584 30.5959 15.4656 30.3995 15.422 30.2104C15.4074 30.1159 15.3784 30.0286 15.342 29.9413C15.3056 29.8541 15.262 29.7668 15.2038 29.6868C15.1529 29.6068 15.0947 29.5341 15.0293 29.4686C14.9565 29.4032 14.8838 29.3377 14.8038 29.2868C14.7238 29.2359 14.6438 29.1922 14.5565 29.1559C14.462 29.1195 14.3747 29.0904 14.2802 29.0686C14.1856 29.0541 14.0911 29.0395 13.9965 29.0395C13.902 29.0395 13.8074 29.0541 13.7129 29.0686C13.6184 29.0904 13.5238 29.1195 13.4438 29.1486C13.3565 29.185 13.2693 29.2359 13.1893 29.2868C13.1093 29.3377 13.0365 29.4032 12.9711 29.4686C12.6947 29.745 12.542 30.1086 12.542 30.4941C12.542 30.6904 12.5784 30.8795 12.6511 31.0541C12.7238 31.2286 12.8329 31.3886 12.9711 31.5268C13.0365 31.5922 13.1093 31.6504 13.1893 31.7086C13.2693 31.7595 13.3565 31.8032 13.4438 31.8395C13.5238 31.8759 13.6184 31.905 13.7129 31.9195C13.8074 31.9413 13.902 31.9486 13.9965 31.9486C14.0911 31.9486 14.1856 31.9486 14.2802 31.9195ZM12.0984 26.5159C11.5311 25.9413 10.6147 25.9341 10.0402 26.5013C9.75654 26.785 9.61108 27.1632 9.61108 27.5341C9.61108 27.905 9.74927 28.2759 10.0329 28.5595C10.6002 29.1341 11.5165 29.1341 12.0911 28.5595C12.6584 27.9995 12.6656 27.0759 12.0911 26.5086L12.0984 26.5159ZM9.16745 23.5559C8.60018 22.9813 7.68381 22.9741 7.10927 23.5413C6.82563 23.825 6.68018 24.2032 6.68018 24.5741C6.68018 24.945 6.81836 25.3159 7.10199 25.5995C7.66927 26.1668 8.58563 26.1741 9.16018 25.6068C9.72745 25.0468 9.73472 24.1232 9.16018 23.5559L9.16745 23.5559ZM6.23654 20.5886C5.66927 20.0213 4.7529 20.0141 4.17836 20.5813C3.89472 20.865 3.74926 21.2432 3.74926 21.6141C3.74926 21.985 3.88745 22.3559 4.17109 22.6395C4.73109 23.2068 5.65472 23.2141 6.22927 22.6468C6.79654 22.0868 6.80381 21.1632 6.23654 20.5886ZM2.82563 19.9995C2.9129 19.9632 3.00018 19.9195 3.08018 19.8686C3.1529 19.8104 3.2329 19.7522 3.29836 19.6868C3.84381 19.1413 3.84381 18.1741 3.29836 17.6286C3.2329 17.5632 3.1529 17.4977 3.08018 17.4468C3.00018 17.3959 2.9129 17.3522 2.82563 17.3159C2.73836 17.2795 2.64381 17.2504 2.55654 17.2286C2.46199 17.2141 2.36745 17.1995 2.2729 17.1995C2.17108 17.1995 2.07654 17.2141 1.98199 17.2286C1.88745 17.2504 1.80018 17.2722 1.7129 17.3086C1.62563 17.345 1.54563 17.3959 1.46563 17.4468C1.38563 17.4977 1.3129 17.5559 1.24018 17.6286C0.963813 17.905 0.818357 18.2686 0.818357 18.6541C0.818357 19.0395 0.963813 19.4104 1.24018 19.6868C1.3129 19.7522 1.38563 19.8104 1.46563 19.8686C1.54563 19.9195 1.62563 19.9632 1.7129 19.9995C1.80018 20.0359 1.88745 20.065 1.98199 20.0795C2.07654 20.1013 2.17108 20.1086 2.2729 20.1086C2.36745 20.1086 2.46199 20.1086 2.55654 20.0795C2.64381 20.065 2.73836 20.0359 2.82563 19.9995ZM24.2729 10.2468C24.2729 10.6322 24.4184 10.9959 24.6947 11.2722C24.9711 11.5486 25.3347 11.7013 25.7274 11.7013C25.822 11.7013 25.9165 11.7013 26.0111 11.6722C26.0984 11.6504 26.1929 11.6286 26.2802 11.5922C26.3674 11.5559 26.4547 11.505 26.5347 11.4541C26.6147 11.4032 26.6874 11.345 26.7529 11.2722C27.0874 10.9377 27.2474 10.4359 27.1529 9.96315C27.1311 9.86861 27.102 9.77406 27.0656 9.68679C27.0293 9.59952 26.9856 9.51952 26.9347 9.43952C26.8838 9.35952 26.8184 9.28679 26.7529 9.21406C26.4838 8.94497 26.1056 8.79224 25.7274 8.79224C25.3493 8.79224 24.9711 8.94497 24.6947 9.21406C24.4184 9.49043 24.2729 9.86134 24.2729 10.2468ZM21.3347 13.2068C21.3347 13.5777 21.4802 13.9559 21.7711 14.2395C22.3384 14.8068 23.262 14.7995 23.8293 14.2322C24.3893 13.6577 24.3893 12.7413 23.8147 12.1741C23.2474 11.6068 22.3238 11.6141 21.7565 12.1813C21.4802 12.465 21.3347 12.8359 21.3347 13.2068ZM17.9529 18.0941C17.3856 17.5268 16.462 17.5341 15.8947 18.1013C15.6184 18.385 15.4729 18.7559 15.4729 19.1268C15.4729 19.4977 15.6184 19.8759 15.9093 20.1595C16.4765 20.7268 17.4002 20.7195 17.9674 20.1595C18.5274 19.585 18.5274 18.6686 17.9529 18.1013L17.9529 18.0941ZM18.4038 16.1668C18.4038 16.5377 18.5493 16.9159 18.8402 17.1995C19.4074 17.7668 20.3311 17.7595 20.8984 17.1995C21.4584 16.625 21.4584 15.7086 20.8838 15.1413C20.3165 14.5741 19.3929 14.5813 18.8256 15.1413C18.5493 15.425 18.4038 15.7959 18.4038 16.1668ZM13.4438 23.4322C13.5238 23.4686 13.6184 23.4904 13.7129 23.5122C13.8074 23.5341 13.902 23.5413 13.9965 23.5413C14.0911 23.5413 14.1856 23.5341 14.2802 23.5122C14.3747 23.4904 14.462 23.4686 14.5565 23.4322C14.6438 23.3959 14.7238 23.345 14.8038 23.2941C14.8838 23.2432 14.9565 23.1777 15.0293 23.1122C15.0947 23.0468 15.1529 22.9741 15.2038 22.8941C15.262 22.8141 15.3056 22.7268 15.342 22.6395C15.3784 22.5522 15.4074 22.465 15.422 22.3704C15.4656 22.1813 15.4584 21.9922 15.422 21.8032C15.4074 21.7086 15.3784 21.6141 15.342 21.5268C15.3056 21.4395 15.262 21.3595 15.2038 21.2795C15.1529 21.1995 15.0947 21.1268 15.0293 21.0541C14.9565 20.9886 14.8838 20.9304 14.8038 20.8795C14.7238 20.8213 14.6438 20.7777 14.5565 20.7413C14.462 20.705 14.3747 20.6759 14.2802 20.6613C14.1856 20.6395 14.0911 20.6322 13.9965 20.6322C13.902 20.6322 13.8074 20.6322 13.7129 20.6613C13.6184 20.6759 13.5238 20.705 13.4438 20.7413C13.3565 20.7777 13.2693 20.8213 13.1893 20.8722C13.1093 20.9304 13.0365 20.9886 12.9711 21.0541C12.8329 21.1922 12.7238 21.3522 12.6511 21.5268C12.5784 21.7013 12.542 21.8904 12.542 22.0868C12.542 22.4722 12.6947 22.8432 12.9711 23.1122C13.0365 23.185 13.1093 23.2432 13.1893 23.2941C13.2693 23.3522 13.3565 23.3959 13.4438 23.4322ZM6.23654 12.1813C5.66927 11.6141 4.7529 11.6068 4.17836 12.1741C3.89472 12.4577 3.74927 12.8286 3.74927 13.2068C3.74927 13.585 3.88745 13.9486 4.17109 14.2322C4.73109 14.7995 5.65472 14.8068 6.22927 14.2395C6.79654 13.6722 6.80381 12.7559 6.23654 12.1813ZM12.0911 20.1595C12.6584 19.5922 12.6656 18.6759 12.0911 18.1013C11.5238 17.5341 10.6074 17.5268 10.0329 18.0941C9.74927 18.3777 9.60381 18.7486 9.60381 19.1268C9.60381 19.505 9.74199 19.8686 10.0256 20.1522C10.5929 20.7195 11.5093 20.7268 12.0838 20.1522L12.0911 20.1595ZM9.16018 17.1995C9.72745 16.6322 9.73472 15.7159 9.16018 15.1413C8.5929 14.5741 7.67654 14.5668 7.10199 15.1413C6.81836 15.425 6.6729 15.7959 6.6729 16.1741C6.6729 16.5522 6.81109 16.9159 7.09472 17.1995C7.66199 17.7668 8.57836 17.7741 9.1529 17.1995L9.16018 17.1995ZM2.82563 11.585C2.9129 11.5486 3.00018 11.505 3.08018 11.4541C3.1529 11.4032 3.2329 11.3377 3.29836 11.2722C3.84381 10.7341 3.84381 9.75952 3.29836 9.21406C3.2329 9.14861 3.1529 9.09043 3.08018 9.03952C3.00018 8.98133 2.9129 8.9377 2.82563 8.90133C2.73836 8.86497 2.64381 8.83588 2.55654 8.82133C2.46199 8.79952 2.36745 8.79224 2.2729 8.79224C2.17108 8.79224 2.07654 8.79952 1.98199 8.82133C1.88745 8.83588 1.80018 8.86497 1.7129 8.90133C1.62563 8.9377 1.54563 8.98133 1.46563 9.03224C1.38563 9.09043 1.3129 9.14861 1.24018 9.21406C0.963813 9.49043 0.818357 9.86133 0.818357 10.2468C0.818357 10.6322 0.963813 10.9959 1.24018 11.2722C1.3129 11.345 1.38563 11.4032 1.46563 11.4541C1.54563 11.5122 1.62563 11.5559 1.7129 11.5922C1.80018 11.6286 1.88745 11.6504 1.98199 11.6722C2.07654 11.6941 2.17108 11.7013 2.2729 11.7013C2.36745 11.7013 2.46199 11.6868 2.55654 11.6722C2.64381 11.6504 2.73836 11.6213 2.82563 11.585Z" fill="#E60024"/>
</g>
<defs>
<clipPath id="clip0_928_5561">
<rect width="32" height="27.6364" fill="white" transform="translate(27.8184) rotate(90)"/>
</clipPath>
</defs>
</svg>
