<svg width="47" height="245" viewBox="0 0 47 245" fill="none" xmlns="http://www.w3.org/2000/svg">
<path d="M46 1H46.5V0.5H46V1ZM46 242V242.5H46.5V242H46ZM6.5 242L11.5 244.887V239.113L6.5 242ZM0 1.5H0.958333V0.5H0V1.5ZM2.875 1.5H4.79167V0.5H2.875V1.5ZM6.70833 1.5H8.625V0.5H6.70833V1.5ZM10.5417 1.5H12.4583V0.5H10.5417V1.5ZM14.375 1.5H16.2917V0.5H14.375V1.5ZM18.2083 1.5H20.125V0.5H18.2083V1.5ZM22.0417 1.5H23.9583V0.5H22.0417V1.5ZM25.875 1.5H27.7917V0.5H25.875V1.5ZM29.7083 1.5H31.625V0.5H29.7083V1.5ZM33.5417 1.5H35.4583V0.5H33.5417V1.5ZM37.375 1.5H39.2917V0.5H37.375V1.5ZM41.2083 1.5H43.125V0.5H41.2083V1.5ZM45.0417 1.5H46V0.5H45.0417V1.5ZM45.5 1V2.00417H46.5V1H45.5ZM45.5 4.0125V6.02083H46.5V4.0125H45.5ZM45.5 8.02917V10.0375H46.5V8.02917H45.5ZM45.5 12.0458V14.0542H46.5V12.0458H45.5ZM45.5 16.0625V18.0708H46.5V16.0625H45.5ZM45.5 20.0792V22.0875H46.5V20.0792H45.5ZM45.5 24.0958V26.1042H46.5V24.0958H45.5ZM45.5 28.1125V30.1208H46.5V28.1125H45.5ZM45.5 32.1292V34.1375H46.5V32.1292H45.5ZM45.5 36.1458V38.1542H46.5V36.1458H45.5ZM45.5 40.1625V42.1708H46.5V40.1625H45.5ZM45.5 44.1792V46.1875H46.5V44.1792H45.5ZM45.5 48.1958V50.2042H46.5V48.1958H45.5ZM45.5 52.2125V54.2209H46.5V52.2125H45.5ZM45.5 56.2292V58.2375H46.5V56.2292H45.5ZM45.5 60.2459V62.2542H46.5V60.2459H45.5ZM45.5 64.2625V66.2709H46.5V64.2625H45.5ZM45.5 68.2792V70.2875H46.5V68.2792H45.5ZM45.5 72.2959V74.3042H46.5V72.2959H45.5ZM45.5 76.3125V78.3208H46.5V76.3125H45.5ZM45.5 80.3292V82.3375H46.5V80.3292H45.5ZM45.5 84.3458V86.3542H46.5V84.3458H45.5ZM45.5 88.3625V90.3708H46.5V88.3625H45.5ZM45.5 92.3792V94.3875H46.5V92.3792H45.5ZM45.5 96.3958V98.4042H46.5V96.3958H45.5ZM45.5 100.412V102.421H46.5V100.412H45.5ZM45.5 104.429V106.437H46.5V104.429H45.5ZM45.5 108.446V110.454H46.5V108.446H45.5ZM45.5 112.462V114.471H46.5V112.462H45.5ZM45.5 116.479V118.487H46.5V116.479H45.5ZM45.5 120.496V122.504H46.5V120.496H45.5ZM45.5 124.512V126.521H46.5V124.512H45.5ZM45.5 128.529V130.537H46.5V128.529H45.5ZM45.5 132.546V134.554H46.5V132.546H45.5ZM45.5 136.562V138.571H46.5V136.562H45.5ZM45.5 140.579V142.587H46.5V140.579H45.5ZM45.5 144.596V146.604H46.5V144.596H45.5ZM45.5 148.612V150.621H46.5V148.612H45.5ZM45.5 152.629V154.637H46.5V152.629H45.5ZM45.5 156.646V158.654H46.5V156.646H45.5ZM45.5 160.662V162.671H46.5V160.662H45.5ZM45.5 164.679V166.687H46.5V164.679H45.5ZM45.5 168.696V170.704H46.5V168.696H45.5ZM45.5 172.712V174.721H46.5V172.712H45.5ZM45.5 176.729V178.737H46.5V176.729H45.5ZM45.5 180.746V182.754H46.5V180.746H45.5ZM45.5 184.762V186.771H46.5V184.762H45.5ZM45.5 188.779V190.787H46.5V188.779H45.5ZM45.5 192.796V194.804H46.5V192.796H45.5ZM45.5 196.812V198.821H46.5V196.812H45.5ZM45.5 200.829V202.837H46.5V200.829H45.5ZM45.5 204.846V206.854H46.5V204.846H45.5ZM45.5 208.862V210.871H46.5V208.862H45.5ZM45.5 212.879V214.887H46.5V212.879H45.5ZM45.5 216.896V218.904H46.5V216.896H45.5ZM45.5 220.912V222.921H46.5V220.912H45.5ZM45.5 224.929V226.937H46.5V224.929H45.5ZM45.5 228.946V230.954H46.5V228.946H45.5ZM45.5 232.962V234.971H46.5V232.962H45.5ZM45.5 236.979V238.987H46.5V236.979H45.5ZM45.5 240.996V242H46.5V240.996H45.5ZM46 241.5H45.0125V242.5H46V241.5ZM43.0375 241.5H41.0625V242.5H43.0375V241.5ZM39.0875 241.5H37.1125V242.5H39.0875V241.5ZM35.1375 241.5H33.1625V242.5H35.1375V241.5ZM31.1875 241.5H29.2125V242.5H31.1875V241.5ZM27.2375 241.5H25.2625V242.5H27.2375V241.5ZM23.2875 241.5H21.3125V242.5H23.2875V241.5ZM19.3375 241.5H17.3625V242.5H19.3375V241.5ZM15.3875 241.5H13.4125V242.5H15.3875V241.5ZM11.4375 241.5H9.4625V242.5H11.4375V241.5Z" fill="#555555"/>
</svg>
