<svg width="47" height="122" viewBox="0 0 47 122" fill="none" xmlns="http://www.w3.org/2000/svg">
<path d="M1 121H0.5V121.5H1V121ZM1 3V2.5H0.5V3H1ZM44.4638 3L39.4638 0.113249V5.88675L44.4638 3ZM41.5004 2.5H39.5247V3.5H41.5004V2.5ZM37.5491 2.5H35.5735V3.5H37.5491V2.5ZM33.5979 2.5H31.6222V3.5H33.5979V2.5ZM29.6466 2.5H27.671V3.5H29.6466V2.5ZM25.6954 2.5H23.7197V3.5H25.6954V2.5ZM21.7441 2.5H19.7685V3.5H21.7441V2.5ZM17.7928 2.5H15.8172V3.5H17.7928V2.5ZM13.8416 2.5H11.866V3.5H13.8416V2.5ZM9.89033 2.5H7.9147V3.5H9.89033V2.5ZM5.93908 2.5H3.96345V3.5H5.93908V2.5ZM1.98782 2.5H1V3.5H1.98782V2.5ZM0.5 3V3.98333H1.5V3H0.5ZM0.5 5.95V7.91667H1.5V5.95H0.5ZM0.5 9.88333V11.85H1.5V9.88333H0.5ZM0.5 13.8167V15.7833H1.5V13.8167H0.5ZM0.5 17.75V19.7167H1.5V17.75H0.5ZM0.5 21.6833V23.65H1.5V21.6833H0.5ZM0.5 25.6167V27.5833H1.5V25.6167H0.5ZM0.5 29.55V31.5167H1.5V29.55H0.5ZM0.5 33.4833V35.45H1.5V33.4833H0.5ZM0.5 37.4167V39.3833H1.5V37.4167H0.5ZM0.5 41.35V43.3167H1.5V41.35H0.5ZM0.5 45.2833V47.25H1.5V45.2833H0.5ZM0.5 49.2167V51.1833H1.5V49.2167H0.5ZM0.5 53.15V55.1167H1.5V53.15H0.5ZM0.5 57.0833V59.05H1.5V57.0833H0.5ZM0.5 61.0167V62.9833H1.5V61.0167H0.5ZM0.5 64.95V66.9167H1.5V64.95H0.5ZM0.5 68.8833V70.85H1.5V68.8833H0.5ZM0.5 72.8167V74.7833H1.5V72.8167H0.5ZM0.5 76.75V78.7167H1.5V76.75H0.5ZM0.5 80.6833V82.65H1.5V80.6833H0.5ZM0.5 84.6167V86.5834H1.5V84.6167H0.5ZM0.5 88.55V90.5167H1.5V88.55H0.5ZM0.5 92.4834V94.45H1.5V92.4834H0.5ZM0.5 96.4167V98.3834H1.5V96.4167H0.5ZM0.5 100.35V102.317H1.5V100.35H0.5ZM0.5 104.283V106.25H1.5V104.283H0.5ZM0.5 108.217V110.183H1.5V108.217H0.5ZM0.5 112.15V114.117H1.5V112.15H0.5ZM0.5 116.083V118.05H1.5V116.083H0.5ZM0.5 120.017V121H1.5V120.017H0.5ZM1 121.5H1.95833V120.5H1V121.5ZM3.875 121.5H5.79167V120.5H3.875V121.5ZM7.70833 121.5H9.625V120.5H7.70833V121.5ZM11.5417 121.5H13.4583V120.5H11.5417V121.5ZM15.375 121.5H17.2917V120.5H15.375V121.5ZM19.2083 121.5H21.125V120.5H19.2083V121.5ZM23.0417 121.5H24.9583V120.5H23.0417V121.5ZM26.875 121.5H28.7917V120.5H26.875V121.5ZM30.7083 121.5H32.625V120.5H30.7083V121.5ZM34.5417 121.5H36.4583V120.5H34.5417V121.5ZM38.375 121.5H40.2917V120.5H38.375V121.5ZM42.2083 121.5H44.125V120.5H42.2083V121.5ZM46.0417 121.5H47V120.5H46.0417V121.5Z" fill="#555555"/>
</svg>
