<svg width="9" height="75" viewBox="0 0 9 75" fill="none" xmlns="http://www.w3.org/2000/svg">
<g clip-path="url(#clip0_561_2837)">
<path d="M3.99951 74L6.88627 69L1.11276 69L3.99951 74ZM3.49951 7L3.49951 7.98529L4.49951 7.98529L4.49951 7L3.49951 7ZM3.49951 9.95588L3.49951 11.9265L4.49951 11.9265L4.49951 9.95588L3.49951 9.95588ZM3.49951 13.8971L3.49951 15.8676L4.49951 15.8676L4.49951 13.8971L3.49951 13.8971ZM3.49951 17.8382L3.49951 19.8088L4.49951 19.8088L4.49951 17.8382L3.49951 17.8382ZM3.49951 21.7794L3.49951 23.75L4.49951 23.75L4.49951 21.7794L3.49951 21.7794ZM3.49951 25.7206L3.49951 27.6912L4.49951 27.6912L4.49951 25.7206L3.49951 25.7206ZM3.49951 29.6618L3.49951 31.6324L4.49951 31.6324L4.49951 29.6618L3.49951 29.6618ZM3.49951 33.6029L3.49951 35.5735L4.49951 35.5735L4.49951 33.6029L3.49951 33.6029ZM3.49951 37.5441L3.49951 39.5147L4.49951 39.5147L4.49951 37.5441L3.49951 37.5441ZM3.49951 41.4853L3.49951 43.4559L4.49951 43.4559L4.49951 41.4853L3.49951 41.4853ZM3.49951 45.4265L3.49951 47.3971L4.49951 47.3971L4.49951 45.4265L3.49951 45.4265ZM3.49951 49.3677L3.49951 51.3382L4.49951 51.3382L4.49951 49.3677L3.49951 49.3677ZM3.49951 53.3088L3.49951 55.2794L4.49951 55.2794L4.49951 53.3088L3.49951 53.3088ZM3.49951 57.25L3.49951 59.2206L4.49951 59.2206L4.49951 57.25L3.49951 57.25ZM3.49951 61.1912L3.49951 63.1618L4.49951 63.1618L4.49951 61.1912L3.49951 61.1912ZM3.49951 65.1324L3.49951 67.103L4.49951 67.103L4.49951 65.1324L3.49951 65.1324ZM3.49951 69.0735L3.49951 71.0441L4.49951 71.0441L4.49951 69.0735L3.49951 69.0735Z" fill="#E60024"/>
<path d="M4.16602 75L0.166016 69H8.16602L4.16602 75Z" fill="#E60024"/>
</g>
<defs>
<clipPath id="clip0_561_2837">
<rect width="8" height="75" fill="white" transform="translate(0.166016)"/>
</clipPath>
</defs>
</svg>
