<svg width="33" height="28" viewBox="0 0 33 28" fill="none" xmlns="http://www.w3.org/2000/svg">
<path d="M3.54504 1.9894C3.56686 2.08395 3.57413 2.17849 3.57413 2.27304C3.57413 2.37486 3.57413 2.4694 3.54504 2.56395C3.53049 2.65122 3.5014 2.74577 3.46504 2.83304C3.42868 2.92031 3.38504 3.00031 3.33413 3.08031C3.27595 3.16031 3.21777 3.23304 3.14504 3.30577C2.87595 3.58213 2.51231 3.72759 2.11958 3.72759C1.93049 3.72759 1.7414 3.69122 1.56686 3.61849C1.38504 3.54577 1.23231 3.44395 1.09413 3.30577C0.817766 3.0294 0.665039 2.66577 0.665039 2.27304C0.665039 2.17849 0.672312 2.08395 0.69413 1.9894C0.715948 1.90213 0.737766 1.80759 0.77413 1.72031C0.810494 1.63304 0.861403 1.54577 0.912312 1.46577C0.963221 1.38577 1.0214 1.31304 1.09413 1.24759C1.15958 1.18213 1.23231 1.11668 1.31231 1.06577C1.39231 1.01486 1.47958 0.971222 1.56686 0.934858C1.65413 0.898494 1.7414 0.869403 1.83595 0.847585C2.02504 0.811222 2.21413 0.811222 2.40322 0.847585C2.49777 0.869403 2.59231 0.898494 2.67958 0.934858C2.76686 0.971222 2.84686 1.01486 2.92686 1.06577C3.00686 1.11668 3.07958 1.18213 3.14504 1.24759C3.21777 1.31304 3.27595 1.38577 3.32686 1.46577C3.38504 1.54577 3.42868 1.63304 3.46504 1.72031C3.5014 1.80759 3.53049 1.90213 3.54504 1.9894ZM4.04686 4.18577C3.47958 4.75304 3.48686 5.67668 4.05413 6.24395C4.33777 6.52031 4.70868 6.66577 5.07958 6.66577C5.45049 6.66577 5.82868 6.52031 6.11231 6.2294C6.67958 5.66213 6.67231 4.73849 6.10504 4.17122C5.53049 3.61122 4.61413 3.61122 4.04686 4.18577ZM8.03959 9.59668C8.41049 9.59668 8.78868 9.45122 9.07231 9.16031C9.63959 8.59304 9.63231 7.6694 9.07231 7.10213C8.49777 6.54213 7.5814 6.54213 7.01413 7.11668C6.44686 7.68395 6.45413 8.60758 7.01413 9.17486C7.29777 9.45122 7.66868 9.59668 8.03959 9.59668ZM12.025 10.033C11.4505 9.47304 10.5341 9.47304 9.96686 10.0476C9.39958 10.6149 9.40686 11.5385 9.97413 12.1058C10.2578 12.3821 10.6287 12.5276 10.9996 12.5276C11.3705 12.5276 11.7487 12.3821 12.0323 12.0912C12.5996 11.5239 12.5923 10.6003 12.0323 10.033H12.025ZM15.305 13.4439C15.2687 13.3567 15.225 13.2767 15.1669 13.1967C15.1159 13.1167 15.0578 13.0439 14.9923 12.9712C14.9196 12.9058 14.8469 12.8476 14.7669 12.7967C14.6869 12.7385 14.6069 12.6949 14.5196 12.6585C14.4323 12.6221 14.3378 12.593 14.2432 12.5785C14.0541 12.5349 13.865 12.5421 13.6759 12.5785C13.5814 12.593 13.4941 12.6221 13.4069 12.6585C13.3196 12.6949 13.2323 12.7385 13.1523 12.7967C13.0723 12.8476 12.9996 12.9058 12.9341 12.9712C12.8687 13.0439 12.8032 13.1167 12.7523 13.1967C12.7014 13.2767 12.6505 13.3567 12.6141 13.4439C12.5778 13.5385 12.5559 13.6258 12.5341 13.7203C12.5123 13.8149 12.505 13.9094 12.505 14.0039C12.505 14.0985 12.505 14.193 12.5341 14.2876C12.5559 14.3821 12.5778 14.4767 12.6141 14.5567C12.6505 14.6439 12.6941 14.7312 12.7523 14.8112C12.8032 14.8912 12.8614 14.9639 12.9341 15.0294C13.0723 15.1676 13.225 15.2767 13.4069 15.3494C13.5814 15.4221 13.7705 15.4585 13.9596 15.4585C14.3523 15.4585 14.7159 15.3058 14.9923 15.0294C15.0578 14.9639 15.1159 14.8912 15.1741 14.8112C15.225 14.7312 15.2687 14.6439 15.305 14.5567C15.3414 14.4767 15.3705 14.3821 15.385 14.2876C15.4069 14.193 15.4141 14.0985 15.4141 14.0039C15.4141 13.9094 15.4069 13.8149 15.385 13.7203C15.3705 13.6258 15.3414 13.5385 15.305 13.4439ZM9.97413 15.9021C9.40686 16.4694 9.39958 17.3858 9.96686 17.9603C10.2505 18.2439 10.6287 18.3894 10.9996 18.3894C11.3705 18.3894 11.7414 18.2512 12.025 17.9676C12.5923 17.4003 12.5996 16.4839 12.025 15.9094C11.4578 15.3421 10.5414 15.3349 9.96686 15.9094L9.97413 15.9021ZM4.05413 21.7639C3.48686 22.3312 3.47958 23.2476 4.04686 23.8221C4.33049 24.1058 4.7014 24.2512 5.07958 24.2512C5.45777 24.2512 5.8214 24.113 6.10504 23.8294C6.67231 23.2694 6.67958 22.3458 6.11231 21.7712C5.54504 21.2039 4.62868 21.1967 4.05413 21.7639ZM9.07231 18.8403C8.50504 18.273 7.58868 18.2658 7.01413 18.8403C6.44686 19.4076 6.43958 20.3239 7.01413 20.8985C7.29777 21.1821 7.67595 21.3276 8.04686 21.3276C8.41777 21.3276 8.78868 21.1894 9.07231 20.9058C9.63959 20.3385 9.64686 19.4221 9.07231 18.8476V18.8403ZM3.46504 25.1749C3.42868 25.0876 3.38504 25.0003 3.32686 24.9203C3.27595 24.8476 3.21777 24.7676 3.15231 24.7021C3.07958 24.6367 3.00686 24.5785 2.92686 24.5203C2.84686 24.4694 2.76686 24.4258 2.67958 24.3894C2.59231 24.353 2.49777 24.3239 2.40322 24.3021C1.93049 24.2076 1.42868 24.3676 1.09413 24.7021C1.0214 24.7676 0.963221 24.8476 0.912312 24.9203C0.861403 25.0003 0.810494 25.0876 0.77413 25.1749C0.737766 25.2621 0.715948 25.3567 0.69413 25.4439C0.679585 25.5385 0.665039 25.633 0.665039 25.7276C0.665039 25.8294 0.672312 25.924 0.69413 26.0185C0.715948 26.113 0.737766 26.2003 0.77413 26.2876C0.810494 26.3749 0.85413 26.4549 0.912312 26.5349C0.963221 26.6149 1.0214 26.6876 1.09413 26.7603C1.23231 26.8985 1.38504 27.0003 1.56686 27.073C1.7414 27.1458 1.93049 27.1821 2.11958 27.1821C2.50504 27.1821 2.87595 27.0367 3.15231 26.7603C3.21777 26.6876 3.27595 26.6149 3.33413 26.5349C3.38504 26.4549 3.42868 26.3749 3.46504 26.2876C3.5014 26.2003 3.53049 26.113 3.54504 26.0185C3.56686 25.924 3.57413 25.8294 3.57413 25.7276C3.57413 25.633 3.57413 25.5385 3.54504 25.4439C3.53049 25.3567 3.5014 25.2621 3.46504 25.1749ZM18.3523 3.61849C18.5269 3.69122 18.7159 3.72759 18.905 3.72759C19.2978 3.72759 19.6614 3.58213 19.9378 3.30577C20.2069 3.0294 20.3596 2.66577 20.3596 2.27304C20.3596 2.17849 20.3596 2.08395 20.3305 1.9894C20.3159 1.90213 20.2869 1.80759 20.2505 1.72031C20.2141 1.63304 20.1705 1.54577 20.1196 1.46577C20.0614 1.38577 20.0032 1.31304 19.9378 1.24759C19.5959 0.91304 19.0941 0.75304 18.6214 0.847585C18.5269 0.869403 18.4396 0.898494 18.3523 0.934858C18.265 0.971222 18.1778 1.01486 18.0978 1.06577C18.0178 1.11668 17.945 1.18213 17.8796 1.24759C17.8141 1.31304 17.7487 1.38577 17.6978 1.46577C17.6469 1.54577 17.6032 1.63304 17.5669 1.72031C17.5305 1.80759 17.5014 1.90213 17.4796 1.9894C17.465 2.08395 17.4505 2.17849 17.4505 2.27304C17.4505 2.66577 17.6032 3.0294 17.8796 3.30577C18.0178 3.44395 18.1778 3.54577 18.3523 3.61849ZM26.7523 10.0476C26.1923 10.6149 26.1923 11.5385 26.7669 12.1058C27.0505 12.3821 27.4141 12.5276 27.785 12.5276C28.156 12.5276 28.5341 12.3821 28.8178 12.0912C29.385 11.5239 29.385 10.6003 28.8178 10.033C28.2505 9.47304 27.3269 9.47304 26.7596 10.0476H26.7523ZM21.865 6.66577C22.2432 6.66577 22.6141 6.52031 22.8978 6.2294C23.465 5.66213 23.465 4.73849 22.8905 4.17122C22.3232 3.61122 21.3996 3.61122 20.8323 4.18577C20.2723 4.75304 20.2723 5.67668 20.8469 6.24395C21.1305 6.52031 21.4941 6.66577 21.865 6.66577ZM23.7923 7.11668C23.225 7.68395 23.2323 8.60758 23.8069 9.17486C24.0905 9.45122 24.4541 9.59668 24.825 9.59668C25.1959 9.59668 25.5741 9.45122 25.8578 9.16031C26.425 8.59304 26.425 7.6694 25.8505 7.10213C25.2832 6.54213 24.3596 6.54213 23.7923 7.11668ZM32.1705 13.7203C32.1559 13.6258 32.1269 13.5385 32.0905 13.4439C32.0541 13.3567 32.0105 13.2767 31.9596 13.1967C31.9014 13.1167 31.8432 13.0439 31.7778 12.9712C31.705 12.9058 31.6323 12.8476 31.5523 12.7967C31.4723 12.7385 31.3923 12.6949 31.305 12.6585C31.2178 12.6221 31.1232 12.593 31.0287 12.5785C30.8469 12.5421 30.6505 12.5349 30.4614 12.5785C30.3669 12.593 30.2796 12.6221 30.1923 12.6585C30.105 12.6949 30.0178 12.7385 29.9378 12.7967C29.8578 12.8476 29.785 12.9058 29.7196 12.9712C29.6541 13.0439 29.5887 13.1167 29.5378 13.1967C29.4869 13.2767 29.4432 13.3567 29.4069 13.4439C29.3705 13.5385 29.3414 13.6258 29.3196 13.7203C29.305 13.8149 29.2905 13.9094 29.2905 14.0039C29.2905 14.0985 29.305 14.193 29.3196 14.2876C29.3414 14.3821 29.3705 14.4767 29.3996 14.5567C29.4359 14.6439 29.4869 14.7312 29.5378 14.8112C29.5887 14.8912 29.6541 14.9639 29.7196 15.0294C29.9959 15.3058 30.3596 15.4585 30.745 15.4585C30.9414 15.4585 31.1305 15.4221 31.305 15.3494C31.4796 15.2767 31.6396 15.1676 31.7778 15.0294C31.8432 14.9639 31.9014 14.8912 31.9596 14.8112C32.0105 14.7312 32.0541 14.6439 32.0905 14.5567C32.1269 14.4767 32.1559 14.3821 32.1705 14.2876C32.1923 14.193 32.1996 14.0985 32.1996 14.0039C32.1996 13.9094 32.1996 13.8149 32.1705 13.7203ZM26.7669 15.9021C26.1923 16.4694 26.185 17.3858 26.7523 17.9603C27.0359 18.2439 27.4141 18.3894 27.785 18.3894C28.156 18.3894 28.5269 18.2512 28.8105 17.9676C29.385 17.4003 29.385 16.4839 28.8105 15.9094C28.2505 15.3421 27.3269 15.3349 26.7596 15.9094L26.7669 15.9021ZM23.8069 18.833C23.2323 19.4003 23.225 20.3167 23.7923 20.8912C24.0759 21.1749 24.4541 21.3203 24.825 21.3203C25.1959 21.3203 25.5669 21.1821 25.8505 20.8985C26.4178 20.3312 26.425 19.4149 25.8578 18.8403C25.2978 18.273 24.3741 18.2658 23.8069 18.8403V18.833ZM20.8396 21.7639C20.2723 22.3312 20.265 23.2476 20.8323 23.8221C21.1159 24.1058 21.4941 24.2512 21.865 24.2512C22.2359 24.2512 22.6069 24.113 22.8905 23.8294C23.4578 23.2694 23.465 22.3458 22.8978 21.7712C22.3378 21.2039 21.4141 21.1967 20.8396 21.7639ZM20.2505 25.1749C20.2141 25.0876 20.1705 25.0003 20.1196 24.9203C20.0614 24.8476 20.0032 24.7676 19.9378 24.7021C19.3923 24.1567 18.425 24.1567 17.8796 24.7021C17.8141 24.7676 17.7487 24.8476 17.6978 24.9203C17.6469 25.0003 17.6032 25.0876 17.5669 25.1749C17.5305 25.2621 17.5014 25.3567 17.4796 25.4439C17.465 25.5385 17.4505 25.633 17.4505 25.7276C17.4505 25.8294 17.465 25.924 17.4796 26.0185C17.5014 26.113 17.5232 26.2003 17.5596 26.2876C17.5959 26.3749 17.6469 26.4549 17.6978 26.5349C17.7487 26.6149 17.8069 26.6876 17.8796 26.7603C18.1559 27.0367 18.5196 27.1821 18.905 27.1821C19.2905 27.1821 19.6614 27.0367 19.9378 26.7603C20.0032 26.6876 20.0614 26.6149 20.1196 26.5349C20.1705 26.4549 20.2141 26.3749 20.2505 26.2876C20.2869 26.2003 20.3159 26.113 20.3305 26.0185C20.3523 25.924 20.3596 25.8294 20.3596 25.7276C20.3596 25.633 20.3596 25.5385 20.3305 25.4439C20.3159 25.3567 20.2869 25.2621 20.2505 25.1749ZM10.4978 3.72759C10.8832 3.72759 11.2469 3.58213 11.5232 3.30577C11.7996 3.0294 11.9523 2.66577 11.9523 2.27304C11.9523 2.17849 11.9523 2.08395 11.9232 1.9894C11.9014 1.90213 11.8796 1.80759 11.8432 1.72031C11.8069 1.63304 11.7559 1.54577 11.705 1.46577C11.6541 1.38577 11.5959 1.31304 11.5232 1.24759C11.1887 0.91304 10.6869 0.75304 10.2141 0.847585C10.1196 0.869403 10.025 0.898494 9.93777 0.934858C9.85049 0.971222 9.77049 1.01486 9.69049 1.06577C9.61049 1.11668 9.53777 1.18213 9.46504 1.24759C9.19595 1.51668 9.04322 1.89486 9.04322 2.27304C9.04322 2.65122 9.19595 3.0294 9.46504 3.30577C9.7414 3.58213 10.1123 3.72759 10.4978 3.72759ZM13.4578 6.66577C13.8287 6.66577 14.2069 6.52031 14.4905 6.2294C15.0578 5.66213 15.0505 4.73849 14.4832 4.17122C13.9087 3.61122 12.9923 3.61122 12.425 4.18577C11.8578 4.75304 11.865 5.67668 12.4323 6.24395C12.7159 6.52031 13.0869 6.66577 13.4578 6.66577ZM18.345 10.0476C17.7778 10.6149 17.785 11.5385 18.3523 12.1058C18.6359 12.3821 19.0069 12.5276 19.3778 12.5276C19.7487 12.5276 20.1269 12.3821 20.4105 12.0912C20.9778 11.5239 20.9705 10.6003 20.4105 10.033C19.8359 9.47304 18.9196 9.47304 18.3523 10.0476H18.345ZM16.4178 9.59668C16.7887 9.59668 17.1669 9.45122 17.4505 9.16031C18.0178 8.59304 18.0105 7.6694 17.4505 7.10213C16.8759 6.54213 15.9596 6.54213 15.3923 7.11668C14.825 7.68395 14.8323 8.60758 15.3923 9.17486C15.6759 9.45122 16.0469 9.59668 16.4178 9.59668ZM23.6832 14.5567C23.7196 14.4767 23.7414 14.3821 23.7632 14.2876C23.785 14.193 23.7923 14.0985 23.7923 14.0039C23.7923 13.9094 23.785 13.8149 23.7632 13.7203C23.7414 13.6258 23.7196 13.5385 23.6832 13.4439C23.6469 13.3567 23.5959 13.2767 23.545 13.1967C23.4941 13.1167 23.4287 13.0439 23.3632 12.9712C23.2978 12.9058 23.225 12.8476 23.145 12.7967C23.065 12.7385 22.9778 12.6949 22.8905 12.6585C22.8032 12.6221 22.716 12.593 22.6214 12.5785C22.4323 12.5349 22.2432 12.5421 22.0541 12.5785C21.9596 12.593 21.865 12.6221 21.7778 12.6585C21.6905 12.6949 21.6105 12.7385 21.5305 12.7967C21.4505 12.8476 21.3778 12.9058 21.305 12.9712C21.2396 13.0439 21.1814 13.1167 21.1305 13.1967C21.0723 13.2767 21.0287 13.3567 20.9923 13.4439C20.9559 13.5385 20.9269 13.6258 20.9123 13.7203C20.8905 13.8149 20.8832 13.9094 20.8832 14.0039C20.8832 14.0985 20.8832 14.193 20.9123 14.2876C20.9269 14.3821 20.9559 14.4767 20.9923 14.5567C21.0287 14.6439 21.0723 14.7312 21.1232 14.8112C21.1814 14.8912 21.2396 14.9639 21.305 15.0294C21.4432 15.1676 21.6032 15.2767 21.7778 15.3494C21.9523 15.4221 22.1414 15.4585 22.3378 15.4585C22.7232 15.4585 23.0941 15.3058 23.3632 15.0294C23.4359 14.9639 23.4941 14.8912 23.545 14.8112C23.6032 14.7312 23.6469 14.6439 23.6832 14.5567ZM12.4323 21.7639C11.865 22.3312 11.8578 23.2476 12.425 23.8221C12.7087 24.1058 13.0796 24.2512 13.4578 24.2512C13.8359 24.2512 14.1996 24.113 14.4832 23.8294C15.0505 23.2694 15.0578 22.3458 14.4905 21.7712C13.9232 21.2039 13.0069 21.1967 12.4323 21.7639ZM20.4105 15.9094C19.8432 15.3421 18.9269 15.3349 18.3523 15.9094C17.785 16.4767 17.7778 17.393 18.345 17.9676C18.6287 18.2512 18.9996 18.3967 19.3778 18.3967C19.7559 18.3967 20.1196 18.2585 20.4032 17.9749C20.9705 17.4076 20.9778 16.4912 20.4032 15.9167L20.4105 15.9094ZM17.4505 18.8403C16.8832 18.273 15.9669 18.2658 15.3923 18.8403C14.825 19.4076 14.8178 20.3239 15.3923 20.8985C15.6759 21.1821 16.0469 21.3276 16.425 21.3276C16.8032 21.3276 17.1669 21.1894 17.4505 20.9058C18.0178 20.3385 18.025 19.4221 17.4505 18.8476V18.8403ZM11.8359 25.1749C11.7996 25.0876 11.7559 25.0003 11.705 24.9203C11.6541 24.8476 11.5887 24.7676 11.5232 24.7021C10.985 24.1567 10.0105 24.1567 9.46504 24.7021C9.39958 24.7676 9.3414 24.8476 9.29049 24.9203C9.23231 25.0003 9.18868 25.0876 9.15231 25.1749C9.11595 25.2621 9.08686 25.3567 9.07231 25.4439C9.05049 25.5385 9.04322 25.633 9.04322 25.7276C9.04322 25.8294 9.05049 25.924 9.07231 26.0185C9.08686 26.113 9.11595 26.2003 9.15231 26.2876C9.18868 26.3749 9.23231 26.4549 9.28322 26.5349C9.3414 26.6149 9.39958 26.6876 9.46504 26.7603C9.7414 27.0367 10.1123 27.1821 10.4978 27.1821C10.8832 27.1821 11.2469 27.0367 11.5232 26.7603C11.5959 26.6876 11.6541 26.6149 11.705 26.5349C11.7632 26.4549 11.8069 26.3749 11.8432 26.2876C11.8796 26.2003 11.9014 26.113 11.9232 26.0185C11.945 25.924 11.9523 25.8294 11.9523 25.7276C11.9523 25.633 11.9378 25.5385 11.9232 25.4439C11.9014 25.3567 11.8723 25.2621 11.8359 25.1749Z" fill="black" fill-opacity="0.2"/>
</svg>
