<svg width="49" height="48" viewBox="0 0 49 48" fill="none" xmlns="http://www.w3.org/2000/svg">
<path d="M11.6904 19.5841L14.0103 12.3873C14.3516 11.4963 15.2136 10.9062 16.1682 10.9062H33.2403C34.2007 10.9062 35.0569 11.4963 35.3982 12.3873L37.7239 19.5841" fill="white"/>
<path d="M11.6904 19.5841L14.0103 12.3873C14.3516 11.4963 15.2136 10.9062 16.1682 10.9062H33.2403C34.2007 10.9062 35.0569 11.4963 35.3982 12.3873L37.7239 19.5841" stroke="#1D1D1D" stroke-width="2" stroke-miterlimit="10" stroke-linecap="round" stroke-linejoin="round"/>
<path d="M12.2689 34.0481V36.0729C12.2689 37.1894 11.3607 38.0977 10.2441 38.0977C9.12758 38.0977 8.2193 37.1894 8.2193 36.0729V32.3125" fill="white"/>
<path d="M12.2689 34.0481V36.0729C12.2689 37.1894 11.3607 38.0977 10.2441 38.0977C9.12758 38.0977 8.2193 37.1894 8.2193 36.0729V32.3125" stroke="#1D1D1D" stroke-width="2" stroke-miterlimit="10" stroke-linecap="round" stroke-linejoin="round"/>
<path d="M41.195 32.3125V36.0729C41.195 37.1894 40.2868 38.0977 39.1702 38.0977C38.0537 38.0977 37.1454 37.1894 37.1454 36.0729V34.0481" fill="white"/>
<path d="M41.195 32.3125V36.0729C41.195 37.1894 40.2868 38.0977 39.1702 38.0977C38.0537 38.0977 37.1454 37.1894 37.1454 36.0729V34.0481" stroke="#1D1D1D" stroke-width="2" stroke-miterlimit="10" stroke-linecap="round" stroke-linejoin="round"/>
<path d="M11.9508 19.5826H7.90112C7.15482 19.5826 6.55316 18.981 6.55316 18.2347C6.55316 17.4884 7.15482 16.8867 7.90112 16.8867H9.9028C10.4408 16.8867 10.9326 17.2107 11.1408 17.7024L11.9508 19.5826Z" fill="white" stroke="#1D1D1D" stroke-width="2" stroke-miterlimit="10" stroke-linecap="round" stroke-linejoin="round"/>
<path d="M37.6024 19.5826H41.652C42.3983 19.5826 43 18.981 43 18.2347C43 17.4884 42.3983 16.8867 41.652 16.8867H39.6503C39.1123 16.8867 38.6206 17.2107 38.4123 17.7024L37.6024 19.5826Z" fill="white" stroke="#1D1D1D" stroke-width="2" stroke-miterlimit="10" stroke-linecap="round" stroke-linejoin="round"/>
<path d="M16.388 34.049H10.5334C9.25485 34.049 8.2193 33.0134 8.2193 31.7349V24.8216C8.2193 24.3067 8.39286 23.8034 8.71104 23.3926L11.6904 19.5859H37.7239L40.7033 23.3926C41.0214 23.7976 41.195 24.3009 41.195 24.8216V31.7349C41.195 33.0134 40.1595 34.049 38.8809 34.049H32.8064" fill="white"/>
<path d="M16.388 34.049H10.5334C9.25485 34.049 8.2193 33.0134 8.2193 31.7349V24.8216C8.2193 24.3067 8.39286 23.8034 8.71104 23.3926L11.6904 19.5859H37.7239L40.7033 23.3926C41.0214 23.7976 41.195 24.3009 41.195 24.8216V31.7349C41.195 33.0134 40.1595 34.049 38.8809 34.049H32.8064" stroke="#1D1D1D" stroke-width="2" stroke-miterlimit="10" stroke-linecap="round" stroke-linejoin="round"/>
<path d="M32.8064 31.7344H16.6078V34.8179H32.8064V31.7344Z" stroke="#1D1D1D" stroke-width="2" stroke-miterlimit="10" stroke-linecap="round" stroke-linejoin="round"/>
<path d="M14.8723 26.6698C14.8723 27.6823 14.0508 28.5038 13.0384 28.5038C12.026 28.5038 11.2045 27.6823 11.2045 26.6698C11.2045 25.6574 12.026 24.8359 13.0384 24.8359C14.0508 24.8359 14.8723 25.6574 14.8723 26.6698Z" stroke="#E60024" stroke-width="2" stroke-miterlimit="10" stroke-linecap="round" stroke-linejoin="round"/>
<path d="M38.2041 26.6698C38.2041 27.6823 37.3826 28.5038 36.3702 28.5038C35.3578 28.5038 34.5363 27.6823 34.5363 26.6698C34.5363 25.6574 35.3578 24.8359 36.3702 24.8359C37.3826 24.8359 38.2041 25.6574 38.2041 26.6698Z" stroke="#E60024" stroke-width="2" stroke-miterlimit="10" stroke-linecap="round" stroke-linejoin="round"/>
<path d="M31.1634 28.4047H18.2451L17.088 24.9336H32.3205L31.1634 28.4047Z" stroke="#1D1D1D" stroke-width="2" stroke-miterlimit="10" stroke-linecap="round" stroke-linejoin="round"/>
</svg>
