<svg width="80" height="80" viewBox="0 0 80 80" fill="none" xmlns="http://www.w3.org/2000/svg">
<path d="M47.2118 54.0401L41.8809 55.0401L42.8817 49.7068" stroke="#1D1D1D" stroke-width="2" stroke-linecap="round" stroke-linejoin="round"/>
<path d="M47.3654 54.0399L60.2691 41.1999C60.5293 40.9399 60.5293 40.5199 60.2691 40.2599L56.7262 36.7199C56.466 36.4599 56.0457 36.4599 55.7855 36.7199L42.8818 49.5599L47.3654 54.0399Z" stroke="#1D1D1D" stroke-width="2" stroke-linecap="round" stroke-linejoin="round"/>
<path d="M27.089 22.3977V55.4601C27.089 55.4601 27.3092 59.5068 23.1191 59.5068" stroke="#1D1D1D" stroke-width="2" stroke-linecap="round" stroke-linejoin="round"/>
<path d="M32.4268 30.6655H49.774" stroke="#E60024" stroke-width="2" stroke-linecap="round" stroke-linejoin="round"/>
<path d="M32.4268 36.0017H49.774" stroke="#E60024" stroke-width="2" stroke-linecap="round" stroke-linejoin="round"/>
<path d="M32.4268 41.3345H41.1004" stroke="#E60024" stroke-width="2" stroke-linecap="round" stroke-linejoin="round"/>
<path d="M32.4268 47.3333H41.1004" stroke="#E60024" stroke-width="2" stroke-linecap="round" stroke-linejoin="round"/>
<path d="M54.4444 38V24C54.4444 21.7909 52.6535 20 50.4444 20H31.0361C28.8478 20 27.065 21.7598 27.0412 23.948C26.9503 32.3105 26.962 38.0467 26.9691 47.3333H23.75C21.5409 47.3333 19.75 49.1242 19.75 51.3333V54.9933C19.75 58.7267 22.8391 60 26.6155 60H47.5789C51.3553 60 54.4444 57.3933 54.4444 53.66V47.3333" stroke="#1D1D1D" stroke-width="2" stroke-linecap="round" stroke-linejoin="round"/>
</svg>
