<svg width="83" height="361" viewBox="0 0 83 361" fill="none" xmlns="http://www.w3.org/2000/svg">
<path d="M0.999893 360L0.499893 360L0.499893 360.5L0.999893 360.5L0.999893 360ZM0.999908 3L0.999908 2.5L0.499908 2.5L0.499908 3L0.999908 3ZM48.4999 3L43.4999 0.113247L43.4999 5.88675L48.4999 3ZM45.5311 2.5L43.552 2.5L43.552 3.5L45.5311 3.5L45.5311 2.5ZM41.5728 2.5L39.5936 2.5L39.5936 3.5L41.5728 3.5L41.5728 2.5ZM37.6145 2.5L35.6353 2.5L35.6353 3.5L37.6145 3.5L37.6145 2.5ZM33.6561 2.5L31.677 2.5L31.677 3.5L33.6561 3.5L33.6561 2.5ZM29.6978 2.5L27.7187 2.5L27.7187 3.5L29.6978 3.5L29.6978 2.5ZM25.7395 2.5L23.7603 2.5L23.7603 3.5L25.7395 3.5L25.7395 2.5ZM21.7812 2.5L19.802 2.5L19.802 3.5L21.7812 3.5L21.7812 2.5ZM17.8228 2.5L15.8437 2.5L15.8437 3.5L17.8228 3.5L17.8228 2.5ZM13.8645 2.5L11.8853 2.5L11.8853 3.5L13.8645 3.5L13.8645 2.5ZM9.90616 2.5L7.92699 2.5L7.92699 3.5L9.90616 3.5L9.90616 2.5ZM5.94783 2.5L3.96867 2.5L3.96867 3.5L5.94783 3.5L5.94783 2.5ZM1.9895 2.5L0.999908 2.5L0.999908 3.5L1.9895 3.5L1.9895 2.5ZM0.499908 3L0.499908 4.00281L1.49991 4.00281L1.49991 3L0.499908 3ZM0.499908 6.00843L0.499908 8.01404L1.49991 8.01404L1.49991 6.00843L0.499908 6.00843ZM0.499908 10.0197L0.499908 12.0253L1.49991 12.0253L1.49991 10.0197L0.499908 10.0197ZM0.499908 14.0309L0.499908 16.0365L1.49991 16.0365L1.49991 14.0309L0.499908 14.0309ZM0.499908 18.0421L0.499908 20.0478L1.49991 20.0478L1.49991 18.0421L0.499908 18.0421ZM0.499908 22.0534L0.499908 24.059L1.49991 24.059L1.49991 22.0534L0.499908 22.0534ZM0.499907 26.0646L0.499907 28.0702L1.49991 28.0702L1.49991 26.0646L0.499907 26.0646ZM0.499907 30.0758L0.499907 32.0815L1.49991 32.0815L1.49991 30.0758L0.499907 30.0758ZM0.499907 34.0871L0.499907 36.0927L1.49991 36.0927L1.49991 34.0871L0.499907 34.0871ZM0.499907 38.0983L0.499907 40.1039L1.49991 40.1039L1.49991 38.0983L0.499907 38.0983ZM0.499907 42.1096L0.499907 44.1152L1.49991 44.1152L1.49991 42.1096L0.499907 42.1096ZM0.499907 46.1208L0.499906 48.1264L1.49991 48.1264L1.49991 46.1208L0.499907 46.1208ZM0.499906 50.132L0.499906 52.1377L1.49991 52.1377L1.49991 50.132L0.499906 50.132ZM0.499906 54.1433L0.499906 56.1489L1.49991 56.1489L1.49991 54.1433L0.499906 54.1433ZM0.499906 58.1545L0.499906 60.1601L1.49991 60.1601L1.49991 58.1545L0.499906 58.1545ZM0.499906 62.1658L0.499906 64.1714L1.49991 64.1714L1.49991 62.1658L0.499906 62.1658ZM0.499906 66.177L0.499906 68.1826L1.49991 68.1826L1.49991 66.177L0.499906 66.177ZM0.499906 70.1882L0.499905 72.1938L1.49991 72.1938L1.49991 70.1882L0.499906 70.1882ZM0.499905 74.1995L0.499905 76.2051L1.49991 76.2051L1.49991 74.1995L0.499905 74.1995ZM0.499905 78.2107L0.499905 80.2163L1.49991 80.2163L1.49991 78.2107L0.499905 78.2107ZM0.499905 82.2219L0.499905 84.2275L1.4999 84.2275L1.4999 82.2219L0.499905 82.2219ZM0.499905 86.2331L0.499905 88.2388L1.4999 88.2388L1.4999 86.2331L0.499905 86.2331ZM0.499905 90.2444L0.499905 92.25L1.4999 92.25L1.4999 90.2444L0.499905 90.2444ZM0.499904 94.2556L0.499904 96.2612L1.4999 96.2612L1.4999 94.2556L0.499904 94.2556ZM0.499904 98.2668L0.499904 100.272L1.4999 100.272L1.4999 98.2668L0.499904 98.2668ZM0.499904 102.278L0.499904 104.284L1.4999 104.284L1.4999 102.278L0.499904 102.278ZM0.499904 106.289L0.499904 108.295L1.4999 108.295L1.4999 106.289L0.499904 106.289ZM0.499904 110.301L0.499904 112.306L1.4999 112.306L1.4999 110.301L0.499904 110.301ZM0.499904 114.312L0.499903 116.317L1.4999 116.317L1.4999 114.312L0.499904 114.312ZM0.499903 118.323L0.499903 120.329L1.4999 120.329L1.4999 118.323L0.499903 118.323ZM0.499903 122.334L0.499903 124.34L1.4999 124.34L1.4999 122.334L0.499903 122.334ZM0.499903 126.345L0.499903 128.351L1.4999 128.351L1.4999 126.345L0.499903 126.345ZM0.499903 130.357L0.499903 132.362L1.4999 132.362L1.4999 130.357L0.499903 130.357ZM0.499903 134.368L0.499903 136.374L1.4999 136.374L1.4999 134.368L0.499903 134.368ZM0.499903 138.379L0.499902 140.385L1.4999 140.385L1.4999 138.379L0.499903 138.379ZM0.499902 142.39L0.499902 144.396L1.4999 144.396L1.4999 142.39L0.499902 142.39ZM0.499902 146.402L0.499902 148.407L1.4999 148.407L1.4999 146.402L0.499902 146.402ZM0.499902 150.413L0.499902 152.418L1.4999 152.418L1.4999 150.413L0.499902 150.413ZM0.499902 154.424L0.499902 156.43L1.4999 156.43L1.4999 154.424L0.499902 154.424ZM0.499902 158.435L0.499902 160.441L1.4999 160.441L1.4999 158.435L0.499902 158.435ZM0.499901 162.447L0.499901 164.452L1.4999 164.452L1.4999 162.447L0.499901 162.447ZM0.499901 166.458L0.499901 168.463L1.4999 168.463L1.4999 166.458L0.499901 166.458ZM0.499901 170.469L0.499901 172.475L1.4999 172.475L1.4999 170.469L0.499901 170.469ZM0.499901 174.48L0.499901 176.486L1.4999 176.486L1.4999 174.48L0.499901 174.48ZM0.499901 178.491L0.499901 180.497L1.4999 180.497L1.4999 178.491L0.499901 178.491ZM0.499901 182.503L0.499901 184.508L1.4999 184.508L1.4999 182.503L0.499901 182.503ZM0.4999 186.514L0.4999 188.52L1.4999 188.52L1.4999 186.514L0.4999 186.514ZM0.4999 190.525L0.4999 192.531L1.4999 192.531L1.4999 190.525L0.4999 190.525ZM0.4999 194.536L0.4999 196.542L1.4999 196.542L1.4999 194.536L0.4999 194.536ZM0.4999 198.548L0.4999 200.553L1.4999 200.553L1.4999 198.548L0.4999 198.548ZM0.4999 202.559L0.4999 204.564L1.4999 204.564L1.4999 202.559L0.4999 202.559ZM0.4999 206.57L0.499899 208.576L1.4999 208.576L1.4999 206.57L0.4999 206.57ZM0.499899 210.581L0.499899 212.587L1.4999 212.587L1.4999 210.581L0.499899 210.581ZM0.499899 214.593L0.499899 216.598L1.4999 216.598L1.4999 214.593L0.499899 214.593ZM0.499899 218.604L0.499899 220.609L1.4999 220.609L1.4999 218.604L0.499899 218.604ZM0.499899 222.615L0.499899 224.621L1.4999 224.621L1.4999 222.615L0.499899 222.615ZM0.499899 226.626L0.499899 228.632L1.4999 228.632L1.4999 226.626L0.499899 226.626ZM0.499898 230.637L0.499898 232.643L1.4999 232.643L1.4999 230.637L0.499898 230.637ZM0.499898 234.649L0.499898 236.654L1.4999 236.654L1.4999 234.649L0.499898 234.649ZM0.499898 238.66L0.499898 240.666L1.4999 240.666L1.4999 238.66L0.499898 238.66ZM0.499898 242.671L0.499898 244.677L1.4999 244.677L1.4999 242.671L0.499898 242.671ZM0.499898 246.682L0.499898 248.688L1.4999 248.688L1.4999 246.682L0.499898 246.682ZM0.499898 250.694L0.499898 252.699L1.4999 252.699L1.4999 250.694L0.499898 250.694ZM0.499897 254.705L0.499897 256.71L1.4999 256.71L1.4999 254.705L0.499897 254.705ZM0.499897 258.716L0.499897 260.722L1.4999 260.722L1.4999 258.716L0.499897 258.716ZM0.499897 262.727L0.499897 264.733L1.4999 264.733L1.4999 262.727L0.499897 262.727ZM0.499897 266.739L0.499897 268.744L1.4999 268.744L1.4999 266.739L0.499897 266.739ZM0.499897 270.75L0.499897 272.755L1.4999 272.755L1.4999 270.75L0.499897 270.75ZM0.499897 274.761L0.499896 276.767L1.4999 276.767L1.4999 274.761L0.499897 274.761ZM0.499896 278.772L0.499896 280.778L1.4999 280.778L1.4999 278.772L0.499896 278.772ZM0.499896 282.783L0.499896 284.789L1.4999 284.789L1.4999 282.783L0.499896 282.783ZM0.499896 286.795L0.499896 288.8L1.4999 288.8L1.4999 286.795L0.499896 286.795ZM0.499896 290.806L0.499896 292.812L1.4999 292.812L1.4999 290.806L0.499896 290.806ZM0.499896 294.817L0.499896 296.823L1.4999 296.823L1.4999 294.817L0.499896 294.817ZM0.499896 298.828L0.499895 300.834L1.4999 300.834L1.4999 298.828L0.499896 298.828ZM0.499895 302.84L0.499895 304.845L1.4999 304.845L1.4999 302.84L0.499895 302.84ZM0.499895 306.851L0.499895 308.856L1.4999 308.856L1.4999 306.851L0.499895 306.851ZM0.499895 310.862L0.499895 312.868L1.49989 312.868L1.49989 310.862L0.499895 310.862ZM0.499895 314.873L0.499895 316.879L1.49989 316.879L1.49989 314.873L0.499895 314.873ZM0.499895 318.885L0.499895 320.89L1.49989 320.89L1.49989 318.885L0.499895 318.885ZM0.499894 322.896L0.499894 324.901L1.49989 324.901L1.49989 322.896L0.499894 322.896ZM0.499894 326.907L0.499894 328.913L1.49989 328.913L1.49989 326.907L0.499894 326.907ZM0.499894 330.918L0.499894 332.924L1.49989 332.924L1.49989 330.918L0.499894 330.918ZM0.499894 334.929L0.499894 336.935L1.49989 336.935L1.49989 334.929L0.499894 334.929ZM0.499894 338.941L0.499894 340.946L1.49989 340.946L1.49989 338.941L0.499894 338.941ZM0.499894 342.952L0.499893 344.958L1.49989 344.958L1.49989 342.952L0.499894 342.952ZM0.499893 346.963L0.499893 348.969L1.49989 348.969L1.49989 346.963L0.499893 346.963ZM0.499893 350.974L0.499893 352.98L1.49989 352.98L1.49989 350.974L0.499893 350.974ZM0.499893 354.986L0.499893 356.991L1.49989 356.991L1.49989 354.986L0.499893 354.986ZM0.499893 358.997L0.499893 360L1.49989 360L1.49989 358.997L0.499893 358.997ZM0.999893 360.5L1.97608 360.5L1.97608 359.5L0.999893 359.5L0.999893 360.5ZM3.92847 360.5L5.88085 360.5L5.88085 359.5L3.92847 359.5L3.92847 360.5ZM7.83324 360.5L9.78562 360.5L9.78562 359.5L7.83324 359.5L7.83324 360.5ZM11.738 360.5L13.6904 360.5L13.6904 359.5L11.738 359.5L11.738 360.5ZM15.6428 360.5L17.5952 360.5L17.5952 359.5L15.6428 359.5L15.6428 360.5ZM19.5475 360.5L21.4999 360.5L21.4999 359.5L19.5475 359.5L19.5475 360.5ZM23.4523 360.5L25.4047 360.5L25.4047 359.5L23.4523 359.5L23.4523 360.5ZM27.3571 360.5L29.3095 360.5L29.3095 359.5L27.3571 359.5L27.3571 360.5ZM31.2618 360.5L33.2142 360.5L33.2142 359.5L31.2618 359.5L31.2618 360.5ZM35.1666 360.5L37.119 360.5L37.119 359.5L35.1666 359.5L35.1666 360.5ZM39.0714 360.5L41.0238 360.5L41.0238 359.5L39.0714 359.5L39.0714 360.5ZM42.9761 360.5L44.9285 360.5L44.9285 359.5L42.9761 359.5L42.9761 360.5ZM46.8809 360.5L48.8333 360.5L48.8333 359.5L46.8809 359.5L46.8809 360.5ZM50.7857 360.5L52.7381 360.5L52.7381 359.5L50.7857 359.5L50.7857 360.5ZM54.6905 360.5L56.6428 360.5L56.6428 359.5L54.6905 359.5L54.6905 360.5ZM58.5952 360.5L60.5476 360.5L60.5476 359.5L58.5952 359.5L58.5952 360.5ZM62.5 360.5L64.4524 360.5L64.4524 359.5L62.5 359.5L62.5 360.5ZM66.4048 360.5L68.3571 360.5L68.3571 359.5L66.4048 359.5L66.4048 360.5ZM70.3095 360.5L72.2619 360.5L72.2619 359.5L70.3095 359.5L70.3095 360.5ZM74.2143 360.5L76.1667 360.5L76.1667 359.5L74.2143 359.5L74.2143 360.5ZM78.1191 360.5L80.0715 360.5L80.0715 359.5L78.1191 359.5L78.1191 360.5ZM82.0238 360.5L83 360.5L83 359.5L82.0238 359.5L82.0238 360.5Z" fill="#555555"/>
</svg>
