<svg width="775" height="183" viewBox="0 0 775 183" fill="none" xmlns="http://www.w3.org/2000/svg">
<path d="M31.1133 37.9062C30.6055 36.1094 29.6582 34.7227 28.2715 33.7461C26.8848 32.7695 25.1562 32.2812 23.0859 32.2812C21.0156 32.2812 19.209 32.7891 17.666 33.8047C16.1426 34.8203 14.9609 36.3047 14.1211 38.2578C13.3008 40.1914 12.8906 42.5156 12.8906 45.2305C12.8906 47.9844 13.291 50.3379 14.0918 52.291C14.8926 54.2441 16.0547 55.7383 17.5781 56.7734C19.1016 57.7891 20.9375 58.2969 23.0859 58.2969C25.8789 58.2969 28.0566 57.623 29.6191 56.2754C31.1816 54.9082 31.9922 53.0625 32.0508 50.7383H23.4961V43.4141H41.6602V48.9805C41.6602 52.6719 40.8691 55.8848 39.2871 58.6191C37.7051 61.3535 35.498 63.4531 32.666 64.918C29.8535 66.3633 26.6406 67.0859 23.0273 67.0859C19.0039 67.0859 15.459 66.207 12.3926 64.4492C9.32617 62.6914 6.94336 60.1719 5.24414 56.8906C3.54492 53.6094 2.69531 49.7617 2.69531 45.3477C2.69531 40.8359 3.57422 36.9395 5.33203 33.6582C7.10938 30.3574 9.52148 27.8379 12.5684 26.0996C15.6348 24.3613 19.0625 23.4922 22.8516 23.4922C26.0742 23.4922 29.0137 24.1074 31.6699 25.3379C34.3457 26.5684 36.5234 28.2773 38.2031 30.4648C39.8828 32.6523 40.8984 35.1328 41.25 37.9062H31.1133ZM53.0438 24.0781L62.1844 41.8906H62.5359L71.6766 24.0781H82.8094L67.3406 52.1445V66.5H57.3797V52.1445L41.8523 24.0781H53.0438ZM85.2867 24.0781H114.642V32.2227H95.2477V41.1875H113.119V49.332H95.2477V58.3555H114.701V66.5H85.2867V24.0781ZM159.014 45.2891C159.014 49.8398 158.135 53.7559 156.377 57.0371C154.639 60.3184 152.237 62.8184 149.17 64.5371C146.123 66.2363 142.686 67.0859 138.858 67.0859C135.01 67.0859 131.563 66.2266 128.516 64.5078C125.469 62.7891 123.067 60.2891 121.309 57.0078C119.571 53.7266 118.702 49.8203 118.702 45.2891C118.702 40.7383 119.571 36.8223 121.309 33.541C123.067 30.2598 125.469 27.7695 128.516 26.0703C131.563 24.3516 135.01 23.4922 138.858 23.4922C142.686 23.4922 146.123 24.3516 149.17 26.0703C152.237 27.7695 154.639 30.2598 156.377 33.541C158.135 36.8223 159.014 40.7383 159.014 45.2891ZM148.819 45.2891C148.819 42.5156 148.418 40.1523 147.618 38.1992C146.836 36.2461 145.694 34.7715 144.19 33.7754C142.705 32.7793 140.928 32.2812 138.858 32.2812C136.787 32.2812 135 32.7793 133.496 33.7754C132.012 34.7715 130.87 36.2461 130.069 38.1992C129.287 40.1523 128.897 42.5156 128.897 45.2891C128.897 48.0625 129.287 50.4258 130.069 52.3789C130.87 54.332 132.012 55.8066 133.496 56.8027C135 57.7988 136.787 58.2969 138.858 58.2969C140.928 58.2969 142.705 57.7988 144.19 56.8027C145.694 55.8066 146.836 54.332 147.618 52.3789C148.418 50.4258 148.819 48.0625 148.819 45.2891ZM199.109 66.5H190.613L173.386 41.5977H173.093V66.5H163.132V24.0781H171.745L188.796 48.9805H189.148V24.0781H199.109V66.5ZM231.645 37.9062C231.137 36.1094 230.189 34.7227 228.803 33.7461C227.416 32.7695 225.688 32.2812 223.617 32.2812C221.547 32.2812 219.74 32.7891 218.197 33.8047C216.674 34.8203 215.492 36.3047 214.652 38.2578C213.832 40.1914 213.422 42.5156 213.422 45.2305C213.422 47.9844 213.822 50.3379 214.623 52.291C215.424 54.2441 216.586 55.7383 218.109 56.7734C219.633 57.7891 221.469 58.2969 223.617 58.2969C226.41 58.2969 228.588 57.623 230.15 56.2754C231.713 54.9082 232.523 53.0625 232.582 50.7383H224.027V43.4141H242.191V48.9805C242.191 52.6719 241.4 55.8848 239.818 58.6191C238.236 61.3535 236.029 63.4531 233.197 64.918C230.385 66.3633 227.172 67.0859 223.559 67.0859C219.535 67.0859 215.99 66.207 212.924 64.4492C209.857 62.6914 207.475 60.1719 205.775 56.8906C204.076 53.6094 203.227 49.7617 203.227 45.3477C203.227 40.8359 204.105 36.9395 205.863 33.6582C207.641 30.3574 210.053 27.8379 213.1 26.0996C216.166 24.3613 219.594 23.4922 223.383 23.4922C226.605 23.4922 229.545 24.1074 232.201 25.3379C234.877 26.5684 237.055 28.2773 238.734 30.4648C240.414 32.6523 241.43 35.1328 241.781 37.9062H231.645ZM282.403 66.5H273.907L256.68 41.5977H256.387V66.5H246.427V24.0781H255.04L272.091 48.9805H272.442V24.0781H282.403V66.5ZM285.056 66.5L299.47 24.0781H312.712L327.068 66.5H316.345L313.474 57.418H298.709L295.837 66.5H285.056ZM311.072 49.8008L306.267 34.5664H305.916L301.111 49.8008H311.072ZM342.143 24.0781L353.1 50.7969H353.569L364.526 24.0781H376.889V66.5H367.163V40.1328H366.811L356.498 66.2656H350.17L339.858 40.0156H339.506V66.5H329.78V24.0781H342.143ZM393.152 66.5V24.0781H408.68C412.977 24.0781 416.697 24.9277 419.842 26.627C422.986 28.3262 425.398 30.7676 427.078 33.9512C428.758 37.1348 429.598 40.9141 429.598 45.2891C429.598 49.6641 428.758 53.4434 427.078 56.627C425.398 59.8105 422.986 62.252 419.842 63.9512C416.697 65.6504 412.977 66.5 408.68 66.5H393.152ZM408.328 57.9453C412.078 57.9453 414.891 56.959 416.766 54.9863C418.641 52.9941 419.578 49.7617 419.578 45.2891C419.578 40.7969 418.631 37.5547 416.736 35.5625C414.861 33.5703 412.02 32.5742 408.211 32.5742H403.113V57.9453H408.328ZM443.677 66.5H433.716V24.0781H443.677V66.5ZM476.212 37.9062C475.705 36.1094 474.757 34.7227 473.371 33.7461C471.984 32.7695 470.255 32.2812 468.185 32.2812C466.115 32.2812 464.308 32.7891 462.765 33.8047C461.242 34.8203 460.06 36.3047 459.22 38.2578C458.4 40.1914 457.99 42.5156 457.99 45.2305C457.99 47.9844 458.39 50.3379 459.191 52.291C459.992 54.2441 461.154 55.7383 462.677 56.7734C464.201 57.7891 466.037 58.2969 468.185 58.2969C470.978 58.2969 473.156 57.623 474.718 56.2754C476.281 54.9082 477.091 53.0625 477.15 50.7383H468.595V43.4141H486.759V48.9805C486.759 52.6719 485.968 55.8848 484.386 58.6191C482.804 61.3535 480.597 63.4531 477.765 64.918C474.953 66.3633 471.74 67.0859 468.127 67.0859C464.103 67.0859 460.558 66.207 457.492 64.4492C454.425 62.6914 452.043 60.1719 450.343 56.8906C448.644 53.6094 447.795 49.7617 447.795 45.3477C447.795 40.8359 448.673 36.9395 450.431 33.6582C452.209 30.3574 454.621 27.8379 457.668 26.0996C460.734 24.3613 464.162 23.4922 467.951 23.4922C471.173 23.4922 474.113 24.1074 476.769 25.3379C479.445 26.5684 481.623 28.2773 483.302 30.4648C484.982 32.6523 485.998 35.1328 486.349 37.9062H476.212ZM500.955 66.5H490.995V24.0781H500.955V66.5ZM504.136 24.0781H539.82V32.2227H526.929V66.5H517.027V32.2227H504.136V24.0781ZM535.734 66.5L550.148 24.0781H563.391L577.746 66.5H567.023L564.152 57.418H549.387L546.516 66.5H535.734ZM561.75 49.8008L556.945 34.5664H556.594L551.789 49.8008H561.75ZM580.458 24.0781H590.419V58.3555H608.231V66.5H580.458V24.0781Z" fill="#1D1D1D" fill-opacity="0.03"/>
<path d="M19.957 146.5H6.48047V81.4531H19.957V146.5ZM82.4236 146.5H70.7439L42.1736 105.172H41.6345V146.5H28.158V81.4531H40.0173L68.408 122.781H69.0369V81.4531H82.4236V146.5ZM144.89 146.5H133.21L104.64 105.172H104.101V146.5H90.6245V81.4531H102.484L130.875 122.781H131.503V81.4531H144.89V146.5ZM212.658 113.977C212.658 120.865 211.34 126.839 208.704 131.9C206.069 136.932 202.445 140.78 197.833 143.445C193.251 146.081 188.07 147.398 182.29 147.398C176.48 147.398 171.269 146.066 166.658 143.4C162.046 140.735 158.422 136.887 155.786 131.855C153.151 126.794 151.833 120.835 151.833 113.977C151.833 107.089 153.151 101.129 155.786 96.0977C158.422 91.0365 162.046 87.1882 166.658 84.5527C171.269 81.8874 176.48 80.5547 182.29 80.5547C188.07 80.5547 193.251 81.8874 197.833 84.5527C202.445 87.1882 206.069 91.0365 208.704 96.0977C211.34 101.129 212.658 107.089 212.658 113.977ZM198.911 113.977C198.911 109.395 198.223 105.501 196.845 102.297C195.497 99.0924 193.581 96.6667 191.095 95.0195C188.609 93.3424 185.674 92.5039 182.29 92.5039C178.906 92.5039 175.956 93.3424 173.441 95.0195C170.955 96.6667 169.023 99.1074 167.646 102.342C166.268 105.546 165.579 109.424 165.579 113.977C165.579 118.529 166.268 122.422 167.646 125.656C169.023 128.861 170.955 131.301 173.441 132.979C175.956 134.626 178.906 135.449 182.29 135.449C185.674 135.449 188.609 134.626 191.095 132.979C193.581 131.301 195.497 128.861 196.845 125.656C198.223 122.452 198.911 118.559 198.911 113.977ZM243.14 131.047H243.769L259.671 81.4531H274.585L252.124 146.5H234.784L212.233 81.4531H227.327L243.14 131.047ZM266.973 146.5L289.524 81.4531H306.864L329.325 146.5H314.86L309.964 131.496H286.425L281.528 146.5H266.973ZM306.55 120.984L298.419 96.0977H297.97L289.839 120.984H306.55ZM323.42 81.4531H376.698V92.5938H356.753V146.5H343.366V92.5938H323.42V81.4531ZM395.77 146.5H382.293V81.4531H395.77V146.5ZM463.537 113.977C463.537 120.865 462.219 126.839 459.584 131.9C456.949 136.932 453.325 140.78 448.713 143.445C444.131 146.081 438.95 147.398 433.17 147.398C427.36 147.398 422.149 146.066 417.537 143.4C412.925 140.735 409.302 136.887 406.666 131.855C404.031 126.794 402.713 120.835 402.713 113.977C402.713 107.089 404.031 101.129 406.666 96.0977C409.302 91.0365 412.925 87.1882 417.537 84.5527C422.149 81.8874 427.36 80.5547 433.17 80.5547C438.95 80.5547 444.131 81.8874 448.713 84.5527C453.325 87.1882 456.949 91.0365 459.584 96.0977C462.219 101.129 463.537 107.089 463.537 113.977ZM449.791 113.977C449.791 109.395 449.102 105.501 447.725 102.297C446.377 99.0924 444.46 96.6667 441.975 95.0195C439.489 93.3424 436.554 92.5039 433.17 92.5039C429.786 92.5039 426.836 93.3424 424.32 95.0195C421.835 96.6667 419.903 99.1074 418.525 102.342C417.148 105.546 416.459 109.424 416.459 113.977C416.459 118.529 417.148 122.422 418.525 125.656C419.903 128.861 421.835 131.301 424.32 132.979C426.836 134.626 429.786 135.449 433.17 135.449C436.554 135.449 439.489 134.626 441.975 132.979C444.46 131.301 446.377 128.861 447.725 125.656C449.102 122.452 449.791 118.559 449.791 113.977ZM524.746 146.5H513.066L484.496 105.172H483.957V146.5H470.48V81.4531H482.34L510.73 122.781H511.359V81.4531H524.746V146.5ZM548.874 81.4531H602.152V92.5938H582.206V146.5H568.82V92.5938H548.874V81.4531ZM661.564 81.4531V123.68C661.564 128.382 660.441 132.529 658.194 136.123C655.948 139.717 652.789 142.502 648.716 144.479C644.643 146.425 639.941 147.398 634.61 147.398C629.28 147.398 624.578 146.425 620.505 144.479C616.462 142.502 613.318 139.717 611.071 136.123C608.855 132.529 607.747 128.382 607.747 123.68V81.4531H621.224V122.602C621.224 125.087 621.778 127.318 622.886 129.295C623.994 131.242 625.566 132.769 627.603 133.877C629.639 134.985 631.975 135.539 634.61 135.539C637.276 135.539 639.627 134.985 641.663 133.877C643.7 132.769 645.257 131.242 646.335 129.295C647.443 127.318 647.997 125.087 647.997 122.602V81.4531H661.564ZM669.765 81.4531H695.64C700.311 81.4531 704.265 82.1569 707.499 83.5645C710.733 84.972 713.159 86.9336 714.776 89.4492C716.393 91.9349 717.202 94.8398 717.202 98.1641C717.202 101.848 716.124 104.887 713.968 107.283C711.841 109.679 709.026 111.281 705.522 112.09V112.719C708.038 112.839 710.374 113.557 712.53 114.875C714.716 116.193 716.468 118.035 717.786 120.4C719.134 122.736 719.807 125.447 719.807 128.531C719.807 132.035 718.939 135.135 717.202 137.83C715.495 140.525 712.949 142.652 709.565 144.209C706.211 145.736 702.138 146.5 697.347 146.5H669.765V81.4531ZM694.651 135.359C698.425 135.359 701.225 134.656 703.052 133.248C704.878 131.811 705.792 129.819 705.792 127.273C705.792 125.447 705.343 123.829 704.444 122.422C703.576 121.014 702.333 119.921 700.716 119.143C699.099 118.334 697.197 117.93 695.011 117.93H683.241V135.359H694.651ZM693.663 108.676C695.55 108.676 697.242 108.346 698.739 107.688C700.237 106.999 701.405 106.025 702.243 104.768C703.112 103.51 703.546 102.027 703.546 100.32C703.546 97.9245 702.692 96.0078 700.985 94.5703C699.308 93.1328 696.957 92.4141 693.932 92.4141H683.241V108.676H693.663ZM725.583 81.4531H769.247V92.5938H739.059V108.406H767.001V119.547H739.059V135.359H769.337V146.5H725.583V81.4531Z" fill="#1D1D1D" fill-opacity="0.03"/>
</svg>
