<svg width="87" height="332" viewBox="0 0 87 332" fill="none" xmlns="http://www.w3.org/2000/svg">
<path d="M86.5 1H87V0.5H86.5V1ZM86.5 329V329.5H87V329H86.5ZM7 329L12 331.887V326.113L7 329ZM0.5 1.5H1.47727V0.5H0.5V1.5ZM3.43182 1.5H5.38636V0.5H3.43182V1.5ZM7.34091 1.5H9.29545V0.5H7.34091V1.5ZM11.25 1.5H13.2045V0.5H11.25V1.5ZM15.1591 1.5H17.1136V0.5H15.1591V1.5ZM19.0682 1.5H21.0227V0.5H19.0682V1.5ZM22.9773 1.5H24.9318V0.5H22.9773V1.5ZM26.8864 1.5H28.8409V0.5H26.8864V1.5ZM30.7955 1.5H32.75V0.5H30.7955V1.5ZM34.7045 1.5H36.6591V0.5H34.7045V1.5ZM38.6136 1.5H40.5682V0.5H38.6136V1.5ZM42.5227 1.5H44.4773V0.5H42.5227V1.5ZM46.4318 1.5H48.3864V0.5H46.4318V1.5ZM50.3409 1.5H52.2954V0.5H50.3409V1.5ZM54.25 1.5H56.2045V0.5H54.25V1.5ZM58.1591 1.5H60.1136V0.5H58.1591V1.5ZM62.0682 1.5H64.0227V0.5H62.0682V1.5ZM65.9773 1.5H67.9318V0.5H65.9773V1.5ZM69.8863 1.5H71.8409V0.5H69.8863V1.5ZM73.7954 1.5H75.75V0.5H73.7954V1.5ZM77.7045 1.5H79.6591V0.5H77.7045V1.5ZM81.6136 1.5H83.5682V0.5H81.6136V1.5ZM85.5227 1.5H86.5V0.5H85.5227V1.5ZM86 1V2H87V1H86ZM86 4V6H87V4H86ZM86 8V10H87V8H86ZM86 12V14H87V12H86ZM86 16V18H87V16H86ZM86 20V22H87V20H86ZM86 24V26H87V24H86ZM86 28V30H87V28H86ZM86 32V34H87V32H86ZM86 36V38H87V36H86ZM86 40V42H87V40H86ZM86 44V46H87V44H86ZM86 48V50H87V48H86ZM86 52V54H87V52H86ZM86 56V58H87V56H86ZM86 60V62H87V60H86ZM86 64V66H87V64H86ZM86 68V70H87V68H86ZM86 72V74H87V72H86ZM86 76V78H87V76H86ZM86 80V82H87V80H86ZM86 84V86H87V84H86ZM86 88V90H87V88H86ZM86 92V94H87V92H86ZM86 96V98H87V96H86ZM86 100V102H87V100H86ZM86 104V106H87V104H86ZM86 108V110H87V108H86ZM86 112V114H87V112H86ZM86 116V118H87V116H86ZM86 120V122H87V120H86ZM86 124V126H87V124H86ZM86 128V130H87V128H86ZM86 132V134H87V132H86ZM86 136V138H87V136H86ZM86 140V142H87V140H86ZM86 144V146H87V144H86ZM86 148V150H87V148H86ZM86 152V154H87V152H86ZM86 156V158H87V156H86ZM86 160V162H87V160H86ZM86 164V166H87V164H86ZM86 168V170H87V168H86ZM86 172V174H87V172H86ZM86 176V178H87V176H86ZM86 180V182H87V180H86ZM86 184V186H87V184H86ZM86 188V190H87V188H86ZM86 192V194H87V192H86ZM86 196V198H87V196H86ZM86 200V202H87V200H86ZM86 204V206H87V204H86ZM86 208V210H87V208H86ZM86 212V214H87V212H86ZM86 216V218H87V216H86ZM86 220V222H87V220H86ZM86 224V226H87V224H86ZM86 228V230H87V228H86ZM86 232V234H87V232H86ZM86 236V238H87V236H86ZM86 240V242H87V240H86ZM86 244V246H87V244H86ZM86 248V250H87V248H86ZM86 252V254H87V252H86ZM86 256V258H87V256H86ZM86 260V262H87V260H86ZM86 264V266H87V264H86ZM86 268V270H87V268H86ZM86 272V274H87V272H86ZM86 276V278H87V276H86ZM86 280V282H87V280H86ZM86 284V286H87V284H86ZM86 288V290H87V288H86ZM86 292V294H87V292H86ZM86 296V298H87V296H86ZM86 300V302H87V300H86ZM86 304V306H87V304H86ZM86 308V310H87V308H86ZM86 312V314H87V312H86ZM86 316V318H87V316H86ZM86 320V322H87V320H86ZM86 324V326H87V324H86ZM86 328V329H87V328H86ZM86.5 328.5H85.5062V329.5H86.5V328.5ZM83.5188 328.5H81.5312V329.5H83.5188V328.5ZM79.5437 328.5H77.5563V329.5H79.5437V328.5ZM75.5687 328.5H73.5813V329.5H75.5687V328.5ZM71.5938 328.5H69.6062V329.5H71.5938V328.5ZM67.6188 328.5H65.6312V329.5H67.6188V328.5ZM63.6437 328.5H61.6563V329.5H63.6437V328.5ZM59.6688 328.5H57.6813V329.5H59.6688V328.5ZM55.6938 328.5H53.7063V329.5H55.6938V328.5ZM51.7188 328.5H49.7313V329.5H51.7188V328.5ZM47.7438 328.5H45.7563V329.5H47.7438V328.5ZM43.7688 328.5H41.7813V329.5H43.7688V328.5ZM39.7938 328.5H37.8063V329.5H39.7938V328.5ZM35.8188 328.5H33.8313V329.5H35.8188V328.5ZM31.8438 328.5H29.8563V329.5H31.8438V328.5ZM27.8688 328.5H25.8813V329.5H27.8688V328.5ZM23.8938 328.5H21.9063V329.5H23.8938V328.5ZM19.9188 328.5H17.9313V329.5H19.9188V328.5ZM15.9438 328.5H13.9563V329.5H15.9438V328.5ZM11.9688 328.5H9.98125V329.5H11.9688V328.5Z" fill="#555555"/>
</svg>
