<svg width="50" height="50" viewBox="0 0 50 50" fill="none" xmlns="http://www.w3.org/2000/svg">
<path d="M12.3849 28.3218V15.2433C12.3849 14.6467 12.8675 14.1641 13.4641 14.1641H36.752C37.4894 14.1641 38.0927 14.7674 38.0927 15.5048V28.3151" fill="white"/>
<path d="M12.3849 28.3218V15.2433C12.3849 14.6467 12.8675 14.1641 13.4641 14.1641H36.752C37.4894 14.1641 38.0927 14.7674 38.0927 15.5048V28.3151" stroke="#1D1D1D" stroke-width="2" stroke-miterlimit="10" stroke-linecap="round" stroke-linejoin="round"/>
<path d="M3 45.6674C5.28589 45.6674 7.31034 44.4205 8.53037 42.5234C9.7504 44.4205 11.7749 45.6674 14.0607 45.6674C16.3466 45.6674 18.3711 44.4205 19.5911 42.5234C20.8111 44.4205 22.8356 45.6674 25.1215 45.6674C27.4074 45.6674 29.4318 44.4205 30.6518 42.5234C31.8719 44.4205 33.8963 45.6674 36.1822 45.6674C38.4681 45.6674 40.4925 44.4205 41.7126 42.5234C42.9326 44.4205 44.9571 45.6674 47.243 45.6674" stroke="#1D1D1D" stroke-width="2" stroke-miterlimit="10" stroke-linecap="round" stroke-linejoin="round"/>
<path d="M17.6337 44.0274C10.528 39.9584 7.40417 31.0227 7.40417 31.0227L24.9003 22.1875" fill="white"/>
<path d="M17.6337 44.0274C10.528 39.9584 7.40417 31.0227 7.40417 31.0227L24.9003 22.1875" stroke="#1D1D1D" stroke-width="2" stroke-miterlimit="10" stroke-linecap="round" stroke-linejoin="round"/>
<path d="M32.6897 44.462C40.3785 40.6411 43.737 31.0149 43.737 31.0149L24.9002 22.1797" fill="white"/>
<path d="M32.6897 44.462C40.3785 40.6411 43.737 31.0149 43.737 31.0149L24.9002 22.1797" stroke="#1D1D1D" stroke-width="2" stroke-miterlimit="10" stroke-linecap="round" stroke-linejoin="round"/>
<path d="M29.7737 43.3226L28.7615 36.418H22.0446L20.8312 43.8789" fill="white"/>
<path d="M29.7737 43.3226L28.7615 36.418H22.0446L20.8312 43.8789" stroke="#1D1D1D" stroke-width="2" stroke-miterlimit="10" stroke-linecap="round" stroke-linejoin="round"/>
<path d="M23.1171 13.9022V5H27.3604V13.9022" fill="white"/>
<path d="M23.1171 13.9022V5H27.3604V13.9022" stroke="#1D1D1D" stroke-width="2" stroke-miterlimit="10" stroke-linecap="round" stroke-linejoin="round"/>
<path d="M9.44873 35.1924L24.9002 27.3359" stroke="#1D1D1D" stroke-width="2" stroke-miterlimit="10" stroke-linecap="round" stroke-linejoin="round"/>
<path d="M41.3573 35.1924L24.9003 27.3359" stroke="#1D1D1D" stroke-width="2" stroke-miterlimit="10" stroke-linecap="round" stroke-linejoin="round"/>
<path d="M16.6684 17.5156H36.4906" stroke="#E60024" stroke-width="2" stroke-miterlimit="10" stroke-linecap="round" stroke-linejoin="round" stroke-dasharray="2 2"/>
</svg>
