<svg width="370" height="85" viewBox="0 0 370 85" fill="none" xmlns="http://www.w3.org/2000/svg">
<path d="M13.4824 17.1094C13.2624 16.3307 12.8519 15.7298 12.251 15.3066C11.6501 14.8835 10.901 14.6719 10.0039 14.6719C9.10677 14.6719 8.32389 14.8919 7.65527 15.332C6.99512 15.7721 6.48307 16.4154 6.11914 17.2617C5.76367 18.0996 5.58594 19.1068 5.58594 20.2832C5.58594 21.4766 5.75944 22.4964 6.10645 23.3428C6.45345 24.1891 6.95703 24.8366 7.61719 25.2852C8.27734 25.7253 9.07292 25.9453 10.0039 25.9453C11.2142 25.9453 12.1579 25.6533 12.835 25.0693C13.512 24.4769 13.8633 23.6771 13.8887 22.6699H10.1816V19.4961H18.0527V21.9082C18.0527 23.5078 17.71 24.9001 17.0244 26.085C16.3389 27.2699 15.3825 28.1797 14.1553 28.8145C12.9365 29.4408 11.5443 29.7539 9.97852 29.7539C8.23503 29.7539 6.69889 29.373 5.37012 28.6113C4.04134 27.8496 3.00879 26.7578 2.27246 25.3359C1.53613 23.9141 1.16797 22.2467 1.16797 20.334C1.16797 18.3789 1.54883 16.6904 2.31055 15.2686C3.08073 13.8382 4.12598 12.7464 5.44629 11.9932C6.77507 11.2399 8.26042 10.8633 9.90234 10.8633C11.2988 10.8633 12.5726 11.1299 13.7236 11.6631C14.8831 12.1963 15.8268 12.9368 16.5547 13.8848C17.2826 14.8327 17.7227 15.9076 17.875 17.1094H13.4824ZM22.9856 11.1172L26.9466 18.8359H27.0989L31.0598 11.1172H35.8841L29.1809 23.2793V29.5H24.8645V23.2793L18.136 11.1172H22.9856ZM36.9576 11.1172H49.6783V14.6465H41.274V18.5312H49.0181V22.0605H41.274V25.9707H49.7037V29.5H36.9576V11.1172ZM68.9061 20.3086C68.9061 22.2806 68.5252 23.9775 67.7635 25.3994C67.0103 26.8213 65.9692 27.9046 64.6405 28.6494C63.3202 29.3857 61.8306 29.7539 60.1717 29.7539C58.5044 29.7539 57.0106 29.3815 55.6903 28.6367C54.37 27.8919 53.3289 26.8086 52.5672 25.3867C51.814 23.9648 51.4373 22.2721 51.4373 20.3086C51.4373 18.3366 51.814 16.6396 52.5672 15.2178C53.3289 13.7959 54.37 12.7168 55.6903 11.9805C57.0106 11.2357 58.5044 10.8633 60.1717 10.8633C61.8306 10.8633 63.3202 11.2357 64.6405 11.9805C65.9692 12.7168 67.0103 13.7959 67.7635 15.2178C68.5252 16.6396 68.9061 18.3366 68.9061 20.3086ZM64.4881 20.3086C64.4881 19.1068 64.3146 18.0827 63.9676 17.2363C63.6291 16.39 63.134 15.751 62.4823 15.3193C61.839 14.8877 61.0689 14.6719 60.1717 14.6719C59.2746 14.6719 58.5002 14.8877 57.8485 15.3193C57.2052 15.751 56.7101 16.39 56.3631 17.2363C56.0246 18.0827 55.8553 19.1068 55.8553 20.3086C55.8553 21.5104 56.0246 22.5345 56.3631 23.3809C56.7101 24.2272 57.2052 24.8662 57.8485 25.2979C58.5002 25.7295 59.2746 25.9453 60.1717 25.9453C61.0689 25.9453 61.839 25.7295 62.4823 25.2979C63.134 24.8662 63.6291 24.2272 63.9676 23.3809C64.3146 22.5345 64.4881 21.5104 64.4881 20.3086ZM86.2804 29.5H82.5987L75.1339 18.709H75.007V29.5H70.6905V11.1172H74.423L81.8116 21.9082H81.964V11.1172H86.2804V29.5ZM100.379 17.1094C100.159 16.3307 99.7488 15.7298 99.1479 15.3066C98.5469 14.8835 97.7979 14.6719 96.9008 14.6719C96.0036 14.6719 95.2208 14.8919 94.5521 15.332C93.892 15.7721 93.3799 16.4154 93.016 17.2617C92.6605 18.0996 92.4828 19.1068 92.4828 20.2832C92.4828 21.4766 92.6563 22.4964 93.0033 23.3428C93.3503 24.1891 93.8539 24.8366 94.5141 25.2852C95.1742 25.7253 95.9698 25.9453 96.9008 25.9453C98.1111 25.9453 99.0548 25.6533 99.7318 25.0693C100.409 24.4769 100.76 23.6771 100.786 22.6699H97.0785V19.4961H104.95V21.9082C104.95 23.5078 104.607 24.9001 103.921 26.085C103.236 27.2699 102.279 28.1797 101.052 28.8145C99.8334 29.4408 98.4411 29.7539 96.8754 29.7539C95.1319 29.7539 93.5958 29.373 92.267 28.6113C90.9382 27.8496 89.9057 26.7578 89.1693 25.3359C88.433 23.9141 88.0648 22.2467 88.0648 20.334C88.0648 18.3789 88.4457 16.6904 89.2074 15.2686C89.9776 13.8382 91.0229 12.7464 92.3432 11.9932C93.6719 11.2399 95.1573 10.8633 96.7992 10.8633C98.1957 10.8633 99.4695 11.1299 100.621 11.6631C101.78 12.1963 102.724 12.9368 103.452 13.8848C104.179 14.8327 104.62 15.9076 104.772 17.1094H100.379ZM122.375 29.5H118.693L111.228 18.709H111.101V29.5H106.785V11.1172H110.517L117.906 21.9082H118.058V11.1172H122.375V29.5ZM123.524 29.5L129.77 11.1172H135.509L141.729 29.5H137.083L135.839 25.5645H129.44L128.196 29.5H123.524ZM134.798 22.2637L132.716 15.6621H132.563L130.481 22.2637H134.798ZM148.262 11.1172L153.01 22.6953H153.213L157.961 11.1172H163.319V29.5H159.104V18.0742H158.951L154.483 29.3984H151.74L147.272 18.0234H147.119V29.5H142.905V11.1172H148.262ZM170.366 29.5V11.1172H177.095C178.957 11.1172 180.569 11.4854 181.931 12.2217C183.294 12.958 184.339 14.016 185.067 15.3955C185.795 16.7751 186.159 18.4128 186.159 20.3086C186.159 22.2044 185.795 23.8421 185.067 25.2217C184.339 26.6012 183.294 27.6592 181.931 28.3955C180.569 29.1318 178.957 29.5 177.095 29.5H170.366ZM176.942 25.793C178.567 25.793 179.786 25.3656 180.598 24.5107C181.411 23.6475 181.817 22.2467 181.817 20.3086C181.817 18.362 181.407 16.957 180.586 16.0938C179.773 15.2305 178.542 14.7988 176.891 14.7988H174.682V25.793H176.942ZM192.26 29.5H187.943V11.1172H192.26V29.5ZM206.359 17.1094C206.139 16.3307 205.728 15.7298 205.127 15.3066C204.526 14.8835 203.777 14.6719 202.88 14.6719C201.983 14.6719 201.2 14.8919 200.532 15.332C199.871 15.7721 199.359 16.4154 198.995 17.2617C198.64 18.0996 198.462 19.1068 198.462 20.2832C198.462 21.4766 198.636 22.4964 198.983 23.3428C199.33 24.1891 199.833 24.8366 200.494 25.2852C201.154 25.7253 201.949 25.9453 202.88 25.9453C204.091 25.9453 205.034 25.6533 205.711 25.0693C206.388 24.4769 206.74 23.6771 206.765 22.6699H203.058V19.4961H210.929V21.9082C210.929 23.5078 210.586 24.9001 209.901 26.085C209.215 27.2699 208.259 28.1797 207.032 28.8145C205.813 29.4408 204.421 29.7539 202.855 29.7539C201.111 29.7539 199.575 29.373 198.246 28.6113C196.918 27.8496 195.885 26.7578 195.149 25.3359C194.412 23.9141 194.044 22.2467 194.044 20.334C194.044 18.3789 194.425 16.6904 195.187 15.2686C195.957 13.8382 197.002 12.7464 198.323 11.9932C199.651 11.2399 201.137 10.8633 202.779 10.8633C204.175 10.8633 205.449 11.1299 206.6 11.6631C207.759 12.1963 208.703 12.9368 209.431 13.8848C210.159 14.8327 210.599 15.9076 210.751 17.1094H206.359ZM217.081 29.5H212.764V11.1172H217.081V29.5ZM218.459 11.1172H233.922V14.6465H228.336V29.5H224.045V14.6465H218.459V11.1172ZM232.152 29.5L238.398 11.1172H244.136L250.357 29.5H245.71L244.466 25.5645H238.068L236.823 29.5H232.152ZM243.425 22.2637L241.343 15.6621H241.191L239.109 22.2637H243.425ZM251.532 11.1172H255.848V25.9707H263.567V29.5H251.532V11.1172Z" fill="#1D1D1D" fill-opacity="0.03"/>
<path d="M9.06641 67.5H2.62109V36.3906H9.06641V67.5ZM38.9417 67.5H33.3558L19.6917 47.7344H19.4339V67.5H12.9886V36.3906H18.6605L32.2386 56.1562H32.5394V36.3906H38.9417V67.5ZM68.817 67.5H63.2311L49.567 47.7344H49.3092V67.5H42.8639V36.3906H48.5358L62.1139 56.1562H62.4147V36.3906H68.817V67.5ZM101.228 51.9453C101.228 55.2396 100.597 58.097 99.3369 60.5176C98.0765 62.9238 96.3434 64.7643 94.1377 66.0391C91.9463 67.2995 89.4684 67.9297 86.7041 67.9297C83.9254 67.9297 81.4332 67.2923 79.2275 66.0176C77.0218 64.7428 75.2887 62.9023 74.0283 60.4961C72.7679 58.0755 72.1377 55.2253 72.1377 51.9453C72.1377 48.651 72.7679 45.8008 74.0283 43.3945C75.2887 40.974 77.0218 39.1335 79.2275 37.873C81.4332 36.5983 83.9254 35.9609 86.7041 35.9609C89.4684 35.9609 91.9463 36.5983 94.1377 37.873C96.3434 39.1335 98.0765 40.974 99.3369 43.3945C100.597 45.8008 101.228 48.651 101.228 51.9453ZM94.6533 51.9453C94.6533 49.7539 94.3239 47.8919 93.665 46.3594C93.0205 44.8268 92.1038 43.6667 90.915 42.8789C89.7262 42.0768 88.3226 41.6758 86.7041 41.6758C85.0856 41.6758 83.6748 42.0768 82.4716 42.8789C81.2828 43.6667 80.359 44.834 79.7002 46.3809C79.0413 47.9134 78.7119 49.7682 78.7119 51.9453C78.7119 54.1224 79.0413 55.9844 79.7002 57.5312C80.359 59.0638 81.2828 60.2311 82.4716 61.0332C83.6748 61.821 85.0856 62.2148 86.7041 62.2148C88.3226 62.2148 89.7262 61.821 90.915 61.0332C92.1038 60.2311 93.0205 59.0638 93.665 57.5312C94.3239 55.9987 94.6533 54.1367 94.6533 51.9453ZM115.806 60.1094H116.107L123.712 36.3906H130.845L120.103 67.5H111.81L101.025 36.3906H108.243L115.806 60.1094ZM127.205 67.5L137.99 36.3906H146.283L157.025 67.5H150.107L147.765 60.3242H136.507L134.166 67.5H127.205ZM146.132 55.2969L142.244 43.3945H142.029L138.14 55.2969H146.132ZM154.201 36.3906H179.682V41.7188H170.143V67.5H163.74V41.7188H154.201V36.3906ZM188.803 67.5H182.358V36.3906H188.803V67.5ZM221.213 51.9453C221.213 55.2396 220.583 58.097 219.323 60.5176C218.062 62.9238 216.329 64.7643 214.124 66.0391C211.932 67.2995 209.454 67.9297 206.69 67.9297C203.911 67.9297 201.419 67.2923 199.213 66.0176C197.008 64.7428 195.275 62.9023 194.014 60.4961C192.754 58.0755 192.124 55.2253 192.124 51.9453C192.124 48.651 192.754 45.8008 194.014 43.3945C195.275 40.974 197.008 39.1335 199.213 37.873C201.419 36.5983 203.911 35.9609 206.69 35.9609C209.454 35.9609 211.932 36.5983 214.124 37.873C216.329 39.1335 218.062 40.974 219.323 43.3945C220.583 45.8008 221.213 48.651 221.213 51.9453ZM214.639 51.9453C214.639 49.7539 214.31 47.8919 213.651 46.3594C213.006 44.8268 212.09 43.6667 210.901 42.8789C209.712 42.0768 208.308 41.6758 206.69 41.6758C205.072 41.6758 203.661 42.0768 202.458 42.8789C201.269 43.6667 200.345 44.834 199.686 46.3809C199.027 47.9134 198.698 49.7682 198.698 51.9453C198.698 54.1224 199.027 55.9844 199.686 57.5312C200.345 59.0638 201.269 60.2311 202.458 61.0332C203.661 61.821 205.072 62.2148 206.69 62.2148C208.308 62.2148 209.712 61.821 210.901 61.0332C212.09 60.2311 213.006 59.0638 213.651 57.5312C214.31 55.9987 214.639 54.1367 214.639 51.9453ZM250.487 67.5H244.901L231.237 47.7344H230.979V67.5H224.534V36.3906H230.206L243.784 56.1562H244.085V36.3906H250.487V67.5ZM262.027 36.3906H287.507V41.7188H277.968V67.5H271.566V41.7188H262.027V36.3906ZM315.922 36.3906V56.5859C315.922 58.8346 315.385 60.8184 314.31 62.5371C313.236 64.2559 311.725 65.5879 309.777 66.5332C307.829 67.4642 305.581 67.9297 303.031 67.9297C300.482 67.9297 298.233 67.4642 296.285 66.5332C294.351 65.5879 292.848 64.2559 291.773 62.5371C290.713 60.8184 290.183 58.8346 290.183 56.5859V36.3906H296.629V56.0703C296.629 57.2591 296.894 58.3262 297.424 59.2715C297.954 60.2025 298.706 60.9329 299.68 61.4629C300.653 61.9928 301.771 62.2578 303.031 62.2578C304.306 62.2578 305.43 61.9928 306.404 61.4629C307.378 60.9329 308.123 60.2025 308.639 59.2715C309.168 58.3262 309.433 57.2591 309.433 56.0703V36.3906H315.922ZM319.844 36.3906H332.219C334.453 36.3906 336.344 36.7272 337.891 37.4004C339.438 38.0736 340.598 39.0117 341.371 40.2148C342.145 41.4036 342.531 42.793 342.531 44.3828C342.531 46.1445 342.016 47.5983 340.985 48.7441C339.968 49.89 338.621 50.6562 336.945 51.043V51.3438C338.149 51.401 339.266 51.7448 340.297 52.375C341.343 53.0052 342.18 53.8861 342.811 55.0176C343.455 56.1348 343.777 57.431 343.777 58.9062C343.777 60.582 343.362 62.0645 342.531 63.3535C341.715 64.6426 340.498 65.6595 338.879 66.4043C337.275 67.1348 335.327 67.5 333.035 67.5H319.844V36.3906ZM331.746 62.1719C333.551 62.1719 334.89 61.8353 335.764 61.1621C336.638 60.4746 337.074 59.5221 337.074 58.3047C337.074 57.431 336.86 56.6576 336.43 55.9844C336.014 55.3112 335.42 54.7884 334.647 54.416C333.873 54.0293 332.964 53.8359 331.918 53.8359H326.289V62.1719H331.746ZM331.274 49.4102C332.176 49.4102 332.985 49.2526 333.701 48.9375C334.417 48.6081 334.976 48.1426 335.377 47.541C335.792 46.9395 336 46.2305 336 45.4141C336 44.2682 335.592 43.3516 334.776 42.6641C333.973 41.9766 332.849 41.6328 331.402 41.6328H326.289V49.4102H331.274ZM346.54 36.3906H367.422V41.7188H352.985V49.2812H366.348V54.6094H352.985V62.1719H367.465V67.5H346.54V36.3906Z" fill="#1D1D1D" fill-opacity="0.03"/>
</svg>
