<svg width="6" height="43" viewBox="0 0 6 43" fill="none" xmlns="http://www.w3.org/2000/svg">
<path d="M0.333335 40C0.333335 41.4728 1.52724 42.6667 3 42.6667C4.47276 42.6667 5.66667 41.4728 5.66667 40C5.66667 38.5272 4.47276 37.3333 3 37.3333C1.52724 37.3333 0.333335 38.5272 0.333335 40ZM2.5 2.18557e-08L2.5 1L3.5 1L3.5 -2.18557e-08L2.5 2.18557e-08ZM2.5 3L2.5 5L3.5 5L3.5 3L2.5 3ZM2.5 7L2.5 9L3.5 9L3.5 7L2.5 7ZM2.5 11L2.5 13L3.5 13L3.5 11L2.5 11ZM2.5 15L2.5 17L3.5 17L3.5 15L2.5 15ZM2.5 19L2.5 21L3.5 21L3.5 19L2.5 19ZM2.5 23L2.5 25L3.5 25L3.5 23L2.5 23ZM2.5 27L2.5 29L3.5 29L3.5 27L2.5 27ZM2.5 31L2.5 33L3.5 33L3.5 31L2.5 31ZM2.5 35L2.5 37L3.5 37L3.5 35L2.5 35ZM2.5 39L2.5 40L3.5 40L3.5 39L2.5 39Z" fill="#E60024"/>
</svg>
