<svg width="336" height="70" viewBox="0 0 336 70" fill="none" xmlns="http://www.w3.org/2000/svg">
<path d="M335 66.5V67H335.5V66.5H335ZM0.5 66.5L5.5 69.3867V63.6132L0.5 66.5ZM3.48661 67H5.47768V66H3.48661V67ZM7.46875 67H9.45982V66H7.46875V67ZM11.4509 67H13.442V66H11.4509V67ZM15.433 67H17.4241V66H15.433V67ZM19.4152 67H21.4063V66H19.4152V67ZM23.3973 67H25.3884V66H23.3973V67ZM27.3795 67H29.3705V66H27.3795V67ZM31.3616 67H33.3527V66H31.3616V67ZM35.3438 67H37.3348V66H35.3438V67ZM39.3259 67H41.317V66H39.3259V67ZM43.308 67H45.2991V66H43.308V67ZM47.2902 67H49.2812V66H47.2902V67ZM51.2723 67H53.2634V66H51.2723V67ZM55.2544 67H57.2455V66H55.2544V67ZM59.2366 67H61.2277V66H59.2366V67ZM63.2187 67H65.2098V66H63.2187V67ZM67.2009 67H69.1919V66H67.2009V67ZM71.183 67H73.1741V66H71.183V67ZM75.1652 67H77.1562V66H75.1652V67ZM79.1473 67H81.1384V66H79.1473V67ZM83.1295 67H85.1205V66H83.1295V67ZM87.1116 67H89.1027V66H87.1116V67ZM91.0938 67H93.0848V66H91.0938V67ZM95.0759 67H97.067V66H95.0759V67ZM99.0581 67H101.049V66H99.0581V67ZM103.04 67H105.031V66H103.04V67ZM107.022 67H109.013V66H107.022V67ZM111.004 67H112.996V66H111.004V67ZM114.987 67H116.978V66H114.987V67ZM118.969 67H120.96V66H118.969V67ZM122.951 67H124.942V66H122.951V67ZM126.933 67H128.924V66H126.933V67ZM130.915 67H132.906V66H130.915V67ZM134.897 67H136.888V66H134.897V67ZM138.88 67H140.871V66H138.88V67ZM142.862 67H144.853V66H142.862V67ZM146.844 67H148.835V66H146.844V67ZM150.826 67H152.817V66H150.826V67ZM154.808 67H156.799V66H154.808V67ZM158.79 67H160.781V66H158.79V67ZM162.772 67H164.763V66H162.772V67ZM166.755 67H168.746V66H166.755V67ZM170.737 67H172.728V66H170.737V67ZM174.719 67H176.71V66H174.719V67ZM178.701 67H180.692V66H178.701V67ZM182.683 67H184.674V66H182.683V67ZM186.665 67H188.656V66H186.665V67ZM190.647 67H192.639V66H190.647V67ZM194.63 67H196.621V66H194.63V67ZM198.612 67H200.603V66H198.612V67ZM202.594 67H204.585V66H202.594V67ZM206.576 67H208.567V66H206.576V67ZM210.558 67H212.549V66H210.558V67ZM214.54 67H216.531V66H214.54V67ZM218.522 67H220.514V66H218.522V67ZM222.505 67H224.496V66H222.505V67ZM226.487 67H228.478V66H226.487V67ZM230.469 67H232.46V66H230.469V67ZM234.451 67H236.442V66H234.451V67ZM238.433 67H240.424V66H238.433V67ZM242.415 67H244.406V66H242.415V67ZM246.398 67H248.389V66H246.398V67ZM250.38 67H252.371V66H250.38V67ZM254.362 67H256.353V66H254.362V67ZM258.344 67H260.335V66H258.344V67ZM262.326 67H264.317V66H262.326V67ZM266.308 67H268.299V66H266.308V67ZM270.29 67H272.281V66H270.29V67ZM274.272 67H276.263V66H274.272V67ZM278.255 67H280.246V66H278.255V67ZM282.237 67H284.228V66H282.237V67ZM286.219 67H288.21V66H286.219V67ZM290.201 67H292.192V66H290.201V67ZM294.183 67H296.174V66H294.183V67ZM298.165 67H300.156V66H298.165V67ZM302.147 67H304.138V66H302.147V67ZM306.129 67H308.12V66H306.129V67ZM310.111 67H312.103V66H310.111V67ZM314.094 67H316.085V66H314.094V67ZM318.076 67H320.067V66H318.076V67ZM322.058 67H324.049V66H322.058V67ZM326.04 67H328.031V66H326.04V67ZM330.022 67H332.013V66H330.022V67ZM334.004 67H335V66H334.004V67ZM335.5 66.5V65.5221H334.5V66.5H335.5ZM335.5 63.5662V61.6103H334.5V63.5662H335.5ZM335.5 59.6544V57.6985H334.5V59.6544H335.5ZM335.5 55.7426V53.7868H334.5V55.7426H335.5ZM335.5 51.8309V49.875H334.5V51.8309H335.5ZM335.5 47.9191V45.9632H334.5V47.9191H335.5ZM335.5 44.0074V42.0515H334.5V44.0074H335.5ZM335.5 40.0956V38.1397H334.5V40.0956H335.5ZM335.5 36.1838V34.2279H334.5V36.1838H335.5ZM335.5 32.2721V30.3162H334.5V32.2721H335.5ZM335.5 28.3603V26.4044H334.5V28.3603H335.5ZM335.5 24.4485V22.4926H334.5V24.4485H335.5ZM335.5 20.5368V18.5809H334.5V20.5368H335.5ZM335.5 16.625V14.6691H334.5V16.625H335.5ZM335.5 12.7132V10.7573H334.5V12.7132H335.5ZM335.5 8.80146V6.84558H334.5V8.80146H335.5ZM335.5 4.88969V2.93381H334.5V4.88969H335.5ZM335.5 0.977926V0H334.5V0.977926H335.5Z" fill="#555555"/>
</svg>
