<svg width="120" height="120" viewBox="0 0 120 120" fill="none" xmlns="http://www.w3.org/2000/svg">
<path d="M60.0056 34.7055C51.0911 34.7055 43.832 27.3427 43.832 18.301C43.832 9.25922 51.0799 1.89648 60.0056 1.89648C68.9312 1.89648 76.1791 9.25922 76.1791 18.301C76.1791 27.3427 68.9201 34.7055 60.0056 34.7055ZM60.0056 7.00162C53.865 7.00162 48.8653 12.0727 48.8653 18.301C48.8653 24.5292 53.865 29.6003 60.0056 29.6003C66.1462 29.6003 71.1459 24.5292 71.1459 18.301C71.1459 12.0727 66.1462 7.00162 60.0056 7.00162Z" fill="#D8D8D8"/>
<path d="M93.7619 82.6157H26.2491C24.8621 82.6157 23.7324 81.4699 23.7324 80.0632V54.9459C23.7324 44.8604 31.8192 36.6582 41.7627 36.6582H78.2483C88.1918 36.6582 96.2786 44.8604 96.2786 54.9459V80.0632C96.2786 81.4699 95.1489 82.6157 93.7619 82.6157ZM28.7657 77.5106H91.2453V54.9459C91.2453 47.6739 85.4179 41.7633 78.2483 41.7633H41.7627C34.5931 41.7633 28.7657 47.6739 28.7657 54.9459V77.5106Z" fill="#D8D8D8"/>
<path d="M93.7619 82.6145H26.2491C24.8621 82.6145 23.7324 81.4687 23.7324 80.062V69.9198C23.7324 68.513 24.8621 67.3672 26.2491 67.3672C27.636 67.3672 28.7657 68.513 28.7657 69.9198V77.5094H91.2453V69.9198C91.2453 68.513 92.375 67.3672 93.7619 67.3672C95.1489 67.3672 96.2786 68.513 96.2786 69.9198V80.062C96.2786 81.4687 95.1489 82.6145 93.7619 82.6145Z" fill="#D8D8D8"/>
<path d="M38.3623 79.8685C36.9754 79.8685 35.8457 78.5979 35.8457 77.0323V58.0979C35.8457 56.5323 36.9754 55.2617 38.3623 55.2617C39.7493 55.2617 40.879 56.5323 40.879 58.0979V77.0323C40.879 78.5979 39.7493 79.8685 38.3623 79.8685Z" fill="#D8D8D8"/>
<path d="M81.6377 79.8685C80.2508 79.8685 79.1211 78.5979 79.1211 77.0323V58.0979C79.1211 56.5323 80.2508 55.2617 81.6377 55.2617C83.0247 55.2617 84.1544 56.5323 84.1544 58.0979V77.0323C84.1544 78.5979 83.0247 79.8685 81.6377 79.8685Z" fill="#D8D8D8"/>
<path d="M98.1801 118.102H21.8199C10.8921 118.102 2 109.083 2 97.9994C2 86.9156 10.8921 77.8965 21.8199 77.8965H98.1801C109.108 77.8965 118 86.9156 118 97.9994C118 109.083 109.108 118.102 98.1801 118.102ZM21.8199 82.9903C13.666 82.9903 7.03327 89.7177 7.03327 97.988C7.03327 106.258 13.666 112.986 21.8199 112.986H98.1801C106.334 112.986 112.967 106.258 112.967 97.988C112.967 89.7177 106.334 82.9903 98.1801 82.9903H21.8199Z" fill="#1D1D1D"/>
<path d="M33.9542 96.0116C33.7819 95.4784 33.2907 95.1113 32.7392 95.1113H29.2922L28.2237 91.79C28.0513 91.2568 27.5601 90.8984 27.0086 90.8984C26.4571 90.8984 25.9659 91.2568 25.7936 91.79L24.725 95.1113H21.2781C20.7266 95.1113 20.2354 95.4697 20.063 96.0116C19.8907 96.5447 20.0803 97.1303 20.5284 97.4537L23.3118 99.5077L22.2518 102.829C22.0795 103.362 22.2691 103.948 22.7172 104.28C23.1653 104.612 23.7685 104.612 24.2166 104.28L27 102.226L29.7834 104.28C30.0075 104.446 30.2746 104.525 30.5331 104.525C30.7916 104.525 31.0588 104.437 31.2828 104.28C31.7309 103.948 31.9205 103.362 31.7482 102.829L30.6882 99.5077L33.4716 97.4537C33.9197 97.1216 34.1093 96.5447 33.937 96.0116H33.9542Z" fill="#EC4651"/>
<path d="M55.9628 96.0108C55.7903 95.4773 55.2989 95.11 54.747 95.11H51.2979L50.2287 91.7866C50.0563 91.2531 49.5648 90.8945 49.0129 90.8945C48.4611 90.8945 47.9696 91.2531 47.7971 91.7866L46.7279 95.11H43.2789C42.727 95.11 42.2355 95.4686 42.0631 96.0108C41.8906 96.5443 42.0803 97.1303 42.5287 97.4539L45.3138 99.5091L44.2532 102.833C44.0808 103.366 44.2705 103.952 44.7188 104.284C45.1672 104.617 45.7708 104.617 46.2192 104.284L49.0043 102.229L51.7894 104.284C52.0136 104.45 52.2809 104.529 52.5396 104.529C52.7983 104.529 53.0656 104.442 53.2898 104.284C53.7382 103.952 53.9279 103.366 53.7554 102.833L52.6862 99.5091L55.4713 97.4539C55.9197 97.1215 56.1094 96.5443 55.9369 96.0108H55.9628Z" fill="#EC4651"/>
<path d="M77.9542 96.0116C77.7819 95.4784 77.2907 95.1113 76.7392 95.1113H73.2922L72.2237 91.79C72.0513 91.2568 71.5601 90.8984 71.0086 90.8984C70.4571 90.8984 69.9659 91.2568 69.7936 91.79L68.725 95.1113H65.2781C64.7266 95.1113 64.2354 95.4697 64.063 96.0116C63.8907 96.5447 64.0803 97.1303 64.5284 97.4537L67.3118 99.5077L66.2518 102.829C66.0795 103.362 66.2691 103.948 66.7172 104.28C67.1653 104.612 67.7685 104.612 68.2166 104.28L71 102.226L73.7834 104.28C74.0075 104.446 74.2746 104.525 74.5331 104.525C74.7916 104.525 75.0588 104.437 75.2828 104.28C75.7309 103.948 75.9205 103.362 75.7482 102.829L74.6882 99.5077L77.4716 97.4537C77.9197 97.1216 78.1093 96.5447 77.937 96.0116H77.9542Z" fill="#EC4651"/>
<path d="M99.9628 96.0108C99.7903 95.4773 99.2989 95.11 98.747 95.11H95.2979L94.2287 91.7866C94.0563 91.2531 93.5648 90.8945 93.0129 90.8945C92.4611 90.8945 91.9696 91.2531 91.7971 91.7866L90.7279 95.11H87.2789C86.727 95.11 86.2355 95.4686 86.0631 96.0108C85.8906 96.5443 86.0803 97.1303 86.5287 97.4539L89.3138 99.5091L88.2532 102.833C88.0808 103.366 88.2705 103.952 88.7188 104.284C89.1672 104.617 89.7708 104.617 90.2192 104.284L93.0043 102.229L95.7894 104.284C96.0136 104.45 96.2809 104.529 96.5396 104.529C96.7983 104.529 97.0656 104.442 97.2898 104.284C97.7382 103.952 97.9279 103.366 97.7554 102.833L96.6862 99.5091L99.4713 97.4539C99.9197 97.1215 100.109 96.5443 99.9369 96.0108H99.9628Z" fill="#EC4651"/>
</svg>
